<svg width="18" height="18" viewBox="0 0 18 18" fill="none" xmlns="http://www.w3.org/2000/svg">
<g clip-path="url(#clip0_1004_28)">
<path fill-rule="evenodd" clip-rule="evenodd" d="M3.21526 0C2.36278 0 1.54521 0.338647 0.942419 0.941442C0.339623 1.54423 0.000976562 2.36181 0.000976562 3.21429V17.3571C0.000976562 17.5887 0.125558 17.8024 0.327099 17.9166C0.52864 18.0307 0.775983 18.0275 0.974581 17.9083L3.85812 16.1783L6.74166 17.9083C6.94524 18.0306 7.19957 18.0306 7.40315 17.9083L10.2867 16.1783L13.1703 17.9083C13.3688 18.0275 13.6162 18.0307 13.8176 17.9166C14.0192 17.8024 14.1438 17.5887 14.1438 17.3571V7.71429H14.1501V3.21429C14.1501 2.77048 14.5099 2.41071 14.9537 2.41071C15.3975 2.41071 15.7573 2.77048 15.7573 3.21429V7.71429H17.3581C17.7131 7.71429 18.001 7.42647 18.001 7.07143V2.57143C18.001 1.88945 17.7301 1.23539 17.2478 0.753153C16.7655 0.270918 16.1115 0 15.4295 0H3.21526ZM11.3338 6.4207C11.6845 6.01991 11.6439 5.41071 11.2431 5.06002C10.8423 4.70933 10.2331 4.74993 9.88242 5.15073L5.97129 9.62059L4.11526 8.22857C3.68922 7.90903 3.0848 7.99538 2.76526 8.42143C2.44572 8.84748 2.53207 9.45189 2.95812 9.77143L5.52955 11.7C5.93307 12.0026 6.50166 11.9432 6.83382 11.5636L11.3338 6.4207Z" fill="#0E46A3"/>
</g>
<defs>
<clipPath id="clip0_1004_28">
<rect width="18" height="18" fill="Blue"/>
</clipPath>
</defs>
</svg>
