<svg width="18" height="18" viewBox="0 0 18 18" fill="none" xmlns="http://www.w3.org/2000/svg">
<g clip-path="url(#clip0_1004_37)">
<path fill-rule="evenodd" clip-rule="evenodd" d="M10.2857 5.78576C10.2857 7.916 8.55881 9.64291 6.42857 9.64291C4.29834 9.64291 2.57143 7.916 2.57143 5.78576C2.57143 3.65553 4.29834 1.92862 6.42857 1.92862C8.55881 1.92862 10.2857 3.65553 10.2857 5.78576ZM6.42857 10.9286C2.87817 10.9286 0 13.8068 0 17.3572C0 17.7121 0.287817 18 0.642857 18H12.2143C12.5693 18 12.8571 17.7121 12.8571 17.3572C12.8571 13.8068 9.97897 10.9286 6.42857 10.9286ZM17.3573 18H14.3712C14.4319 17.7964 14.4644 17.5805 14.4644 17.3572C14.4644 14.7329 13.2065 12.4025 11.2607 10.936C11.3637 10.9311 11.4673 10.9286 11.5715 10.9286C15.1219 10.9286 18.0001 13.8068 18.0001 17.3572C18.0001 17.7121 17.7123 18 17.3573 18ZM11.5715 9.64291C11.1836 9.64291 10.809 9.58563 10.4559 9.47908C11.3483 8.50653 11.893 7.20976 11.893 5.78576C11.893 4.36177 11.3483 3.065 10.4558 2.09243C10.809 1.98589 11.1836 1.92862 11.5715 1.92862C13.7017 1.92862 15.4287 3.65553 15.4287 5.78576C15.4287 7.916 13.7017 9.64291 11.5715 9.64291Z" fill="white"/>
</g>
<defs>
<clipPath id="clip0_1004_37">
<rect width="18" height="18" fill="white"/>
</clipPath>
</defs>
</svg>
