<svg width="18" height="18" viewBox="0 0 18 18" fill="none" xmlns="http://www.w3.org/2000/svg">
<path d="M6.42889 8.35698C8.20408 8.35698 9.64317 6.91789 9.64317 5.14269C9.64317 3.36749 8.20408 1.92841 6.42889 1.92841C4.65369 1.92841 3.2146 3.36749 3.2146 5.14269C3.2146 6.91789 4.65369 8.35698 6.42889 8.35698Z" stroke="white" stroke-width="1.28571" stroke-linecap="round" stroke-linejoin="round"/>
<path d="M0.643066 17.357H6.42878H12.2145V16.66C12.2043 15.68 11.9458 14.7186 11.4633 13.8656C10.9808 13.0126 10.2899 12.2958 9.45526 11.7822C8.6206 11.2685 7.66938 10.9748 6.69045 10.9285C6.60317 10.9243 6.51593 10.9222 6.42878 10.922C6.34163 10.9222 6.25439 10.9243 6.16711 10.9285C5.18818 10.9748 4.23696 11.2685 3.4023 11.7822C2.56765 12.2958 1.8768 13.0126 1.39427 13.8656C0.911751 14.7186 0.653302 15.68 0.643066 16.66V17.357Z" stroke="white" stroke-width="1.28571" stroke-linecap="round" stroke-linejoin="round"/>
<path d="M11.5715 8.35698C13.3467 8.35698 14.7858 6.91789 14.7858 5.14269C14.7858 3.36749 13.3467 1.92841 11.5715 1.92841" stroke="white" stroke-width="1.28571" stroke-linecap="round" stroke-linejoin="round"/>
<path d="M14.786 17.3571H17.3574V16.66C17.3471 15.68 17.0887 14.7186 16.6062 13.8656C16.1237 13.0126 15.4328 12.2958 14.5982 11.7822C14.0587 11.4501 13.4703 11.21 12.8574 11.0692" stroke="white" stroke-width="1.28571" stroke-linecap="round" stroke-linejoin="round"/>
</svg>
