<svg width="18" height="18" viewBox="0 0 18 18" fill="none" xmlns="http://www.w3.org/2000/svg">
<path d="M6.42913 8.35701C8.20433 8.35701 9.64342 6.91792 9.64342 5.14272C9.64342 3.36752 8.20433 1.92844 6.42913 1.92844C4.65393 1.92844 3.21484 3.36752 3.21484 5.14272C3.21484 6.91792 4.65393 8.35701 6.42913 8.35701Z" stroke="#1E1E1E" stroke-width="1.28571" stroke-linecap="round" stroke-linejoin="round"/>
<path d="M0.643555 17.357H6.42927H12.215V16.66C12.2047 15.68 11.9463 14.7186 11.4638 13.8656C10.9813 13.0126 10.2904 12.2958 9.45575 11.7822C8.62109 11.2685 7.66987 10.9748 6.69094 10.9285C6.60366 10.9243 6.51641 10.9222 6.42927 10.922C6.34212 10.9222 6.25487 10.9243 6.1676 10.9285C5.18867 10.9748 4.23745 11.2685 3.40279 11.7822C2.56814 12.2958 1.87729 13.0126 1.39476 13.8656C0.912239 14.7186 0.65379 15.68 0.643555 16.66V17.357Z" stroke="#1E1E1E" stroke-width="1.28571" stroke-linecap="round" stroke-linejoin="round"/>
<path d="M11.5723 8.35701C13.3475 8.35701 14.7866 6.91792 14.7866 5.14272C14.7866 3.36752 13.3475 1.92844 11.5723 1.92844" stroke="#1E1E1E" stroke-width="1.28571" stroke-linecap="round" stroke-linejoin="round"/>
<path d="M14.786 17.3571H17.3574V16.66C17.3471 15.68 17.0887 14.7186 16.6062 13.8656C16.1237 13.0126 15.4328 12.2958 14.5982 11.7822C14.0587 11.4501 13.4703 11.21 12.8574 11.0692" stroke="#1E1E1E" stroke-width="1.28571" stroke-linecap="round" stroke-linejoin="round"/>
</svg>
