<svg width="32" height="32" viewBox="0 0 32 32" fill="none" xmlns="http://www.w3.org/2000/svg">
<g clip-path="url(#clip0_1204_2146)">
<path d="M1.14288 27.9997V3.99983C1.14288 3.39361 1.3837 2.81224 1.81235 2.38358C2.24101 1.95492 2.82238 1.7141 3.4286 1.7141H11.8629C12.385 1.69889 12.8966 1.86298 13.3125 2.17905C13.7284 2.49512 14.0235 2.9441 14.1486 3.45126L14.8572 6.28554H28.5715C29.1776 6.28554 29.7591 6.52634 30.1877 6.95501C30.6163 7.38367 30.8572 7.96504 30.8572 8.57126V27.9997C30.8572 28.6061 30.6163 29.1874 30.1877 29.616C29.7591 30.0448 29.1776 30.2855 28.5715 30.2855H3.4286C2.82238 30.2855 2.24101 30.0448 1.81235 29.616C1.3837 29.1874 1.14288 28.6061 1.14288 27.9997Z" stroke="#1E1E1E" stroke-width="2.28571" stroke-linecap="round" stroke-linejoin="round"/>
<path d="M16 23V13" stroke="#1E1E1E" stroke-width="1.5" stroke-linecap="round"/>
<path d="M11 18L21 18" stroke="#1E1E1E" stroke-width="1.5" stroke-linecap="round"/>
</g>
<defs>
<clipPath id="clip0_1204_2146">
<rect width="32" height="32" fill="white"/>
</clipPath>
</defs>
</svg>
