<svg width="14" height="14" viewBox="0 0 14 14" fill="none" xmlns="http://www.w3.org/2000/svg">
<g clip-path="url(#clip0_1004_470)">
<path d="M11.6372 3.22959L9.60491 1.19609C9.22652 0.815838 8.7765 0.514367 8.28087 0.309109C7.78525 0.10385 7.25385 -0.00112312 6.71741 0.000257586H4.08366C3.3104 0.00118384 2.56907 0.308772 2.02229 0.855552C1.47551 1.40233 1.16792 2.14366 1.16699 2.91692V11.0836C1.16792 11.8569 1.47551 12.5982 2.02229 13.145C2.56907 13.6917 3.3104 13.9993 4.08366 14.0003H9.91699C10.6903 13.9993 11.4316 13.6917 11.9784 13.145C12.5251 12.5982 12.8327 11.8569 12.8337 11.0836V6.11651C12.8351 5.58009 12.7301 5.04871 12.5247 4.55316C12.3194 4.05761 12.0177 3.60773 11.6372 3.22959V3.22959ZM10.8124 4.05442C10.9905 4.23768 11.1437 4.44362 11.268 4.66692H8.75033C8.59562 4.66692 8.44724 4.60547 8.33785 4.49607C8.22845 4.38667 8.16699 4.2383 8.16699 4.08359V1.56592C8.39037 1.69013 8.59649 1.8431 8.78008 2.02092L10.8124 4.05442ZM11.667 11.0836C11.667 11.5477 11.4826 11.9928 11.1544 12.321C10.8262 12.6492 10.3811 12.8336 9.91699 12.8336H4.08366C3.61953 12.8336 3.17441 12.6492 2.84622 12.321C2.51803 11.9928 2.33366 11.5477 2.33366 11.0836V2.91692C2.33366 2.4528 2.51803 2.00768 2.84622 1.67949C3.17441 1.3513 3.61953 1.16692 4.08366 1.16692H6.71741C6.81308 1.16692 6.90583 1.18559 7.00033 1.19434V4.08359C7.00033 4.54772 7.1847 4.99284 7.51289 5.32103C7.84108 5.64922 8.2862 5.83359 8.75033 5.83359H11.6396C11.6483 5.92809 11.667 6.02026 11.667 6.11651V11.0836Z" fill="#1E1E1E"/>
</g>
<defs>
<clipPath id="clip0_1004_470">
<rect width="14" height="14" fill="white"/>
</clipPath>
</defs>
</svg>
