<svg width="18" height="18" viewBox="0 0 18 18" fill="none" xmlns="http://www.w3.org/2000/svg">
<g clip-path="url(#clip0_1078_4285)">
<path fill-rule="evenodd" clip-rule="evenodd" d="M9 18C13.9706 18 18 13.9706 18 9C18 4.02944 13.9706 0 9 0C4.02944 0 0 4.02944 0 9C0 13.9706 4.02944 18 9 18ZM9.80357 5.78571C9.80357 5.34191 9.4438 4.98214 9 4.98214C8.5562 4.98214 8.19643 5.34191 8.19643 5.78571V9C8.19643 9.18798 8.26233 9.37002 8.38268 9.51444L11.597 13.3716C11.8811 13.7125 12.3878 13.7586 12.7287 13.4744C13.0697 13.1904 13.1157 12.6836 12.8316 12.3427L9.80357 8.70907V5.78571Z" fill="#0E46A3"/>
</g>
<defs>
<clipPath id="clip0_1078_4285">
<rect width="18" height="18" fill="white"/>
</clipPath>
</defs>
</svg>
