<svg width="18" height="18" viewBox="0 0 18 18" fill="none" xmlns="http://www.w3.org/2000/svg">
<g clip-path="url(#clip0_1004_34)">
<path fill-rule="evenodd" clip-rule="evenodd" d="M8.99902 18C13.9696 18 17.999 13.9706 17.999 9C17.999 4.02944 13.9696 0 8.99902 0C4.02846 0 -0.000976562 4.02944 -0.000976562 9C-0.000976562 13.9706 4.02846 18 8.99902 18ZM9.80259 5.78571C9.80259 5.34191 9.44283 4.98214 8.99902 4.98214C8.55522 4.98214 8.19545 5.34191 8.19545 5.78571V9C8.19545 9.18798 8.26136 9.37002 8.3817 9.51444L11.596 13.3716C11.8801 13.7125 12.3868 13.7586 12.7277 13.4744C13.0687 13.1904 13.1147 12.6836 12.8306 12.3427L9.80259 8.70907V5.78571Z" fill="white"/>
</g>
<defs>
<clipPath id="clip0_1004_34">
<rect width="18" height="18" fill="white"/>
</clipPath>
</defs>
</svg>
