<svg width="18" height="18" viewBox="0 0 18 18" fill="none" xmlns="http://www.w3.org/2000/svg">
<g clip-path="url(#clip0_1316_602)">
<path d="M0.642456 15.7498V2.24989C0.642456 1.90889 0.777915 1.58187 1.01903 1.34075C1.26015 1.09963 1.58717 0.964169 1.92817 0.964169H6.67246C6.96615 0.955612 7.25393 1.04791 7.48787 1.2257C7.72179 1.40349 7.88778 1.65604 7.95817 1.94132L8.35674 3.5356H16.071C16.412 3.5356 16.7391 3.67105 16.9802 3.91218C17.2212 4.1533 17.3567 4.48032 17.3567 4.82132V15.7498C17.3567 16.0909 17.2212 16.4179 16.9802 16.659C16.7391 16.9002 16.412 17.0356 16.071 17.0356H1.92817C1.58717 17.0356 1.26015 16.9002 1.01903 16.659C0.777915 16.4179 0.642456 16.0909 0.642456 15.7498Z" stroke="#1E1E1E" stroke-width="1.29" stroke-linecap="round" stroke-linejoin="round"/>
<g clip-path="url(#clip1_1316_602)">
<rect width="8.96204" height="8.96474" transform="translate(9.25 9.24976)" fill="white"/>
<path d="M12.6608 16.5395L10.2501 17.2145L10.9251 14.8038L15.3394 10.4109C15.3893 10.3599 15.4489 10.3194 15.5146 10.2917C15.5804 10.264 15.6511 10.2498 15.7224 10.2498C15.7938 10.2498 15.8645 10.264 15.9302 10.2917C15.996 10.3194 16.0556 10.3599 16.1055 10.4109L17.0537 11.3645C17.1039 11.4143 17.1437 11.4736 17.171 11.5388C17.1982 11.6041 17.2122 11.6741 17.2122 11.7449C17.2122 11.8156 17.1982 11.8856 17.171 11.9509C17.1437 12.0162 17.1039 12.0754 17.0537 12.1252L12.6608 16.5395Z" stroke="#1E1E1E" stroke-linecap="round" stroke-linejoin="round"/>
</g>
</g>
<defs>
<clipPath id="clip0_1316_602">
<rect width="18" height="18" fill="white"/>
</clipPath>
<clipPath id="clip1_1316_602">
<rect width="8.96204" height="8.96474" fill="white" transform="translate(9.25 9.24976)"/>
</clipPath>
</defs>
</svg>
