<svg width="18" height="18" viewBox="0 0 18 18" fill="none" xmlns="http://www.w3.org/2000/svg">
<g clip-path="url(#clip0_1004_363)">
<path d="M0.642578 15.7499V2.24995C0.642578 1.90895 0.778037 1.58193 1.01915 1.34081C1.26027 1.09969 1.5873 0.96423 1.92829 0.96423H6.67258C6.96627 0.955673 7.25406 1.04797 7.48799 1.22576C7.72191 1.40355 7.8879 1.6561 7.95829 1.94138L8.35686 3.53566H16.0711C16.4121 3.53566 16.7392 3.67111 16.9803 3.91224C17.2213 4.15336 17.3569 4.48038 17.3569 4.82138V15.7499C17.3569 16.091 17.2213 16.418 16.9803 16.659C16.7392 16.9002 16.4121 17.0356 16.0711 17.0356H1.92829C1.5873 17.0356 1.26027 16.9002 1.01915 16.659C0.778037 16.418 0.642578 16.091 0.642578 15.7499Z" stroke="#1E1E1E" stroke-width="1.28571" stroke-linecap="round" stroke-linejoin="round"/>
</g>
<defs>
<clipPath id="clip0_1004_363">
<rect width="18" height="18" fill="white"/>
</clipPath>
</defs>
</svg>
