<svg width="18" height="18" viewBox="0 0 18 18" fill="none" xmlns="http://www.w3.org/2000/svg">
<g clip-path="url(#clip0_1004_452)">
<path d="M7.87725 1.03533C7.52908 0.770724 7.10141 0.632363 6.66444 0.642758H1.92857C1.41709 0.642758 0.926542 0.845945 0.564866 1.20762C0.203188 1.5693 0 2.05984 0 2.57133V15.4284C0 15.94 0.203188 16.4305 0.564866 16.7922C0.926542 17.1539 1.41708 17.357 1.92857 17.357H16.0714C16.5829 17.357 17.0735 17.1539 17.4352 16.7922C17.7969 16.4305 18 15.94 18 15.4284V5.14276C18 4.63127 17.7969 4.14073 17.4352 3.77906C17.0735 3.41737 16.5829 3.21419 16.0714 3.21419H8.85907L8.58271 2.10875C8.47697 1.68126 8.22786 1.30181 7.87725 1.03533Z" fill="white"/>
</g>
<defs>
<clipPath id="clip0_1004_452">
<rect width="18" height="18" fill="white"/>
</clipPath>
</defs>
</svg>
