<svg width="18" height="18" viewBox="0 0 18 18" fill="none" xmlns="http://www.w3.org/2000/svg">
<g clip-path="url(#clip0_1078_4932)">
<path fill-rule="evenodd" clip-rule="evenodd" d="M3.21483 0C2.36235 0 1.54478 0.338647 0.941992 0.941442C0.339196 1.54423 0.000549316 2.36181 0.000549316 3.21429V17.3571C0.000549316 17.5887 0.12513 17.8024 0.326672 17.9166C0.528213 18.0307 0.775556 18.0275 0.974154 17.9083L3.85769 16.1783L6.74123 17.9083C6.94481 18.0306 7.19915 18.0306 7.40273 17.9083L10.2863 16.1783L13.1699 17.9083C13.3684 18.0275 13.6157 18.0307 13.8172 17.9166C14.0188 17.8024 14.1434 17.5887 14.1434 17.3571V7.71429H14.1497V3.21429C14.1497 2.77048 14.5094 2.41071 14.9533 2.41071C15.3971 2.41071 15.7568 2.77048 15.7568 3.21429V7.71429H17.3577C17.7127 7.71429 18.0005 7.42647 18.0005 7.07143V2.57143C18.0005 1.88945 17.7296 1.23539 17.2474 0.753153C16.7651 0.270918 16.1111 0 15.4291 0H3.21483ZM3.85769 7.39286C3.32514 7.39286 2.89341 7.82459 2.89341 8.35714C2.89341 8.8897 3.32514 9.32143 3.85769 9.32143H10.2863C10.8188 9.32143 11.2505 8.8897 11.2505 8.35714C11.2505 7.82459 10.8188 7.39286 10.2863 7.39286H3.85769Z" fill="#0E46A3"/>
</g>
<defs>
<clipPath id="clip0_1078_4932">
<rect width="18" height="18" fill="white"/>
</clipPath>
</defs>
</svg>
