<svg width="18" height="18" viewBox="0 0 18 18" fill="none" xmlns="http://www.w3.org/2000/svg">
<g clip-path="url(#clip0_1004_421)">
<path d="M10.286 8.35742H3.85742" stroke="#1E1E1E" stroke-width="1.28571" stroke-linecap="round" stroke-linejoin="round"/>
<path d="M15.4293 0.643127H3.21498C2.533 0.643127 1.87895 0.914045 1.39671 1.39629C0.914473 1.87852 0.643555 2.53257 0.643555 3.21456V17.3574L3.85784 15.4288L7.07213 17.3574L10.2864 15.4288L13.5007 17.3574V2.5717C13.5007 2.06022 13.7038 1.56966 14.0655 1.20799C14.4272 0.846315 14.9178 0.643127 15.4293 0.643127ZM15.4293 0.643127C15.9407 0.643127 16.4314 0.846315 16.793 1.20799C17.1547 1.56966 17.3578 2.06022 17.3578 2.5717V7.0717H13.5007" stroke="#1E1E1E" stroke-width="1.28571" stroke-linecap="round" stroke-linejoin="round"/>
</g>
<defs>
<clipPath id="clip0_1004_421">
<rect width="18" height="18" fill="white"/>
</clipPath>
</defs>
</svg>
