<svg width="18" height="18" viewBox="0 0 18 18" fill="none" xmlns="http://www.w3.org/2000/svg">
<g clip-path="url(#clip0_1004_445)">
<path d="M12.214 13.5002V16.0716C12.214 16.4126 12.0785 16.7397 11.8374 16.9808C11.5963 17.2218 11.2693 17.3574 10.9283 17.3574H1.92829C1.5873 17.3574 1.26027 17.2218 1.01915 16.9808C0.778037 16.7397 0.642578 16.4126 0.642578 16.0716V1.92878C0.642578 1.58778 0.778037 1.26076 1.01915 1.01964C1.26027 0.778525 1.5873 0.643066 1.92829 0.643066H10.9283C11.2693 0.643066 11.5963 0.778525 11.8374 1.01964C12.0785 1.26076 12.214 1.58778 12.214 1.92878V4.50021" stroke="#1E1E1E" stroke-width="1.28571" stroke-linecap="round" stroke-linejoin="round"/>
<path d="M8.35742 9.00024H17.3574" stroke="#1E1E1E" stroke-width="1.28571" stroke-linecap="round" stroke-linejoin="round"/>
<path d="M14.7852 6.42871L17.3566 9.00014L14.7852 11.5716" stroke="#1E1E1E" stroke-width="1.28571" stroke-linecap="round" stroke-linejoin="round"/>
</g>
<defs>
<clipPath id="clip0_1004_445">
<rect width="18" height="18" fill="white"/>
</clipPath>
</defs>
</svg>
