<svg width="18" height="18" viewBox="0 0 18 18" fill="none" xmlns="http://www.w3.org/2000/svg">
<g clip-path="url(#clip0_1004_458)">
<path fill-rule="evenodd" clip-rule="evenodd" d="M0 1.92857C0 0.863451 0.863451 0 1.92857 0H10.9286C11.9937 0 12.8571 0.863451 12.8571 1.92857V4.4211C12.3395 4.8356 11.9969 5.43925 11.913 6.10712H7.39286C5.79518 6.10712 4.5 7.40228 4.5 8.99997C4.5 10.5977 5.79518 11.8928 7.39286 11.8928H11.913C11.9969 12.5607 12.3394 13.1644 12.8571 13.5789V16.0714C12.8571 17.1365 11.9937 18 10.9286 18H1.92857C0.863451 18 0 17.1365 0 16.0714V1.92857ZM14.0953 5.53771C13.7349 5.68697 13.5 6.03859 13.5 6.4286V7.71431H7.39286C6.68278 7.71431 6.10714 8.28995 6.10714 9.00003C6.10714 9.71011 6.68278 10.2857 7.39286 10.2857H13.5V11.5715C13.5 11.9615 13.7349 12.3131 14.0953 12.4623C14.4555 12.6116 14.8703 12.5291 15.1461 12.2533L17.7175 9.68188C18.0941 9.30531 18.0941 8.69475 17.7175 8.31817L15.1461 5.74674C14.8703 5.47096 14.4555 5.38847 14.0953 5.53771Z" fill="white"/>
</g>
<defs>
<clipPath id="clip0_1004_458">
<rect width="18" height="18" fill="white"/>
</clipPath>
</defs>
</svg>
