<svg width="14" height="14" viewBox="0 0 14 14" fill="none" xmlns="http://www.w3.org/2000/svg">
<g clip-path="url(#clip0_1004_487)">
<path d="M5.24684 12.9816C4.6323 13.378 3.89999 13.5508 3.17304 13.4709C2.4461 13.3909 1.76885 13.0631 1.25519 12.5425L0.806128 12.1034C0.609255 11.902 0.499023 11.6316 0.499023 11.35C0.499023 11.0684 0.609255 10.7979 0.806128 10.5966L2.71214 8.71055C2.91183 8.51431 3.1806 8.40435 3.46058 8.40435C3.74055 8.40435 4.00933 8.51431 4.20901 8.71055C4.41038 8.90743 4.68082 9.01766 4.96244 9.01766C5.24406 9.01766 5.51449 8.90743 5.71586 8.71055L8.7096 5.71681C8.80947 5.61839 8.88878 5.5011 8.94291 5.37176C8.99704 5.24242 9.02492 5.1036 9.02492 4.96339C9.02492 4.82317 8.99704 4.68436 8.94291 4.55501C8.88878 4.42567 8.80947 4.30838 8.7096 4.20996C8.51336 4.01028 8.4034 3.7415 8.4034 3.46153C8.4034 3.18155 8.51336 2.91278 8.7096 2.71309L10.6056 0.817054C10.807 0.62018 11.0774 0.509949 11.359 0.509949C11.6407 0.509949 11.9111 0.62018 12.1125 0.817054L12.5516 1.26612C13.0721 1.77978 13.3999 2.45703 13.4799 3.18397C13.5599 3.91092 13.3871 4.64323 12.9906 5.25777C10.9249 8.30214 8.29653 10.9237 5.24684 12.9816Z" stroke="#1E1E1E" stroke-linecap="round" stroke-linejoin="round"/>
</g>
<defs>
<clipPath id="clip0_1004_487">
<rect width="14" height="14" fill="white"/>
</clipPath>
</defs>
</svg>
