<svg width="18" height="18" viewBox="0 0 18 18" fill="none" xmlns="http://www.w3.org/2000/svg">
<g clip-path="url(#clip0_1078_2182)">
<path d="M1.92829 2.57141C1.5873 2.57141 1.26027 2.70687 1.01915 2.94798C0.778037 3.18911 0.642578 3.51613 0.642578 3.85713V16.0714C0.642578 16.4124 0.778037 16.7395 1.01915 16.9805C1.26027 17.2216 1.5873 17.3571 1.92829 17.3571H16.0711C16.4121 17.3571 16.7392 17.2216 16.9803 16.9805C17.2213 16.7395 17.3569 16.4124 17.3569 16.0714V3.85713C17.3569 3.51613 17.2213 3.18911 16.9803 2.94798C16.7392 2.70687 16.4121 2.57141 16.0711 2.57141H13.4997" stroke="white" stroke-width="1.28571" stroke-linecap="round" stroke-linejoin="round"/>
<path d="M4.49976 0.642853V4.5" stroke="white" stroke-width="1.28571" stroke-linecap="round" stroke-linejoin="round"/>
<path d="M13.4998 0.642853V4.5" stroke="white" stroke-width="1.28571" stroke-linecap="round" stroke-linejoin="round"/>
<path d="M4.49976 2.57141H10.9283" stroke="white" stroke-width="1.28571" stroke-linecap="round" stroke-linejoin="round"/>
<path d="M9.31888 5.98166L10.3945 8.14547C10.4186 8.20019 10.4567 8.24756 10.5051 8.28271C10.5534 8.31787 10.6102 8.33957 10.6697 8.34559L13.0586 8.7083C13.1269 8.71719 13.1913 8.74535 13.2441 8.78946C13.2971 8.83358 13.3363 8.89184 13.3573 8.95744C13.3782 9.02303 13.3802 9.09326 13.3627 9.15989C13.3453 9.22651 13.3092 9.2868 13.2588 9.33368L11.4952 11.0097C11.4689 11.0598 11.4552 11.1156 11.4552 11.1723C11.4552 11.2289 11.4689 11.2847 11.4952 11.3349L11.8329 13.7114C11.8473 13.78 11.8415 13.8514 11.8161 13.9168C11.7908 13.9823 11.747 14.039 11.69 14.08C11.6331 14.121 11.5655 14.1447 11.4954 14.1481C11.4253 14.1515 11.3557 14.1344 11.2951 14.099L9.16878 12.9734C9.11376 12.9486 9.05407 12.9357 8.99368 12.9357C8.93329 12.9357 8.87361 12.9486 8.81858 12.9734L6.69229 14.099C6.63168 14.1344 6.5621 14.1515 6.492 14.1481C6.42189 14.1447 6.35428 14.121 6.29735 14.08C6.24042 14.039 6.19661 13.9823 6.17126 13.9168C6.14589 13.8514 6.14007 13.78 6.15448 13.7114L6.55471 11.3349C6.57192 11.2797 6.57522 11.2212 6.56431 11.1644C6.5534 11.1077 6.52862 11.0545 6.49217 11.0097L4.72861 9.32118C4.68183 9.27379 4.649 9.21444 4.63371 9.14964C4.61842 9.08483 4.62128 9.01707 4.64194 8.95376C4.66261 8.89046 4.7003 8.83409 4.75089 8.79078C4.80148 8.74749 4.863 8.71895 4.92873 8.7083L7.31768 8.35809C7.37714 8.35207 7.43396 8.33038 7.4823 8.29522C7.53064 8.26007 7.56879 8.2127 7.59283 8.15797L8.66849 5.99417C8.69727 5.93292 8.74261 5.88094 8.7994 5.84411C8.85618 5.80728 8.92213 5.78707 8.9898 5.78577C9.05747 5.78447 9.12414 5.80213 9.1823 5.83675C9.24045 5.87136 9.28776 5.92156 9.31888 5.98166Z" stroke="white" stroke-width="1.28571" stroke-linecap="round" stroke-linejoin="round"/>
</g>
<defs>
<clipPath id="clip0_1078_2182">
<rect width="18" height="18" fill="white"/>
</clipPath>
</defs>
</svg>
