<svg width="18" height="18" viewBox="0 0 18 18" fill="none" xmlns="http://www.w3.org/2000/svg">
<g clip-path="url(#clip0_916_50)">
<path d="M6.7245 2.89285L7.27735 1.46571C7.37059 1.22408 7.53464 1.01624 7.74799 0.869411C7.96135 0.722585 8.21407 0.643618 8.47307 0.642853H9.52735C9.78635 0.643618 10.0391 0.722585 10.2524 0.869411C10.4658 1.01624 10.6298 1.22408 10.7231 1.46571L11.2759 2.89285L13.153 3.97285L14.6702 3.74142C14.9228 3.70713 15.1799 3.74871 15.4089 3.86089C15.6378 3.97307 15.8282 4.15077 15.9559 4.37142L16.4702 5.27142C16.6019 5.49559 16.6628 5.75444 16.6444 6.01382C16.626 6.2732 16.5294 6.52092 16.3673 6.72428L15.4287 7.92V10.08L16.393 11.2757C16.5551 11.4791 16.6517 11.7268 16.6701 11.9862C16.6885 12.2456 16.6277 12.5044 16.4959 12.7286L15.9816 13.6286C15.8539 13.8492 15.6635 14.0269 15.4346 14.1391C15.2057 14.2512 14.9485 14.2929 14.6959 14.2586L13.1787 14.0271L11.3016 15.1071L10.7488 16.5343C10.6555 16.7759 10.4915 16.9838 10.2781 17.1306C10.0648 17.2774 9.81206 17.3564 9.55307 17.3571H8.47307C8.21407 17.3564 7.96135 17.2774 7.74799 17.1306C7.53464 16.9838 7.37059 16.7759 7.27735 16.5343L6.7245 15.1071L4.84735 14.0271L3.33021 14.2586C3.07759 14.2929 2.82048 14.2512 2.59154 14.1391C2.36262 14.0269 2.17221 13.8492 2.0445 13.6286L1.53021 12.7286C1.39842 12.5044 1.33771 12.2456 1.35607 11.9862C1.37443 11.7268 1.47102 11.4791 1.63307 11.2757L2.57164 10.08V7.92L1.60735 6.72428C1.4453 6.52092 1.34872 6.2732 1.33036 6.01382C1.312 5.75444 1.37271 5.49559 1.5045 5.27142L2.01878 4.37142C2.14649 4.15077 2.33691 3.97307 2.56583 3.86089C2.79476 3.74871 3.05188 3.70713 3.3045 3.74142L4.82164 3.97285L6.7245 2.89285ZM6.42878 9C6.42878 9.50857 6.5796 10.0057 6.86214 10.4286C7.14471 10.8515 7.5463 11.1811 8.01616 11.3757C8.48604 11.5703 9.00306 11.6212 9.50187 11.522C10.0007 11.4228 10.4589 11.1779 10.8185 10.8183C11.1781 10.4587 11.423 10.0005 11.5222 9.50166C11.6214 9.00285 11.5705 8.48583 11.3759 8.01595C11.1813 7.54608 10.8517 7.14448 10.4288 6.86193C10.0059 6.57938 9.50879 6.42857 9.00021 6.42857C8.31823 6.42857 7.66417 6.69948 7.18194 7.18173C6.69971 7.66396 6.42878 8.31801 6.42878 9Z" stroke="#1E1E1E" stroke-width="1.28571" stroke-linecap="round" stroke-linejoin="round"/>
</g>
<defs>
<clipPath id="clip0_916_50">
<rect width="18" height="18" fill="white"/>
</clipPath>
</defs>
</svg>
