<svg width="18" height="18" viewBox="0 0 18 18" fill="none" xmlns="http://www.w3.org/2000/svg">
<g clip-path="url(#clip0_916_47)">
<path fill-rule="evenodd" clip-rule="evenodd" d="M7.14522 0.886154L6.54984 2.42308L4.5006 3.58615L2.86675 3.33692C2.59471 3.29999 2.31782 3.34479 2.07127 3.46559C1.82473 3.5864 1.61966 3.77776 1.48214 4.01539L0.928295 4.98461C0.786374 5.22602 0.720987 5.50479 0.740762 5.78412C0.760538 6.06345 0.864548 6.33023 1.03906 6.54924L2.07753 7.83692V10.1631L1.06676 11.4508C0.89224 11.6698 0.788231 11.9365 0.768455 12.2159C0.748679 12.4952 0.814066 12.774 0.955987 13.0154L1.50984 13.9846C1.64736 14.2222 1.85243 14.4136 2.09896 14.5344C2.3455 14.6552 2.62239 14.7 2.89445 14.6631L4.52829 14.4139L6.54984 15.5769L7.14522 17.1139C7.24563 17.3741 7.42228 17.598 7.65205 17.756C7.88182 17.9141 8.154 17.9992 8.43291 18H9.59599C9.87491 17.9992 10.1471 17.9141 10.3768 17.756C10.6066 17.598 10.7833 17.3741 10.8837 17.1139L11.4791 15.5769L13.5006 14.4139L15.1345 14.6631C15.4066 14.7 15.6834 14.6552 15.93 14.5344C16.1764 14.4136 16.3815 14.2222 16.5191 13.9846L17.073 13.0154C17.2148 12.774 17.2802 12.4952 17.2604 12.2159C17.2406 11.9365 17.1366 11.6698 16.9621 11.4508L15.9237 10.1631V7.83692L16.9345 6.54924C17.109 6.33023 17.213 6.06345 17.2328 5.78412C17.2526 5.50479 17.1871 5.22602 17.0452 4.98461L16.4913 4.01539C16.3539 3.77776 16.1488 3.5864 15.9022 3.46559C15.6557 3.34479 15.3788 3.29999 15.1067 3.33692L13.473 3.58615L11.4514 2.42308L10.856 0.886154C10.7556 0.625935 10.5789 0.402107 10.3491 0.243986C10.1194 0.0858654 9.84722 0.000823924 9.56829 0H8.43291C8.154 0.000823924 7.88182 0.0858654 7.65205 0.243986C7.42228 0.402107 7.24563 0.625935 7.14522 0.886154ZM9.00061 11.8929C10.5983 11.8929 11.8935 10.5977 11.8935 9C11.8935 7.40232 10.5983 6.10714 9.00061 6.10714C7.40293 6.10714 6.10776 7.40232 6.10776 9C6.10776 10.5977 7.40293 11.8929 9.00061 11.8929Z" fill="white"/>
</g>
<defs>
<clipPath id="clip0_916_47">
<rect width="18" height="18" fill="white"/>
</clipPath>
</defs>
</svg>
