<svg width="18" height="18" viewBox="0 0 18 18" fill="none" xmlns="http://www.w3.org/2000/svg">
<g clip-path="url(#clip0_1004_464)">
<path fill-rule="evenodd" clip-rule="evenodd" d="M9.00061 0.355957C8.74549 0.355957 8.49569 0.428944 8.2807 0.566304C8.06846 0.701908 7.89889 0.89466 7.79143 1.1223L5.75028 5.24313C5.74627 5.25123 5.74242 5.25941 5.73876 5.26768C5.73784 5.26972 5.7364 5.27151 5.73459 5.27283C5.73278 5.27415 5.73066 5.27499 5.72842 5.27523C5.72059 5.2761 5.71277 5.27711 5.70498 5.27827L1.21066 5.94409C0.962258 5.96825 0.725378 6.06146 0.526973 6.21343C0.321681 6.37069 0.16639 6.58409 0.0799122 6.8278C-0.00656516 7.07151 -0.0205192 7.33506 0.0397411 7.58655C0.099768 7.83705 0.230871 8.06486 0.417256 8.24261L3.70711 11.4168L3.71461 11.4239C3.7193 11.4283 3.72283 11.4338 3.72487 11.4399C3.7269 11.446 3.72737 11.4525 3.72624 11.4589L3.72552 11.4631L2.94157 16.051C2.8985 16.2996 2.92577 16.5565 3.02067 16.7903C3.11569 17.0245 3.27456 17.2273 3.47915 17.3757C3.68376 17.5239 3.92589 17.6118 4.17799 17.6293C4.42959 17.6468 4.68105 17.5935 4.90387 17.4754L4.90522 17.4747L8.95455 15.3346C8.96906 15.3283 8.98476 15.3249 9.00064 15.3249C9.01652 15.3249 9.0322 15.3283 9.04673 15.3346L13.096 17.4747C13.3189 17.5931 13.5715 17.6469 13.8232 17.6293C14.0753 17.6118 14.3174 17.5239 14.5221 17.3757C14.7267 17.2273 14.8856 17.0245 14.9806 16.7903C15.0755 16.5565 15.1029 16.3009 15.0599 16.0524L15.0597 16.051L14.2758 11.463L14.275 11.4589C14.2738 11.4525 14.2744 11.446 14.2764 11.4399C14.2783 11.4338 14.2819 11.4283 14.2866 11.4239L14.2942 11.4168L17.584 8.24257C17.7703 8.06482 17.9015 7.83703 17.9615 7.58655C18.0217 7.33506 18.0078 7.07151 17.9213 6.8278C17.8349 6.58409 17.6796 6.37069 17.4742 6.21343C17.2759 6.06146 17.039 5.96825 16.7906 5.94409L12.2963 5.27827C12.2885 5.27711 12.2807 5.2761 12.2728 5.27523C12.2706 5.27499 12.2685 5.27415 12.2666 5.27283C12.2648 5.27151 12.2634 5.26972 12.2625 5.26768C12.2588 5.25941 12.255 5.25123 12.251 5.24313L10.2098 1.12228C10.1023 0.894649 9.93277 0.701904 9.72054 0.566304C9.50554 0.428944 9.25574 0.355957 9.00061 0.355957Z" fill="white"/>
</g>
<defs>
<clipPath id="clip0_1004_464">
<rect width="18" height="18" fill="white"/>
</clipPath>
</defs>
</svg>
