<svg width="18" height="18" viewBox="0 0 18 18" fill="none" xmlns="http://www.w3.org/2000/svg">
<g clip-path="url(#clip0_1004_467)">
<path d="M9.62936 1.40147L11.6736 5.52861C11.7201 5.63337 11.7933 5.72411 11.8858 5.79179C11.9783 5.85945 12.0869 5.90171 12.2008 5.91433L16.7136 6.5829C16.8444 6.59969 16.9675 6.65332 17.0688 6.73752C17.1702 6.82171 17.2455 6.933 17.2859 7.05837C17.3264 7.18375 17.3302 7.31806 17.2972 7.44559C17.2643 7.57313 17.1956 7.68863 17.0993 7.77861L13.8465 11.0058C13.7635 11.0833 13.7012 11.1804 13.6653 11.2882C13.6293 11.396 13.6209 11.511 13.6407 11.6229L14.425 16.1614C14.4478 16.2919 14.4334 16.426 14.3836 16.5487C14.3339 16.6713 14.2507 16.7775 14.1435 16.8553C14.0364 16.933 13.9095 16.979 13.7774 16.9883C13.6454 16.9974 13.5133 16.9694 13.3965 16.9071L9.33364 14.76C9.22962 14.7089 9.11525 14.6825 8.99936 14.6825C8.88346 14.6825 8.76911 14.7089 8.66507 14.76L4.60222 16.9071C4.48533 16.9694 4.35335 16.9974 4.2213 16.9883C4.08924 16.979 3.96241 16.933 3.85524 16.8553C3.74806 16.7775 3.66485 16.6713 3.61507 16.5487C3.5653 16.426 3.55094 16.2919 3.57364 16.1614L4.35793 11.5715C4.37781 11.4596 4.3694 11.3446 4.33348 11.2368C4.29755 11.129 4.23523 11.0319 4.15222 10.9543L0.860791 7.77861C0.763415 7.68617 0.694934 7.56746 0.663645 7.4369C0.632356 7.30632 0.639602 7.16947 0.684503 7.04293C0.729405 6.91639 0.810036 6.80559 0.916631 6.72393C1.02323 6.64229 1.15121 6.59329 1.28507 6.5829L5.79793 5.91433C5.91184 5.90171 6.02046 5.85945 6.11296 5.79179C6.20545 5.72411 6.27858 5.63337 6.32507 5.52861L8.36936 1.40147C8.42503 1.28127 8.51392 1.1795 8.62556 1.10818C8.73719 1.03686 8.86689 0.998962 8.99936 0.998962C9.13183 0.998962 9.26154 1.03686 9.37317 1.10818C9.48479 1.1795 9.57369 1.28127 9.62936 1.40147Z" stroke="#1E1E1E" stroke-width="1.28571" stroke-linecap="round" stroke-linejoin="round"/>
</g>
<defs>
<clipPath id="clip0_1004_467">
<rect width="18" height="18" fill="white"/>
</clipPath>
</defs>
</svg>
