<svg width="18" height="18" viewBox="0 0 18 18" fill="none" xmlns="http://www.w3.org/2000/svg">
<g clip-path="url(#clip0_916_44)">
<path fill-rule="evenodd" clip-rule="evenodd" d="M5.78571 1.28571C5.78571 0.575634 5.21007 0 4.5 0C3.78993 0 3.21429 0.575634 3.21429 1.28571V2.57143H1.92857C0.863451 2.57143 0 3.43488 0 4.5V16.0714C0 17.1365 0.863451 18 1.92857 18H16.0714C17.1365 18 18 17.1365 18 16.0714V4.5C18 3.43488 17.1365 2.57143 16.0714 2.57143H14.7858V1.28571C14.7858 0.575634 14.2102 0 13.5001 0C12.7901 0 12.2144 0.575634 12.2144 1.28571V2.57143H5.78571V1.28571ZM8.98552 6.5894C9.10561 6.5871 9.22396 6.61843 9.32718 6.67986C9.43039 6.74131 9.51435 6.8304 9.56958 6.93707L9.57196 6.94176L10.529 8.86695L10.5328 8.86774L12.6529 9.18964C12.7726 9.20598 12.8854 9.2557 12.9783 9.33315C13.0721 9.41145 13.1417 9.51486 13.179 9.63129C13.2162 9.74771 13.2196 9.87233 13.1886 9.99058C13.1577 10.1082 13.0944 10.2146 13.0056 10.2976L11.5136 11.7155C11.5247 11.7415 11.5324 11.7687 11.5363 11.7967L11.8352 13.8999C11.8576 14.018 11.8465 14.1402 11.803 14.2525C11.758 14.3686 11.6803 14.4693 11.5792 14.5421C11.4782 14.615 11.3582 14.6569 11.2337 14.6629C11.1119 14.6688 10.991 14.6399 10.885 14.5797L9.01319 13.5888C9.00739 13.5869 9.0013 13.5859 8.99515 13.5859C8.98901 13.5859 8.98293 13.5869 8.97713 13.5888L7.10531 14.5797C6.99933 14.6399 6.87839 14.6688 6.75658 14.6629C6.63215 14.6569 6.51216 14.615 6.41111 14.5421C6.31007 14.4693 6.23232 14.3686 6.18732 14.2525C6.14321 14.1387 6.13239 14.0148 6.15603 13.8951L6.51082 11.7886C6.51273 11.7772 6.51525 11.766 6.51837 11.7549L4.98275 10.2846L4.97629 10.2783C4.89326 10.1942 4.83499 10.0889 4.80786 9.97384C4.78074 9.85882 4.78579 9.73855 4.82247 9.62621C4.85915 9.51387 4.92605 9.41379 5.01583 9.33696C5.10561 9.26011 5.21481 9.20947 5.33146 9.19057L5.33625 9.18982L7.46094 8.87836L7.46248 8.87572L8.41704 6.95551C8.4682 6.84843 8.54798 6.75755 8.6476 6.69294C8.74837 6.62757 8.86542 6.59172 8.98552 6.5894Z" fill="white"/>
</g>
<defs>
<clipPath id="clip0_916_44">
<rect width="18" height="18" fill="white"/>
</clipPath>
</defs>
</svg>
