<svg width="18" height="18" viewBox="0 0 18 18" fill="none" xmlns="http://www.w3.org/2000/svg">
<g clip-path="url(#clip0_1078_4240)">
<path fill-rule="evenodd" clip-rule="evenodd" d="M9.00037 0.355957C8.74525 0.355957 8.49545 0.428944 8.28046 0.566304C8.06822 0.701908 7.89864 0.89466 7.79118 1.1223L5.75003 5.24313C5.74602 5.25123 5.74218 5.25941 5.73851 5.26767C5.7376 5.26972 5.73616 5.27151 5.73435 5.27283C5.73253 5.27415 5.73041 5.27499 5.72818 5.27524C5.72035 5.2761 5.71253 5.27711 5.70474 5.27827L1.21042 5.94409C0.962014 5.96825 0.725134 6.06146 0.526729 6.21343C0.321437 6.37069 0.166145 6.58409 0.079668 6.8278C-0.0068093 7.07151 -0.0207633 7.33506 0.0394969 7.58655C0.0995238 7.83705 0.230627 8.06486 0.417011 8.24261L3.70687 11.4168L3.71436 11.4239C3.71905 11.4283 3.72259 11.4338 3.72462 11.4399C3.72665 11.446 3.72713 11.4525 3.726 11.4589L3.72528 11.4631L2.94133 16.051C2.89825 16.2996 2.92552 16.5565 3.02042 16.7903C3.11545 17.0245 3.27431 17.2273 3.47891 17.3757C3.68352 17.5239 3.92564 17.6118 4.17775 17.6293C4.42935 17.6468 4.68081 17.5935 4.90362 17.4754L4.90497 17.4747L8.9543 15.3346C8.96882 15.3283 8.98452 15.3249 9.0004 15.3249C9.01627 15.3249 9.03196 15.3283 9.04649 15.3346L13.0958 17.4747C13.3187 17.5931 13.5712 17.6469 13.823 17.6293C14.0751 17.6118 14.3172 17.5239 14.5219 17.3757C14.7264 17.2273 14.8853 17.0245 14.9804 16.7903C15.0752 16.5565 15.1026 16.3009 15.0597 16.0524L15.0594 16.051L14.2755 11.463L14.2748 11.4589C14.2736 11.4525 14.2741 11.446 14.2762 11.4399C14.2781 11.4338 14.2817 11.4283 14.2863 11.4239L14.2939 11.4168L17.5838 8.24257C17.7701 8.06482 17.9012 7.83703 17.9613 7.58655C18.0215 7.33506 18.0076 7.07151 17.921 6.8278C17.8346 6.58409 17.6793 6.37069 17.474 6.21343C17.2756 6.06146 17.0388 5.96825 16.7904 5.94409L12.296 5.27827C12.2882 5.27711 12.2804 5.2761 12.2726 5.27524C12.2703 5.27499 12.2682 5.27415 12.2664 5.27283C12.2646 5.27151 12.2632 5.26972 12.2622 5.26767C12.2586 5.25941 12.2547 5.25123 12.2507 5.24313L10.2096 1.12228C10.1021 0.89465 9.93253 0.701904 9.72029 0.566304C9.5053 0.428944 9.2555 0.355957 9.00037 0.355957Z" fill="#0E46A3"/>
</g>
<defs>
<clipPath id="clip0_1078_4240">
<rect width="18" height="18" fill="white"/>
</clipPath>
</defs>
</svg>
