<svg width="1440" height="1265" viewBox="0 0 1440 1265" fill="none" xmlns="http://www.w3.org/2000/svg">
<path opacity="0.1" fill-rule="evenodd" clip-rule="evenodd" d="M0 0H1440V1265H0V0ZM2.25 2.25893H177.75V178.455H2.25V2.25893ZM182.25 2.25893H357.75V178.455H182.25V2.25893ZM537.75 2.25893H362.25V178.455H537.75V2.25893ZM542.25 2.25893H717.75V178.455H542.25V2.25893ZM897.75 2.25893H722.25V178.455H897.75V2.25893ZM902.25 2.25893H1077.75V178.455H902.25V2.25893ZM1257.75 2.25893H1082.25V178.455H1257.75V2.25893ZM1262.25 2.25893H1437.75V178.455H1262.25V2.25893ZM177.75 182.973H2.25V359.17H177.75V182.973ZM182.25 182.973H357.75V359.17H182.25V182.973ZM537.75 182.973H362.25V359.17H537.75V182.973ZM542.25 182.973H717.75V359.17H542.25V182.973ZM897.75 182.973H722.25V359.17H897.75V182.973ZM902.25 182.973H1077.75V359.17H902.25V182.973ZM1257.75 182.973H1082.25V359.17H1257.75V182.973ZM1262.25 182.973H1437.75V359.17H1262.25V182.973ZM177.75 363.687H2.25V539.884H177.75V363.687ZM182.25 363.687H357.75V539.884H182.25V363.687ZM537.75 363.687H362.25V539.884H537.75V363.687ZM542.25 363.687H717.75V539.884H542.25V363.687ZM897.75 363.687H722.25V539.884H897.75V363.687ZM902.25 363.687H1077.75V539.884H902.25V363.687ZM1257.75 363.687H1082.25V539.884H1257.75V363.687ZM1262.25 363.687H1437.75V539.884H1262.25V363.687ZM177.75 544.402H2.25V720.598H177.75V544.402ZM182.25 544.402H357.75V720.598H182.25V544.402ZM537.75 544.402H362.25V720.598H537.75V544.402ZM542.25 544.402H717.75V720.598H542.25V544.402ZM897.75 544.402H722.25V720.598H897.75V544.402ZM902.25 544.402H1077.75V720.598H902.25V544.402ZM1257.75 544.402H1082.25V720.598H1257.75V544.402ZM1262.25 544.402H1437.75V720.598H1262.25V544.402ZM177.75 725.116H2.25V901.312H177.75V725.116ZM182.25 725.116H357.75V901.312H182.25V725.116ZM537.75 725.116H362.25V901.312H537.75V725.116ZM542.25 725.116H717.75V901.312H542.25V725.116ZM897.75 725.116H722.25V901.312H897.75V725.116ZM902.25 725.116H1077.75V901.312H902.25V725.116ZM1257.75 725.116H1082.25V901.312H1257.75V725.116ZM1262.25 725.116H1437.75V901.312H1262.25V725.116ZM177.75 905.83H2.25V1082.03H177.75V905.83ZM182.25 905.83H357.75V1082.03H182.25V905.83ZM537.75 905.83H362.25V1082.03H537.75V905.83ZM542.25 905.83H717.75V1082.03H542.25V905.83ZM897.75 905.83H722.25V1082.03H897.75V905.83ZM902.25 905.83H1077.75V1082.03H902.25V905.83ZM1257.75 905.83H1082.25V1082.03H1257.75V905.83ZM1262.25 905.83H1437.75V1082.03H1262.25V905.83ZM177.75 1086.54H2.25V1262.74H177.75V1086.54ZM182.25 1086.54H357.75V1262.74H182.25V1086.54ZM537.75 1086.54H362.25V1262.74H537.75V1086.54ZM542.25 1086.54H717.75V1262.74H542.25V1086.54ZM897.75 1086.54H722.25V1262.74H897.75V1086.54ZM902.25 1086.54H1077.75V1262.74H902.25V1086.54ZM1257.75 1086.54H1082.25V1262.74H1257.75V1086.54ZM1262.25 1086.54H1437.75V1262.74H1262.25V1086.54Z" fill="url(#paint0_linear_92_1137)"/>
<defs>
<linearGradient id="paint0_linear_92_1137" x1="720" y1="0" x2="720" y2="1265" gradientUnits="userSpaceOnUse">
<stop stop-color="#4B4B4B"/>
<stop offset="1" stop-color="#4B4B4B" stop-opacity="0"/>
</linearGradient>
</defs>
</svg>
