<svg width="266" height="266" viewBox="0 0 266 266" fill="none" xmlns="http://www.w3.org/2000/svg">
<path d="M253.332 117.644C256.579 89.0768 246.918 60.3872 226.642 39.9999C216.669 29.9787 203.035 20.5357 184.918 15.9734C134.107 3.18294 101.178 14.8965 84.7167 46.0317C68.2551 77.167 21.0138 71.7983 13.5018 125.48C5.9899 179.162 42.4886 238.196 104.398 241.427C166.308 244.658 158.34 213.841 192.207 200.61C218.107 190.499 248.483 160.281 253.332 117.644Z" fill="#FFC100"/>
<path opacity="0.7" d="M253.332 117.644C256.579 89.0768 246.918 60.3872 226.642 39.9999C216.669 29.9787 203.035 20.5357 184.918 15.9734C134.107 3.18294 101.178 14.8965 84.7167 46.0317C68.2551 77.167 21.0138 71.7983 13.5018 125.48C5.9899 179.162 42.4886 238.196 104.398 241.427C166.308 244.658 158.34 213.841 192.207 200.61C218.107 190.499 248.483 160.281 253.332 117.644Z" fill="white"/>
<path d="M174.531 207.549C175.746 208.08 178.706 208.011 178.706 208.011C178.706 208.011 178.069 206.069 178.016 205.952C177.364 204.594 175.311 202.35 173.64 202.573C173.364 202.62 173.102 202.724 172.869 202.879C172.636 203.034 172.438 203.236 172.288 203.472C172.138 203.708 172.039 203.972 171.998 204.249C171.957 204.525 171.974 204.807 172.048 205.077C172.319 206.233 173.507 207.098 174.531 207.549Z" fill="#263238"/>
<path d="M175.56 216.127C176.817 216.308 179.459 215.544 179.672 215.48C180.101 216.993 180.633 218.475 181.263 219.915C181.624 220.759 182.016 221.592 182.425 222.425C182.181 222.074 181.963 221.761 181.926 221.719C180.94 220.578 178.367 218.96 176.812 219.597C176.558 219.714 176.331 219.884 176.146 220.095C175.962 220.305 175.823 220.552 175.74 220.82C175.657 221.088 175.631 221.37 175.664 221.648C175.697 221.926 175.788 222.194 175.932 222.435C176.505 223.496 177.879 223.995 178.993 224.154C180.107 224.313 182.388 223.714 182.982 223.544C183.141 223.862 183.295 224.18 183.459 224.499C184.223 226.021 184.993 227.539 185.703 229.051C185.953 229.581 186.181 230.112 186.409 230.642C186.197 230.324 186.011 230.064 185.979 230.027C184.993 228.886 182.42 227.263 180.865 227.905C180.611 228.021 180.383 228.19 180.198 228.4C180.013 228.61 179.874 228.856 179.791 229.123C179.707 229.391 179.681 229.673 179.713 229.951C179.746 230.229 179.836 230.497 179.979 230.738C180.558 231.799 181.926 232.303 183.04 232.462C184.154 232.621 186.223 232.074 186.929 231.878C187.146 232.435 187.364 232.987 187.555 233.533C187.672 233.91 187.815 234.26 187.91 234.642C188.006 235.024 188.123 235.395 188.223 235.767C188.398 236.488 188.579 237.231 188.754 237.936C188.86 238.43 188.955 238.902 189.051 239.374C188.807 238.844 188.314 237.783 188.26 237.724C187.459 236.451 185.157 234.456 183.523 234.87C183.256 234.948 183.009 235.081 182.796 235.26C182.583 235.439 182.41 235.66 182.287 235.909C182.164 236.159 182.095 236.431 182.083 236.709C182.071 236.986 182.117 237.264 182.218 237.523C182.627 238.642 183.91 239.358 184.982 239.687C186.17 240.048 188.791 239.719 189.12 239.687C189.279 240.467 189.422 241.231 189.55 241.958C189.64 242.488 189.73 243.019 189.81 243.501H190.871C190.77 242.971 190.658 242.377 190.542 241.772C190.382 240.976 190.202 240.127 190.011 239.257C190.801 238.95 191.571 238.596 192.319 238.196C193.184 239.13 195.396 240.223 195.682 240.366C195.38 241.104 195.077 241.82 194.786 242.488C194.632 242.844 194.478 243.183 194.329 243.517H195.443C195.528 243.305 195.619 243.098 195.709 242.875C196.016 242.127 196.329 241.321 196.648 240.488C196.966 240.552 199.56 241.077 200.77 240.806C201.868 240.557 203.199 239.936 203.688 238.854C203.812 238.603 203.882 238.328 203.894 238.048C203.905 237.768 203.858 237.488 203.754 237.228C203.651 236.967 203.493 236.731 203.293 236.535C203.092 236.339 202.852 236.188 202.589 236.09C200.998 235.56 198.547 237.374 197.65 238.584C197.597 238.658 197.12 239.496 196.817 240.032C196.945 239.687 197.072 239.358 197.199 239.008C197.454 238.313 197.688 237.608 197.942 236.854C198.055 236.501 198.167 236.129 198.276 235.74C198.393 235.369 198.473 234.96 198.573 234.568C198.796 233.655 198.971 232.722 199.104 231.772C199.714 231.995 201.889 232.753 203.019 232.674C204.149 232.594 205.55 232.18 206.202 231.183C206.364 230.954 206.475 230.694 206.529 230.419C206.583 230.144 206.578 229.861 206.515 229.588C206.452 229.315 206.332 229.058 206.163 228.835C205.994 228.612 205.779 228.427 205.534 228.292C204.032 227.517 201.348 228.944 200.276 230.005C200.213 230.069 199.528 230.918 199.168 231.395C199.258 230.822 199.348 230.255 199.417 229.677C199.629 228 199.783 226.303 199.947 224.61C199.995 224.08 200.054 223.549 200.107 223.056C200.324 223.135 202.892 224.09 204.154 224C205.274 223.926 206.685 223.512 207.337 222.515C207.499 222.285 207.61 222.025 207.664 221.749C207.718 221.474 207.714 221.19 207.651 220.917C207.588 220.644 207.467 220.387 207.298 220.163C207.129 219.939 206.915 219.753 206.669 219.618C205.168 218.844 202.483 220.271 201.412 221.332C201.332 221.411 200.351 222.637 200.123 222.96C200.245 221.82 200.372 220.684 200.547 219.57C200.776 218.066 201.1 216.577 201.518 215.114C201.619 215.157 204.298 216.175 205.587 216.074C206.711 215.995 208.123 215.581 208.77 214.584C208.931 214.354 209.041 214.093 209.095 213.818C209.148 213.543 209.143 213.26 209.08 212.987C209.017 212.713 208.898 212.457 208.729 212.233C208.56 212.009 208.346 211.823 208.101 211.687C206.6 210.918 203.91 212.34 202.844 213.406C202.759 213.486 201.709 214.801 201.534 215.056C201.56 214.971 201.576 214.881 201.603 214.796C202.063 213.331 202.655 211.911 203.369 210.552C203.751 209.804 204.16 209.109 204.573 208.43C205.051 208.669 207.253 209.735 208.425 209.783C209.597 209.83 210.998 209.57 211.751 208.653C211.936 208.442 212.075 208.195 212.158 207.928C212.242 207.66 212.268 207.378 212.235 207.1C212.202 206.821 212.11 206.553 211.967 206.313C211.823 206.072 211.63 205.864 211.401 205.703C209.995 204.769 207.157 205.889 205.99 206.828C205.926 206.881 205.332 207.47 204.929 207.889C205.12 207.586 205.311 207.273 205.497 206.992C206.202 205.931 206.918 204.997 207.555 204.18C207.921 203.719 208.26 203.31 208.584 202.928C209.173 202.928 211.56 202.844 212.605 202.356C213.65 201.867 214.791 200.982 215.035 199.82C215.101 199.547 215.11 199.264 215.06 198.988C215.011 198.712 214.903 198.45 214.746 198.218C214.589 197.986 214.384 197.79 214.146 197.642C213.908 197.493 213.642 197.397 213.364 197.358C211.688 197.178 209.693 199.48 209.083 200.854C209.03 200.976 208.414 202.928 208.446 202.928H208.478C208.165 203.289 207.825 203.677 207.47 204.112C206.812 204.918 206.08 205.836 205.348 206.886C204.546 208.011 203.811 209.182 203.146 210.393C202.396 211.749 201.768 213.169 201.268 214.637V214.695C201.268 214.196 201.268 212.817 201.242 212.711C201.046 211.215 199.794 208.44 198.133 208.138C197.856 208.094 197.573 208.11 197.303 208.183C197.032 208.256 196.78 208.386 196.563 208.563C196.345 208.74 196.168 208.961 196.042 209.211C195.916 209.462 195.844 209.736 195.831 210.016C195.735 211.199 196.595 212.387 197.422 213.141C198.372 213.984 200.998 214.801 201.21 214.865C200.736 216.366 200.364 217.897 200.096 219.448C199.937 220.356 199.804 221.268 199.677 222.186C199.677 221.756 199.677 221.374 199.677 221.321C199.486 219.83 198.234 217.077 196.573 216.748C196.297 216.705 196.014 216.72 195.743 216.793C195.472 216.866 195.22 216.996 195.003 217.173C194.786 217.35 194.608 217.571 194.482 217.822C194.356 218.072 194.284 218.346 194.271 218.626C194.176 219.814 195.035 221.003 195.863 221.751C196.69 222.499 198.94 223.257 199.534 223.443C199.486 223.799 199.443 224.149 199.401 224.504C199.194 226.202 199.003 227.889 198.759 229.544C198.674 230.127 198.568 230.695 198.467 231.268C198.467 230.886 198.467 230.568 198.467 230.52C198.276 229.024 197.024 226.249 195.364 225.947C195.087 225.904 194.804 225.919 194.533 225.992C194.263 226.065 194.011 226.195 193.793 226.372C193.576 226.549 193.399 226.77 193.273 227.02C193.146 227.271 193.075 227.545 193.062 227.825C192.961 229.008 193.825 230.196 194.653 230.95C195.481 231.703 197.512 232.377 198.218 232.605C198.091 233.188 197.969 233.772 197.825 234.329C197.714 234.706 197.64 235.077 197.507 235.454C197.375 235.83 197.268 236.196 197.152 236.562C196.897 237.257 196.621 237.979 196.377 238.653C196.197 239.125 196.016 239.565 195.847 240.016C195.937 239.438 196.091 238.297 196.096 238.202C196.069 236.875 195.703 235.577 195.035 234.43C195.038 234.282 195.027 234.135 195.003 233.99C194.969 233.711 194.877 233.443 194.732 233.203C194.587 232.963 194.393 232.756 194.162 232.597C193.932 232.437 193.67 232.327 193.395 232.276C193.119 232.224 192.835 232.232 192.563 232.297C190.934 232.732 189.91 235.592 189.82 237.072C189.82 237.157 189.873 238.133 189.921 238.738C189.841 238.382 189.767 238.037 189.677 237.676C189.507 236.955 189.311 236.239 189.109 235.47C188.998 235.098 188.886 234.727 188.77 234.35C188.653 233.974 188.51 233.597 188.377 233.215C188.054 232.329 187.688 231.454 187.316 230.562C187.947 230.409 190.181 229.841 191.077 229.151C191.974 228.462 192.918 227.348 192.908 226.154C192.915 225.874 192.864 225.595 192.756 225.336C192.649 225.077 192.488 224.843 192.284 224.65C192.081 224.458 191.839 224.31 191.574 224.217C191.309 224.124 191.028 224.088 190.749 224.112C189.072 224.292 187.619 226.966 187.311 228.44C187.311 228.531 187.194 229.618 187.152 230.212C186.913 229.682 186.674 229.151 186.414 228.621C185.666 227.109 184.86 225.602 184.064 224.101C183.82 223.639 183.581 223.178 183.343 222.716C183.565 222.663 186.234 222.043 187.242 221.273C188.133 220.589 189.077 219.47 189.072 218.276C189.08 217.996 189.028 217.717 188.921 217.458C188.814 217.199 188.653 216.965 188.449 216.772C188.245 216.58 188.003 216.432 187.738 216.339C187.474 216.246 187.192 216.21 186.913 216.234C185.237 216.414 183.783 219.088 183.475 220.562C183.475 220.674 183.311 222.234 183.295 222.631C182.764 221.613 182.234 220.594 181.783 219.57C181.142 218.193 180.591 216.775 180.133 215.326C180.239 215.326 183.03 214.669 184.059 213.878C184.95 213.194 185.9 212.074 185.889 210.886C185.896 210.606 185.844 210.327 185.736 210.068C185.629 209.809 185.468 209.576 185.264 209.383C185.061 209.19 184.819 209.042 184.555 208.948C184.291 208.854 184.01 208.817 183.73 208.838C182.054 209.024 180.6 211.692 180.298 213.167C180.271 213.284 180.123 214.966 180.117 215.289C180.117 215.204 180.054 215.119 180.027 215.035C179.609 213.567 179.323 212.065 179.173 210.547C179.077 209.708 179.035 208.902 179.014 208.117C179.544 208.053 181.969 207.73 182.977 207.119C183.985 206.509 185.003 205.528 185.099 204.345C185.137 204.067 185.116 203.784 185.038 203.515C184.959 203.246 184.825 202.996 184.644 202.782C184.463 202.568 184.239 202.394 183.986 202.272C183.734 202.15 183.459 202.083 183.178 202.074C181.491 202.074 179.751 204.568 179.284 206C179.284 206.08 179.093 206.902 178.977 207.501C178.977 207.146 178.977 206.78 178.977 206.44C178.977 205.162 179.062 203.995 179.141 202.96C179.189 202.371 179.247 201.841 179.306 201.369C179.794 201.035 181.746 199.655 182.345 198.669C182.945 197.682 183.406 196.324 182.971 195.215C182.877 194.951 182.728 194.71 182.535 194.508C182.342 194.305 182.108 194.145 181.849 194.039C181.59 193.932 181.311 193.881 181.031 193.889C180.751 193.897 180.476 193.964 180.223 194.085C178.727 194.86 178.329 197.878 178.579 199.39C178.579 199.517 179.168 201.512 179.194 201.47H179.221C179.157 201.942 179.088 202.456 179.03 203.013C178.929 204.074 178.823 205.22 178.791 206.499C178.745 207.879 178.778 209.261 178.892 210.637C179.008 212.177 179.264 213.704 179.656 215.199V215.252C179.39 214.838 178.595 213.698 178.542 213.613C177.555 212.478 174.982 210.854 173.428 211.491C173.173 211.608 172.945 211.777 172.76 211.987C172.575 212.198 172.436 212.445 172.353 212.713C172.269 212.98 172.243 213.262 172.275 213.541C172.308 213.819 172.399 214.088 172.542 214.329C173.072 215.448 174.446 215.963 175.56 216.127Z" fill="#263238"/>
<path d="M204.494 208.196C204.494 208.196 205.025 206.228 205.025 206.101C205.232 204.61 204.754 201.602 203.237 200.87C202.981 200.755 202.704 200.695 202.424 200.694C202.143 200.694 201.866 200.752 201.61 200.866C201.353 200.979 201.124 201.146 200.936 201.354C200.749 201.562 200.607 201.808 200.521 202.074C200.112 203.194 200.627 204.562 201.242 205.512C201.985 206.621 204.494 208.196 204.494 208.196Z" fill="#263238"/>
<path d="M233.056 181.321L231.852 182.536L224.181 190.207L216.504 182.536L215.295 181.321C214.791 180.817 214.392 180.219 214.119 179.561C213.846 178.903 213.706 178.198 213.706 177.486C213.706 176.773 213.846 176.068 214.119 175.41C214.392 174.752 214.791 174.154 215.295 173.65C215.798 173.146 216.396 172.747 217.055 172.474C217.713 172.202 218.418 172.061 219.13 172.061C219.843 172.061 220.548 172.202 221.206 172.474C221.864 172.747 222.462 173.146 222.966 173.65L224.181 174.865L225.39 173.65C226.408 172.633 227.787 172.063 229.225 172.063C230.663 172.064 232.042 172.635 233.059 173.653C234.075 174.67 234.646 176.049 234.646 177.487C234.645 178.926 234.073 180.305 233.056 181.321Z" stroke="#263238" stroke-width="0.530504" stroke-linecap="round" stroke-linejoin="round"/>
<path d="M38.1648 195.088L39.3001 198.573H42.9712L40.0004 200.732L41.1357 204.223L38.1648 202.064L35.1993 204.223L36.3346 200.732L33.3638 198.573H37.0349L38.1648 195.088Z" stroke="#263238" stroke-width="0.530504" stroke-linecap="round" stroke-linejoin="round"/>
<path d="M49.5921 195.088L50.7274 198.573H54.3931L51.4276 200.732L52.5576 204.223L49.5921 202.064L46.6213 204.223L47.7565 200.732L44.791 198.573H48.4568L49.5921 195.088Z" stroke="#263238" stroke-width="0.530504" stroke-linecap="round" stroke-linejoin="round"/>
<path d="M61.0135 195.088L62.1487 198.573H65.8145L62.849 200.732L63.9843 204.223L61.0135 202.064L58.0479 204.223L59.1779 200.732L56.2124 198.573H59.8782L61.0135 195.088Z" stroke="#263238" stroke-width="0.530504" stroke-linecap="round" stroke-linejoin="round"/>
<path d="M72.4406 195.088L73.5706 198.573H77.2417L74.2709 200.732L75.4062 204.223L72.4406 202.064L69.4698 204.223L70.6051 200.732L67.6343 198.573H71.3054L72.4406 195.088Z" stroke="#263238" stroke-width="0.530504" stroke-linecap="round" stroke-linejoin="round"/>
<path d="M83.8625 195.088L84.9925 198.573H88.6636L85.6981 200.732L86.828 204.223L83.8625 202.064L80.8917 204.223L82.027 200.732L79.0562 198.573H82.7272L83.8625 195.088Z" stroke="#263238" stroke-width="0.530504" stroke-linecap="round" stroke-linejoin="round"/>
<path d="M194.159 37.2785H231.825C232.444 37.2785 233.038 37.5244 233.475 37.9622C233.913 38.3999 234.159 38.9936 234.159 39.6127V65.13H191.835V39.6127C191.835 38.9955 192.08 38.4034 192.515 37.9659C192.951 37.5285 193.542 37.2813 194.159 37.2785Z" stroke="#263238" stroke-width="0.530504" stroke-linecap="round" stroke-linejoin="round"/>
<path d="M195.427 38.244H230.568C231.131 38.244 231.67 38.4676 232.068 38.8655C232.466 39.2635 232.69 39.8032 232.69 40.366V64.1644H193.305V40.366C193.305 39.8032 193.529 39.2635 193.927 38.8655C194.325 38.4676 194.864 38.244 195.427 38.244Z" stroke="#263238" stroke-width="0.530504" stroke-linecap="round" stroke-linejoin="round"/>
<path d="M189.104 65.2042H236.886C236.886 65.8758 236.62 66.52 236.145 66.9954C235.671 67.4708 235.027 67.7386 234.355 67.74H191.639C190.967 67.74 190.322 67.4729 189.846 66.9973C189.371 66.5218 189.104 65.8768 189.104 65.2042Z" stroke="#263238" stroke-width="0.530504" stroke-linecap="round" stroke-linejoin="round"/>
<path d="M56.3663 31.0239H41.1832C39.9117 31.0239 38.8809 32.0547 38.8809 33.3263V68.2918C38.8809 69.5633 39.9117 70.5942 41.1832 70.5942H56.3663C57.6378 70.5942 58.6687 69.5633 58.6687 68.2918V33.3263C58.6687 32.0547 57.6378 31.0239 56.3663 31.0239Z" stroke="#263238" stroke-width="0.530504" stroke-linecap="round" stroke-linejoin="round"/>
<path d="M38.8809 65.7347V67.9363C38.8809 69.4058 39.8623 70.5888 41.0771 70.5888H56.4618C57.6766 70.5888 58.658 69.4005 58.658 67.9363V65.7347H38.8809Z" stroke="#263238" stroke-width="0.530504" stroke-linecap="round" stroke-linejoin="round"/>
<path d="M58.6629 35.8833V33.6817C58.6629 32.2122 57.6815 31.0292 56.4666 31.0292H41.082C39.8672 31.0292 38.8857 32.2175 38.8857 33.6817V35.8833H58.6629Z" stroke="#263238" stroke-width="0.530504" stroke-linecap="round" stroke-linejoin="round"/>
<path d="M175.857 158.393V136.34C175.867 135.98 175.948 135.627 176.096 135.299C176.243 134.971 176.453 134.675 176.715 134.429C176.977 134.182 177.284 133.99 177.621 133.863C177.957 133.735 178.315 133.676 178.674 133.687H182.064L181.624 126.674L187.379 133.687H201.056C201.415 133.676 201.773 133.735 202.109 133.863C202.445 133.99 202.753 134.182 203.015 134.429C203.277 134.675 203.487 134.971 203.634 135.299C203.781 135.627 203.863 135.98 203.873 136.34V158.414C203.863 158.773 203.781 159.127 203.634 159.455C203.487 159.783 203.277 160.078 203.015 160.325C202.753 160.571 202.445 160.763 202.109 160.891C201.773 161.018 201.415 161.078 201.056 161.066H178.674C178.313 161.078 177.953 161.017 177.616 160.889C177.278 160.76 176.97 160.566 176.708 160.317C176.446 160.069 176.236 159.77 176.09 159.44C175.944 159.11 175.864 158.754 175.857 158.393Z" fill="#263238" stroke="#263238" stroke-width="0.530504" stroke-linecap="round" stroke-linejoin="round"/>
<path d="M184.499 144.164C184.499 144.164 188.637 143.634 189.544 143.257C190.451 142.881 192 141.836 191.48 139.119C190.96 136.403 192.011 136.663 193.034 137.05C194.058 137.438 194.843 139.507 194.716 140.541C194.658 141.406 194.701 142.275 194.843 143.13C194.843 143.13 199.618 143.517 200.016 143.661C200.414 143.804 200.546 145.082 200.546 145.729C200.546 146.377 200.546 147.411 200.016 147.671C199.485 147.931 198.594 148.318 198.594 148.318C198.594 148.318 197.947 152.196 197.82 153.093C197.692 153.989 197.82 154.775 196.785 155.162C195.91 155.462 194.969 155.508 194.069 155.294C193.162 155.162 184.111 154.387 184.111 154.387L184.499 144.164Z" fill="white" stroke="#263238" stroke-width="0.530504" stroke-linecap="round" stroke-linejoin="round"/>
<path d="M185.921 142.997H178.292V156.318H185.921V142.997Z" fill="#FFC100" stroke="#263238" stroke-width="0.530504" stroke-linecap="round" stroke-linejoin="round"/>
<path d="M214.382 86.1326H187.067C186.363 86.1326 185.688 86.4121 185.191 86.9095C184.694 87.407 184.414 88.0817 184.414 88.7851V93.4589L177.396 93.0451L184.414 98.4244V103.772C184.414 104.475 184.694 105.15 185.191 105.648C185.688 106.145 186.363 106.424 187.067 106.424H214.382C215.086 106.424 215.76 106.145 216.258 105.648C216.755 105.15 217.035 104.475 217.035 103.772V88.7639C217.029 88.0641 216.747 87.3949 216.25 86.902C215.754 86.4092 215.082 86.1326 214.382 86.1326Z" fill="white" stroke="#263238" stroke-width="0.530504" stroke-linecap="round" stroke-linejoin="round"/>
<path d="M196.196 100.499L195.035 112.52L200.722 107.867L206.287 112.265L204.212 99.8515L196.196 100.499Z" fill="#263238" stroke="#263238" stroke-width="0.530504" stroke-linecap="round" stroke-linejoin="round"/>
<path d="M208.483 93.199C208.483 92.2388 209.363 91.146 209.082 90.2812C208.801 89.4165 207.427 89.0186 206.881 88.2706C206.334 87.5226 206.403 86.1062 205.65 85.5545C204.897 85.0027 203.586 85.512 202.684 85.2202C201.783 84.9285 201.056 83.7507 200.09 83.7507C199.125 83.7507 198.366 84.9391 197.496 85.2202C196.626 85.5014 195.284 85.008 194.536 85.5545C193.788 86.1009 193.852 87.512 193.3 88.2706C192.748 89.0292 191.39 89.3794 191.098 90.2812C190.806 91.1831 191.698 92.2388 191.698 93.199C191.698 94.1592 190.817 95.2521 191.098 96.1221C191.379 96.9921 192.759 97.3847 193.3 98.1327C193.841 98.8807 193.777 100.297 194.536 100.849C195.295 101.401 196.6 100.891 197.496 101.183C198.393 101.475 199.13 102.653 200.09 102.653C201.05 102.653 201.814 101.464 202.684 101.183C203.554 100.902 204.897 101.395 205.65 100.849C206.403 100.302 206.329 98.8913 206.881 98.1327C207.432 97.3741 208.791 97.0239 209.082 96.1221C209.374 95.2202 208.483 94.1645 208.483 93.199Z" fill="#FFC100" stroke="#263238" stroke-width="0.530504" stroke-linecap="round" stroke-linejoin="round"/>
<path d="M201.16 100.532C205.202 99.9236 207.985 96.154 207.377 92.1123C206.769 88.0706 202.999 85.2874 198.957 85.8957C194.916 86.5041 192.132 90.2737 192.741 94.3153C193.349 98.357 197.119 101.14 201.16 100.532Z" fill="white" stroke="#263238" stroke-width="0.530504" stroke-linecap="round" stroke-linejoin="round"/>
<path d="M199.661 97.5438V90.5252L199.391 90.6525L199.072 90.7905L198.744 90.9284L198.457 91.0557V89.7082L198.791 89.5279C198.94 89.4536 199.094 89.3687 199.263 89.2732C199.433 89.1777 199.582 89.0822 199.73 88.9868C199.846 88.9106 199.954 88.8235 200.054 88.7268H201.481V97.5438H199.661Z" fill="#263238"/>
<path d="M179.395 26.1698H152.08C151.376 26.1698 150.702 26.4493 150.204 26.9467C149.707 27.4441 149.427 28.1188 149.427 28.8223V40.6685C149.427 41.372 149.707 42.0466 150.204 42.5441C150.702 43.0415 151.376 43.321 152.08 43.321H153.788L151.565 49.1565L157.751 43.321H179.395C180.099 43.321 180.774 43.0415 181.271 42.5441C181.768 42.0466 182.048 41.372 182.048 40.6685V28.8011C182.042 28.1013 181.76 27.4321 181.264 26.9392C180.767 26.4463 180.095 26.1698 179.395 26.1698Z" fill="white" stroke="#263238" stroke-width="0.530504" stroke-linecap="round" stroke-linejoin="round"/>
<path d="M160.011 36.0054C160.6 36.0054 161.077 35.528 161.077 34.9391C161.077 34.3501 160.6 33.8727 160.011 33.8727C159.422 33.8727 158.944 34.3501 158.944 34.9391C158.944 35.528 159.422 36.0054 160.011 36.0054Z" fill="#263238"/>
<path d="M165.337 36.0054C165.926 36.0054 166.404 35.528 166.404 34.9391C166.404 34.3501 165.926 33.8727 165.337 33.8727C164.748 33.8727 164.271 34.3501 164.271 34.9391C164.271 35.528 164.748 36.0054 165.337 36.0054Z" fill="#263238"/>
<path d="M170.663 36.0054C171.252 36.0054 171.729 35.528 171.729 34.9391C171.729 34.3501 171.252 33.8727 170.663 33.8727C170.074 33.8727 169.597 34.3501 169.597 34.9391C169.597 35.528 170.074 36.0054 170.663 36.0054Z" fill="#263238"/>
<path d="M111.64 57.6073L106.096 54.4774V48.3129C106.096 47.6094 105.817 46.9348 105.319 46.4373C104.822 45.9399 104.147 45.6604 103.443 45.6604H71.0827C70.3792 45.6604 69.7045 45.9399 69.2071 46.4373C68.7096 46.9348 68.4302 47.6094 68.4302 48.3129V61.9946C68.4302 62.6981 68.7096 63.3728 69.2071 63.8702C69.7045 64.3677 70.3792 64.6471 71.0827 64.6471H103.443C104.147 64.6471 104.822 64.3677 105.319 63.8702C105.817 63.3728 106.096 62.6981 106.096 61.9946V58.0901L111.64 57.6073Z" fill="#263238" stroke="#263238" stroke-width="0.530504" stroke-linecap="round" stroke-linejoin="round"/>
<path d="M74.2394 52.2386L74.8972 54.2599H77.0139L75.3004 55.5012L75.9529 57.5172L74.2394 56.2758L72.5259 57.5172L73.1784 55.5012L71.4648 54.2599H73.5869L74.2394 52.2386Z" fill="white"/>
<path d="M80.8385 52.2386L81.4963 54.2599H83.613L81.8995 55.5012L82.5573 57.5172L80.8385 56.2758L79.125 57.5172L79.7828 55.5012L78.064 54.2599H80.186L80.8385 52.2386Z" fill="white"/>
<path d="M87.4434 52.2386L88.0959 54.2599H90.218L88.4991 55.5012L89.1569 57.5172L87.4434 56.2758L85.7246 57.5172L86.3824 55.5012L84.6636 54.2599H86.7856L87.4434 52.2386Z" fill="white"/>
<path d="M94.0431 52.2386L94.6956 54.2599H96.8176L95.1041 55.5012L95.7566 57.5172L94.0431 56.2758L92.3243 57.5172L92.9821 55.5012L91.2686 54.2599H93.3853L94.0431 52.2386Z" fill="white"/>
<path d="M100.642 52.2386L101.3 54.2599H103.417L101.703 55.5012L102.356 57.5172L100.642 56.2758L98.9287 57.5172L99.5812 55.5012L97.8677 54.2599H99.9897L100.642 52.2386Z" fill="white"/>
<path d="M76.3873 100.716H68.1062V96.3236C68.1062 95.6201 67.8267 94.9454 67.3293 94.448C66.8318 93.9505 66.1571 93.6711 65.4537 93.6711H45.0505C44.347 93.6711 43.6723 93.9505 43.1749 94.448C42.6774 94.9454 42.3979 95.6201 42.3979 96.3236V108.191C42.3979 108.894 42.6774 109.569 43.1749 110.067C43.6723 110.564 44.347 110.843 45.0505 110.843H65.4749C66.1784 110.843 66.853 110.564 67.3505 110.067C67.8479 109.569 68.1274 108.894 68.1274 108.191V104.408L76.3873 100.716Z" fill="white" stroke="#263238" stroke-width="0.530504" stroke-linecap="round" stroke-linejoin="round"/>
<path d="M60.6526 102.833L59.8462 103.645L54.7534 108.743L49.6499 103.645L48.8435 102.833C48.1682 102.157 47.7891 101.24 47.7896 100.285C47.79 99.329 48.1701 98.4127 48.8462 97.7374C49.5222 97.062 50.4389 96.6829 51.3945 96.6834C52.3501 96.6839 53.2663 97.064 53.9417 97.74L54.7534 98.5464L55.5544 97.74C56.2298 97.064 57.146 96.6839 58.1016 96.6834C59.0572 96.6829 59.9738 97.062 60.6499 97.7374C61.326 98.4127 61.706 99.329 61.7065 100.285C61.707 101.24 61.3279 102.157 60.6526 102.833Z" fill="#FFC100" stroke="#263238" stroke-width="0.530504" stroke-linecap="round" stroke-linejoin="round"/>
<path d="M54.7536 130.716H84.4299C84.8431 130.73 85.2496 130.825 85.626 130.996C86.0025 131.167 86.3416 131.41 86.6239 131.712C86.9062 132.014 87.1262 132.369 87.2714 132.756C87.4165 133.143 87.4839 133.555 87.4697 133.968V136.34L95.3849 133.056L87.4697 142.483V165.406C87.4969 166.24 87.1922 167.051 86.6223 167.66C86.0524 168.27 85.264 168.629 84.4299 168.658H54.7536C53.9195 168.629 53.1311 168.27 52.5612 167.66C51.9913 167.051 51.6866 166.24 51.7138 165.406V133.968C51.6996 133.555 51.767 133.143 51.9121 132.756C52.0573 132.369 52.2773 132.014 52.5596 131.712C52.8419 131.41 53.181 131.167 53.5575 130.996C53.9339 130.825 54.3404 130.73 54.7536 130.716Z" fill="white" stroke="#263238" stroke-width="0.530504" stroke-linecap="round" stroke-linejoin="round"/>
<path d="M67.4328 154.249C72.8619 154.249 77.263 149.848 77.263 144.419C77.263 138.99 72.8619 134.589 67.4328 134.589C62.0037 134.589 57.6025 138.99 57.6025 144.419C57.6025 149.848 62.0037 154.249 67.4328 154.249Z" fill="#263238" stroke="#263238" stroke-width="0.530504" stroke-linecap="round" stroke-linejoin="round"/>
<path d="M67.2628 151.825V150.392C66.8443 150.401 66.4288 150.32 66.0444 150.154C65.66 149.989 65.3156 149.742 65.0346 149.432C64.471 148.636 64.189 147.675 64.2336 146.7L66.4405 146.371C66.4407 146.778 66.4833 147.183 66.5678 147.581C66.6147 147.83 66.7326 148.06 66.9073 148.244C67.0517 148.377 67.2417 148.449 67.4378 148.446C67.5432 148.459 67.65 148.44 67.7446 148.392C67.8392 148.343 67.9171 148.268 67.9683 148.175C68.0508 147.993 68.0924 147.796 68.0903 147.597C68.1056 147.165 67.989 146.74 67.7561 146.377C67.4966 145.998 67.188 145.655 66.8383 145.358L65.8145 144.477C65.5355 144.228 65.2733 143.96 65.0293 143.676C64.7876 143.394 64.5957 143.073 64.4617 142.727C64.3055 142.313 64.2317 141.874 64.2442 141.432C64.2217 141.04 64.2798 140.646 64.4148 140.277C64.5498 139.907 64.7589 139.569 65.0293 139.284C65.6054 138.741 66.3602 138.428 67.1513 138.403V137.034H67.8887V138.387C68.3627 138.394 68.8262 138.528 69.2309 138.774C69.551 138.982 69.8122 139.269 69.9895 139.607C70.1554 139.942 70.2715 140.3 70.3344 140.668C70.3959 141.008 70.4314 141.352 70.4405 141.697L68.2071 141.973C68.2071 141.62 68.1858 141.317 68.1434 141.066C68.1247 140.853 68.0556 140.648 67.9418 140.467C67.8845 140.394 67.8094 140.338 67.7238 140.304C67.6382 140.269 67.5451 140.258 67.4537 140.27C67.3458 140.266 67.2387 140.292 67.1448 140.345C67.051 140.399 66.9741 140.478 66.9232 140.573C66.812 140.755 66.7516 140.964 66.7482 141.178C66.7278 141.581 66.854 141.979 67.1036 142.297C67.3393 142.583 67.5965 142.851 67.8728 143.098L68.8543 143.947C69.1779 144.243 69.4793 144.562 69.7561 144.902C70.0329 145.24 70.2549 145.619 70.4139 146.026C70.5848 146.482 70.6676 146.967 70.658 147.453C70.6634 147.939 70.5544 148.419 70.3397 148.854C70.1335 149.273 69.8206 149.629 69.4325 149.888C69.008 150.161 68.5238 150.327 68.0214 150.371V151.814L67.2628 151.825Z" fill="white"/>
<path d="M85.1353 144.679L78.5093 146.95L80.3342 148.541L71.0504 159.151L65.4589 156.069C65.2782 155.97 65.0726 155.926 64.8672 155.942C64.6619 155.958 64.4656 156.033 64.3024 156.159L55.5279 162.865C55.3042 163.036 55.1575 163.288 55.1202 163.568C55.0829 163.847 55.158 164.129 55.3289 164.353C55.4999 164.576 55.7527 164.723 56.0318 164.76C56.3108 164.798 56.5933 164.723 56.817 164.552L65.0557 158.249L70.7852 161.406C70.9969 161.523 71.2422 161.564 71.4805 161.523C71.7188 161.481 71.9358 161.359 72.0955 161.178L81.947 149.947L83.7719 151.538L85.1353 144.679Z" fill="#FFC100" stroke="#263238" stroke-width="0.530504" stroke-linecap="round" stroke-linejoin="round"/>
<path d="M113.183 149.363C113.183 149.363 115.491 193.395 116.647 202.318C117.804 211.241 120.111 224.26 120.111 224.26C120.111 224.26 118.462 225.416 118.133 226.573C117.804 227.729 118.297 232.016 118.297 232.016L130.34 232.838C130.34 232.838 130.833 229.873 130.833 223.103V213.024C130.833 211.708 132.817 155.284 132.817 155.284L134.297 213.194C134.297 213.194 133.804 231.172 134.631 231.501C135.446 231.922 136.219 232.42 136.939 232.987L147.496 232.658C147.943 230.707 148.22 228.72 148.324 226.721C148.324 224.408 146.838 219.958 147.003 217.48C147.167 215.003 151.459 194.881 151.459 191.416V137.48H113.523L113.183 149.363Z" fill="#263238" stroke="#263238" stroke-width="0.530504" stroke-linecap="round" stroke-linejoin="round"/>
<path d="M129.183 232.016C129.183 232.016 124.732 228.223 122.753 228.552C120.775 228.881 118.955 230.037 118.79 230.53C118.626 231.024 117.47 232.016 117.141 233.003C116.812 233.989 111.533 238.944 110.377 240.265C109.22 241.586 108.398 241.751 109.39 242.573C110.004 243.075 110.733 243.416 111.512 243.565H130.34C130.34 243.565 131.003 242.08 130.833 239.109C130.663 236.138 130.34 232.838 130.34 232.838L129.183 232.016Z" fill="white" stroke="#263238" stroke-width="0.530504" stroke-linecap="round" stroke-linejoin="round"/>
<path d="M108.95 241.91C108.95 242.101 109.066 242.297 109.39 242.568C110.004 243.069 110.733 243.41 111.512 243.56H130.34C130.54 243.028 130.674 242.474 130.738 241.91H108.95Z" fill="white" stroke="#263238" stroke-width="0.530504" stroke-linecap="round" stroke-linejoin="round"/>
<path d="M137.008 232.016C137.008 232.016 141.204 228.223 143.071 228.552C144.939 228.881 146.647 230.037 146.785 230.53C146.923 231.024 148.026 232.016 148.339 233.003C148.652 233.989 153.644 238.944 154.705 240.265C155.766 241.586 156.573 241.751 155.639 242.573C155.064 243.075 154.367 243.417 153.618 243.565H135.899C135.899 243.565 135.278 242.08 135.432 239.109C135.586 236.138 135.899 232.838 135.899 232.838L137.008 232.016Z" fill="white" stroke="#263238" stroke-width="0.530504" stroke-linecap="round" stroke-linejoin="round"/>
<path d="M156.074 241.91C156.074 242.101 155.963 242.297 155.661 242.568C155.085 243.069 154.388 243.411 153.639 243.56H135.921C135.732 243.026 135.605 242.473 135.544 241.91H156.074Z" fill="white" stroke="#263238" stroke-width="0.530504" stroke-linecap="round" stroke-linejoin="round"/>
<path d="M127.088 78.3395L122.313 82.3926L123.172 138.393H143.804C143.804 138.393 144.785 81.1618 144.419 80.3024C144.053 79.443 141.841 78.5836 141.841 78.5836L127.088 78.3395Z" fill="white" stroke="#263238" stroke-width="0.530504" stroke-linecap="round" stroke-linejoin="round"/>
<path d="M162.08 102.737L170.287 105.008C170.287 105.008 161.974 89.7613 160.462 86.1062C159.279 83.252 157.809 82.3926 157.199 82.1645C154.053 80.1327 141.846 78.5836 141.846 78.5836L140.892 106.546L139.433 152.955H156.796C156.796 152.955 155.332 136.568 154.525 131.374L153.385 124.069C153.385 124.069 154.791 112.928 156.037 102.26L162.08 102.737Z" fill="#FFC100" stroke="#263238" stroke-width="0.530504" stroke-linecap="round" stroke-linejoin="round"/>
<path d="M143.761 113.761C143.225 115.166 142.55 116.513 141.745 117.783" stroke="#263238" stroke-width="0.530504" stroke-linecap="round" stroke-linejoin="round"/>
<path d="M144.403 80.3024L147.289 86.7268L144.918 89.2998L148.674 93.8462C148.674 93.8462 147.21 103.751 144.626 111.422" stroke="#263238" stroke-width="0.530504" stroke-linecap="round" stroke-linejoin="round"/>
<path d="M125.676 64.7586C125.676 64.7586 124.132 62.6366 123.023 64.1592C121.915 65.6817 126.111 70.939 126.111 70.939L125.676 64.7586Z" fill="white" stroke="#263238" stroke-width="0.530504" stroke-linecap="round" stroke-linejoin="round"/>
<path d="M143.528 64.7586C143.528 64.7586 145.072 62.6366 146.181 64.1592C147.29 65.6817 143.093 70.939 143.093 70.939L143.528 64.7586Z" fill="white" stroke="#263238" stroke-width="0.530504" stroke-linecap="round" stroke-linejoin="round"/>
<path d="M125.331 63.5596C125.331 63.5596 126.276 73.427 126.451 75.1458C126.626 76.8646 127.22 80.5516 127.91 81.8354C128.599 83.1193 133.315 87.9309 134.599 87.4164C135.883 86.9018 140.35 82.2652 141.554 80.8912C142.758 79.5171 142.323 77.0291 142.498 76.4296C142.673 75.8301 143.352 69.9097 143.352 69.9097L143.761 63.6604C143.761 63.6604 143.936 63.0609 143.676 59.1988C143.416 55.3368 143.421 53.6179 142.992 52.6736C142.562 51.7293 141.448 51.2148 139.469 50.7002C137.49 50.1856 132.78 50.2758 129.862 51.7347C126.944 53.1935 125.485 55.2519 125.4 56.0211C125.315 56.7904 125.331 63.5596 125.331 63.5596Z" fill="white" stroke="#263238" stroke-width="0.530504" stroke-linecap="round" stroke-linejoin="round"/>
<path d="M133.231 60.7268C133.231 60.7268 130.578 59.008 129.109 61.2573" stroke="#263238" stroke-width="0.530504" stroke-linecap="round" stroke-linejoin="round"/>
<path d="M136.918 60.8966C137.481 60.5545 138.142 60.4109 138.796 60.4888C139.45 60.5666 140.059 60.8616 140.525 61.3263" stroke="#263238" stroke-width="0.530504" stroke-linecap="round" stroke-linejoin="round"/>
<path d="M136.149 61.756C136.503 62.4068 136.686 63.1371 136.679 63.878C136.764 65.4218 136.504 68.5942 136.504 68.5942L133.247 68.2493" stroke="#263238" stroke-width="0.530504" stroke-linecap="round" stroke-linejoin="round"/>
<path d="M131.512 69.3953C131.512 69.3953 133.14 72.0478 137.262 70.6791" stroke="#263238" stroke-width="0.530504" stroke-linecap="round" stroke-linejoin="round"/>
<path d="M132.027 63.2573C132.027 63.756 131.799 64.1592 131.496 64.1592C131.194 64.1592 130.966 63.756 130.966 63.2573C130.966 62.7587 131.199 62.3555 131.496 62.3555C131.793 62.3555 132.027 62.7587 132.027 63.2573Z" fill="#263238"/>
<path d="M139.321 63.2573C139.321 63.756 139.093 64.1592 138.791 64.1592C138.488 64.1592 138.26 63.756 138.26 63.2573C138.26 62.7587 138.488 62.3555 138.791 62.3555C139.093 62.3555 139.321 62.7587 139.321 63.2573Z" fill="#263238"/>
<path d="M132.716 64.4191C132.036 65.0613 131.212 65.5308 130.313 65.7878" stroke="#263238" stroke-width="0.530504" stroke-linecap="round" stroke-linejoin="round"/>
<path d="M137.777 64.4191C137.777 64.4191 138.807 65.6181 140.011 65.7878" stroke="#263238" stroke-width="0.530504" stroke-linecap="round" stroke-linejoin="round"/>
<path d="M131.597 77.6339C131.597 77.6339 133.231 79.6074 137.777 77.7188" stroke="#263238" stroke-width="0.530504" stroke-linecap="round" stroke-linejoin="round"/>
<path d="M124.393 55.4907C124.393 55.4907 124.647 64.1592 124.923 64.3289C125.199 64.4987 125.952 64.6738 126.122 64.0743C126.228 63.1339 126.257 62.1864 126.207 61.2414C126.207 61.2414 127.067 61.1565 127.236 59.7825C127.406 58.4085 126.637 56.0053 126.637 56.0053C126.637 56.0053 129.724 53.7772 132.642 52.9178C135.56 52.0584 137.109 53.3475 138.907 53.4483C139.964 53.5082 141.004 53.1715 141.825 52.504C141.825 52.504 140.966 53.7931 140.966 54.3926C140.966 54.9921 142.085 58.1698 141.91 59.1141C141.735 60.0584 141.57 61.0876 142.085 61.4271C142.6 61.7666 143.199 62.2016 143.199 62.2016C143.199 62.2016 143.199 64.5199 143.544 64.6897C143.889 64.8595 144.488 63.9205 144.573 62.6313C144.658 61.3422 144.658 58.2547 145.104 57.3263C145.549 56.3979 146.218 55.6976 145.703 54.3236C145.189 52.9496 143.385 51.7507 143.13 51.6711C142.876 51.5915 139.613 47.3846 135.406 46.3661C131.199 45.3475 124.509 51.3475 123.82 53.2361C123.13 55.1247 124.393 55.4907 124.393 55.4907Z" fill="#263238" stroke="#263238" stroke-width="0.530504" stroke-linecap="round" stroke-linejoin="round"/>
<path d="M86.5254 85.9417C86.0395 84.7349 85.6441 83.4936 85.3424 82.2282C85.1567 81.0451 83.6978 79.13 82.2442 78.5836C80.6738 77.977 79.2687 77.0082 78.1434 75.756C76.8649 74.3926 76.1381 73.9364 75.9524 75.2998C75.7668 76.6632 76.6845 77.3051 77.597 78.1274C78.5095 78.9496 79.4166 79.6764 79.4166 79.6764C78.5023 79.9728 77.5539 80.1511 76.5943 80.2069C74.9101 80.2899 73.2226 80.1364 71.5811 79.7507C70.2124 79.3847 65.475 75.9258 65.9312 77.2892C66.3875 78.6526 68.6633 80.3873 70.4882 82.1221C72.3132 83.8568 73.4962 84.7746 75.5917 85.4006C77.6872 86.0266 81.0559 86.8595 81.0559 86.8595L82.971 89.4112L86.5254 85.9417Z" fill="white" stroke="#263238" stroke-width="0.530504" stroke-linecap="round" stroke-linejoin="round"/>
<path d="M72.4029 83.4854C72.4029 83.4854 69.4851 81.2998 69.0289 78.8382C68.5727 76.3767 68.7583 75.4695 69.3949 75.8303C70.0316 76.191 71.5806 79.7507 71.5806 79.7507L74.3127 82.7586" fill="white"/>
<path d="M72.4029 83.4854C72.4029 83.4854 69.4851 81.2998 69.0289 78.8382C68.5727 76.3767 68.7583 75.4695 69.3949 75.8303C70.0316 76.191 71.5806 79.7507 71.5806 79.7507L74.3127 82.7586" stroke="#263238" stroke-width="0.530504" stroke-linecap="round" stroke-linejoin="round"/>
<path d="M74.8597 84.6738C74.8597 84.6738 72.1276 83.0292 71.8571 81.39C71.5865 79.7507 70.9446 74.9231 71.5812 75.2839C72.2178 75.6446 73.4963 80.7534 73.4963 80.7534L75.0454 82.1221" fill="white"/>
<path d="M74.8597 84.6738C74.8597 84.6738 72.1276 83.0292 71.8571 81.39C71.5865 79.7507 70.9446 74.9231 71.5812 75.2839C72.2178 75.6446 73.4963 80.7534 73.4963 80.7534L75.0454 82.1221" stroke="#263238" stroke-width="0.530504" stroke-linecap="round" stroke-linejoin="round"/>
<path d="M76.387 84.764C76.387 84.764 74.7477 81.581 74.3817 80.5731C74.0156 79.5651 73.1986 75.3794 74.0209 75.5598C74.8432 75.7402 75.57 79.9312 75.57 79.9312L77.6655 82.5837C77.6655 82.5837 80.578 81.6712 81.379 81.8516C82.1801 82.0319 83.204 83.6765 83.204 83.6765" fill="white"/>
<path d="M76.387 84.764C76.387 84.764 74.7477 81.581 74.3817 80.5731C74.0156 79.5651 73.1986 75.3794 74.0209 75.5598C74.8432 75.7402 75.57 79.9312 75.57 79.9312L77.6655 82.5837C77.6655 82.5837 80.578 81.6712 81.379 81.8516C82.1801 82.0319 83.204 83.6765 83.204 83.6765" stroke="#263238" stroke-width="0.530504" stroke-linecap="round" stroke-linejoin="round"/>
<path d="M88.69 87.3899L86.5096 85.3687L81.125 90.9867L82.7059 93.061L88.69 87.3899Z" fill="white" stroke="#263238" stroke-width="0.530504" stroke-linecap="round" stroke-linejoin="round"/>
<path d="M127.088 78.3395C127.088 78.3395 125.242 92.9496 124.998 101.305C124.753 109.66 125.613 153.501 125.613 153.501L109.279 153.008C109.279 153.008 111.12 137.533 112.462 131.883C113.385 127.527 113.715 123.066 113.443 118.621C113.321 117.883 112.462 111.13 112.462 111.13C112.462 111.13 103.247 117.268 102.143 117.146C101.04 117.024 94.6527 112.371 89.7402 106.218C86.6161 102.181 84.093 97.7142 82.2495 92.9549L88.0585 86.3183L101.814 100.074C101.814 100.074 108.934 85.7082 109.671 85.3369C110.409 84.9655 127.088 78.3395 127.088 78.3395Z" fill="#FFC100" stroke="#263238" stroke-width="0.530504" stroke-linecap="round" stroke-linejoin="round"/>
<path d="M120.303 103.592C121.197 108.351 122.478 113.03 124.133 117.581" stroke="#263238" stroke-width="0.530504" stroke-linecap="round" stroke-linejoin="round"/>
<path d="M123.953 80.7905L120.982 88.3077L123.358 90.2865L119.205 94.6366C119.302 96.8791 119.54 99.1133 119.915 101.326" stroke="#263238" stroke-width="0.530504" stroke-linecap="round" stroke-linejoin="round"/>
<path d="M112.101 109.162C112.101 109.162 109.644 98.3554 108.917 94.0583L112.101 109.162Z" fill="white"/>
<path d="M112.101 109.162C112.101 109.162 109.644 98.3554 108.917 94.0583" stroke="#263238" stroke-width="0.530504" stroke-linecap="round" stroke-linejoin="round"/>
<path d="M126.822 86.6843L128.918 92.8329L134.605 87.4164L139.119 93.252L141.098 88.0053" fill="white"/>
<path d="M126.822 86.6843L128.918 92.8329L134.605 87.4164L139.119 93.252L141.098 88.0053" stroke="#263238" stroke-width="0.530504" stroke-linecap="round" stroke-linejoin="round"/>
<path d="M136.791 90.5942L134.223 95.1778L131.273 90.5624L134.605 87.4165L136.791 90.5942Z" fill="#263238" stroke="#263238" stroke-width="0.530504" stroke-linecap="round" stroke-linejoin="round"/>
<path d="M134.223 95.1779L128.504 133.47L133.602 137.57L137.581 133.348L134.223 95.1779Z" fill="#263238" stroke="#263238" stroke-width="0.530504" stroke-linecap="round" stroke-linejoin="round"/>
<path d="M156.946 79.6263C161.022 78.6575 163.541 74.5677 162.572 70.4915C161.603 66.4153 157.513 63.8963 153.437 64.8651C149.361 65.8339 146.842 69.9237 147.811 73.9999C148.78 78.0761 152.87 80.5951 156.946 79.6263Z" fill="white" stroke="#263238" stroke-width="0.530504" stroke-linecap="round" stroke-linejoin="round"/>
<path d="M150.207 82.0053C150.207 82.0053 149.947 85.4005 150.144 86.0531C150.34 86.7056 151.735 89.3157 151.735 89.3157C151.735 89.3157 151.539 91.1459 151.862 91.7348C152.186 92.3236 155.321 96.0424 155.321 96.0424L159.035 92.7745L156.929 88.5942L156.865 83.1777C156.865 83.1777 152.78 79.6605 150.207 82.0053Z" fill="white" stroke="#263238" stroke-width="0.530504" stroke-linecap="round" stroke-linejoin="round"/>
<path d="M152.053 78.26L153.199 87.6764C153.263 88.1556 153.512 88.5907 153.893 88.8883C154.274 89.1858 154.756 89.3222 155.236 89.268C155.698 89.2161 156.124 88.9917 156.428 88.6396C156.732 88.2875 156.892 87.8336 156.876 87.3687L156.547 77.7507C156.547 77.7507 153.714 75.6234 152.053 78.26Z" fill="white" stroke="#263238" stroke-width="0.530504" stroke-linecap="round" stroke-linejoin="round"/>
<path d="M152.249 80.3131C152.249 80.3131 149.809 80.6049 149.809 81.3741C149.809 82.1433 150.684 85.6712 151.464 85.8675C152.244 86.0638 152.833 86.0638 152.833 84.4988C152.753 83.09 152.558 81.69 152.249 80.3131Z" fill="white" stroke="#263238" stroke-width="0.530504" stroke-linecap="round" stroke-linejoin="round"/>
<path d="M158.011 82.9496C158.011 82.9496 152.345 83.4377 152.249 84.0107C152.154 84.5836 152.345 86.0637 152.737 86.0637C153.13 86.0637 158.202 86.1008 158.302 85.5332C158.403 84.9656 158.695 83.7295 158.011 82.9496Z" fill="white" stroke="#263238" stroke-width="0.530504" stroke-linecap="round" stroke-linejoin="round"/>
<path d="M157.836 85.6975C157.836 85.6975 152.791 85.9787 152.685 86.4986C152.579 87.0185 152.717 88.3235 153.067 88.3341C153.417 88.3447 157.921 88.5145 158.027 88.0211C158.133 87.5278 158.425 86.4084 157.836 85.6975Z" fill="white" stroke="#263238" stroke-width="0.530504" stroke-linecap="round" stroke-linejoin="round"/>
<path d="M157.146 88.1486C157.146 88.1486 152.966 88.382 152.902 88.8117C152.839 89.2414 152.929 90.3236 153.22 90.3342C153.512 90.3448 157.236 90.4828 157.321 90.0743C157.406 89.6658 157.634 88.7374 157.146 88.1486Z" fill="white" stroke="#263238" stroke-width="0.530504" stroke-linecap="round" stroke-linejoin="round"/>
<path d="M157.618 80.4085C157.618 80.4085 151.952 80.8966 151.857 81.4695C151.761 82.0425 151.952 83.5173 152.345 83.5173C152.737 83.5173 157.809 83.5597 157.91 82.9867C158.011 82.4138 158.302 81.1671 157.618 80.4085Z" fill="white" stroke="#263238" stroke-width="0.530504" stroke-linecap="round" stroke-linejoin="round"/>
<path d="M158.944 90.9178L157.299 90.0743L152.838 95.5438L154.668 97.9842L158.944 90.9178Z" fill="white" stroke="#263238" stroke-width="0.530504" stroke-linecap="round" stroke-linejoin="round"/>
<path d="M158.616 89.9523C158.616 89.9523 156.992 93.7348 155.778 95.0876C154.563 96.4403 153.205 97.6552 153.205 97.6552C153.205 97.6552 158.881 111.04 159.677 113.607C160.473 116.175 163.597 117.931 164.95 118.334C166.303 118.737 169.544 117.66 170.785 116.308C172.027 114.955 173.756 110.631 172.812 108.202C171.868 105.772 158.616 89.9523 158.616 89.9523Z" fill="#FFC100" stroke="#263238" stroke-width="0.530504" stroke-linecap="round" stroke-linejoin="round"/>
<path d="M167.915 82.3101C175.252 80.411 179.661 72.923 177.762 65.5851C175.863 58.2472 168.375 53.8382 161.037 55.7373C153.699 57.6363 149.29 65.1244 151.19 72.4622C153.089 79.8001 160.577 84.2091 167.915 82.3101Z" fill="#FFC100" stroke="#263238" stroke-width="0.530504" stroke-linecap="round" stroke-linejoin="round"/>
<path d="M166.993 79.9144C173.01 78.523 176.761 72.5169 175.369 66.4995C173.978 60.482 167.972 56.7319 161.954 58.1234C155.937 59.5148 152.187 65.5209 153.578 71.5383C154.969 77.5558 160.976 81.3059 166.993 79.9144Z" fill="#263238" stroke="#263238" stroke-width="0.530504" stroke-linecap="round" stroke-linejoin="round"/>
<path d="M163.395 74.1062C165.9 74.1062 167.931 72.0754 167.931 69.5704C167.931 67.0653 165.9 65.0345 163.395 65.0345C160.89 65.0345 158.859 67.0653 158.859 69.5704C158.859 72.0754 160.89 74.1062 163.395 74.1062Z" fill="white" stroke="#263238" stroke-width="0.530504" stroke-linecap="round" stroke-linejoin="round"/>
<path d="M166.976 69.0345C166.977 68.539 166.831 68.0544 166.557 67.6419C166.282 67.2294 165.892 66.9077 165.434 66.7173C164.977 66.527 164.473 66.4767 163.987 66.5727C163.501 66.6687 163.054 66.9068 162.704 67.2567C162.353 67.6067 162.114 68.0529 162.017 68.5387C161.92 69.0246 161.969 69.5283 162.158 69.9862C162.348 70.444 162.669 70.8354 163.081 71.1108C163.492 71.3862 163.977 71.5332 164.472 71.5332C165.135 71.5332 165.772 71.2701 166.241 70.8016C166.71 70.3332 166.975 69.6977 166.976 69.0345Z" fill="#FFC100" stroke="#263238" stroke-width="0.530504" stroke-linecap="round" stroke-linejoin="round"/>
<path d="M241.942 243.565H247.693" stroke="#263238" stroke-width="0.530504" stroke-linecap="round" stroke-linejoin="round"/>
<path d="M26.3081 243.565H237.995" stroke="#263238" stroke-width="0.530504" stroke-linecap="round" stroke-linejoin="round"/>
</svg>
