<svg width="24" height="24" viewBox="0 0 24 24" fill="none" xmlns="http://www.w3.org/2000/svg">
<g clip-path="url(#clip0_688_1859)">
<path fill-rule="evenodd" clip-rule="evenodd" d="M2.64955 20.9995V5.68381H21.3484V20.9995C21.3484 21.193 21.1915 21.3499 20.998 21.3499H3.00002C2.80646 21.3499 2.64955 21.193 2.64955 20.9995ZM3.00002 0.0795898C1.3863 0.0795898 0.078125 1.38776 0.078125 3.00148V20.9995C0.078125 22.6131 1.3863 23.9213 3.00002 23.9213H20.998C22.6117 23.9213 23.9198 22.6131 23.9198 20.9995V3.00148C23.9198 1.38776 22.6117 0.0795898 20.998 0.0795898H3.00002ZM17.2523 11.0348C17.7199 10.5004 17.6658 9.68816 17.1314 9.22057C16.597 8.75298 15.7847 8.80712 15.3171 9.34151L10.1023 15.3013L7.62759 13.4453C7.05953 13.0193 6.25365 13.1344 5.8276 13.7024C5.40154 14.2705 5.51667 15.0764 6.08474 15.5024L9.51331 18.0739C10.0513 18.4774 10.8095 18.398 11.2523 17.892L17.2523 11.0348Z" fill="#1E1E1E"/>
</g>
<defs>
<clipPath id="clip0_688_1859">
<rect width="24" height="24" fill="white"/>
</clipPath>
</defs>
</svg>
