<svg width="18" height="18" viewBox="0 0 18 18" fill="white" xmlns="http://www.w3.org/2000/svg">
<g clip-path="url(#clip0_814_4467)">
<path fill-rule="evenodd" clip-rule="evenodd" d="M10.2857 5.78573C10.2857 7.91597 8.55881 9.64288 6.42857 9.64288C4.29834 9.64288 2.57143 7.91597 2.57143 5.78573C2.57143 3.6555 4.29834 1.92859 6.42857 1.92859C8.55881 1.92859 10.2857 3.6555 10.2857 5.78573ZM6.42857 10.9286C2.87817 10.9286 0 13.8068 0 17.3571C0 17.7121 0.287817 18 0.642857 18H12.2143C12.5693 18 12.8571 17.7121 12.8571 17.3571C12.8571 13.8068 9.97897 10.9286 6.42857 10.9286ZM17.3573 18H14.3712C14.4319 17.7963 14.4644 17.5805 14.4644 17.3571C14.4644 14.7329 13.2065 12.4025 11.2607 10.9359C11.3637 10.931 11.4673 10.9286 11.5715 10.9286C15.1219 10.9286 18.0001 13.8068 18.0001 17.3571C18.0001 17.7121 17.7123 18 17.3573 18ZM11.5715 9.64288C11.1836 9.64288 10.809 9.5856 10.4559 9.47905C11.3483 8.5065 11.893 7.20972 11.893 5.78573C11.893 4.36174 11.3483 3.06497 10.4558 2.0924C10.809 1.98585 11.1836 1.92859 11.5715 1.92859C13.7017 1.92859 15.4287 3.6555 15.4287 5.78573C15.4287 7.91597 13.7017 9.64288 11.5715 9.64288Z" fill="#1E0342"/>
</g>
<defs>
<clipPath id="clip0_814_4467">
<rect width="18" height="18" fill="white"/>
</clipPath>
</defs>
</svg>
