<svg width="24" height="24" viewBox="0 0 24 24" fill="none" xmlns="http://www.w3.org/2000/svg">
<g clip-path="url(#clip0_183_1630)">
<path d="M8.96599 3.85693L9.70314 1.95408C9.82746 1.6319 10.0462 1.35478 10.3307 1.15901C10.6151 0.963243 10.9521 0.857954 11.2974 0.856934H12.7031C13.0485 0.857954 13.3854 0.963243 13.6699 1.15901C13.9544 1.35478 14.1731 1.6319 14.2974 1.95408L15.0346 3.85693L17.5374 5.29693L19.5602 4.98836C19.8971 4.94264 20.2399 4.99808 20.5452 5.14765C20.8504 5.29722 21.1043 5.53416 21.2745 5.82836L21.9602 7.02836C22.1359 7.32725 22.217 7.67239 22.1925 8.01823C22.168 8.36407 22.0392 8.69436 21.8231 8.96551L20.5716 10.5598V13.4398L21.8574 15.0341C22.0735 15.3052 22.2023 15.6355 22.2268 15.9814C22.2513 16.3272 22.1702 16.6723 21.9945 16.9712L21.3088 18.1712C21.1386 18.4654 20.8847 18.7023 20.5795 18.852C20.2742 19.0014 19.9314 19.057 19.5945 19.0112L17.5716 18.7026L15.0689 20.1426L14.3317 22.0455C14.2074 22.3676 13.9887 22.6448 13.7042 22.8406C13.4197 23.0364 13.0827 23.1416 12.7374 23.1426H11.2974C10.9521 23.1416 10.6151 23.0364 10.3307 22.8406C10.0462 22.6448 9.82746 22.3676 9.70314 22.0455L8.96599 20.1426L6.46314 18.7026L4.44028 19.0112C4.10346 19.057 3.76063 19.0014 3.45539 18.852C3.15016 18.7023 2.89627 18.4654 2.72599 18.1712L2.04028 16.9712C1.86457 16.6723 1.78362 16.3272 1.8081 15.9814C1.83258 15.6355 1.96135 15.3052 2.17742 15.0341L3.42885 13.4398V10.5598L2.14314 8.96551C1.92707 8.69436 1.79829 8.36407 1.77381 8.01823C1.74933 7.67239 1.83028 7.32725 2.00599 7.02836L2.69171 5.82836C2.86199 5.53416 3.11587 5.29722 3.4211 5.14765C3.72635 4.99808 4.06917 4.94264 4.40599 4.98836L6.42885 5.29693L8.96599 3.85693ZM8.57171 11.9998C8.57171 12.6779 8.77279 13.3408 9.14953 13.9046C9.52627 14.4684 10.0617 14.9079 10.6882 15.1674C11.3147 15.4269 12.0041 15.4948 12.6692 15.3625C13.3342 15.2302 13.9452 14.9037 14.4247 14.4242C14.9041 13.9447 15.2307 13.3337 15.363 12.6687C15.4953 12.0036 15.4274 11.3142 15.1679 10.6877C14.9084 10.0612 14.4689 9.52577 13.9051 9.14904C13.3413 8.77231 12.6784 8.57122 12.0003 8.57122C11.091 8.57122 10.2189 8.93244 9.57592 9.57543C8.93294 10.2184 8.57171 11.0905 8.57171 11.9998Z" stroke="#6F6F6F" stroke-width="1.71429" stroke-linecap="round" stroke-linejoin="round"/>
</g>
<defs>
<clipPath id="clip0_183_1630">
<rect width="24" height="24" fill="white"/>
</clipPath>
</defs>
</svg>
