<svg width="200" height="200" viewBox="0 0 200 200" fill="none" xmlns="http://www.w3.org/2000/svg">
<path d="M200 152.96H0V153.06H200V152.96Z" fill="#EBEBEB"/>
<path d="M179.96 159.396H166.712V159.496H179.96V159.396Z" fill="#EBEBEB"/>
<path d="M132.488 160.484H129.012V160.584H132.488V160.484Z" fill="#EBEBEB"/>
<path d="M166.312 155.684H158.636V155.784H166.312V155.684Z" fill="#EBEBEB"/>
<path d="M38.2604 156.356H20.9844V156.456H38.2604V156.356Z" fill="#EBEBEB"/>
<path d="M44.3562 156.356H41.8242V156.456H44.3562V156.356Z" fill="#EBEBEB"/>
<path d="M90.0599 158.044H52.5879V158.144H90.0599V158.044Z" fill="#EBEBEB"/>
<path d="M94.8002 135.12H17.5642C16.9591 135.119 16.3792 134.878 15.9517 134.45C15.5243 134.021 15.2842 133.441 15.2842 132.836V24.264C15.2894 23.6624 15.5319 23.0872 15.9588 22.6633C16.3857 22.2394 16.9626 22.001 17.5642 22H94.8002C95.4059 22 95.9869 22.2406 96.4152 22.669C96.8435 23.0973 97.0842 23.6782 97.0842 24.284V132.836C97.0842 133.442 96.8435 134.023 96.4152 134.451C95.9869 134.879 95.4059 135.12 94.8002 135.12ZM17.5642 22.08C16.9856 22.0811 16.4312 22.3116 16.0224 22.7211C15.6137 23.1306 15.3842 23.6855 15.3842 24.264V132.836C15.3842 133.415 15.6137 133.969 16.0224 134.379C16.4312 134.788 16.9856 135.019 17.5642 135.02H94.8002C95.3791 135.019 95.934 134.789 96.3433 134.379C96.7527 133.97 96.9831 133.415 96.9842 132.836V24.264C96.9831 23.6851 96.7527 23.1302 96.3433 22.7208C95.934 22.3115 95.3791 22.0811 94.8002 22.08H17.5642Z" fill="#EBEBEB"/>
<path d="M181.324 135.12H104.084C103.478 135.119 102.898 134.878 102.47 134.45C102.042 134.022 101.801 133.441 101.8 132.836V24.264C101.806 23.662 102.049 23.0868 102.477 22.663C102.904 22.2392 103.482 22.001 104.084 22H181.324C181.925 22.0021 182.501 22.2409 182.927 22.6647C183.353 23.0885 183.595 23.6631 183.6 24.264V132.836C183.6 133.44 183.36 134.02 182.934 134.448C182.507 134.876 181.928 135.118 181.324 135.12ZM104.084 22.08C103.505 22.0811 102.95 22.3115 102.541 22.7208C102.131 23.1302 101.901 23.6851 101.9 24.264V132.836C101.901 133.415 102.131 133.97 102.541 134.379C102.95 134.789 103.505 135.019 104.084 135.02H181.324C181.903 135.019 182.458 134.789 182.867 134.379C183.276 133.97 183.507 133.415 183.508 132.836V24.264C183.507 23.6851 183.276 23.1302 182.867 22.7208C182.458 22.3115 181.903 22.0811 181.324 22.08H104.084Z" fill="#EBEBEB"/>
<path d="M116.74 33.8479H80.3799V79.1839H116.74V33.8479Z" fill="#F5F5F5"/>
<path d="M87.0402 39.7641C91.6202 36.4841 91.6322 34.6841 94.9122 38.3601C98.1922 42.0361 100.476 46.4841 106.428 44.1641C112.38 41.8441 115.696 47.8481 111.884 53.3641C108.072 58.8801 109.484 66.4401 111.884 70.0521C114.284 73.6641 113.172 78.5321 109.324 75.8081C105.476 73.0841 100.268 73.0881 96.5442 75.0081C92.8202 76.9281 88.4642 81.6761 88.7962 73.3761C89.1282 65.0761 84.8602 67.6761 83.7602 63.4801C82.6602 59.2841 87.9682 61.9441 87.0402 52.7521C86.1122 43.5601 82.9802 42.6761 87.0402 39.7641Z" fill="#E0E0E0"/>
<path d="M109.44 38.3599C103.872 35.8919 101.512 34.6759 98.9037 40.1759C96.2957 45.6759 91.0397 52.9959 87.2477 50.9759C83.4557 48.9559 84.6037 58.1759 91.8877 55.8639C99.1717 53.5519 100.928 54.7199 103.488 60.2639C106.048 65.8079 105.444 68.9039 108.536 66.8799C111.628 64.8559 107.36 58.6239 109.112 53.5919C110.864 48.5599 114.44 40.5759 109.44 38.3599Z" fill="#EBEBEB"/>
<path d="M89.9278 66.436C92.1718 62.128 89.1278 55.236 94.9998 58.132C100.872 61.028 98.4117 72.132 103.46 69.5C108.508 66.868 105.088 59.272 109.396 58.9C113.704 58.528 113.236 75.472 106.952 75.816C100.668 76.16 95.2438 70.58 93.3518 72.508C91.4598 74.436 86.1798 78.844 85.0838 73.384C83.9878 67.924 88.1998 69.74 89.9278 66.436Z" fill="#EBEBEB"/>
<path d="M126.508 80.2119H161.844V32.8159L126.508 32.8159V80.2119Z" fill="#F5F5F5"/>
<path d="M131.5 37.5761C132.52 35.6801 157.804 45.2121 157.124 47.2721C156.444 49.3321 137.368 51.0401 135.688 53.8281C134.008 56.6161 155.892 60.3321 155.496 62.2281C155.1 64.1241 134.4 62.4361 134 64.3201C133.6 66.2041 155.816 69.4761 154.336 72.3201C152.856 75.1641 134.412 73.1201 132.384 68.3201C130.356 63.5201 141.52 63.8481 141.84 60.6681C142.16 57.4881 129.94 56.8681 131.492 51.7601C133.044 46.6521 149.092 50.3361 147.596 45.8801C146.1 41.4241 129.564 41.1641 131.5 37.5761Z" fill="#E6E6E6"/>
<path d="M150.84 37.8319C154.14 37.0559 157.952 42.9559 154.04 41.6359C150.128 40.3159 147.54 38.6039 150.84 37.8319Z" fill="#EBEBEB"/>
<path d="M135.948 45.2919C136.112 43.6479 131.244 43.9399 131.188 45.2919C131.132 46.6439 135.776 47.0079 135.948 45.2919Z" fill="#EBEBEB"/>
<path d="M154.344 55.2C152.56 52.26 147.316 53.532 147.372 54.888C147.428 56.244 156.268 58.364 154.344 55.2Z" fill="#EBEBEB"/>
<path d="M71.1241 32.8159H35.7881V80.2119H71.1241V32.8159Z" fill="#F5F5F5"/>
<path d="M42.3637 67.4199C42.3637 67.4199 39.0277 41.5999 41.0877 38.5079C43.1477 35.4159 47.3797 46.5839 48.1397 43.9679C48.8997 41.3519 49.3797 35.7839 52.1117 36.2679C54.8437 36.7519 53.8837 41.5559 55.9957 41.7439C58.1077 41.9319 60.6877 35.5999 61.5997 36.2679C62.5117 36.9359 61.7477 41.3679 63.4717 41.7439C65.1957 42.1199 64.7237 37.4439 66.9717 38.9199C69.2197 40.3959 65.6677 67.4199 65.6677 67.4199C65.6677 67.4199 67.0157 46.1479 64.6677 46.1479C62.3197 46.1479 61.3637 52.7519 59.8277 49.6399C58.2917 46.5279 59.9877 44.2839 58.9517 43.9679C57.9157 43.6519 55.7517 49.2239 54.1517 48.4519C52.5517 47.6799 53.2197 44.4759 52.1157 43.9679C51.0117 43.4599 55.2077 51.5679 49.0837 49.7079C42.9597 47.8479 43.9477 42.8039 43.0837 44.6679C42.2197 46.5319 42.3637 67.4199 42.3637 67.4199Z" fill="#EBEBEB"/>
<path d="M60.4883 60.368C58.0883 57.2 56.5763 63.336 53.8563 65.356C51.1363 67.376 52.1043 57.9 48.5963 60.12C45.0883 62.34 47.5883 68.076 45.2643 69.808C42.9403 71.54 43.3283 77.752 45.9363 74.576C48.5443 71.4 48.4963 63.016 50.4603 68.36C52.4243 73.704 53.2843 78.916 55.0123 74.296C56.7403 69.676 55.2203 62.624 57.7763 66.652C60.3323 70.68 60.3923 76.116 62.9523 73.9C65.5123 71.684 61.4243 70.264 61.5243 67.812C61.6243 65.36 61.5003 61.708 60.4883 60.368Z" fill="#EBEBEB"/>
<path d="M164.624 139.436C164.684 139.036 166.084 129.368 163.28 126.032C163.001 125.68 162.647 125.395 162.245 125.197C161.842 124.998 161.401 124.891 160.952 124.884C155.292 124.752 154.516 129.284 154.508 129.344L155.176 129.448C155.204 129.284 155.876 125.448 160.936 125.56C161.289 125.566 161.636 125.65 161.952 125.807C162.269 125.964 162.546 126.19 162.764 126.468C165.376 129.572 163.964 139.24 163.964 139.336L164.624 139.436Z" fill="#EBEBEB"/>
<path d="M164.968 138.996L165.64 138.972C165.64 138.884 165.416 130.076 169.76 128.252C174.012 126.472 175.928 130.136 176.008 130.292L176.612 129.988C176.588 129.944 174.344 125.588 169.496 127.632C164.728 129.632 164.956 138.612 164.968 138.996Z" fill="#EBEBEB"/>
<path d="M164.948 139.688C164.948 139.548 164.988 125.612 167.704 121.536C170.312 117.624 174.504 119.464 174.7 119.536L174.98 118.924C174.928 118.9 170.072 116.756 167.144 121.152C164.312 125.396 164.272 139.096 164.272 139.68L164.948 139.688Z" fill="#EBEBEB"/>
<path d="M160.14 125.22C160.14 125.22 162.612 126.132 161.88 128.284C161.148 130.436 153.328 133.976 153.328 133.976C153.328 133.976 150.056 130.972 153.06 126.096C156.064 121.22 160.076 123.68 160.14 125.22Z" fill="#E0E0E0"/>
<path d="M167.828 120.8C167.828 120.8 166.072 120.612 166.228 119.544C166.384 118.476 173.052 115.724 176.992 120.172C176.992 120.172 174.468 124.508 170.82 124.572C167.172 124.636 167.828 120.8 167.828 120.8Z" fill="#E0E0E0"/>
<path d="M169.628 127.944C169.628 127.944 168.428 126.964 169.724 126.488C171.02 126.012 177.444 126.144 177.512 132.488C177.512 132.488 170.04 133.728 169.112 131.308C168.184 128.888 169.628 127.944 169.628 127.944Z" fill="#E0E0E0"/>
<path d="M158.812 152.376H170.404L171.656 139.688H157.564L158.812 152.376Z" fill="#EBEBEB"/>
<path d="M156.948 141.084H172.276V138.284H156.948V141.084Z" fill="#E0E0E0"/>
<path d="M37.2524 140.888C37.2524 140.888 39.5124 135.956 36.9324 131.096C34.3524 126.236 33.6004 125.096 35.2484 124.096C36.8964 123.096 37.6484 127.984 37.6484 127.984C37.6484 127.984 39.0364 124.624 37.8884 121.108C36.7404 117.592 36.0244 111.864 37.5924 111.248C39.1604 110.632 37.8884 118.392 39.2484 121.04C39.9397 119.182 40.3861 117.242 40.5764 115.268C40.7604 112.444 40.4684 107.936 41.7044 106.78C42.9404 105.624 43.7324 106.424 42.5044 112.656C41.7772 116.381 41.3757 120.162 41.3044 123.956C41.3044 123.956 43.9844 115.78 45.7844 115.556C47.5844 115.332 47.5844 117.956 46.0404 120.26C44.4964 122.564 41.5324 126.66 41.0444 128.788C41.0444 128.788 43.9884 122.636 46.6444 124.524C49.3004 126.412 44.3364 130.124 42.1324 131.468C39.9284 132.812 38.4004 141.2 38.4004 141.2L37.2524 140.888Z" fill="#E0E0E0"/>
<path d="M39.0361 142.908C39.0361 142.908 36.8361 137.944 39.4761 133.124C42.1161 128.304 42.8801 127.168 41.2441 126.148C39.6081 125.128 38.8001 130 38.8001 130C38.8001 130 37.4561 126.62 38.6441 123.12C39.8321 119.62 40.6161 113.92 39.0441 113.268C37.4721 112.616 38.6441 120.408 37.2721 123.032C36.6032 121.165 36.1796 119.22 36.0121 117.244C35.8601 114.416 36.2041 109.912 34.9841 108.736C33.7641 107.56 32.9841 108.336 34.1001 114.6C34.7949 118.333 35.1629 122.119 35.2001 125.916C35.2001 125.916 32.6001 117.704 30.8001 117.436C29.0001 117.168 28.9721 119.836 30.4841 122.14C31.9961 124.444 34.9201 128.616 35.3801 130.74C35.3801 130.74 32.5121 124.544 29.8441 126.388C27.1761 128.232 32.0801 132.024 34.2721 133.4C36.4641 134.776 37.8721 143.216 37.8721 143.216L39.0361 142.908Z" fill="#EBEBEB"/>
<path d="M28.8877 139.368H47.0677L45.5957 152.376H30.3597L28.8877 139.368Z" fill="#EBEBEB"/>
<path d="M100 171.024C142.833 171.024 177.556 168.997 177.556 166.496C177.556 163.995 142.833 161.968 100 161.968C57.1673 161.968 22.4443 163.995 22.4443 166.496C22.4443 168.997 57.1673 171.024 100 171.024Z" fill="#F5F5F5"/>
<path d="M96.3645 159.832C96.3662 160.409 96.229 160.979 95.9645 161.492C95.7421 161.942 95.3895 162.314 94.9525 162.56C94.9525 162.56 93.4525 163.46 93.2485 163.548C92.9714 163.666 92.6736 163.727 92.3725 163.728C90.7405 163.728 89.4205 162.004 89.4205 159.876C89.4082 158.95 89.6805 158.042 90.2005 157.276L89.2445 152L86.8005 138.324L81.5205 109.012H85.4565L90.7245 138.324L93.2005 152L94.0005 156.604L94.8245 157.044C95.7245 157.44 96.3645 158.536 96.3645 159.832Z" fill="#263238"/>
<path opacity="0.4" d="M96.3645 159.832C96.3662 160.409 96.229 160.979 95.9645 161.492C95.7421 161.942 95.3895 162.314 94.9525 162.56C94.9525 162.56 93.4525 163.46 93.2485 163.548C92.9714 163.666 92.6736 163.727 92.3725 163.728C90.7405 163.728 89.4205 162.004 89.4205 159.876C89.4082 158.95 89.6805 158.042 90.2005 157.276L89.2445 152L86.8005 138.324L81.5205 109.012H85.4565L90.7245 138.324L93.2005 152L94.0005 156.604L94.8245 157.044C95.7245 157.44 96.3645 158.536 96.3645 159.832Z" fill="white"/>
<path opacity="0.2" d="M96.3648 159.832C96.3648 161.46 95.3528 162.784 94.1048 162.784C92.8568 162.784 91.8408 161.46 91.8408 159.832C91.8408 158.204 92.8528 156.88 94.1048 156.88C95.3568 156.88 96.3648 158.2 96.3648 159.832Z" fill="white"/>
<path opacity="0.2" d="M93.1805 152H89.2445L86.7885 138.324L81.5205 109.012H85.4565L90.7245 138.324L93.1805 152Z" fill="black"/>
<path d="M164.553 117.92H146.925V122.96H164.553V117.92Z" fill="#263238"/>
<path d="M163.009 133.424L168.569 105.552C168.596 105.412 168.593 105.268 168.558 105.13C168.524 104.992 168.459 104.863 168.369 104.753C168.279 104.643 168.165 104.554 168.036 104.493C167.908 104.432 167.767 104.4 167.625 104.4H165.933C165.603 104.4 165.283 104.514 165.028 104.724C164.772 104.933 164.597 105.224 164.533 105.548L158.969 133.42C158.941 133.56 158.944 133.704 158.979 133.842C159.014 133.98 159.078 134.109 159.169 134.219C159.259 134.329 159.372 134.418 159.501 134.479C159.63 134.54 159.77 134.572 159.913 134.572H161.601C161.932 134.574 162.254 134.46 162.511 134.251C162.768 134.041 162.944 133.749 163.009 133.424Z" fill="#263238"/>
<path d="M167.46 116.664H164.044C163.016 116.664 162.188 118.264 162.188 120.264C162.188 122.264 163.016 123.864 164.044 123.864H167.46C168.484 123.864 169.316 122.264 169.316 120.264C169.316 118.264 168.484 116.664 167.46 116.664Z" fill="#263238"/>
<path opacity="0.2" d="M169.088 120.272C169.088 121.756 168.5 122.956 167.772 122.956C167.044 122.956 166.452 121.756 166.452 120.272C166.452 118.788 167.044 117.584 167.772 117.584C168.5 117.584 169.088 118.8 169.088 120.272Z" fill="white"/>
<path opacity="0.2" d="M163.009 133.424L168.569 105.552C168.596 105.412 168.593 105.268 168.558 105.13C168.524 104.992 168.459 104.863 168.369 104.753C168.279 104.643 168.165 104.554 168.036 104.493C167.908 104.432 167.767 104.4 167.625 104.4H165.933C165.603 104.4 165.283 104.514 165.028 104.724C164.772 104.933 164.597 105.224 164.533 105.548L158.969 133.42C158.941 133.56 158.944 133.704 158.979 133.842C159.014 133.98 159.078 134.109 159.169 134.219C159.259 134.329 159.372 134.418 159.501 134.479C159.63 134.54 159.77 134.572 159.913 134.572H161.601C161.932 134.574 162.254 134.46 162.511 134.251C162.768 134.041 162.944 133.749 163.009 133.424Z" fill="white"/>
<path d="M162.764 156.448V165.344H72.2764V162.868H91.1164L94.0004 156.448H162.764Z" fill="#263238"/>
<path opacity="0.2" d="M162.764 156.448V165.344H128.276V162.868H147.116L150 156.448H162.764Z" fill="white"/>
<path d="M160.365 159.832C160.366 160.409 160.229 160.979 159.965 161.492C159.742 161.942 159.389 162.314 158.953 162.56C158.953 162.56 157.453 163.46 157.249 163.548C156.971 163.666 156.674 163.727 156.373 163.728C154.741 163.728 153.421 162.004 153.421 159.876C153.414 158.948 153.693 158.04 154.221 157.276L153.245 152L150.801 138.324L145.521 109.012H149.457L154.725 138.324L157.201 152L158.001 156.604L158.825 157.044C159.725 157.44 160.365 158.536 160.365 159.832Z" fill="#263238"/>
<path opacity="0.4" d="M160.365 159.832C160.366 160.409 160.229 160.979 159.965 161.492C159.742 161.942 159.389 162.314 158.953 162.56C158.953 162.56 157.453 163.46 157.249 163.548C156.971 163.666 156.674 163.727 156.373 163.728C154.741 163.728 153.421 162.004 153.421 159.876C153.414 158.948 153.693 158.04 154.221 157.276L153.245 152L150.801 138.324L145.521 109.012H149.457L154.725 138.324L157.201 152L158.001 156.604L158.825 157.044C159.725 157.44 160.365 158.536 160.365 159.832Z" fill="white"/>
<path opacity="0.2" d="M160.365 159.832C160.365 161.46 159.353 162.784 158.105 162.784C156.857 162.784 155.841 161.46 155.841 159.832C155.841 158.204 156.853 156.88 158.105 156.88C159.357 156.88 160.365 158.2 160.365 159.832Z" fill="white"/>
<path opacity="0.2" d="M157.181 152H153.245L150.789 138.324L145.521 109.012H149.457L154.725 138.324L157.181 152Z" fill="black"/>
<path d="M150.692 149.632H67.0245C65.2525 149.632 64.1045 148.172 64.4645 146.376L75.8245 89.464C76.0198 88.5721 76.504 87.7696 77.2019 87.1809C77.8998 86.5922 78.7724 86.2503 79.6845 86.208H163.352C165.124 86.208 166.272 87.668 165.916 89.464L154.556 146.376C154.36 147.268 153.875 148.071 153.177 148.659C152.478 149.248 151.605 149.59 150.692 149.632Z" fill="#263238"/>
<path opacity="0.1" d="M150.692 149.632H67.0245C65.2525 149.632 64.1045 148.172 64.4645 146.376L75.8245 89.464C76.0198 88.5721 76.504 87.7696 77.2019 87.1809C77.8998 86.5922 78.7724 86.2503 79.6845 86.208H163.352C165.124 86.208 166.272 87.668 165.916 89.464L154.556 146.376C154.36 147.268 153.875 148.071 153.177 148.659C152.478 149.248 151.605 149.59 150.692 149.632Z" fill="white"/>
<path d="M146.42 140.268H75.0361L84.7681 91.5161H156.148L146.42 140.268Z" fill="#FF725E"/>
<path opacity="0.2" d="M155.749 125.536H152.585C152.417 125.541 152.249 125.507 152.096 125.436C151.944 125.365 151.81 125.259 151.706 125.127C151.601 124.994 151.53 124.839 151.496 124.674C151.463 124.509 151.468 124.339 151.513 124.176L154.001 111.664C154.082 111.293 154.283 110.959 154.572 110.713C154.86 110.467 155.222 110.322 155.601 110.3H158.801C158.97 110.295 159.138 110.329 159.291 110.4C159.444 110.472 159.578 110.578 159.683 110.711C159.788 110.843 159.86 110.999 159.893 111.164C159.927 111.33 159.921 111.501 159.877 111.664L157.377 124.176C157.295 124.551 157.09 124.888 156.795 125.135C156.501 125.381 156.133 125.522 155.749 125.536Z" fill="white"/>
<path opacity="0.2" d="M158.704 114.028C158.568 114.65 158.231 115.21 157.744 115.621C157.257 116.032 156.649 116.271 156.012 116.3C155.731 116.308 155.453 116.25 155.198 116.131C154.944 116.012 154.72 115.835 154.547 115.614C154.373 115.393 154.253 115.135 154.197 114.859C154.141 114.584 154.151 114.299 154.224 114.028C154.361 113.407 154.699 112.847 155.186 112.437C155.672 112.027 156.281 111.789 156.916 111.76C157.197 111.751 157.476 111.809 157.73 111.927C157.985 112.046 158.208 112.223 158.382 112.443C158.556 112.664 158.676 112.922 158.732 113.197C158.788 113.473 158.778 113.757 158.704 114.028Z" fill="black"/>
<path opacity="0.2" d="M155.42 123.892H153.572C153.509 123.894 153.447 123.882 153.389 123.855C153.332 123.829 153.282 123.789 153.243 123.74C153.204 123.69 153.177 123.632 153.165 123.57C153.153 123.508 153.155 123.445 153.172 123.384L154.432 117.076C154.462 116.937 154.537 116.812 154.646 116.72C154.754 116.628 154.89 116.574 155.032 116.568H156.88C156.943 116.566 157.006 116.578 157.063 116.605C157.12 116.631 157.17 116.671 157.209 116.72C157.248 116.77 157.275 116.828 157.287 116.89C157.3 116.951 157.297 117.015 157.28 117.076L156.02 123.384C155.99 123.523 155.915 123.648 155.807 123.74C155.698 123.832 155.562 123.885 155.42 123.892Z" fill="black"/>
<path d="M86.3004 113.704C86.3004 113.704 92.4964 105.608 96.3644 103.784C100.232 101.96 99.6004 112.252 102.132 114.94C104.664 117.628 110.204 106.4 114 105.448C117.796 104.496 115.484 119.424 118.856 122.956C122.228 126.488 146.032 101.964 146.032 101.964L144.728 104.972L148.06 101.492L144.728 106.4L146.924 104.4C146.924 104.4 135.868 117.332 125.96 123.892C116.052 130.452 114.476 123.492 114.476 121.044C114.476 118.596 114.532 110.568 112.92 110.3C111.308 110.032 104.98 119.392 101.972 120.172C98.9644 120.952 98.0164 116.572 98.0164 116.572C98.0164 116.572 99.2164 118.056 100.988 117.924C100.988 117.924 98.9684 118.008 98.1884 113.708C97.4084 109.408 96.9204 106.084 95.1804 107.348C93.4404 108.612 88.2204 114.948 88.2204 114.948L88.9564 112.716L84.4004 117.92L88.2004 112.72L86.3004 113.704Z" fill="white"/>
<path d="M81.4767 138.164H77.6807L78.3967 134.58H82.1927L81.4767 138.164Z" fill="white"/>
<path opacity="0.8" d="M85.9523 138.164H82.1523L82.8683 134.58H86.6643L85.9523 138.164Z" fill="white"/>
<path opacity="0.6" d="M90.42 138.164H86.624L87.34 134.58H91.136L90.42 138.164Z" fill="white"/>
<path opacity="0.4" d="M94.8927 138.164H91.0967L91.8127 134.58H95.6087L94.8927 138.164Z" fill="white"/>
<path opacity="0.2" d="M99.3644 138.164H95.5684L96.2844 134.58H100.08L99.3644 138.164Z" fill="white"/>
<path d="M121.373 68.3376L97.6465 74.6021L99.4477 81.4243L123.175 75.1598L121.373 68.3376Z" fill="#FF725E"/>
<path opacity="0.6" d="M121.373 68.3376L97.6465 74.6021L99.4477 81.4243L123.175 75.1598L121.373 68.3376Z" fill="white"/>
<path d="M102.976 73.8827L99.1035 74.9207L100.522 80.213L104.394 79.1751L102.976 73.8827Z" fill="#263238"/>
<path opacity="0.8" d="M106.459 73.0393L102.6 74.0583L103.992 79.3336L107.852 78.3145L106.459 73.0393Z" fill="#263238"/>
<path opacity="0.6" d="M111.303 71.6396L107.431 72.6775L108.849 77.9698L112.721 76.9319L111.303 71.6396Z" fill="#263238"/>
<path opacity="0.4" d="M114.767 70.8423L110.907 71.8613L112.3 77.1366L116.16 76.1175L114.767 70.8423Z" fill="#263238"/>
<path opacity="0.2" d="M119.632 69.4001L115.76 70.438L117.178 75.7303L121.051 74.6924L119.632 69.4001Z" fill="#263238"/>
<path d="M123.208 68.0278H98.668V75.0838H123.208V68.0278Z" fill="#FF725E"/>
<path opacity="0.7" d="M123.208 68.0278H98.668V75.0838H123.208V68.0278Z" fill="white"/>
<path d="M103.288 68.76H99.2959V74.216H103.288V68.76Z" fill="#FF725E"/>
<path opacity="0.8" d="M107.588 68.76H103.596V74.216H107.588V68.76Z" fill="#FF725E"/>
<path opacity="0.6" d="M111.884 68.76H107.892V74.216H111.884V68.76Z" fill="#FF725E"/>
<path opacity="0.4" d="M116.183 68.76H112.191V74.216H116.183V68.76Z" fill="#FF725E"/>
<path opacity="0.2" d="M120.483 68.76H116.491V74.216H120.483V68.76Z" fill="#FF725E"/>
<path d="M122.215 74.6518C122.456 74.6518 122.651 74.4566 122.651 74.2158C122.651 73.975 122.456 73.7798 122.215 73.7798C121.974 73.7798 121.779 73.975 121.779 74.2158C121.779 74.4566 121.974 74.6518 122.215 74.6518Z" fill="#263238"/>
<path d="M123.856 76.1559C123.857 76.2399 123.84 76.3232 123.807 76.4005C123.775 76.4779 123.726 76.5478 123.666 76.6059C123.605 76.6639 123.533 76.709 123.454 76.7382C123.376 76.7675 123.292 76.7803 123.208 76.7759C122.528 76.7759 122.084 76.0839 121.84 75.5159L122.24 75.4119C122.452 75.8839 122.78 76.3639 123.204 76.3639C123.336 76.3639 123.428 76.3239 123.44 76.1239C123.43 75.7849 123.324 75.4558 123.132 75.1759C123.032 74.9925 122.896 74.831 122.733 74.7011C122.569 74.5712 122.381 74.4756 122.18 74.4199C122.131 74.4063 122.09 74.3752 122.063 74.3326C122.036 74.2901 122.025 74.239 122.034 74.1893C122.042 74.1397 122.069 74.0949 122.108 74.0636C122.148 74.0323 122.198 74.0168 122.248 74.0199C122.512 74.0704 122.759 74.1889 122.964 74.3639C123.231 74.5826 123.448 74.8554 123.602 75.1643C123.756 75.4732 123.842 75.8111 123.856 76.1559Z" fill="#263238"/>
<g opacity="0.2">
<path d="M123.855 76.1559C123.856 76.2399 123.839 76.3232 123.806 76.4005C123.774 76.4779 123.725 76.5478 123.665 76.6059C123.604 76.6639 123.532 76.709 123.453 76.7382C123.375 76.7675 123.291 76.7803 123.207 76.7759C122.527 76.7759 122.083 76.0839 121.839 75.5159L122.239 75.4119C122.451 75.8839 122.779 76.3639 123.203 76.3639C123.335 76.3639 123.427 76.3239 123.439 76.1239C123.429 75.7849 123.323 75.4558 123.131 75.1759C123.031 74.9925 122.895 74.831 122.732 74.7011C122.568 74.5712 122.38 74.4756 122.179 74.4199C122.13 74.4063 122.089 74.3752 122.062 74.3326C122.035 74.2901 122.024 74.239 122.033 74.1893C122.041 74.1397 122.068 74.0949 122.107 74.0636C122.147 74.0323 122.197 74.0168 122.247 74.0199C122.511 74.0704 122.758 74.1889 122.963 74.3639C123.23 74.5826 123.447 74.8554 123.601 75.1643C123.755 75.4732 123.841 75.8111 123.855 76.1559Z" fill="white"/>
</g>
<path d="M146.612 75.6599C148.444 79.7039 149.684 84.5879 148.06 86.2079C146.436 87.8279 140.832 81.9279 140.832 81.9279L142.092 81.0759C142.092 81.0759 146.028 83.1479 146.232 83.0079C146.436 82.8679 144.728 77.0319 144.728 77.0319L146.612 75.6599Z" fill="#EBB376"/>
<path d="M119.552 76.64C119.263 76.4067 118.988 76.157 118.728 75.892C118.384 75.532 114.708 75.568 114.54 75.964C114.372 76.36 115.076 78.168 115.688 78.364C116.3 78.56 118.888 78.28 119.32 78.02C119.752 77.76 119.552 76.64 119.552 76.64Z" fill="#EBB376"/>
<path d="M135.319 157.56L133.199 157.6C131.027 147.408 129.495 134.8 128.539 125.276C128.391 123.784 128.251 122.372 128.139 121.052C128.083 120.428 128.027 119.824 127.975 119.248C127.719 116.384 127.543 114.116 127.439 112.716C127.363 111.692 127.323 111.116 127.323 111.116H135.039L134.967 113.08L134.727 119.572L134.703 120.312L134.543 124.596L134.271 131.892C136.899 142.168 135.319 157.56 135.319 157.56Z" fill="#EBB376"/>
<path d="M152.628 157.012L150.528 157.412C146.32 146.896 142.368 133.412 139.796 124.016C139.396 122.56 139.032 121.216 138.704 119.96C138.704 119.896 138.676 119.836 138.656 119.776C138.008 117.32 137.512 115.376 137.2 114.12L136.828 112.616L144.428 111.304L144.856 114.504L145.5 119.2L145.624 120.12L146.056 123.32L147.2 131.904C151.568 141.576 152.628 157.012 152.628 157.012Z" fill="#EBB376"/>
<path opacity="0.2" d="M145.499 119.2L138.699 119.96C138.699 119.896 138.671 119.836 138.651 119.776C138.003 117.32 137.507 115.376 137.195 114.12L144.859 114.5L145.499 119.2Z" fill="black"/>
<path opacity="0.2" d="M134.948 113.084L134.708 119.576L134.684 120.316L128.12 121.044C128.064 120.42 128.008 119.816 127.956 119.24C127.7 116.376 127.524 114.108 127.42 112.708L134.948 113.084Z" fill="black"/>
<path d="M129.012 164.644C129.41 164.324 129.863 164.077 130.348 163.916C130.348 163.916 131.804 162.476 132.504 158.132L134.408 157.636C134.73 157.558 135.069 157.581 135.378 157.702C135.687 157.823 135.952 158.036 136.136 158.312C136.191 158.388 136.233 158.473 136.26 158.564C136.356 159.029 136.424 159.499 136.464 159.972C136.567 161.559 136.575 163.151 136.488 164.74H136.144L136.008 161.748C135.96 160.732 135.18 161.924 134.956 163.02C134.732 164.116 134.264 165.276 132.036 165.332C129.436 165.384 128.356 165.28 129.012 164.644Z" fill="#FF725E"/>
<path d="M136.204 158.348C136.328 157.332 136.368 155.548 136.368 155.548L132.14 156.02C132.14 156.02 132.652 158.02 132.228 159.536C134.36 158.992 136.204 158.348 136.204 158.348Z" fill="#FF725E"/>
<path d="M146.22 164.644C146.618 164.323 147.07 164.076 147.556 163.916C147.556 163.916 149.012 162.476 149.712 158.132L151.612 157.636C151.935 157.558 152.274 157.581 152.584 157.701C152.894 157.822 153.159 158.035 153.344 158.312C153.398 158.388 153.439 158.473 153.464 158.564C153.563 159.028 153.632 159.498 153.668 159.972C153.86 161.444 153.696 164.74 153.696 164.74H153.352L153.216 161.748C153.164 160.732 152.388 161.924 152.164 163.02C151.94 164.116 151.468 165.276 149.24 165.332C146.644 165.384 145.564 165.28 146.22 164.644Z" fill="#FF725E"/>
<path d="M153.412 158.348C153.536 157.332 153.576 155.548 153.576 155.548L149.348 156.02C149.348 156.02 149.86 158.02 149.436 159.536C151.568 158.992 153.412 158.348 153.412 158.348Z" fill="#FF725E"/>
<path d="M140.931 67.572C140.901 67.5991 140.867 67.6233 140.831 67.644C140.345 68.0155 139.791 68.2874 139.199 68.444C137.471 68.844 136.291 68.608 135.519 67.824C134.443 66.652 134.171 64.576 134.319 62.068C134.347 61.0705 134.531 60.0836 134.867 59.144C134.867 59.144 134.867 59.108 134.867 59.1C134.867 59.092 134.895 59.024 134.911 58.992C135.123 58.4624 135.464 57.9942 135.903 57.6296C136.341 57.265 136.864 57.0156 137.423 56.904C137.91 56.7973 138.406 56.7423 138.903 56.74C143.799 56.688 144.675 64.8 140.931 67.572Z" fill="#EBB376"/>
<path opacity="0.2" d="M140.832 67.6438C140.342 67.9939 139.787 68.2428 139.2 68.3758C137.472 68.7758 136.292 68.4798 135.52 67.6878C136.553 67.9438 137.642 67.8539 138.62 67.4318C139.32 67.1118 140.096 67.2758 140.832 67.6438Z" fill="black"/>
<path d="M141.328 72.0558C141.628 73.4478 139.828 74.0158 139.828 74.0158C136.88 72.7558 136.336 71.1878 136.336 71.1878C138.792 69.9078 138.08 66.2798 138.08 66.2798L138.58 66.5278L142.092 67.2118C142.092 67.2118 141.116 69.0838 140.988 69.5078C140.324 71.7478 141.328 72.0558 141.328 72.0558Z" fill="#EBB376"/>
<path d="M134.868 59.1119C134.868 59.1119 134.596 62.5359 137.844 64.0079C137.844 64.0079 139.236 67.5679 141.292 67.6079C144.092 67.6799 146.552 63.6959 145.584 59.6439C144.328 54.3999 136.36 53.9639 134.868 59.1119Z" fill="#263238"/>
<path d="M136.199 63.0239C136.199 62.4919 136.631 61.5919 137.459 61.7159C138.287 61.8399 138.795 63.9599 136.683 64.4319C136.399 64.4999 136.195 64.1399 136.199 63.0239Z" fill="#EBB376"/>
<path d="M140.832 55.4719C140.832 55.4719 137.564 54.6439 135.756 55.9559C133.648 57.4919 132.848 59.0799 135.356 61.5559C135.356 61.5559 140.844 59.7759 142.668 60.1559C143.735 60.3719 144.782 60.6756 145.8 61.0639C146.172 57.4279 142.656 54.7279 140.832 55.4719Z" fill="#263238"/>
<path d="M136.336 55.6279C136.54 55.1399 136.956 54.0799 138.192 54.6639C139.428 55.2479 140.336 53.9799 141.128 54.1919C141.92 54.4039 142.728 55.2879 143.252 55.2119C143.514 55.1694 143.782 55.1838 144.038 55.2541C144.294 55.3244 144.532 55.4489 144.736 55.6193C144.94 55.7896 145.104 56.0018 145.219 56.2414C145.333 56.481 145.395 56.7424 145.4 57.0079C145.496 58.7159 147 58.7799 147.14 59.7799C147.28 60.7799 146.612 61.2039 147.14 62.1559C147.668 63.1079 148.46 63.0879 147.828 64.4399C147.196 65.7919 146.456 66.1479 147.248 67.2639C148.04 68.3799 147.456 69.4359 146.296 69.9079C146.296 69.9079 144.768 68.3799 144.028 69.0119C143.288 69.6439 141.692 70.4799 140.988 69.5079C140.867 69.3277 140.705 69.1789 140.515 69.0737C140.325 68.9685 140.113 68.91 139.896 68.903C139.679 68.8959 139.464 68.9406 139.267 69.0333C139.071 69.1259 138.9 69.2639 138.768 69.4359C138.492 69.9599 137.168 69.0119 136.336 69.0119C135.504 69.0119 135.06 69.9519 135.06 69.9519C135.06 69.9519 133.932 69.6439 134.28 67.9079C134.628 66.1719 135.4 61.3119 134.86 59.9399C134.32 58.5679 136.336 55.6279 136.336 55.6279Z" fill="#263238"/>
<path d="M131.548 71.7199C131.548 71.7199 135.448 70.4079 141.328 72.0079C147.208 73.6079 146.612 75.6599 146.612 75.6599C146.612 75.6599 142.172 83.6199 141.588 92.6399L128.964 91.4119C128.964 91.4119 127.572 77.1359 131.548 71.7199Z" fill="#263238"/>
<path d="M128.476 92.2279L128.728 89.7439L142.092 91.0839L141.812 93.0319C146.844 101.944 145.628 112.104 145.628 112.104L146.236 117.104C146.236 117.104 144.976 117.884 136.508 118.436C129.064 118.924 127.172 118.152 127.172 118.152C124.532 102.688 126.8 95.3279 128.476 92.2279Z" fill="#FF725E"/>
<path opacity="0.6" d="M146.232 117.104C146.232 117.104 144.972 117.884 136.504 118.436C129.06 118.924 127.168 118.152 127.168 118.152C127.08 117.64 127 117.14 126.924 116.648C125.324 106.352 125.968 99.8479 127.064 95.8759C127.394 94.6101 127.867 93.3861 128.476 92.2279L128.568 91.3319L128.728 89.7319L142.092 91.0719L141.812 93.0199C146.844 101.932 145.628 112.092 145.628 112.092L146.108 116.052L146.232 117.104Z" fill="white"/>
<path d="M134.256 92.4L128.244 91.924L128.324 90.104L134.392 90.74L134.256 92.4Z" fill="#263238"/>
<path d="M140.276 92.8759L134.688 92.4359L134.823 90.7839L140.395 91.3679L140.276 92.8759Z" fill="#263238"/>
<path d="M140.828 91.4119L142.248 91.5639L142.068 93.0199L140.708 92.9119L140.828 91.4119Z" fill="#263238"/>
<path opacity="0.3" d="M137.6 100.516C137.572 101.52 137.536 102.28 137.536 102.28L134.94 104.4L130.512 102.44C130.59 101.745 130.627 101.047 130.624 100.348C130.644 98.8479 130.584 97.1159 130.544 96.1759C130.524 95.7479 130.512 95.4839 130.512 95.4839L137.536 96.3199C137.556 96.4679 137.572 96.6439 137.584 96.8359C137.664 97.8359 137.644 99.3399 137.6 100.516Z" fill="white"/>
<path opacity="0.3" d="M144.4 102.228L142.712 104.168L140.18 102.544C140.177 101.93 140.141 101.317 140.072 100.708C139.934 99.4247 139.73 98.1497 139.46 96.8878C139.384 96.5318 139.336 96.3198 139.336 96.3198H143.08C143.116 96.4278 143.156 96.5358 143.188 96.6478C143.569 97.8456 143.873 99.0668 144.096 100.304C144.296 101.432 144.4 102.228 144.4 102.228Z" fill="white"/>
<path opacity="0.15" d="M137.6 100.516C137.572 101.52 137.536 102.28 137.536 102.28L134.94 104.4L130.512 102.44C130.59 101.745 130.627 101.047 130.624 100.348C132.212 100.61 133.652 101.437 134.68 102.676C134.983 102.127 135.4 101.65 135.904 101.278C136.408 100.905 136.986 100.645 137.6 100.516Z" fill="black"/>
<path opacity="0.15" d="M130.552 96.1759C130.532 95.7479 130.52 95.4839 130.52 95.4839L137.544 96.3199C137.564 96.4679 137.58 96.6439 137.592 96.8359L130.552 96.1759Z" fill="black"/>
<path opacity="0.15" d="M143.2 96.6478L139.472 96.8878C139.396 96.5318 139.348 96.3198 139.348 96.3198H143.092C143.108 96.4278 143.148 96.5358 143.2 96.6478Z" fill="black"/>
<path opacity="0.15" d="M144.399 102.228L142.711 104.168L140.179 102.544C140.176 101.93 140.14 101.318 140.071 100.708C140.653 100.893 141.19 101.199 141.645 101.607C142.1 102.014 142.463 102.514 142.711 103.072C142.711 103.072 142.751 101.22 144.095 100.304C144.295 101.432 144.399 102.228 144.399 102.228Z" fill="black"/>
<path opacity="0.15" d="M146.232 117.104C146.232 117.104 144.972 117.884 136.504 118.436C129.06 118.924 127.168 118.152 127.168 118.152C127.08 117.64 127 117.14 126.924 116.648L127.7 116.684C127.324 113.52 126.228 102.748 127.88 96.8358C127.591 96.5353 127.323 96.2145 127.08 95.8758C127.41 94.6099 127.884 93.386 128.492 92.2278L128.584 91.3318C128.853 91.3524 129.12 91.3926 129.384 91.4518V91.8518C129.384 91.8518 127.42 98.8558 127.42 105.792C127.411 109.453 127.688 113.11 128.248 116.728C134.208 116.941 140.175 116.726 146.104 116.084L146.232 117.104Z" fill="black"/>
<g opacity="0.3">
<path d="M134.256 92.4L128.244 91.924L128.324 90.104L134.392 90.74L134.256 92.4Z" fill="white"/>
<path d="M140.276 92.8759L134.688 92.4359L134.824 90.7839L140.396 91.3679L140.276 92.8759Z" fill="white"/>
<path d="M140.828 91.4121L142.248 91.5641L142.068 93.0201L140.708 92.9121L140.828 91.4121Z" fill="white"/>
</g>
<path d="M119.551 76.6399L118.855 77.6479C118.855 77.6479 122.651 83.5039 125.447 82.9759C128.243 82.4479 132.039 76.8039 132.567 75.1159C133.095 73.4279 133.635 71.4359 131.547 71.7199C129.459 72.0039 126.871 79.4479 125.023 80.2839C123.175 81.1199 119.551 76.6399 119.551 76.6399Z" fill="#EBB376"/>
<path d="M45.4352 58.7761C45.4352 58.7761 51.7392 58.8361 53.5352 59.7241C55.3312 60.6121 49.6992 66.6161 47.8752 65.5801C46.0512 64.5441 43.6752 61.2801 45.4352 58.7761Z" fill="#FF725E"/>
<path opacity="0.2" d="M45.4352 58.7761C45.4352 58.7761 51.7392 58.8361 53.5352 59.7241C55.3312 60.6121 49.6992 66.6161 47.8752 65.5801C46.0512 64.5441 43.6752 61.2801 45.4352 58.7761Z" fill="black"/>
<path d="M45.4037 161.544H41.3517C41.2855 161.544 41.2214 161.567 41.1698 161.608C41.1182 161.65 41.0822 161.707 41.0677 161.772L40.3997 164.744C40.3864 164.809 40.3863 164.875 40.3994 164.94C40.4124 165.005 40.4384 165.066 40.4757 165.121C40.5131 165.175 40.561 165.222 40.6166 165.257C40.6723 165.293 40.7346 165.317 40.7997 165.328H40.9077C42.2197 165.304 43.1757 165.224 44.8237 165.224C45.8357 165.224 48.8997 165.332 50.2997 165.332C51.6997 165.332 51.8997 163.948 51.3077 163.82C48.7357 163.26 46.7997 162.484 45.9757 161.744C45.8186 161.605 45.6132 161.533 45.4037 161.544Z" fill="#FF725E"/>
<path d="M62.5999 161.436H58.5439C58.4774 161.437 58.4132 161.461 58.3617 161.503C58.3101 161.545 58.2743 161.603 58.2599 161.668L57.5999 164.64C57.5738 164.768 57.599 164.901 57.6701 165.01C57.7412 165.119 57.8525 165.196 57.9799 165.224H58.0919C59.3999 165.204 60.3559 165.124 62.0039 165.124C63.0199 165.124 66.0799 165.228 67.4799 165.228C68.8799 165.228 69.0799 163.844 68.4919 163.716C65.9199 163.156 63.9839 162.38 63.1599 161.64C63.0065 161.502 62.8059 161.429 62.5999 161.436Z" fill="#FF725E"/>
<path d="M43.2559 86.4001H60.9679C62.6519 95.6001 67.9239 132.94 64.1399 161.936H58.1399C58.1399 161.936 58.6959 117.9 53.4039 103.668C52.7919 111.268 46.6039 161.908 46.6039 161.908H40.5039C40.5039 161.908 41.4159 142.864 42.3279 124.876C42.9039 113.54 43.2319 88.7201 43.2559 86.4001Z" fill="#263238"/>
<path opacity="0.2" d="M53.4072 103.664C54.2786 106.158 54.9409 108.72 55.3872 111.324C55.8792 104.548 53.8992 97.3601 53.8992 97.3601L53.4072 103.664Z" fill="black"/>
<path d="M40.0713 60.9681C45.8149 60.3751 51.6057 60.4033 57.3433 61.0521C57.3433 61.0521 60.2913 74.5521 60.5873 87.4521H42.7553C42.7553 87.4521 42.7393 69.2401 40.0713 60.9681Z" fill="#FF725E"/>
<path opacity="0.6" d="M40.0713 60.9681C45.8149 60.3751 51.6057 60.4033 57.3433 61.0521C57.3433 61.0521 60.2913 74.5521 60.5873 87.4521H42.7553C42.7553 87.4521 42.7393 69.2401 40.0713 60.9681Z" fill="white"/>
<path d="M46.3438 61.324C47.8757 62.716 51.6278 62.204 51.6278 62.204C51.6278 62.204 53.9717 61.56 53.4797 60.828C52.0997 60.6 51.4317 59.956 51.1557 59.132C51.0046 58.6212 50.957 58.0854 51.0158 57.556C51.0387 57.2608 51.0774 56.967 51.1318 56.676L46.4918 53.24C47.0998 55.508 47.8438 59.68 46.3438 61.324Z" fill="#E4897B"/>
<path opacity="0.2" d="M47.5635 55.4241C47.7475 58.2241 50.0355 58.9761 51.1635 59.1321C51.0123 58.6213 50.9647 58.0855 51.0235 57.5561L47.5635 55.4241Z" fill="black"/>
<path d="M55.9998 46.8001C55.9998 46.8001 56.6918 51.2681 54.3238 52.9921C51.9558 54.7161 51.9238 46.4001 51.9238 46.4001L55.9998 46.8001Z" fill="#263238"/>
<path d="M47.4511 56.564C47.9519 57.2972 48.6789 57.8463 49.5212 58.1273C50.3634 58.4083 51.2745 58.4057 52.1151 58.12C53.21 57.7711 54.1301 57.017 54.6872 56.012C54.765 55.873 54.8357 55.7301 54.8991 55.584C56.0591 52.848 56.4151 48.068 53.5231 46.288C52.5349 45.6728 51.3431 45.4742 50.2088 45.7359C49.0745 45.9975 48.0901 46.698 47.4711 47.684C47.1016 48.268 46.8767 48.9317 46.8151 49.62C46.4711 52.8 46.1191 54.676 47.4511 56.564Z" fill="#E4897B"/>
<path d="M51.476 51.3121C51.416 51.5641 51.532 51.8041 51.704 51.8321C51.876 51.8601 52.044 51.6721 52.104 51.4121C52.164 51.1521 52.044 50.9241 51.876 50.8961C51.708 50.8681 51.524 51.0521 51.476 51.3121Z" fill="#263238"/>
<path d="M54.3995 51.804C54.3395 52.056 54.4595 52.292 54.6275 52.32C54.7955 52.348 54.9675 52.16 55.0275 51.92C55.0875 51.68 54.9675 51.428 54.7995 51.4C54.6315 51.372 54.4355 51.556 54.3995 51.804Z" fill="#263238"/>
<path d="M53.4433 51.772C53.6205 52.6076 53.9112 53.4151 54.3073 54.172C54.1085 54.2686 53.891 54.3208 53.67 54.3249C53.449 54.329 53.2297 54.2851 53.0273 54.196L53.4433 51.772Z" fill="#DE5753"/>
<path d="M55.6832 50.7361C55.6564 50.7457 55.6276 50.7482 55.5995 50.7433C55.5715 50.7384 55.5452 50.7262 55.5232 50.7081C55.3822 50.5773 55.2126 50.4813 55.0278 50.4278C54.843 50.3743 54.6483 50.3648 54.4592 50.4001C54.4201 50.409 54.379 50.4028 54.3442 50.3828C54.3093 50.3628 54.2833 50.3304 54.2712 50.2921C54.2658 50.2727 54.2643 50.2523 54.2668 50.2323C54.2693 50.2123 54.2758 50.1929 54.2858 50.1754C54.2959 50.1579 54.3093 50.1426 54.3254 50.1304C54.3414 50.1181 54.3597 50.1092 54.3792 50.1041C54.6173 50.0543 54.8638 50.0621 55.0983 50.1268C55.3328 50.1915 55.5484 50.3113 55.7272 50.4761C55.7579 50.5025 55.7772 50.5397 55.7809 50.58C55.7847 50.6203 55.7726 50.6605 55.7472 50.6921C55.7291 50.7109 55.7073 50.7258 55.6832 50.7361Z" fill="#263238"/>
<path d="M51.096 50.0521C51.0659 50.0449 51.0382 50.0297 51.016 50.0081C50.9949 49.9735 50.9881 49.932 50.997 49.8924C51.006 49.8528 51.03 49.8183 51.064 49.7961C51.2702 49.6643 51.5054 49.5845 51.7492 49.5636C51.9931 49.5427 52.2384 49.5813 52.464 49.6761C52.4994 49.6949 52.5261 49.7266 52.5388 49.7646C52.5514 49.8025 52.549 49.8439 52.532 49.8801C52.5132 49.9155 52.4818 49.9425 52.444 49.9558C52.4063 49.9692 52.3649 49.9678 52.328 49.9521C52.1483 49.8829 51.9549 49.8566 51.7632 49.8753C51.5715 49.8941 51.3869 49.9574 51.224 50.0601C51.182 50.0745 51.1359 50.0716 51.096 50.0521Z" fill="#263238"/>
<path d="M49.8033 46.0602V47.4842C49.5516 47.5696 49.3414 47.7467 49.2147 47.9803C49.0879 48.2138 49.0538 48.4866 49.1193 48.7442C49.4313 49.9802 48.5433 51.7322 47.5473 52.3442C47.5473 52.3442 47.5833 51.8282 47.1473 51.9002C46.7113 51.9722 46.5033 54.6522 47.1953 56.0242C47.1953 56.0242 46.0553 54.7202 45.6673 51.8362C45.3113 49.1642 45.4833 46.9962 46.1353 46.0562L49.8033 46.0602Z" fill="#263238"/>
<path d="M44.9959 52C45.1101 52.384 45.2989 52.7416 45.5515 53.0526C45.8041 53.3635 46.1155 53.6216 46.4679 53.812C47.4159 54.316 48.1199 53.524 48.0679 52.512C47.9999 51.612 47.4359 50.236 46.3879 50.16C45.3399 50.084 44.7239 51.032 44.9959 52Z" fill="#E4897B"/>
<path d="M52.6952 54.996C52.4712 55.3358 52.272 55.6914 52.0992 56.06C52.0289 56.0437 51.9594 56.0237 51.8912 56C50.9552 55.728 50.6152 55.292 50.5152 54.892C50.4663 54.6963 50.4663 54.4916 50.5152 54.296C50.5395 54.1853 50.5799 54.0788 50.6352 53.98C51.1384 54.4042 51.726 54.7165 52.3592 54.896C52.5672 54.964 52.6952 54.996 52.6952 54.996Z" fill="#263238"/>
<path d="M52.3753 54.896L52.1912 55.208C51.3112 54.944 50.7273 54.644 50.5312 54.296C50.5555 54.1853 50.5959 54.0788 50.6512 53.98C51.1544 54.4042 51.7421 54.7165 52.3753 54.896Z" fill="white"/>
<path d="M51.8916 56.0001C50.9556 55.7281 50.6156 55.2921 50.5156 54.8921C50.8697 55.0024 51.2014 55.1744 51.4956 55.4001C51.687 55.5539 51.8255 55.7637 51.8916 56.0001Z" fill="#DE5753"/>
<path d="M49.8077 47.4841C49.8077 47.4841 56.9157 49.9121 56.0957 45.1201C56.0957 45.1201 52.2637 42.8561 48.8957 43.4921C45.5277 44.1281 45.8157 47.5881 45.8157 47.5881L49.8077 47.4841Z" fill="#263238"/>
<path d="M45.4153 59.96C45.4153 59.96 45.8913 76.268 42.3233 91.656L40.0713 89.72C40.0713 89.72 41.1513 70.32 40.0713 60.968L45.4153 59.96Z" fill="#FF725E"/>
<path d="M53.5352 60.2241C53.5352 60.2241 58.1832 67.9561 60.2472 91.1361L62.0712 90.2361C62.0712 90.2361 59.9912 68.0241 57.3432 61.0361L53.5352 60.2241Z" fill="#FF725E"/>
<path opacity="0.2" d="M42.3233 91.656L40.0713 89.72C40.0713 89.72 40.5353 81.384 40.5513 73.008C40.5513 71.488 40.5513 69.964 40.5073 68.492C40.4473 65.692 40.3153 63.076 40.0713 60.968L45.4153 59.96C45.4153 59.96 45.8913 76.268 42.3233 91.656Z" fill="white"/>
<path opacity="0.2" d="M53.5352 60.2241C53.5352 60.2241 58.1832 67.9561 60.2472 91.1361L62.0712 90.2361C62.0712 90.2361 59.9912 68.0241 57.3432 61.0361L53.5352 60.2241Z" fill="white"/>
<path d="M45.4354 58.7761C45.4354 58.7761 45.8354 60.1321 46.6834 60.7041L45.4194 64.0001V62.1801L45.0594 62.9801L43.4834 60.3401L45.4354 58.7761Z" fill="#FF725E"/>
<path d="M52.292 59.344C52.292 59.344 53.728 59.768 54.908 63.344V61.88L56.164 62.5C56.164 62.5 54.356 60.076 53.912 59.784C53.3984 59.5533 52.8517 59.4049 52.292 59.344Z" fill="#FF725E"/>
<path d="M55.108 70.7521C55.1108 70.7905 55.1059 70.829 55.0936 70.8655C55.0814 70.902 55.0621 70.9357 55.0369 70.9647C55.0116 70.9937 54.9808 71.0174 54.9464 71.0344C54.9119 71.0515 54.8744 71.0616 54.836 71.0641L47.096 71.5281C47.0584 71.5303 47.0207 71.5249 46.9852 71.5124C46.9496 71.4998 46.917 71.4803 46.889 71.455C46.8611 71.4297 46.8385 71.3991 46.8225 71.3649C46.8066 71.3308 46.7976 71.2938 46.796 71.2561L46.636 68.5081L46.476 65.7721C46.4739 65.7337 46.4795 65.6951 46.4925 65.6589C46.5055 65.6226 46.5256 65.5893 46.5517 65.5609C46.5779 65.5326 46.6094 65.5098 46.6445 65.4938C46.6796 65.4779 46.7175 65.4692 46.756 65.4681L54.384 65.2601C54.4574 65.2579 54.5288 65.2841 54.5832 65.3333C54.6376 65.3826 54.6709 65.4509 54.676 65.5241L54.896 68.1801L55.108 70.7521Z" fill="#FF725E"/>
<path opacity="0.4" d="M55.108 70.7521C55.1108 70.7905 55.1059 70.829 55.0936 70.8655C55.0814 70.902 55.0621 70.9357 55.0369 70.9647C55.0116 70.9937 54.9808 71.0174 54.9464 71.0344C54.9119 71.0515 54.8744 71.0616 54.836 71.0641L47.096 71.5281C47.0584 71.5303 47.0207 71.5249 46.9852 71.5124C46.9496 71.4998 46.917 71.4803 46.889 71.455C46.8611 71.4297 46.8385 71.3991 46.8225 71.3649C46.8066 71.3308 46.7976 71.2938 46.796 71.2561L46.636 68.5081L46.476 65.7721C46.4739 65.7337 46.4795 65.6951 46.4925 65.6589C46.5055 65.6226 46.5256 65.5893 46.5517 65.5609C46.5779 65.5326 46.6094 65.5098 46.6445 65.4938C46.6796 65.4779 46.7175 65.4692 46.756 65.4681L54.384 65.2601C54.4574 65.2579 54.5288 65.2841 54.5832 65.3333C54.6376 65.3826 54.6709 65.4509 54.676 65.5241L54.896 68.1801L55.108 70.7521Z" fill="white"/>
<path opacity="0.2" d="M55.1077 70.7521C55.1105 70.7905 55.1056 70.829 55.0934 70.8655C55.0811 70.902 55.0619 70.9357 55.0366 70.9647C55.0113 70.9937 54.9805 71.0174 54.9461 71.0344C54.9116 71.0515 54.8741 71.0616 54.8357 71.0641L47.0957 71.5281C47.0581 71.5303 47.0204 71.5249 46.9849 71.5124C46.9494 71.4998 46.9167 71.4803 46.8887 71.455C46.8608 71.4297 46.8382 71.3991 46.8223 71.3649C46.8063 71.3308 46.7973 71.2938 46.7957 71.2561L46.6357 68.5081C47.1357 67.4681 47.8037 66.3081 48.2677 66.3241C49.1117 66.3521 48.7117 69.0001 49.1437 69.3601C49.5757 69.7201 50.8637 67.2441 51.0077 67.4841C51.1517 67.7241 51.1157 68.5681 51.1797 68.7761C51.2277 68.9241 53.5797 68.4561 54.8957 68.1801L55.1077 70.7521Z" fill="black"/>
<path opacity="0.3" d="M40.5518 73.0082C40.5518 71.4882 40.5518 69.9642 40.5078 68.4922C40.8038 67.8442 41.0078 67.4202 41.0078 67.4202C41.3212 68.3327 41.4425 69.3002 41.3641 70.2618C41.2856 71.2235 41.009 72.1585 40.5518 73.0082Z" fill="black"/>
<path d="M37.2714 65.9121C37.2714 65.9121 32.9794 76.0961 32.1394 76.0001C31.2994 75.9041 30.3154 73.4201 30.3154 73.4201L28.2754 74.4001C28.2754 74.4001 29.8074 78.3001 32.1394 79.3561C34.4714 80.4121 39.3074 70.3361 39.3074 70.3361L37.2714 65.9121Z" fill="#FF725E"/>
<path opacity="0.6" d="M37.2714 65.9121C37.2714 65.9121 32.9794 76.0961 32.1394 76.0001C31.2994 75.9041 30.3154 73.4201 30.3154 73.4201L28.2754 74.4001C28.2754 74.4001 29.8074 78.3001 32.1394 79.3561C34.4714 80.4121 39.3074 70.3361 39.3074 70.3361L37.2714 65.9121Z" fill="white"/>
<path d="M40.072 60.968C39 61.452 33.792 71.092 33.792 71.092L38.244 74.236L40.42 71.092C40.42 71.092 40.94 70.844 40.94 67.44C40.915 65.2554 40.6235 63.082 40.072 60.968Z" fill="#FF725E"/>
<path d="M83.7044 104.804L83.7553 104.732C83.8435 104.608 83.8143 104.436 83.69 104.348L81.8795 103.063C81.7552 102.975 81.5829 103.004 81.4947 103.128L81.4437 103.2C81.3555 103.324 81.3848 103.497 81.5091 103.585L83.3196 104.87C83.4439 104.958 83.6162 104.928 83.7044 104.804Z" fill="#263238"/>
<path d="M28.7812 63.1462L26.2766 66.6759L23.8235 64.9351C23.4584 64.676 23.2111 64.2825 23.1362 63.8411C23.0612 63.3998 23.1646 62.9467 23.4237 62.5816L23.9746 61.8052C24.2337 61.4401 24.6272 61.1929 25.0686 61.1179C25.51 61.043 25.963 61.1464 26.3281 61.4055L28.7812 63.1462Z" fill="#263238"/>
<path d="M74.6397 104.464L82.6757 104.572L83.1757 103.868L80.3997 96.316C77.9631 95.8425 75.654 94.8597 73.6237 93.432L28.0517 61.6C27.9352 61.5186 27.7914 61.4865 27.6514 61.5104C27.5114 61.5344 27.3864 61.6125 27.3037 61.728L24.4557 65.728C24.4147 65.7852 24.3854 65.85 24.3694 65.9186C24.3535 65.9871 24.3512 66.0582 24.3627 66.1277C24.3742 66.1971 24.3993 66.2636 24.4365 66.3234C24.4737 66.3832 24.5224 66.435 24.5797 66.476L69.6717 98.992C71.6919 100.437 73.3847 102.292 74.6397 104.436V104.464Z" fill="#263238"/>
<path opacity="0.3" d="M74.6357 104.464C73.3853 102.318 71.6949 100.462 69.6757 99.0161L58.7997 91.1761L58.4237 90.9041L58.0517 90.6361L28.0797 69.0361L27.7077 68.7641L27.3317 68.4961L24.5757 66.4961C24.5189 66.4552 24.4707 66.4034 24.4339 66.3439C24.3971 66.2843 24.3724 66.2181 24.3613 66.149C24.3501 66.0799 24.3527 66.0092 24.3689 65.9411C24.3852 65.873 24.4146 65.8088 24.4557 65.7521L27.3037 61.7521C27.3852 61.6363 27.5091 61.5574 27.6485 61.5327C27.7879 61.5079 27.9314 61.5393 28.0477 61.6201L30.8477 63.5641L31.2477 63.8321L31.6277 64.0961L61.9197 85.2401L62.6797 85.7681L73.6677 93.4401C74.6945 94.1574 75.7923 94.7673 76.9437 95.2601C78.0698 95.7414 79.2446 96.0995 80.4477 96.3281L80.5717 96.6601L80.7637 97.1881L83.2077 103.876L82.7077 104.58L75.5837 104.488H75.0197L74.6357 104.464Z" fill="white"/>
<path d="M73.5218 97.6682L73.6306 97.5149C73.8249 97.241 73.7604 96.8615 73.4866 96.6672L63.984 89.924C63.7102 89.7297 63.3306 89.7942 63.1363 90.068L63.0275 90.2213C62.8332 90.4952 62.8976 90.8747 63.1715 91.069L72.6741 97.8122C72.9479 98.0065 73.3274 97.9421 73.5218 97.6682Z" fill="#263238"/>
<g opacity="0.2">
<path d="M74.9873 104.468L80.5393 96.6479L80.7313 97.176L75.5513 104.476L74.9873 104.468Z" fill="black"/>
</g>
<g opacity="0.2">
<path d="M62.6478 85.7602L61.8878 85.2322L58.0518 90.6362L58.4278 90.9082L58.7998 91.1802L62.6478 85.7602Z" fill="black"/>
</g>
<g opacity="0.2">
<path d="M31.5993 64.084L31.1993 63.82L30.8233 63.552L27.3193 68.488L27.7193 68.756L28.0913 69.028L31.5993 64.084Z" fill="black"/>
</g>
<path d="M62.8999 83.9321L62.5239 84.6161C62.2721 84.5927 62.0182 84.6215 61.778 84.7007C61.5378 84.7798 61.3165 84.9076 61.1279 85.0761C61.1279 85.0761 61.3919 86.6401 61.4839 86.8401C61.6919 87.2801 63.9519 88.3601 64.4959 88.3561C64.6679 88.3561 64.8279 87.2081 64.7239 86.8401C64.4751 86.3617 64.1703 85.9146 63.8159 85.5081L64.1239 84.9041L62.8999 83.9321Z" fill="#E4897B"/>
<path d="M58.3359 64.564C58.3359 64.564 65.2599 69.56 67.2439 75.02C68.7319 79.124 64.2799 85.536 64.2799 85.536L62.3999 84.148C62.3999 84.148 65.5279 78.108 64.7279 75.584C63.9279 73.06 60.1079 70.556 60.1079 70.556L58.3359 64.564Z" fill="#FF725E"/>
<path opacity="0.6" d="M58.3359 64.564C58.3359 64.564 65.2599 69.56 67.2439 75.02C68.7319 79.124 64.2799 85.536 64.2799 85.536L62.3999 84.148C62.3999 84.148 65.5279 78.108 64.7279 75.584C63.9279 73.06 60.1079 70.556 60.1079 70.556L58.3359 64.564Z" fill="white"/>
<path d="M65.1198 70L62.8878 73.824L61.7878 73.348L59.9318 72.548L58.8597 67.792L57.3438 61.064C59.1997 61.944 65.1198 70 65.1198 70Z" fill="#FF725E"/>
<path d="M30.092 73.532L29.632 72.064C29.632 72.064 30.312 71.924 30.316 71.324C30.32 70.724 30.256 69.252 29.972 68.96C29.2713 68.4001 28.5306 67.892 27.756 67.44C27.404 67.26 27.024 68.608 27.008 69.196C26.992 69.784 28.276 71.712 28.276 71.712L28.8 74.148L30.092 73.532Z" fill="#E4897B"/>
<path opacity="0.2" d="M61.7874 73.3402L59.9314 72.5402L58.8594 67.7842C59.9994 69.0282 61.7194 71.2282 61.7874 73.3402Z" fill="black"/>
</svg>
