<svg width="18" height="18" viewBox="0 0 18 18" fill="none" xmlns="http://www.w3.org/2000/svg">
<g clip-path="url(#clip0_814_3903)">
<path fill-rule="evenodd" clip-rule="evenodd" d="M8.99951 18C13.9701 18 17.9995 13.9706 17.9995 9C17.9995 4.02944 13.9701 0 8.99951 0C4.02895 0 -0.000488281 4.02944 -0.000488281 9C-0.000488281 13.9706 4.02895 18 8.99951 18ZM9.80308 5.78571C9.80308 5.34191 9.44331 4.98214 8.99951 4.98214C8.55571 4.98214 8.19594 5.34191 8.19594 5.78571V9C8.19594 9.18798 8.26185 9.37002 8.38219 9.51444L11.5965 13.3716C11.8806 13.7125 12.3873 13.7586 12.7282 13.4744C13.0692 13.1904 13.1152 12.6836 12.8311 12.3427L9.80308 8.70907V5.78571Z" fill="#1E0342"/>
</g>
<defs>
<clipPath id="clip0_814_3903">
<rect width="18" height="18" fill="white"/>
</clipPath>
</defs>
</svg>
