<svg width="18" height="18" viewBox="0 0 18 18" fill="none" xmlns="http://www.w3.org/2000/svg">
<g clip-path="url(#clip0_846_2045)">
<path d="M10.286 8.35742H3.85742" stroke="white" stroke-width="1.28571" stroke-linecap="round" stroke-linejoin="round"/>
<path d="M15.4293 0.643188H3.21498C2.533 0.643188 1.87895 0.914107 1.39671 1.39635C0.914473 1.87858 0.643555 2.53264 0.643555 3.21462V17.3575L3.85784 15.4289L7.07213 17.3575L10.2864 15.4289L13.5007 17.3575V2.57176C13.5007 2.06028 13.7038 1.56973 14.0655 1.20805C14.4272 0.846376 14.9178 0.643188 15.4293 0.643188ZM15.4293 0.643188C15.9407 0.643188 16.4314 0.846376 16.793 1.20805C17.1547 1.56973 17.3578 2.06028 17.3578 2.57176V7.07176H13.5007" stroke="white" stroke-width="1.28571" stroke-linecap="round" stroke-linejoin="round"/>
</g>
<defs>
<clipPath id="clip0_846_2045">
<rect width="18" height="18" fill="white"/>
</clipPath>
</defs>
</svg>
