<svg width="18" height="18" viewBox="0 0 18 18" fill="none" xmlns="http://www.w3.org/2000/svg">
<g clip-path="url(#clip0_814_3892)">
<path fill-rule="evenodd" clip-rule="evenodd" d="M3.21477 0C2.36229 0 1.54472 0.338647 0.941931 0.941442C0.339135 1.54423 0.000488281 2.36181 0.000488281 3.21429V17.3571C0.000488281 17.5887 0.125069 17.8024 0.326611 17.9166C0.528152 18.0307 0.775495 18.0275 0.974093 17.9083L3.85763 16.1783L6.74117 17.9083C6.94475 18.0306 7.19909 18.0306 7.40267 17.9083L10.2862 16.1783L13.1698 17.9083C13.3683 18.0275 13.6157 18.0307 13.8172 17.9166C14.0188 17.8024 14.1433 17.5887 14.1433 17.3571V7.71429H14.1496V3.21429C14.1496 2.77048 14.5094 2.41071 14.9532 2.41071C15.397 2.41071 15.7568 2.77048 15.7568 3.21429V7.71429H17.3576C17.7126 7.71429 18.0005 7.42647 18.0005 7.07143V2.57143C18.0005 1.88945 17.7296 1.23539 17.2473 0.753153C16.765 0.270918 16.111 0 15.4291 0H3.21477ZM3.85763 7.39286C3.32508 7.39286 2.89335 7.82459 2.89335 8.35714C2.89335 8.8897 3.32508 9.32143 3.85763 9.32143H10.2862C10.8188 9.32143 11.2505 8.8897 11.2505 8.35714C11.2505 7.82459 10.8188 7.39286 10.2862 7.39286H3.85763Z" fill="#1E0342"/>
</g>
<defs>
<clipPath id="clip0_814_3892">
<rect width="18" height="18" fill="white"/>
</clipPath>
</defs>
</svg>
