<svg width="200" height="200" viewBox="0 0 200 200" fill="none" xmlns="http://www.w3.org/2000/svg">
<path d="M200 152.96H0V153.06H200V152.96Z" fill="#EBEBEB"/>
<path d="M34.2324 156.768H20.9844V156.868H34.2324V156.768Z" fill="#EBEBEB"/>
<path d="M90.0001 156.82H68.4561V156.92H90.0001V156.82Z" fill="#EBEBEB"/>
<path d="M49.9836 158.832H42.3076V158.932H49.9836V158.832Z" fill="#EBEBEB"/>
<path d="M178.4 158.784H170.708V158.884H178.4V158.784Z" fill="#EBEBEB"/>
<path d="M167.144 158.784H155.028V158.884H167.144V158.784Z" fill="#EBEBEB"/>
<path d="M148.356 158.124H131.332V158.224H148.356V158.124Z" fill="#EBEBEB"/>
<path d="M94.8002 135.12H17.5642C16.9591 135.119 16.3792 134.878 15.9517 134.45C15.5243 134.021 15.2842 133.441 15.2842 132.836V24.264C15.2894 23.6624 15.5319 23.0872 15.9588 22.6633C16.3857 22.2394 16.9626 22.001 17.5642 22H94.8002C95.4059 22 95.9869 22.2406 96.4152 22.669C96.8435 23.0973 97.0842 23.6782 97.0842 24.284V132.836C97.0842 133.442 96.8435 134.023 96.4152 134.451C95.9869 134.879 95.4059 135.12 94.8002 135.12ZM17.5642 22.08C16.9856 22.0811 16.4312 22.3116 16.0224 22.7211C15.6137 23.1306 15.3842 23.6855 15.3842 24.264V132.836C15.3842 133.415 15.6137 133.969 16.0224 134.379C16.4312 134.788 16.9856 135.019 17.5642 135.02H94.8002C95.3791 135.019 95.934 134.789 96.3433 134.379C96.7527 133.97 96.9831 133.415 96.9842 132.836V24.264C96.9831 23.6851 96.7527 23.1302 96.3433 22.7208C95.934 22.3115 95.3791 22.0811 94.8002 22.08H17.5642Z" fill="#EBEBEB"/>
<path d="M181.324 135.12H104.084C103.478 135.119 102.898 134.878 102.47 134.45C102.042 134.022 101.801 133.441 101.8 132.836V24.264C101.806 23.662 102.049 23.0868 102.477 22.663C102.904 22.2392 103.482 22.001 104.084 22H181.324C181.925 22.0021 182.501 22.2409 182.927 22.6647C183.353 23.0885 183.595 23.6631 183.6 24.264V132.836C183.6 133.44 183.36 134.02 182.934 134.448C182.507 134.876 181.928 135.118 181.324 135.12ZM104.084 22.08C103.505 22.0811 102.95 22.3115 102.541 22.7208C102.131 23.1302 101.901 23.6851 101.9 24.264V132.836C101.901 133.415 102.131 133.97 102.541 134.379C102.95 134.789 103.505 135.019 104.084 135.02H181.324C181.903 135.019 182.458 134.789 182.867 134.379C183.276 133.97 183.507 133.415 183.508 132.836V24.264C183.507 23.6851 183.276 23.1302 182.867 22.7208C182.458 22.3115 181.903 22.0811 181.324 22.08H104.084Z" fill="#EBEBEB"/>
<path d="M120.888 152.96H132.216V96.6H120.888V152.96Z" fill="#E6E6E6"/>
<path d="M123.036 152.96H120.884V146.84H125.292L123.036 152.96Z" fill="#F0F0F0"/>
<path d="M163.224 152.96H174.552V96.6H163.224V152.96Z" fill="#E6E6E6"/>
<path d="M120.888 149.204H165.104V96.6H120.888V149.204Z" fill="#F0F0F0"/>
<path d="M122.556 131.324V141.552H142.272V131.324H122.556Z" fill="#E6E6E6"/>
<path d="M143.716 131.324V141.552H163.432V131.324H143.716Z" fill="#E6E6E6"/>
<path d="M151.625 133.036H155.525C156.363 133.037 157.193 132.866 157.963 132.534C158.734 132.203 159.428 131.717 160.005 131.108H147.145C147.721 131.717 148.415 132.203 149.186 132.534C149.956 132.866 150.786 133.037 151.625 133.036Z" fill="#F0F0F0"/>
<path d="M130.264 133.036H134.164C135.003 133.037 135.833 132.866 136.603 132.534C137.373 132.203 138.068 131.717 138.644 131.108H125.784C126.36 131.717 127.055 132.203 127.825 132.534C128.596 132.866 129.426 133.037 130.264 133.036Z" fill="#F0F0F0"/>
<path d="M122.552 115.424V125.652H142.268V115.424H122.552Z" fill="#E6E6E6"/>
<path d="M143.716 115.428V125.656H163.432V115.428H143.716Z" fill="#E6E6E6"/>
<path d="M151.625 117.136H155.525C156.363 117.134 157.192 116.962 157.962 116.629C158.731 116.296 159.425 115.81 160.001 115.2H147.145C147.72 115.81 148.415 116.297 149.185 116.63C149.955 116.962 150.785 117.135 151.625 117.136Z" fill="#F0F0F0"/>
<path d="M130.264 117.136H134.164C135.002 117.136 135.832 116.966 136.602 116.635C137.372 116.304 138.067 115.82 138.644 115.212H125.784C126.361 115.82 127.056 116.304 127.826 116.635C128.596 116.966 129.426 117.136 130.264 117.136Z" fill="#F0F0F0"/>
<path d="M122.556 99.528V109.756H142.272V99.528H122.556Z" fill="#E6E6E6"/>
<path d="M143.716 99.528V109.756H163.432V99.528H143.716Z" fill="#E6E6E6"/>
<path d="M151.625 101.24H155.525C156.363 101.241 157.193 101.07 157.963 100.738C158.734 100.407 159.428 99.9214 160.005 99.312H147.145C147.721 99.9214 148.415 100.407 149.186 100.738C149.956 101.07 150.786 101.241 151.625 101.24Z" fill="#F0F0F0"/>
<path d="M130.264 101.24H134.164C135.003 101.241 135.833 101.07 136.603 100.738C137.373 100.407 138.068 99.9214 138.644 99.312H125.784C126.36 99.9214 127.055 100.407 127.825 100.738C128.596 101.07 129.426 101.241 130.264 101.24Z" fill="#F0F0F0"/>
<path d="M162.952 152.96H165.104V146.84H160.696L162.952 152.96Z" fill="#F0F0F0"/>
<path d="M164.816 57.908L166.547 62.644H164.816L154.188 57.908H164.816Z" fill="#F5F5F5"/>
<path d="M166.548 57.908V62.644L155.924 57.908H166.548Z" fill="#E6E6E6"/>
<path d="M123.147 57.908L124.879 62.644H123.147L112.523 57.908H123.147Z" fill="#F5F5F5"/>
<path d="M124.88 57.908V62.644L114.256 57.908H124.88Z" fill="#E6E6E6"/>
<path d="M174.348 54.524H162.792V58.1281H174.348V54.524Z" fill="#E6E6E6"/>
<path d="M105.34 58.132L162.792 58.132V54.528L105.34 54.528V58.132Z" fill="#F5F5F5"/>
<path d="M151.124 42C151.124 42 151.24 54.528 155.564 54.528C159.888 54.528 160 42 160 42H151.124Z" fill="#F0F0F0"/>
<path d="M124.312 50.44C124.312 50.44 124.616 54.524 136.248 54.524C147.88 54.524 148.184 50.44 148.184 50.44H124.312Z" fill="#F0F0F0"/>
<path d="M89.7441 152.96H90.5161L92.7281 142.06L93.1281 140.148L95.5281 128.268H104.8L109.812 152.96H110.588L105.48 127.816C105.463 127.73 105.417 127.652 105.349 127.597C105.281 127.541 105.196 127.511 105.108 127.512H95.2201C95.1329 127.511 95.0482 127.542 94.981 127.597C94.9137 127.653 94.8681 127.73 94.8521 127.816L92.7321 138.248L92.3321 140.156L89.7441 152.96Z" fill="#F0F0F0"/>
<path d="M74.8926 152.96H75.6646L80.6806 128.268H89.9286L92.3286 140.156L92.7286 142.06L94.9446 152.96H95.7166L93.1166 140.16L92.7166 138.26L90.5966 127.828C90.5759 127.744 90.5284 127.669 90.4613 127.614C90.3942 127.559 90.3111 127.527 90.2246 127.524H80.3726C80.2848 127.523 80.1996 127.553 80.1317 127.609C80.0638 127.664 80.0174 127.742 80.0006 127.828L74.8926 152.96Z" fill="#F0F0F0"/>
<path d="M106.184 124.632H79.2762C78.6591 124.633 78.0676 124.879 77.6313 125.315C77.1949 125.751 76.9493 126.343 76.9482 126.96V127.04C76.9482 127.266 77.038 127.483 77.1978 127.642C77.3576 127.802 77.5743 127.892 77.8002 127.892H107.66C107.886 127.892 108.103 127.802 108.263 127.642C108.422 127.483 108.512 127.266 108.512 127.04V126.96C108.511 126.343 108.266 125.751 107.829 125.315C107.393 124.879 106.801 124.633 106.184 124.632Z" fill="#F0F0F0"/>
<path d="M62.7402 152.96H63.5122L65.7242 142.06L66.1242 140.148L68.5242 128.268H77.7722L82.8002 152.96H83.5762L78.4682 127.816C78.4514 127.73 78.4051 127.652 78.3371 127.597C78.2692 127.541 78.184 127.511 78.0962 127.512H68.2162C68.129 127.511 68.0443 127.542 67.977 127.597C67.9098 127.653 67.8642 127.73 67.8482 127.816L65.7282 138.248L65.3282 140.156L62.7402 152.96Z" fill="#F0F0F0"/>
<path d="M47.8877 152.96H48.6637L53.6757 128.268H62.9277L65.3277 140.156L65.7277 142.06L67.9437 152.96H68.7157L66.1157 140.16L65.7157 138.26L63.5997 127.816C63.579 127.732 63.5315 127.657 63.4644 127.602C63.3973 127.547 63.3143 127.516 63.2277 127.512H53.3677C53.28 127.511 53.1947 127.541 53.1268 127.597C53.0589 127.652 53.0125 127.73 52.9957 127.816L47.8877 152.96Z" fill="#F0F0F0"/>
<path d="M79.2003 124.632H52.2723C51.6552 124.633 51.0637 124.879 50.6274 125.315C50.191 125.751 49.9454 126.343 49.9443 126.96V127.04C49.9443 127.266 50.0341 127.483 50.1939 127.642C50.3537 127.802 50.5704 127.892 50.7963 127.892H80.6603C80.772 127.892 80.8826 127.87 80.9858 127.827C81.0889 127.784 81.1826 127.721 81.2614 127.642C81.3402 127.563 81.4026 127.469 81.4449 127.366C81.4873 127.262 81.5089 127.152 81.5083 127.04V126.96C81.5073 126.346 81.2645 125.758 80.8324 125.322C80.4004 124.886 79.814 124.638 79.2003 124.632Z" fill="#F0F0F0"/>
<path d="M33.7326 93.04H72.3926L72.3926 31.108L33.7326 31.108L33.7326 93.04Z" fill="#E6E6E6"/>
<path d="M31.2079 93.04H71.2119L71.2119 31.108L31.2079 31.108L31.2079 93.04Z" fill="#F0F0F0"/>
<path d="M33.7326 97.732H72.3926V93.036H33.7326V97.732Z" fill="#E6E6E6"/>
<path d="M26.9999 97.732H67.0039V93.036H26.9999V97.732Z" fill="#F0F0F0"/>
<path d="M67.6719 89.504V34.644H34.7399V89.504H67.6719Z" fill="#FAFAFA"/>
<path d="M67.9563 89.5L56.3723 34.644H46.5723L58.1563 89.5H67.9563Z" fill="white"/>
<path d="M65.2881 82.948C65.355 82.948 65.4191 82.9215 65.4663 82.8742C65.5136 82.8269 65.5401 82.7629 65.5401 82.696V36.944C65.5401 36.8772 65.5136 36.8131 65.4663 36.7658C65.4191 36.7186 65.355 36.692 65.2881 36.692C65.2213 36.692 65.1572 36.7186 65.1099 36.7658C65.0627 36.8131 65.0361 36.8772 65.0361 36.944V82.696C65.0361 82.7629 65.0627 82.8269 65.1099 82.8742C65.1572 82.9215 65.2213 82.948 65.2881 82.948Z" fill="#F0F0F0"/>
<path d="M56.0524 89.5L44.4684 34.644H40.6484L52.2284 89.5H56.0524Z" fill="white"/>
<path d="M35.1924 89.504V34.644H34.7444V89.504H35.1924Z" fill="#E6E6E6"/>
<path opacity="0.6" d="M30.3682 37.36H69.0282L69.3562 36.016H30.6962L30.3682 37.36Z" fill="#F0F0F0"/>
<path opacity="0.6" d="M30.3682 40.484H69.0282L69.3562 39.144H30.6962L30.3682 40.484Z" fill="#F0F0F0"/>
<path opacity="0.6" d="M30.3682 43.612H69.0282L69.3562 42.268H30.6962L30.3682 43.612Z" fill="#F0F0F0"/>
<path opacity="0.6" d="M30.3682 46.736H69.0282L69.3562 45.396H30.6962L30.3682 46.736Z" fill="#F0F0F0"/>
<path opacity="0.6" d="M30.3682 49.864H69.0282L69.3562 48.524H30.6962L30.3682 49.864Z" fill="#F0F0F0"/>
<path opacity="0.6" d="M30.3682 52.992H69.0282L69.3562 51.648H30.6962L30.3682 52.992Z" fill="#F0F0F0"/>
<path d="M100 171.024C142.833 171.024 177.556 168.997 177.556 166.496C177.556 163.995 142.833 161.968 100 161.968C57.1673 161.968 22.4443 163.995 22.4443 166.496C22.4443 168.997 57.1673 171.024 100 171.024Z" fill="#F5F5F5"/>
<path d="M97.2485 105.092H72.8125C72.4678 105.092 72.1885 105.371 72.1885 105.716V115.908C72.1885 116.253 72.4678 116.532 72.8125 116.532H97.2485C97.5931 116.532 97.8725 116.253 97.8725 115.908V105.716C97.8725 105.371 97.5931 105.092 97.2485 105.092Z" fill="#407BFF"/>
<path opacity="0.6" d="M97.2485 105.092H72.8125C72.4678 105.092 72.1885 105.371 72.1885 105.716V115.908C72.1885 116.253 72.4678 116.532 72.8125 116.532H97.2485C97.5931 116.532 97.8725 116.253 97.8725 115.908V105.716C97.8725 105.371 97.5931 105.092 97.2485 105.092Z" fill="white"/>
<path opacity="0.1" d="M97.2448 105.092H72.8008C72.6353 105.092 72.4765 105.158 72.3595 105.275C72.2425 105.392 72.1768 105.55 72.1768 105.716V108.984L84.8968 111.488C84.9746 111.504 85.0549 111.504 85.1328 111.488L97.8568 108.984V105.716C97.8568 105.552 97.7927 105.396 97.6783 105.279C97.5638 105.162 97.4082 105.095 97.2448 105.092Z" fill="#1E1E1E"/>
<path d="M97.7809 100.908H90.3169V99.656C90.3159 99.1386 90.1099 98.6427 89.744 98.2769C89.3782 97.911 88.8823 97.705 88.3649 97.704H81.6969C81.1796 97.705 80.6837 97.911 80.3178 98.2769C79.952 98.6427 79.746 99.1386 79.7449 99.656V100.908H72.2849C72.1216 100.908 71.9649 100.973 71.8494 101.088C71.7338 101.204 71.6689 101.361 71.6689 101.524V107.688C71.6697 107.83 71.7195 107.968 71.8098 108.078C71.9001 108.188 72.0255 108.264 72.1649 108.292L84.9129 110.8C84.9912 110.812 85.0707 110.812 85.1489 110.8L97.8969 108.292C98.0368 108.264 98.1627 108.188 98.2537 108.078C98.3446 107.968 98.3952 107.831 98.3969 107.688V101.524C98.3969 101.361 98.332 101.204 98.2165 101.088C98.101 100.973 97.9443 100.908 97.7809 100.908ZM81.2289 99.656C81.23 99.5318 81.2795 99.4129 81.3669 99.3248C81.4544 99.2366 81.5728 99.1861 81.6969 99.184H88.3649C88.4891 99.1861 88.6075 99.2366 88.695 99.3248C88.7824 99.4129 88.8319 99.5318 88.8329 99.656V100.908H81.2329L81.2289 99.656Z" fill="#407BFF"/>
<path opacity="0.6" d="M97.7809 100.908H90.3169V99.656C90.3159 99.1386 90.1099 98.6427 89.744 98.2769C89.3782 97.911 88.8823 97.705 88.3649 97.704H81.6969C81.1796 97.705 80.6837 97.911 80.3178 98.2769C79.952 98.6427 79.746 99.1386 79.7449 99.656V100.908H72.2849C72.1216 100.908 71.9649 100.973 71.8494 101.088C71.7338 101.204 71.6689 101.361 71.6689 101.524V107.688C71.6697 107.83 71.7195 107.968 71.8098 108.078C71.9001 108.188 72.0255 108.264 72.1649 108.292L84.9129 110.8C84.9912 110.812 85.0707 110.812 85.1489 110.8L97.8969 108.292C98.0368 108.264 98.1627 108.188 98.2537 108.078C98.3446 107.968 98.3952 107.831 98.3969 107.688V101.524C98.3969 101.361 98.332 101.204 98.2165 101.088C98.101 100.973 97.9443 100.908 97.7809 100.908ZM81.2289 99.656C81.23 99.5318 81.2795 99.4129 81.3669 99.3248C81.4544 99.2366 81.5728 99.1861 81.6969 99.184H88.3649C88.4891 99.1861 88.6075 99.2366 88.695 99.3248C88.7824 99.4129 88.8319 99.5318 88.8329 99.656V100.908H81.2329L81.2289 99.656Z" fill="white"/>
<path d="M86.348 109.116H83.716C83.3891 109.116 83.124 109.381 83.124 109.708V111.372C83.124 111.699 83.3891 111.964 83.716 111.964H86.348C86.675 111.964 86.94 111.699 86.94 111.372V109.708C86.94 109.381 86.675 109.116 86.348 109.116Z" fill="#407BFF"/>
<path opacity="0.3" d="M86.348 109.116H83.716C83.3891 109.116 83.124 109.381 83.124 109.708V111.372C83.124 111.699 83.3891 111.964 83.716 111.964H86.348C86.675 111.964 86.94 111.699 86.94 111.372V109.708C86.94 109.381 86.675 109.116 86.348 109.116Z" fill="white"/>
<path d="M97.2485 31.508H72.8125C72.4678 31.508 72.1885 31.7874 72.1885 32.132V42.324C72.1885 42.6686 72.4678 42.948 72.8125 42.948H97.2485C97.5931 42.948 97.8725 42.6686 97.8725 42.324V32.132C97.8725 31.7874 97.5931 31.508 97.2485 31.508Z" fill="#407BFF"/>
<path opacity="0.6" d="M97.2485 31.508H72.8125C72.4678 31.508 72.1885 31.7874 72.1885 32.132V42.324C72.1885 42.6686 72.4678 42.948 72.8125 42.948H97.2485C97.5931 42.948 97.8725 42.6686 97.8725 42.324V32.132C97.8725 31.7874 97.5931 31.508 97.2485 31.508Z" fill="white"/>
<path opacity="0.1" d="M97.2448 31.508H72.8008C72.6353 31.508 72.4765 31.5737 72.3595 31.6908C72.2425 31.8078 72.1768 31.9665 72.1768 32.132V35.4L84.8968 37.904C84.9746 37.9199 85.0549 37.9199 85.1328 37.904L97.8568 35.4V32.132C97.8568 31.9686 97.7927 31.8116 97.6783 31.695C97.5638 31.5783 97.4082 31.5111 97.2448 31.508Z" fill="#1E1E1E"/>
<path d="M97.7809 27.324H90.3169V26.072C90.3159 25.5546 90.1099 25.0587 89.744 24.6929C89.3782 24.327 88.8823 24.1211 88.3649 24.12H81.6969C81.1796 24.1211 80.6837 24.327 80.3178 24.6929C79.952 25.0587 79.746 25.5546 79.7449 26.072V27.324H72.2849C72.1216 27.324 71.9649 27.3889 71.8494 27.5044C71.7338 27.6199 71.6689 27.7766 71.6689 27.94V34.104C71.669 34.2465 71.7185 34.3846 71.8089 34.4947C71.8993 34.6049 72.0252 34.6802 72.1649 34.708L84.9129 37.2C84.9908 37.2159 85.0711 37.2159 85.1489 37.2L97.8969 34.692C98.0352 34.6657 98.1604 34.5932 98.252 34.4864C98.3436 34.3795 98.3962 34.2447 98.4009 34.104V27.94C98.4009 27.8588 98.3849 27.7783 98.3537 27.7033C98.3225 27.6283 98.2767 27.5603 98.2191 27.503C98.1615 27.4457 98.0931 27.4005 98.0179 27.3697C97.9427 27.339 97.8622 27.3235 97.7809 27.324ZM81.2289 26.072C81.2289 25.9475 81.2781 25.8281 81.3658 25.7396C81.4534 25.6512 81.5725 25.6011 81.6969 25.6H88.3649C88.4887 25.601 88.6072 25.6507 88.6947 25.7382C88.7823 25.8258 88.8319 25.9442 88.8329 26.068V27.32H81.2329L81.2289 26.072Z" fill="#407BFF"/>
<path opacity="0.6" d="M97.7809 27.324H90.3169V26.072C90.3159 25.5546 90.1099 25.0587 89.744 24.6929C89.3782 24.327 88.8823 24.1211 88.3649 24.12H81.6969C81.1796 24.1211 80.6837 24.327 80.3178 24.6929C79.952 25.0587 79.746 25.5546 79.7449 26.072V27.324H72.2849C72.1216 27.324 71.9649 27.3889 71.8494 27.5044C71.7338 27.6199 71.6689 27.7766 71.6689 27.94V34.104C71.669 34.2465 71.7185 34.3846 71.8089 34.4947C71.8993 34.6049 72.0252 34.6802 72.1649 34.708L84.9129 37.2C84.9908 37.2159 85.0711 37.2159 85.1489 37.2L97.8969 34.692C98.0352 34.6657 98.1604 34.5932 98.252 34.4864C98.3436 34.3795 98.3962 34.2447 98.4009 34.104V27.94C98.4009 27.8588 98.3849 27.7783 98.3537 27.7033C98.3225 27.6283 98.2767 27.5603 98.2191 27.503C98.1615 27.4457 98.0931 27.4005 98.0179 27.3697C97.9427 27.339 97.8622 27.3235 97.7809 27.324ZM81.2289 26.072C81.2289 25.9475 81.2781 25.8281 81.3658 25.7396C81.4534 25.6512 81.5725 25.6011 81.6969 25.6H88.3649C88.4887 25.601 88.6072 25.6507 88.6947 25.7382C88.7823 25.8258 88.8319 25.9442 88.8329 26.068V27.32H81.2329L81.2289 26.072Z" fill="white"/>
<path d="M86.348 35.5359H83.716C83.3891 35.5359 83.124 35.801 83.124 36.128V37.792C83.124 38.1189 83.3891 38.384 83.716 38.384H86.348C86.675 38.384 86.94 38.1189 86.94 37.792V36.128C86.94 35.801 86.675 35.5359 86.348 35.5359Z" fill="#407BFF"/>
<path opacity="0.3" d="M86.348 35.5359H83.716C83.3891 35.5359 83.124 35.801 83.124 36.128V37.792C83.124 38.1189 83.3891 38.384 83.716 38.384H86.348C86.675 38.384 86.94 38.1189 86.94 37.792V36.128C86.94 35.801 86.675 35.5359 86.348 35.5359Z" fill="white"/>
<path d="M59.184 105.092H34.748C34.4034 105.092 34.124 105.371 34.124 105.716V115.908C34.124 116.253 34.4034 116.532 34.748 116.532H59.184C59.5287 116.532 59.808 116.253 59.808 115.908V105.716C59.808 105.371 59.5287 105.092 59.184 105.092Z" fill="#407BFF"/>
<path opacity="0.6" d="M59.184 105.092H34.748C34.4034 105.092 34.124 105.371 34.124 105.716V115.908C34.124 116.253 34.4034 116.532 34.748 116.532H59.184C59.5287 116.532 59.808 116.253 59.808 115.908V105.716C59.808 105.371 59.5287 105.092 59.184 105.092Z" fill="white"/>
<path opacity="0.1" d="M59.2 105.092H34.748C34.5825 105.092 34.4238 105.158 34.3068 105.275C34.1898 105.392 34.124 105.55 34.124 105.716V108.984L46.844 111.488C46.9232 111.504 47.0048 111.504 47.084 111.488L59.808 108.984V105.716C59.8081 105.553 59.7445 105.397 59.6309 105.28C59.5174 105.164 59.3627 105.096 59.2 105.092Z" fill="#1E1E1E"/>
<path d="M59.7126 100.908H52.2486V99.656C52.2475 99.1386 52.0415 98.6427 51.6757 98.2769C51.3098 97.911 50.814 97.705 50.2966 97.704H43.6326C43.1152 97.705 42.6193 97.911 42.2535 98.2769C41.8876 98.6427 41.6816 99.1386 41.6806 99.656V100.908H34.2166C34.0532 100.908 33.8965 100.973 33.781 101.088C33.6655 101.204 33.6006 101.361 33.6006 101.524V107.688C33.6014 107.83 33.6511 107.968 33.7414 108.078C33.8317 108.188 33.9571 108.264 34.0966 108.292L46.8446 110.8C46.9241 110.812 47.005 110.812 47.0846 110.8L59.8326 108.292C59.972 108.264 60.0974 108.188 60.1877 108.078C60.2781 107.968 60.3278 107.83 60.3286 107.688V101.524C60.3286 101.361 60.2637 101.204 60.1482 101.088C60.0326 100.973 59.876 100.908 59.7126 100.908ZM43.1606 99.656C43.1626 99.5314 43.213 99.4126 43.3011 99.3245C43.3892 99.2364 43.508 99.186 43.6326 99.184H50.2966C50.4211 99.186 50.54 99.2364 50.6281 99.3245C50.7161 99.4126 50.7665 99.5314 50.7686 99.656V100.908H43.1686L43.1606 99.656Z" fill="#407BFF"/>
<path opacity="0.6" d="M59.7126 100.908H52.2486V99.656C52.2475 99.1386 52.0415 98.6427 51.6757 98.2769C51.3098 97.911 50.814 97.705 50.2966 97.704H43.6326C43.1152 97.705 42.6193 97.911 42.2535 98.2769C41.8876 98.6427 41.6816 99.1386 41.6806 99.656V100.908H34.2166C34.0532 100.908 33.8965 100.973 33.781 101.088C33.6655 101.204 33.6006 101.361 33.6006 101.524V107.688C33.6014 107.83 33.6511 107.968 33.7414 108.078C33.8317 108.188 33.9571 108.264 34.0966 108.292L46.8446 110.8C46.9241 110.812 47.005 110.812 47.0846 110.8L59.8326 108.292C59.972 108.264 60.0974 108.188 60.1877 108.078C60.2781 107.968 60.3278 107.83 60.3286 107.688V101.524C60.3286 101.361 60.2637 101.204 60.1482 101.088C60.0326 100.973 59.876 100.908 59.7126 100.908ZM43.1606 99.656C43.1626 99.5314 43.213 99.4126 43.3011 99.3245C43.3892 99.2364 43.508 99.186 43.6326 99.184H50.2966C50.4211 99.186 50.54 99.2364 50.6281 99.3245C50.7161 99.4126 50.7665 99.5314 50.7686 99.656V100.908H43.1686L43.1606 99.656Z" fill="white"/>
<path d="M48.2806 109.116H45.6486C45.3217 109.116 45.0566 109.381 45.0566 109.708V111.372C45.0566 111.699 45.3217 111.964 45.6486 111.964H48.2806C48.6076 111.964 48.8726 111.699 48.8726 111.372V109.708C48.8726 109.381 48.6076 109.116 48.2806 109.116Z" fill="#407BFF"/>
<path opacity="0.3" d="M48.2806 109.116H45.6486C45.3217 109.116 45.0566 109.381 45.0566 109.708V111.372C45.0566 111.699 45.3217 111.964 45.6486 111.964H48.2806C48.6076 111.964 48.8726 111.699 48.8726 111.372V109.708C48.8726 109.381 48.6076 109.116 48.2806 109.116Z" fill="white"/>
<path d="M59.184 31.508H34.748C34.4034 31.508 34.124 31.7874 34.124 32.132V42.324C34.124 42.6686 34.4034 42.948 34.748 42.948H59.184C59.5287 42.948 59.808 42.6686 59.808 42.324V32.132C59.808 31.7874 59.5287 31.508 59.184 31.508Z" fill="#407BFF"/>
<path opacity="0.6" d="M59.184 31.508H34.748C34.4034 31.508 34.124 31.7874 34.124 32.132V42.324C34.124 42.6686 34.4034 42.948 34.748 42.948H59.184C59.5287 42.948 59.808 42.6686 59.808 42.324V32.132C59.808 31.7874 59.5287 31.508 59.184 31.508Z" fill="white"/>
<path opacity="0.1" d="M59.2 31.508H34.748C34.5825 31.508 34.4238 31.5737 34.3068 31.6908C34.1898 31.8078 34.124 31.9665 34.124 32.132V35.4L46.844 37.904C46.9232 37.9201 47.0048 37.9201 47.084 37.904L59.808 35.4V32.132C59.8081 31.9692 59.7445 31.8129 59.6309 31.6963C59.5174 31.5798 59.3627 31.5122 59.2 31.508Z" fill="#1E1E1E"/>
<path d="M59.7126 27.324H52.2486V26.072C52.2475 25.5546 52.0415 25.0587 51.6757 24.6929C51.3098 24.327 50.814 24.1211 50.2966 24.12H43.6326C43.1152 24.1211 42.6193 24.327 42.2535 24.6929C41.8876 25.0587 41.6816 25.5546 41.6806 26.072V27.324H34.2166C34.0532 27.324 33.8965 27.3889 33.781 27.5044C33.6655 27.6199 33.6006 27.7766 33.6006 27.94V34.104C33.6006 34.2465 33.6501 34.3846 33.7405 34.4947C33.831 34.6049 33.9568 34.6802 34.0966 34.708L46.8446 37.2C46.9238 37.2161 47.0054 37.2161 47.0846 37.2L59.8326 34.692C59.9724 34.6642 60.0982 34.5889 60.1886 34.4787C60.2791 34.3686 60.3285 34.2305 60.3286 34.088V27.94C60.3286 27.7766 60.2637 27.6199 60.1482 27.5044C60.0326 27.3889 59.876 27.324 59.7126 27.324ZM43.1606 26.072C43.1616 25.9471 43.2117 25.8277 43.3 25.7394C43.3883 25.6511 43.5077 25.601 43.6326 25.6H50.2966C50.4208 25.601 50.5396 25.6505 50.6278 25.738C50.716 25.8254 50.7665 25.9438 50.7686 26.068V27.32H43.1686L43.1606 26.072Z" fill="#407BFF"/>
<path opacity="0.6" d="M59.7126 27.324H52.2486V26.072C52.2475 25.5546 52.0415 25.0587 51.6757 24.6929C51.3098 24.327 50.814 24.1211 50.2966 24.12H43.6326C43.1152 24.1211 42.6193 24.327 42.2535 24.6929C41.8876 25.0587 41.6816 25.5546 41.6806 26.072V27.324H34.2166C34.0532 27.324 33.8965 27.3889 33.781 27.5044C33.6655 27.6199 33.6006 27.7766 33.6006 27.94V34.104C33.6006 34.2465 33.6501 34.3846 33.7405 34.4947C33.831 34.6049 33.9568 34.6802 34.0966 34.708L46.8446 37.2C46.9238 37.2161 47.0054 37.2161 47.0846 37.2L59.8326 34.692C59.9724 34.6642 60.0982 34.5889 60.1886 34.4787C60.2791 34.3686 60.3285 34.2305 60.3286 34.088V27.94C60.3286 27.7766 60.2637 27.6199 60.1482 27.5044C60.0326 27.3889 59.876 27.324 59.7126 27.324ZM43.1606 26.072C43.1616 25.9471 43.2117 25.8277 43.3 25.7394C43.3883 25.6511 43.5077 25.601 43.6326 25.6H50.2966C50.4208 25.601 50.5396 25.6505 50.6278 25.738C50.716 25.8254 50.7665 25.9438 50.7686 26.068V27.32H43.1686L43.1606 26.072Z" fill="white"/>
<path d="M48.2806 35.5359H45.6486C45.3217 35.5359 45.0566 35.801 45.0566 36.128V37.792C45.0566 38.1189 45.3217 38.384 45.6486 38.384H48.2806C48.6076 38.384 48.8726 38.1189 48.8726 37.792V36.128C48.8726 35.801 48.6076 35.5359 48.2806 35.5359Z" fill="#407BFF"/>
<path opacity="0.3" d="M48.2806 35.5359H45.6486C45.3217 35.5359 45.0566 35.801 45.0566 36.128V37.792C45.0566 38.1189 45.3217 38.384 45.6486 38.384H48.2806C48.6076 38.384 48.8726 38.1189 48.8726 37.792V36.128C48.8726 35.801 48.6076 35.5359 48.2806 35.5359Z" fill="white"/>
<path d="M56.0001 79.74H34.7481C34.5816 79.74 34.4218 79.6738 34.3041 79.556C34.1863 79.4383 34.1201 79.2785 34.1201 79.112V68.924C34.1207 68.84 34.1384 68.757 34.1721 68.68C34.1884 68.6441 34.2071 68.6093 34.2281 68.576C34.2504 68.5418 34.2773 68.5108 34.3081 68.484C34.4246 68.3668 34.5829 68.3006 34.7481 68.3H54.8641C54.6968 69.696 54.6419 71.1032 54.7001 72.508C54.7001 72.736 54.7001 72.964 54.7361 73.188C54.7641 73.608 54.7961 74.032 54.8441 74.452C55.05 76.2492 55.4373 78.0209 56.0001 79.74Z" fill="#407BFF"/>
<path opacity="0.6" d="M56.0001 79.74H34.7481C34.5816 79.74 34.4218 79.6738 34.3041 79.556C34.1863 79.4383 34.1201 79.2785 34.1201 79.112V68.924C34.1207 68.84 34.1384 68.757 34.1721 68.68C34.1884 68.6441 34.2071 68.6093 34.2281 68.576C34.2504 68.5418 34.2773 68.5108 34.3081 68.484C34.4246 68.3668 34.5829 68.3006 34.7481 68.3H54.8641C54.6968 69.696 54.6419 71.1032 54.7001 72.508C54.7001 72.736 54.7001 72.964 54.7361 73.188C54.7641 73.608 54.7961 74.032 54.8441 74.452C55.05 76.2492 55.4373 78.0209 56.0001 79.74Z" fill="white"/>
<path opacity="0.1" d="M54.864 68.3C54.6967 69.696 54.6418 71.1032 54.7 72.508C54.7 72.736 54.7 72.964 54.736 73.188L48.872 74.34L47.08 74.692C47.0026 74.712 46.9214 74.712 46.844 74.692L45.056 74.344L34.124 72.192V68.92C34.1253 68.8377 34.1416 68.7564 34.172 68.68C34.1883 68.6441 34.207 68.6093 34.228 68.576C34.2503 68.5418 34.2772 68.5108 34.308 68.484C34.4245 68.3668 34.5828 68.3006 34.748 68.3H54.864Z" fill="#1E1E1E"/>
<path d="M55.7006 64.116H52.2526V62.864C52.2505 62.3462 52.0436 61.8504 51.6771 61.4846C51.3106 61.1189 50.8143 60.913 50.2966 60.912H43.6326C43.1149 60.912 42.6184 61.1176 42.2523 61.4837C41.8862 61.8498 41.6806 62.3463 41.6806 62.864V64.116H34.2166C34.1357 64.116 34.0556 64.1319 33.9809 64.1629C33.9061 64.1938 33.8382 64.2392 33.781 64.2964C33.7238 64.3536 33.6784 64.4215 33.6475 64.4963C33.6165 64.571 33.6006 64.6511 33.6006 64.732V70.892C33.6006 71.0355 33.6505 71.1746 33.7417 71.2855C33.8329 71.3964 33.9597 71.4722 34.1006 71.5H34.1246L45.0566 73.656L46.8446 74.004C46.9224 74.0199 47.0027 74.0199 47.0806 74.004L48.8726 73.652L54.7006 72.504C54.6424 71.0992 54.6972 69.692 54.8646 68.296C55.0307 66.8825 55.3103 65.4846 55.7006 64.116ZM43.1606 62.864C43.1627 62.7398 43.2132 62.6214 43.3014 62.534C43.3896 62.4465 43.5084 62.397 43.6326 62.396H50.2966C50.4204 62.397 50.5388 62.4467 50.6264 62.5342C50.7139 62.6218 50.7635 62.7402 50.7646 62.864V64.116H43.1646L43.1606 62.864Z" fill="#407BFF"/>
<path opacity="0.6" d="M55.7006 64.116H52.2526V62.864C52.2505 62.3462 52.0436 61.8504 51.6771 61.4846C51.3106 61.1189 50.8143 60.913 50.2966 60.912H43.6326C43.1149 60.912 42.6184 61.1176 42.2523 61.4837C41.8862 61.8498 41.6806 62.3463 41.6806 62.864V64.116H34.2166C34.1357 64.116 34.0556 64.1319 33.9809 64.1629C33.9061 64.1938 33.8382 64.2392 33.781 64.2964C33.7238 64.3536 33.6784 64.4215 33.6475 64.4963C33.6165 64.571 33.6006 64.6511 33.6006 64.732V70.892C33.6006 71.0355 33.6505 71.1746 33.7417 71.2855C33.8329 71.3964 33.9597 71.4722 34.1006 71.5H34.1246L45.0566 73.656L46.8446 74.004C46.9224 74.0199 47.0027 74.0199 47.0806 74.004L48.8726 73.652L54.7006 72.504C54.6424 71.0992 54.6972 69.692 54.8646 68.296C55.0307 66.8825 55.3103 65.4846 55.7006 64.116ZM43.1606 62.864C43.1627 62.7398 43.2132 62.6214 43.3014 62.534C43.3896 62.4465 43.5084 62.397 43.6326 62.396H50.2966C50.4204 62.397 50.5388 62.4467 50.6264 62.5342C50.7139 62.6218 50.7635 62.7402 50.7646 62.864V64.116H43.1646L43.1606 62.864Z" fill="white"/>
<path d="M48.2806 72.324H45.6486C45.3217 72.324 45.0566 72.589 45.0566 72.916V74.58C45.0566 74.9069 45.3217 75.172 45.6486 75.172H48.2806C48.6076 75.172 48.8726 74.9069 48.8726 74.58V72.916C48.8726 72.589 48.6076 72.324 48.2806 72.324Z" fill="#407BFF"/>
<path opacity="0.3" d="M48.2806 72.324H45.6486C45.3217 72.324 45.0566 72.589 45.0566 72.916V74.58C45.0566 74.9069 45.3217 75.172 45.6486 75.172H48.2806C48.6076 75.172 48.8726 74.9069 48.8726 74.58V72.916C48.8726 72.589 48.6076 72.324 48.2806 72.324Z" fill="white"/>
<path d="M110.877 116.528H135.313C135.657 116.528 135.937 116.249 135.937 115.904V105.712C135.937 105.367 135.657 105.088 135.313 105.088H110.877C110.532 105.088 110.253 105.367 110.253 105.712V115.904C110.253 116.249 110.532 116.528 110.877 116.528Z" fill="#407BFF"/>
<path opacity="0.6" d="M110.877 116.528H135.313C135.657 116.528 135.937 116.249 135.937 115.904V105.712C135.937 105.367 135.657 105.088 135.313 105.088H110.877C110.532 105.088 110.253 105.367 110.253 105.712V115.904C110.253 116.249 110.532 116.528 110.877 116.528Z" fill="white"/>
<path opacity="0.1" d="M110.88 105.092H135.312C135.478 105.092 135.636 105.158 135.753 105.275C135.87 105.392 135.936 105.551 135.936 105.716V108.984L123.2 111.488C123.122 111.504 123.042 111.504 122.964 111.488L110.24 108.984V105.716C110.24 105.633 110.257 105.55 110.289 105.473C110.322 105.397 110.369 105.327 110.429 105.269C110.488 105.211 110.559 105.165 110.637 105.135C110.714 105.104 110.797 105.09 110.88 105.092Z" fill="#1E1E1E"/>
<path d="M110.349 100.908H117.813V99.656C117.814 99.1386 118.02 98.6427 118.386 98.2769C118.752 97.911 119.247 97.705 119.765 97.704H126.433C126.95 97.705 127.446 97.911 127.812 98.2769C128.178 98.6427 128.384 99.1386 128.385 99.656V100.908H135.845C135.926 100.908 136.006 100.924 136.081 100.955C136.155 100.986 136.223 101.031 136.28 101.088C136.338 101.146 136.383 101.214 136.414 101.288C136.445 101.363 136.461 101.443 136.461 101.524V107.688C136.46 107.83 136.41 107.968 136.32 108.078C136.23 108.188 136.104 108.264 135.965 108.292L123.201 110.8C123.121 110.812 123.04 110.812 122.961 110.8L110.213 108.292C110.073 108.264 109.948 108.188 109.858 108.078C109.767 107.968 109.718 107.83 109.717 107.688V101.524C109.717 101.442 109.733 101.36 109.765 101.284C109.797 101.209 109.844 101.14 109.903 101.083C109.962 101.025 110.032 100.98 110.108 100.95C110.185 100.92 110.267 100.906 110.349 100.908ZM126.901 99.656C126.9 99.5318 126.85 99.4129 126.763 99.3248C126.675 99.2366 126.557 99.1861 126.433 99.184H119.765C119.64 99.186 119.521 99.2364 119.433 99.3245C119.345 99.4126 119.295 99.5314 119.293 99.656V100.908H126.893L126.901 99.656Z" fill="#407BFF"/>
<path opacity="0.6" d="M110.349 100.908H117.813V99.656C117.814 99.1386 118.02 98.6427 118.386 98.2769C118.752 97.911 119.247 97.705 119.765 97.704H126.433C126.95 97.705 127.446 97.911 127.812 98.2769C128.178 98.6427 128.384 99.1386 128.385 99.656V100.908H135.845C135.926 100.908 136.006 100.924 136.081 100.955C136.155 100.986 136.223 101.031 136.28 101.088C136.338 101.146 136.383 101.214 136.414 101.288C136.445 101.363 136.461 101.443 136.461 101.524V107.688C136.46 107.83 136.41 107.968 136.32 108.078C136.23 108.188 136.104 108.264 135.965 108.292L123.201 110.8C123.121 110.812 123.04 110.812 122.961 110.8L110.213 108.292C110.073 108.264 109.948 108.188 109.858 108.078C109.767 107.968 109.718 107.83 109.717 107.688V101.524C109.717 101.442 109.733 101.36 109.765 101.284C109.797 101.209 109.844 101.14 109.903 101.083C109.962 101.025 110.032 100.98 110.108 100.95C110.185 100.92 110.267 100.906 110.349 100.908ZM126.901 99.656C126.9 99.5318 126.85 99.4129 126.763 99.3248C126.675 99.2366 126.557 99.1861 126.433 99.184H119.765C119.64 99.186 119.521 99.2364 119.433 99.3245C119.345 99.4126 119.295 99.5314 119.293 99.656V100.908H126.893L126.901 99.656Z" fill="white"/>
<path d="M121.781 111.964H124.413C124.74 111.964 125.005 111.699 125.005 111.372V109.708C125.005 109.381 124.74 109.116 124.413 109.116H121.781C121.454 109.116 121.189 109.381 121.189 109.708V111.372C121.189 111.699 121.454 111.964 121.781 111.964Z" fill="#407BFF"/>
<path opacity="0.3" d="M121.781 111.964H124.413C124.74 111.964 125.005 111.699 125.005 111.372V109.708C125.005 109.381 124.74 109.116 124.413 109.116H121.781C121.454 109.116 121.189 109.381 121.189 109.708V111.372C121.189 111.699 121.454 111.964 121.781 111.964Z" fill="white"/>
<path d="M110.877 42.944H135.313C135.657 42.944 135.937 42.6646 135.937 42.32V32.128C135.937 31.7833 135.657 31.504 135.313 31.504L110.877 31.504C110.532 31.504 110.253 31.7833 110.253 32.128V42.32C110.253 42.6646 110.532 42.944 110.877 42.944Z" fill="#407BFF"/>
<path opacity="0.6" d="M110.877 42.944H135.313C135.657 42.944 135.937 42.6646 135.937 42.32V32.128C135.937 31.7833 135.657 31.504 135.313 31.504L110.877 31.504C110.532 31.504 110.253 31.7833 110.253 32.128V42.32C110.253 42.6646 110.532 42.944 110.877 42.944Z" fill="white"/>
<path opacity="0.1" d="M110.881 31.508H135.313C135.478 31.508 135.637 31.5737 135.754 31.6908C135.871 31.8078 135.937 31.9665 135.937 32.132V35.4L123.201 37.904C123.123 37.9199 123.043 37.9199 122.965 37.904L110.257 35.4V32.132C110.257 31.9665 110.323 31.8078 110.44 31.6908C110.557 31.5737 110.715 31.508 110.881 31.508Z" fill="#1E1E1E"/>
<path d="M110.349 27.324H117.813V26.072C117.814 25.5546 118.02 25.0587 118.386 24.6929C118.752 24.327 119.247 24.121 119.765 24.12H126.433C126.69 24.1184 126.946 24.1677 127.184 24.265C127.423 24.3624 127.639 24.5058 127.822 24.6872C128.005 24.8686 128.15 25.0843 128.25 25.3219C128.349 25.5595 128.4 25.8144 128.401 26.072V27.324H135.861C136.024 27.324 136.181 27.3889 136.296 27.5044C136.412 27.6199 136.477 27.7766 136.477 27.94V34.104C136.477 34.2465 136.427 34.3846 136.337 34.4947C136.246 34.6048 136.121 34.6802 135.981 34.708L123.201 37.2C123.122 37.216 123.04 37.216 122.961 37.2L110.213 34.692C110.073 34.6642 109.947 34.5888 109.857 34.4787C109.766 34.3686 109.717 34.2305 109.717 34.088V27.94C109.717 27.8577 109.733 27.7763 109.765 27.7005C109.797 27.6247 109.844 27.5561 109.903 27.4986C109.962 27.4412 110.032 27.3962 110.108 27.3662C110.185 27.3362 110.267 27.3218 110.349 27.324ZM126.901 26.072C126.901 25.9475 126.852 25.828 126.764 25.7396C126.676 25.6512 126.557 25.601 126.433 25.6H119.765C119.641 25.601 119.522 25.6505 119.434 25.7379C119.345 25.8254 119.295 25.9438 119.293 26.068V27.32H126.893L126.901 26.072Z" fill="#407BFF"/>
<path opacity="0.6" d="M110.349 27.324H117.813V26.072C117.814 25.5546 118.02 25.0587 118.386 24.6929C118.752 24.327 119.247 24.121 119.765 24.12H126.433C126.69 24.1184 126.946 24.1677 127.184 24.265C127.423 24.3624 127.639 24.5058 127.822 24.6872C128.005 24.8686 128.15 25.0843 128.25 25.3219C128.349 25.5595 128.4 25.8144 128.401 26.072V27.324H135.861C136.024 27.324 136.181 27.3889 136.296 27.5044C136.412 27.6199 136.477 27.7766 136.477 27.94V34.104C136.477 34.2465 136.427 34.3846 136.337 34.4947C136.246 34.6048 136.121 34.6802 135.981 34.708L123.201 37.2C123.122 37.216 123.04 37.216 122.961 37.2L110.213 34.692C110.073 34.6642 109.947 34.5888 109.857 34.4787C109.766 34.3686 109.717 34.2305 109.717 34.088V27.94C109.717 27.8577 109.733 27.7763 109.765 27.7005C109.797 27.6247 109.844 27.5561 109.903 27.4986C109.962 27.4412 110.032 27.3962 110.108 27.3662C110.185 27.3362 110.267 27.3218 110.349 27.324ZM126.901 26.072C126.901 25.9475 126.852 25.828 126.764 25.7396C126.676 25.6512 126.557 25.601 126.433 25.6H119.765C119.641 25.601 119.522 25.6505 119.434 25.7379C119.345 25.8254 119.295 25.9438 119.293 26.068V27.32H126.893L126.901 26.072Z" fill="white"/>
<path d="M121.781 38.38H124.413C124.74 38.38 125.005 38.115 125.005 37.788V36.124C125.005 35.797 124.74 35.532 124.413 35.532H121.781C121.454 35.532 121.189 35.797 121.189 36.124V37.788C121.189 38.115 121.454 38.38 121.781 38.38Z" fill="#407BFF"/>
<path opacity="0.3" d="M121.781 38.38H124.413C124.74 38.38 125.005 38.115 125.005 37.788V36.124C125.005 35.797 124.74 35.532 124.413 35.532H121.781C121.454 35.532 121.189 35.797 121.189 36.124V37.788C121.189 38.115 121.454 38.38 121.781 38.38Z" fill="white"/>
<path d="M114.077 79.74H135.317C135.483 79.7389 135.642 79.6723 135.759 79.5546C135.876 79.437 135.941 79.2779 135.941 79.112V68.924C135.941 68.84 135.923 68.757 135.889 68.68C135.874 68.6433 135.856 68.6084 135.833 68.576C135.811 68.5418 135.784 68.5108 135.753 68.484C135.696 68.4256 135.627 68.3793 135.552 68.3477C135.476 68.3161 135.395 68.2999 135.313 68.3H115.201C115.368 69.696 115.423 71.1032 115.365 72.508C115.365 72.736 115.365 72.964 115.329 73.188C115.305 73.608 115.269 74.032 115.221 74.452C115.019 76.2487 114.636 78.0204 114.077 79.74Z" fill="#407BFF"/>
<path opacity="0.6" d="M114.077 79.74H135.317C135.483 79.7389 135.642 79.6723 135.759 79.5546C135.876 79.437 135.941 79.2779 135.941 79.112V68.924C135.941 68.84 135.923 68.757 135.889 68.68C135.874 68.6433 135.856 68.6084 135.833 68.576C135.811 68.5418 135.784 68.5108 135.753 68.484C135.696 68.4256 135.627 68.3793 135.552 68.3477C135.476 68.3161 135.395 68.2999 135.313 68.3H115.201C115.368 69.696 115.423 71.1032 115.365 72.508C115.365 72.736 115.365 72.964 115.329 73.188C115.305 73.608 115.269 74.032 115.221 74.452C115.019 76.2487 114.636 78.0204 114.077 79.74Z" fill="white"/>
<path opacity="0.1" d="M115.2 68.3C115.368 69.696 115.422 71.1032 115.364 72.508C115.364 72.736 115.364 72.964 115.328 73.188L121.2 74.34L122.992 74.692C123.07 74.712 123.151 74.712 123.228 74.692L125.016 74.344L135.948 72.192V68.92C135.947 68.8377 135.931 68.7564 135.9 68.68C135.886 68.6433 135.867 68.6084 135.844 68.576C135.822 68.5418 135.795 68.5108 135.764 68.484C135.707 68.4256 135.638 68.3793 135.563 68.3477C135.487 68.3161 135.406 68.2999 135.324 68.3H115.2Z" fill="#1E1E1E"/>
<path d="M114.361 64.116H117.813V62.864C117.814 62.3466 118.02 61.8507 118.386 61.4849C118.751 61.119 119.247 60.913 119.765 60.912H126.429C126.947 60.912 127.444 61.1175 127.81 61.4835C128.177 61.8494 128.384 62.3459 128.385 62.864V64.116H135.845C136.008 64.116 136.165 64.1809 136.28 64.2964C136.396 64.4119 136.461 64.5686 136.461 64.732V70.892C136.461 71.035 136.412 71.1736 136.321 71.2844C136.231 71.3952 136.105 71.4714 135.965 71.5H135.937L125.005 73.656L123.201 74C123.123 74.0159 123.043 74.0159 122.965 74L121.173 73.648L115.345 72.5C115.458 69.6647 115.121 66.8294 114.345 64.1L114.361 64.116ZM126.901 62.864C126.899 62.7398 126.848 62.6214 126.76 62.534C126.672 62.4465 126.553 62.397 126.429 62.396H119.765C119.641 62.397 119.523 62.4467 119.435 62.5342C119.347 62.6218 119.298 62.7402 119.297 62.864V64.116H126.897L126.901 62.864Z" fill="#407BFF"/>
<path opacity="0.6" d="M114.361 64.116H117.813V62.864C117.814 62.3466 118.02 61.8507 118.386 61.4849C118.751 61.119 119.247 60.913 119.765 60.912H126.429C126.947 60.912 127.444 61.1175 127.81 61.4835C128.177 61.8494 128.384 62.3459 128.385 62.864V64.116H135.845C136.008 64.116 136.165 64.1809 136.28 64.2964C136.396 64.4119 136.461 64.5686 136.461 64.732V70.892C136.461 71.035 136.412 71.1736 136.321 71.2844C136.231 71.3952 136.105 71.4714 135.965 71.5H135.937L125.005 73.656L123.201 74C123.123 74.0159 123.043 74.0159 122.965 74L121.173 73.648L115.345 72.5C115.458 69.6647 115.121 66.8294 114.345 64.1L114.361 64.116ZM126.901 62.864C126.899 62.7398 126.848 62.6214 126.76 62.534C126.672 62.4465 126.553 62.397 126.429 62.396H119.765C119.641 62.397 119.523 62.4467 119.435 62.5342C119.347 62.6218 119.298 62.7402 119.297 62.864V64.116H126.897L126.901 62.864Z" fill="white"/>
<path d="M121.781 75.176H124.413C124.74 75.176 125.005 74.911 125.005 74.584V72.92C125.005 72.5931 124.74 72.328 124.413 72.328H121.781C121.454 72.328 121.189 72.5931 121.189 72.92V74.584C121.189 74.911 121.454 75.176 121.781 75.176Z" fill="#407BFF"/>
<path opacity="0.3" d="M121.781 75.176H124.413C124.74 75.176 125.005 74.911 125.005 74.584V72.92C125.005 72.5931 124.74 72.328 124.413 72.328H121.781C121.454 72.328 121.189 72.5931 121.189 72.92V74.584C121.189 74.911 121.454 75.176 121.781 75.176Z" fill="white"/>
<path d="M103.88 65.816H68.7681C68.2732 65.816 67.8721 66.2171 67.8721 66.712V81.356C67.8721 81.8508 68.2732 82.252 68.7681 82.252H103.88C104.375 82.252 104.776 81.8508 104.776 81.356V66.712C104.776 66.2171 104.375 65.816 103.88 65.816Z" fill="#407BFF"/>
<path d="M91.113 63.2H81.533C80.8066 63.199 80.1103 62.9099 79.5967 62.3963C79.083 61.8827 78.794 61.1864 78.793 60.46V58C78.794 57.2736 79.083 56.5773 79.5967 56.0637C80.1103 55.5501 80.8066 55.2611 81.533 55.26H91.113C91.8397 55.26 92.5366 55.5487 93.0504 56.0625C93.5643 56.5764 93.853 57.2733 93.853 58V60.448C93.8546 60.8088 93.7848 61.1664 93.6479 61.5003C93.5109 61.8341 93.3093 62.1375 93.0547 62.3932C92.8001 62.649 92.4975 62.8519 92.1643 62.9903C91.8311 63.1287 91.4738 63.2 91.113 63.2ZM81.533 57.272C81.3402 57.2741 81.1558 57.3513 81.019 57.4873C80.8823 57.6233 80.8041 57.8072 80.801 58V60.448C80.801 60.6443 80.8789 60.8325 81.0177 60.9713C81.1565 61.11 81.3447 61.188 81.541 61.188H91.121C91.3172 61.188 91.5055 61.11 91.6442 60.9713C91.783 60.8325 91.861 60.6443 91.861 60.448V58C91.861 57.8038 91.783 57.6155 91.6442 57.4768C91.5055 57.338 91.3172 57.26 91.121 57.26L81.533 57.272Z" fill="#407BFF"/>
<path opacity="0.2" d="M103.876 65.816H68.7721C68.6541 65.8155 68.5371 65.8382 68.428 65.883C68.3188 65.9278 68.2195 65.9938 68.1359 66.077C68.0523 66.1603 67.9859 66.2592 67.9407 66.3682C67.8954 66.4771 67.8721 66.594 67.8721 66.712V71.412L86.1521 75.012C86.2641 75.0364 86.38 75.0364 86.4921 75.012L104.776 71.412V66.712C104.776 66.594 104.753 66.4771 104.707 66.3682C104.662 66.2592 104.596 66.1603 104.512 66.077C104.429 65.9938 104.329 65.9278 104.22 65.883C104.111 65.8382 103.994 65.8155 103.876 65.816Z" fill="#1E1E1E"/>
<path d="M104.8 70.4L86.4844 74C86.3706 74.02 86.2542 74.02 86.1404 74L67.8244 70.4C67.6232 70.3603 67.4419 70.2521 67.3114 70.0939C67.1809 69.9356 67.1091 69.7371 67.1084 69.532V60.692C67.1084 60.5759 67.1313 60.4609 67.1757 60.3537C67.2201 60.2464 67.2852 60.149 67.3673 60.0669C67.4494 59.9848 67.5468 59.9197 67.6541 59.8753C67.7614 59.8308 67.8763 59.808 67.9924 59.808H104.64C104.756 59.808 104.871 59.8308 104.979 59.8753C105.086 59.9197 105.183 59.9848 105.265 60.0669C105.348 60.149 105.413 60.2464 105.457 60.3537C105.502 60.4609 105.524 60.5759 105.524 60.692V69.548C105.52 69.7517 105.446 69.9477 105.314 70.103C105.182 70.2582 105.001 70.3631 104.8 70.4Z" fill="#407BFF"/>
<path d="M88.221 71.6039H84.433C83.9646 71.6039 83.585 71.9836 83.585 72.4519V74.8479C83.585 75.3163 83.9646 75.6959 84.433 75.6959H88.221C88.6893 75.6959 89.069 75.3163 89.069 74.8479V72.4519C89.069 71.9836 88.6893 71.6039 88.221 71.6039Z" fill="#407BFF"/>
<path opacity="0.4" d="M88.221 71.6039H84.433C83.9646 71.6039 83.585 71.9836 83.585 72.4519V74.8479C83.585 75.3163 83.9646 75.6959 84.433 75.6959H88.221C88.6893 75.6959 89.069 75.3163 89.069 74.8479V72.4519C89.069 71.9836 88.6893 71.6039 88.221 71.6039Z" fill="#1E1E1E"/>
<path d="M152.36 74.884C152.82 75.832 153.16 76.728 153.56 77.664C153.96 78.6 154.252 79.532 154.564 80.488C155.196 82.4263 155.663 84.4147 155.96 86.432C156 86.684 156.02 86.956 156.048 87.232L156.088 87.632C156.088 87.704 156.088 87.756 156.088 87.84V88.1C156.101 88.7065 156.049 89.3127 155.932 89.908C155.733 90.9425 155.451 91.9592 155.088 92.948C154.405 94.8276 153.553 96.6416 152.544 98.368L150.512 97.508C150.964 95.684 151.42 93.824 151.764 92.028C151.932 91.1675 152.051 90.298 152.12 89.424C152.143 89.0666 152.135 88.7079 152.096 88.352L152.052 88.1L151.996 87.78C151.952 87.568 151.924 87.356 151.872 87.14C151.473 85.3743 150.957 83.6371 150.328 81.94C150.024 81.072 149.688 80.208 149.352 79.34C149.016 78.472 148.644 77.6 148.3 76.8L152.36 74.884Z" fill="#7F3E3B"/>
<path d="M150.6 96.976L149.04 98.496L152.444 100.096C152.444 100.096 153.268 98.656 152.7 97.352L150.6 96.976Z" fill="#7F3E3B"/>
<path d="M147.784 100.764L150.656 101.94L152.444 100.08L149.04 98.496L147.784 100.764Z" fill="#7F3E3B"/>
<path opacity="0.2" d="M89.5241 99.124C95.1843 98.4901 100.529 96.1921 104.884 92.5206C109.238 88.8491 112.406 83.969 113.987 78.4972C115.568 73.0255 115.491 67.2078 113.766 61.7798C112.041 56.3518 108.745 51.5571 104.295 48.0021C99.8451 44.447 94.4411 42.2912 88.7661 41.8072C83.0912 41.3231 77.4001 42.5326 72.4125 45.2827C67.4249 48.0328 63.3647 52.2 60.7452 57.2575C58.1257 62.315 57.0647 68.0356 57.6961 73.696C58.1156 77.4558 59.2716 81.0961 61.0983 84.409C62.925 87.7219 65.3865 90.6425 68.3422 93.0038C71.2979 95.3652 74.6898 97.1211 78.3243 98.1712C81.9588 99.2213 85.7645 99.5451 89.5241 99.124Z" fill="#407BFF"/>
<path opacity="0.1" d="M68.5674 47.816L112.367 82.8C112.555 82.4 112.731 82 112.903 81.6C114.001 78.9883 114.702 76.2271 114.983 73.408L77.1514 43.2C74.0467 44.2354 71.1431 45.7968 68.5674 47.816Z" fill="white"/>
<path opacity="0.1" d="M58.4639 63.148L99.6399 96.048C103.552 94.0075 106.944 91.0952 109.552 87.536L64.5839 51.6C61.6859 54.9295 59.592 58.8806 58.4639 63.148Z" fill="white"/>
<path d="M157.268 102.848C157.215 102.12 156.977 101.418 156.576 100.808C156.284 100.36 155.877 99.9987 155.396 99.764L152.664 98.424C150.848 97.524 149.02 96.648 147.192 95.772C145.364 94.896 143.524 94.036 141.692 93.168C139.86 92.3 138.012 91.456 136.16 90.628C132.464 88.9534 128.744 87.324 125 85.74C123.128 84.94 121.252 84.172 119.36 83.42C118.808 83.2025 118.359 82.7831 118.104 82.2469C117.849 81.7106 117.808 81.0976 117.988 80.532C120.521 72.5473 119.944 63.9006 116.373 56.3229C112.803 48.7453 106.502 42.7958 98.7321 39.6654C90.9622 36.5351 82.2967 36.4549 74.4702 39.4409C66.6438 42.427 60.2339 48.2589 56.5238 55.7692C52.8137 63.2795 52.0771 71.914 54.4615 79.9443C56.8459 87.9745 62.1753 94.8078 69.3829 99.0764C76.5904 103.345 85.1443 104.734 93.3321 102.965C101.52 101.196 108.738 96.3994 113.54 89.536C113.88 89.0482 114.393 88.7078 114.974 88.5838C115.556 88.4597 116.163 88.5613 116.672 88.868C118.421 89.908 120.179 90.9307 121.944 91.936C125.472 93.9467 129.027 95.9067 132.608 97.816C134.396 98.784 136.208 99.716 137.988 100.664C139.768 101.612 141.588 102.536 143.4 103.464C145.212 104.392 147 105.3 148.836 106.196L151.56 107.548C152.039 107.789 152.574 107.894 153.108 107.852C153.835 107.8 154.536 107.562 155.144 107.16C155.869 106.715 156.453 106.074 156.829 105.311C157.204 104.548 157.357 103.694 157.268 102.848ZM74.72 94C70.07 91.7055 66.2049 88.0836 63.6135 83.5923C61.0221 79.101 59.8207 73.9422 60.1614 68.7681C60.502 63.594 62.3694 58.6372 65.5273 54.5245C68.6852 50.4117 72.9918 47.3278 77.9025 45.6628C82.8131 43.9977 88.1073 43.8263 93.1154 45.1702C98.1234 46.5142 102.621 49.313 106.038 53.2129C109.455 57.1127 111.639 61.9384 112.314 67.0795C112.989 72.2207 112.123 77.4465 109.828 82.096C108.305 85.183 106.188 87.9396 103.599 90.2086C101.01 92.4775 97.9997 94.2142 94.7395 95.3196C91.4794 96.425 88.0335 96.8774 84.5985 96.651C81.1635 96.4246 77.8068 95.5238 74.72 94Z" fill="#407BFF"/>
<path d="M137.276 62.52C137.276 62.756 137.152 62.948 136.996 62.948C136.84 62.948 136.716 62.756 136.716 62.52C136.716 62.284 136.84 62.088 136.996 62.088C137.152 62.088 137.276 62.28 137.276 62.52Z" fill="#263238"/>
<path d="M137.172 62.948C136.891 63.6726 136.511 64.355 136.044 64.976C136.206 65.0918 136.391 65.1707 136.586 65.2073C136.782 65.244 136.983 65.2374 137.176 65.188L137.172 62.948Z" fill="#630F0F"/>
<path d="M138.116 61.2C138.145 61.1992 138.173 61.1894 138.196 61.1719C138.22 61.1544 138.237 61.1301 138.246 61.1024C138.254 61.0747 138.254 61.045 138.245 61.0173C138.237 60.9897 138.219 60.9654 138.196 60.948C138.019 60.8155 137.814 60.7269 137.596 60.6893C137.378 60.6518 137.155 60.6664 136.944 60.732C136.925 60.7372 136.908 60.7462 136.892 60.7586C136.877 60.771 136.865 60.7864 136.856 60.8038C136.847 60.8213 136.842 60.8404 136.841 60.86C136.84 60.8795 136.843 60.8991 136.85 60.9173C136.857 60.9356 136.868 60.9522 136.882 60.9661C136.896 60.9799 136.912 60.9907 136.931 60.9977C136.949 61.0048 136.968 61.0079 136.988 61.0069C137.007 61.0059 137.027 61.0008 137.044 60.992C137.212 60.9421 137.389 60.9323 137.562 60.9636C137.734 60.9949 137.896 61.0663 138.036 61.172C138.059 61.1904 138.087 61.2004 138.116 61.2Z" fill="#263238"/>
<path d="M145.368 64.304C144.944 66.456 144.524 70.396 146.028 71.828C146.028 71.828 145.44 74.008 141.448 74.008C137.048 74.008 139.348 71.828 139.348 71.828C141.748 71.256 141.684 69.476 141.264 67.828L145.368 64.304Z" fill="#7F3E3B"/>
<path d="M146.8 70.48C147.132 70.588 146.7 72.564 146.7 72.564C146.7 72.564 146.152 73.944 139.344 73.464C138.82 73.424 139.02 71.528 139.52 71.252C141.132 70.372 145.728 70.128 146.8 70.48Z" fill="#263238"/>
<path d="M160.628 153.124C160.996 153.088 161.532 152.412 161.684 152.164C161.691 152.153 161.695 152.141 161.695 152.128C161.695 152.115 161.691 152.103 161.684 152.092C161.678 152.08 161.668 152.071 161.655 152.065C161.643 152.059 161.629 152.057 161.616 152.06C161.576 152.06 160.608 152.244 160.372 152.62C160.347 152.659 160.331 152.704 160.324 152.75C160.317 152.796 160.32 152.843 160.332 152.888C160.384 153.064 160.484 153.112 160.564 153.124H160.628ZM161.472 152.232C161.212 152.592 160.784 153.012 160.58 152.984C160.56 152.984 160.5 152.984 160.464 152.848C160.456 152.822 160.454 152.794 160.459 152.767C160.463 152.74 160.473 152.715 160.488 152.692C160.764 152.445 161.106 152.285 161.472 152.232Z" fill="#407BFF"/>
<path d="M161.432 152.232C161.504 152.226 161.575 152.214 161.644 152.196C161.656 152.192 161.667 152.185 161.675 152.176C161.683 152.167 161.689 152.156 161.692 152.144C161.694 152.132 161.693 152.119 161.689 152.107C161.685 152.095 161.678 152.084 161.668 152.076C161.644 152.052 160.996 151.5 160.556 151.544C160.503 151.547 160.452 151.562 160.405 151.587C160.358 151.612 160.317 151.646 160.284 151.688C160.246 151.724 160.223 151.773 160.218 151.825C160.213 151.877 160.226 151.929 160.256 151.972C160.4 152.2 161.032 152.272 161.432 152.232ZM161.464 152.092C161.064 152.14 160.48 152.06 160.368 151.896C160.368 151.896 160.336 151.844 160.392 151.772C160.415 151.746 160.442 151.724 160.473 151.708C160.504 151.692 160.538 151.683 160.572 151.68C160.904 151.726 161.214 151.869 161.464 152.092Z" fill="#407BFF"/>
<path d="M133.128 163.644C133.431 163.643 133.733 163.616 134.032 163.564C134.045 163.56 134.057 163.553 134.067 163.543C134.077 163.534 134.084 163.521 134.088 163.508C134.09 163.494 134.088 163.479 134.082 163.466C134.075 163.453 134.065 163.443 134.052 163.436C134.008 163.408 132.984 162.824 132.492 162.956C132.4 162.98 132.321 163.038 132.272 163.12C132.24 163.165 132.224 163.218 132.224 163.272C132.224 163.326 132.24 163.38 132.272 163.424C132.4 163.6 132.752 163.644 133.128 163.644ZM133.808 163.46C133.26 163.536 132.516 163.532 132.38 163.344C132.36 163.32 132.344 163.276 132.38 163.188C132.394 163.163 132.414 163.142 132.438 163.126C132.461 163.109 132.488 163.098 132.516 163.092C132.832 163.008 133.448 163.276 133.808 163.46Z" fill="#407BFF"/>
<path d="M134 163.564C134.014 163.568 134.029 163.568 134.044 163.564C134.053 163.556 134.06 163.546 134.065 163.535C134.07 163.524 134.072 163.512 134.072 163.5C134.072 163.468 133.988 162.676 133.616 162.368C133.561 162.322 133.497 162.288 133.428 162.267C133.359 162.246 133.287 162.24 133.216 162.248C133.024 162.268 132.972 162.364 132.956 162.444C132.904 162.776 133.608 163.412 133.96 163.572L134 163.564ZM133.284 162.364C133.373 162.367 133.459 162.399 133.528 162.456C133.75 162.71 133.889 163.025 133.928 163.36C133.564 163.144 133.088 162.644 133.128 162.444C133.128 162.444 133.128 162.38 133.264 162.368L133.284 162.364Z" fill="#407BFF"/>
<path d="M137.248 163.496H134.312L134.016 156.688H136.956L137.248 163.496Z" fill="#7F3E3B"/>
<path d="M164.252 150.012L161.96 151.848L156.128 147.8L158.424 145.964L164.252 150.012Z" fill="#7F3E3B"/>
<path d="M161.54 151.732L163.884 149.408C163.926 149.368 163.981 149.342 164.039 149.337C164.097 149.331 164.155 149.345 164.204 149.376L166.456 150.824C166.511 150.859 166.557 150.907 166.59 150.962C166.624 151.018 166.644 151.081 166.65 151.145C166.656 151.21 166.647 151.275 166.624 151.336C166.601 151.397 166.564 151.452 166.516 151.496C165.684 152.296 165.24 152.64 164.208 153.66C163.576 154.292 162.028 156.172 161.152 157.04C160.276 157.908 159.3 157.156 159.584 156.72C160.844 154.776 161.272 153.172 161.328 152.196C161.34 152.021 161.416 151.856 161.54 151.732Z" fill="#263238"/>
<path d="M134.328 163.156H137.528C137.586 163.156 137.642 163.175 137.688 163.212C137.733 163.248 137.764 163.299 137.776 163.356L138.356 165.968C138.371 166.031 138.371 166.096 138.356 166.159C138.342 166.222 138.313 166.28 138.273 166.33C138.232 166.381 138.181 166.421 138.123 166.448C138.064 166.475 138 166.489 137.936 166.488C136.776 166.488 135.104 166.404 133.648 166.404C131.948 166.404 130.48 166.496 128.484 166.496C127.284 166.496 126.944 165.276 127.448 165.164C129.748 164.664 131.624 164.608 133.608 163.384C133.822 163.242 134.071 163.163 134.328 163.156Z" fill="#263238"/>
<path d="M151.82 72.708C154.368 73.908 155.42 82.132 155.42 82.132L149.56 84.432C148.651 82.2052 147.914 79.9118 147.356 77.572C146.536 73.86 149.2 71.46 151.82 72.708Z" fill="#407BFF"/>
<path opacity="0.3" d="M151.82 72.708C154.368 73.908 155.42 82.132 155.42 82.132L149.56 84.432C148.651 82.2052 147.914 79.9118 147.356 77.572C146.536 73.86 149.2 71.46 151.82 72.708Z" fill="white"/>
<path opacity="0.2" d="M148.023 75.12C147.824 75.0231 147.615 74.9467 147.399 74.892C147.166 75.7691 147.157 76.691 147.375 77.572C147.931 79.912 148.666 82.2056 149.575 84.432L151.507 83.676C151.151 81.528 150.059 76.096 148.023 75.12Z" fill="#1E1E1E"/>
<path d="M134.828 72.644C134.828 72.644 131.7 76.176 134.652 98.044H150.372C150.48 95.644 148.964 83.86 151.292 72.492C149.553 72.1576 147.795 71.9359 146.028 71.828C143.803 71.6999 141.572 71.6999 139.348 71.828C137.822 71.9817 136.311 72.2545 134.828 72.644Z" fill="#407BFF"/>
<path opacity="0.3" d="M134.828 72.644C134.828 72.644 131.7 76.176 134.652 98.044H150.372C150.48 95.644 148.964 83.86 151.292 72.492C149.553 72.1576 147.795 71.9359 146.028 71.828C143.803 71.6999 141.572 71.6999 139.348 71.828C137.822 71.9817 136.311 72.2545 134.828 72.644Z" fill="white"/>
<path opacity="0.2" d="M138 77.332C137.288 75.196 135.576 74.512 133.832 75.78C133.48 77.852 133.232 81.192 133.516 86.488L136.584 86.46C136.584 86.46 139.052 80.512 138 77.332Z" fill="#1E1E1E"/>
<path d="M137.424 76.456C137.296 77.528 137.12 78.5 136.924 79.512C136.728 80.524 136.5 81.512 136.24 82.508C135.727 84.5437 135.028 86.528 134.152 88.436C133.924 88.928 133.66 89.412 133.38 89.896C133.236 90.14 133.092 90.384 132.928 90.624C132.715 90.9576 132.464 91.265 132.18 91.54C131.628 92.0519 130.973 92.4405 130.26 92.68C129.68 92.8831 129.081 93.0238 128.472 93.1C127.385 93.2348 126.286 93.2483 125.196 93.14C124.663 93.0974 124.143 93.0294 123.636 92.936C123.116 92.844 122.624 92.748 122.088 92.608L122.348 90.416C124.174 90.3394 125.986 90.0713 127.756 89.616C128.116 89.5095 128.465 89.3703 128.8 89.2C129.02 89.0993 129.212 88.947 129.36 88.756C129.328 88.784 129.62 88.3 129.792 87.956C129.964 87.612 130.156 87.156 130.32 86.756C130.656 85.932 130.944 85.06 131.208 84.168C131.472 83.276 131.704 82.368 131.92 81.448C132.136 80.528 132.32 79.6 132.52 78.648C132.72 77.696 132.864 76.752 133.008 75.868L137.424 76.456Z" fill="#7F3E3B"/>
<path d="M138.755 74.8C139.583 77.484 136.223 85.484 136.223 85.484L129.147 83.704C129.581 81.1753 130.31 78.7064 131.319 76.348C133.599 71.356 137.759 71.564 138.755 74.8Z" fill="#407BFF"/>
<path opacity="0.3" d="M138.755 74.8C139.583 77.484 136.223 85.484 136.223 85.484L129.147 83.704C129.581 81.1753 130.31 78.7064 131.319 76.348C133.599 71.356 137.759 71.564 138.755 74.8Z" fill="white"/>
<path d="M122.448 90.428L119.12 90.344L120.72 93.804C120.72 93.804 122.072 93.984 123.184 92.156L124.356 90.76L123.008 90.488C122.824 90.452 122.636 90.4319 122.448 90.428Z" fill="#7F3E3B"/>
<path d="M117.021 90.988L118.929 93.856L120.725 93.804L119.121 90.344L117.021 90.988Z" fill="#7F3E3B"/>
<path opacity="0.2" d="M134.021 156.692L134.169 160.2H137.109L136.957 156.692H134.021Z" fill="#1E1E1E"/>
<path opacity="0.2" d="M158.424 145.964L156.128 147.8L159.136 149.888L161.432 148.052L158.424 145.964Z" fill="#1E1E1E"/>
<path d="M145.2 62C145.024 64.912 145.072 66.624 143.6 68.12C141.392 70.368 137.796 69.04 137.1 66.12C136.472 63.504 136.868 59.184 139.716 58.02C140.344 57.7602 141.028 57.6658 141.703 57.7456C142.378 57.8255 143.021 58.077 143.571 58.4762C144.121 58.8754 144.56 59.4089 144.845 60.0258C145.13 60.6427 145.252 61.3224 145.2 62Z" fill="#7F3E3B"/>
<path d="M147.553 59.296C147.553 59.296 149.085 59.752 148.605 61.5C147.881 64.156 146.177 67.212 143.977 67.404C141.237 67.648 140.001 64.82 139.641 61.896C138.001 60.772 136.785 59.72 137.177 58.552C137.777 56.752 139.953 55.2 143.417 55.6C146.881 56 148.605 58.24 147.553 59.296Z" fill="#263238"/>
<path d="M141.307 62.496C141.254 63.2182 140.965 63.9028 140.483 64.444C139.843 65.148 139.171 64.708 139.059 63.852C138.959 63.076 139.167 61.776 139.951 61.388C140.735 61 141.359 61.624 141.307 62.496Z" fill="#7F3E3B"/>
<path d="M140.228 98.0439C140.228 98.0439 139.236 117.852 141.168 126.244C144.228 139.532 157.68 150.18 157.68 150.18L162 146.72C162 146.72 150.932 138.484 149.936 127.42C149.044 117.484 150.364 106.072 150.364 98.0439H140.228Z" fill="#407BFF"/>
<path opacity="0.2" d="M140.228 98.0439C140.228 98.0439 139.236 117.852 141.168 126.244C144.228 139.532 157.68 150.18 157.68 150.18L162 146.72C162 146.72 150.932 138.484 149.936 127.42C149.044 117.484 150.364 106.072 150.364 98.0439H140.228Z" fill="#1E1E1E"/>
<path opacity="0.2" d="M141.703 103.912C141.303 103.14 140.523 105.44 139.979 108.392C139.979 112.464 140.051 117.096 140.407 121.02C143.123 116 142.547 105.512 141.703 103.912Z" fill="#1E1E1E"/>
<path d="M155.72 149.328L157.36 150.6L162.348 146.556L160.852 145.2L155.72 149.328Z" fill="#2C6BDB"/>
<path opacity="0.4" d="M155.72 149.328L157.36 150.6L162.348 146.556L160.852 145.2L155.72 149.328Z" fill="#FAFAFA"/>
<path d="M134.652 98.0441C134.652 98.0441 130.228 116.804 129.916 125.764C129.568 135.816 133.072 159.52 133.072 159.52H138.052C138.052 159.52 138.664 135.632 138.888 126.476C139.128 116.496 144.984 98.0441 144.984 98.0441H134.652Z" fill="#407BFF"/>
<path opacity="0.2" d="M134.652 98.0441C134.652 98.0441 130.228 116.804 129.916 125.764C129.568 135.816 133.072 159.52 133.072 159.52H138.052C138.052 159.52 138.664 135.632 138.888 126.476C139.128 116.496 144.984 98.0441 144.984 98.0441H134.652Z" fill="#1E1E1E"/>
<path d="M132.116 157.536C132.092 157.536 132.396 159.604 132.396 159.604H138.452L138.616 157.76L132.116 157.536Z" fill="#2C6BDB"/>
<path opacity="0.4" d="M132.116 157.536C132.092 157.536 132.396 159.604 132.396 159.604H138.452L138.616 157.76L132.116 157.536Z" fill="#FAFAFA"/>
</svg>
