<svg width="32" height="32" viewBox="0 0 32 32" fill="none" xmlns="http://www.w3.org/2000/svg">
<path d="M13.7144 18.2857L4.57157 18.2857C3.94071 18.2857 3.42871 17.7737 3.42871 17.1429L3.42871 3.42857C3.42871 2.79772 3.94071 2.28572 4.57157 2.28572L13.7144 2.28572C14.3453 2.28572 14.8573 2.79772 14.8573 3.42857L14.8573 17.1429C14.8573 17.7737 14.3453 18.2857 13.7144 18.2857Z" fill="#1E1E1E"/>
<path d="M13.7144 29.7143H4.57157C3.94071 29.7143 3.42871 29.2023 3.42871 28.5714L3.42871 21.7143C3.42871 21.0834 3.94071 20.5714 4.57157 20.5714L13.7144 20.5714C14.3453 20.5714 14.8573 21.0834 14.8573 21.7143L14.8573 28.5714C14.8573 29.2023 14.3453 29.7143 13.7144 29.7143Z" fill="#1E1E1E"/>
<path d="M27.4288 11.4286L18.2859 11.4286C17.6551 11.4286 17.1431 10.9166 17.1431 10.2857L17.1431 3.42857C17.1431 2.79772 17.6551 2.28572 18.2859 2.28572L27.4288 2.28572C28.0596 2.28572 28.5716 2.79772 28.5716 3.42857V10.2857C28.5716 10.9166 28.0596 11.4286 27.4288 11.4286Z" fill="#1E1E1E"/>
<path d="M27.4288 29.7143L18.2859 29.7143C17.6551 29.7143 17.1431 29.2023 17.1431 28.5714L17.1431 14.8571C17.1431 14.2263 17.6551 13.7143 18.2859 13.7143L27.4288 13.7143C28.0596 13.7143 28.5716 14.2263 28.5716 14.8571L28.5716 28.5714C28.5716 29.2023 28.0596 29.7143 27.4288 29.7143Z" fill="#1E1E1E"/>
</svg>
