<svg width="32" height="32" viewBox="0 0 32 32" fill="none" xmlns="http://www.w3.org/2000/svg">
<path d="M29.7142 16.0823C29.7139 13.4615 28.9627 10.8956 27.5494 8.68854C26.1362 6.48143 24.1201 4.72548 21.7399 3.62857C19.3597 2.53167 16.715 2.13974 14.119 2.49919C11.5229 2.85864 9.08425 3.95442 7.09164 5.6568C5.09902 7.35917 3.63592 9.59686 2.87554 12.1049C2.11516 14.613 2.08936 17.2864 2.80117 19.8087C3.51299 22.331 4.93263 24.5965 6.89201 26.337C8.85139 28.0776 11.2685 29.2202 13.8571 29.6297L13.8571 20.0469H10.3748V16.0823L13.8571 16.0823L13.8571 13.0606C13.8571 9.624 15.9051 7.72457 19.0365 7.72457C20.0652 7.73933 21.0916 7.8287 22.1074 7.992L22.1074 11.368L20.3771 11.368C19.8562 11.2989 19.3292 11.4394 18.9119 11.7587C18.4947 12.0781 18.2213 12.55 18.1519 13.0709C18.1323 13.2167 18.1293 13.3643 18.1428 13.5109V16.0823L21.9428 16.0823L21.3348 20.0469H18.1348L18.1348 29.6297C21.3623 29.1211 24.3021 27.4769 26.425 24.9933C28.5479 22.5096 29.7143 19.3496 29.7142 16.0823Z" fill="#1E1E1E"/>
</svg>
