<svg width="32" height="32" viewBox="0 0 32 32" fill="none" xmlns="http://www.w3.org/2000/svg">
<path d="M16.0001 5.69371C19.3567 5.69371 19.7544 5.70628 21.0801 5.76686C21.8771 5.77614 22.6666 5.92266 23.4139 6.2C23.9601 6.40126 24.4542 6.7227 24.8596 7.14057C25.2774 7.54593 25.5989 8.04 25.8001 8.58628C26.0775 9.33354 26.224 10.123 26.2333 10.92C26.2939 12.2457 26.3064 12.6434 26.3064 16C26.3064 19.3566 26.2939 19.7543 26.2333 21.08C26.224 21.877 26.0775 22.6665 25.8001 23.4137C25.5909 23.956 25.2705 24.4484 24.8595 24.8594C24.4486 25.2704 23.9561 25.5908 23.4139 25.8C22.6666 26.0773 21.8771 26.2239 21.0801 26.2331C19.7544 26.2937 19.3567 26.3063 16.0001 26.3063C12.6436 26.3063 12.2459 26.2937 10.9201 26.2331C10.1231 26.2239 9.33368 26.0773 8.58642 25.8C8.04014 25.5987 7.54607 25.2773 7.14071 24.8594C6.72284 24.4541 6.4014 23.96 6.20014 23.4137C5.9228 22.6665 5.77628 21.877 5.767 21.08C5.70643 19.7543 5.69385 19.3566 5.69385 16C5.69385 12.6434 5.70643 12.2457 5.767 10.92C5.77628 10.123 5.9228 9.33354 6.20014 8.58628C6.4014 8.04 6.72284 7.54593 7.14071 7.14057C7.54607 6.7227 8.04014 6.40126 8.58642 6.2C9.33368 5.92266 10.1231 5.77614 10.9201 5.76686C12.2459 5.70628 12.6436 5.69371 16.0001 5.69371ZM16.0001 3.42857C12.5864 3.42857 12.1579 3.44343 10.8173 3.504C9.77452 3.52555 8.74288 3.72299 7.76585 4.088C6.92991 4.41162 6.17088 4.9065 5.53752 5.54084C4.90416 6.17519 4.41047 6.93498 4.08814 7.77143C3.72313 8.74845 3.52569 9.78009 3.50414 10.8229C3.44357 12.1577 3.42871 12.5863 3.42871 16C3.42871 19.4137 3.44357 19.8423 3.50414 21.1829C3.52569 22.2256 3.72313 23.2573 4.08814 24.2343C4.41176 25.0702 4.90664 25.8293 5.54098 26.4626C6.17533 27.096 6.93512 27.5897 7.77157 27.912C8.7486 28.277 9.78024 28.4744 10.823 28.496C12.1579 28.5566 12.5864 28.5714 16.0001 28.5714C19.4139 28.5714 19.8424 28.5566 21.183 28.496C22.2258 28.4744 23.2574 28.277 24.2344 27.912C25.0704 27.5884 25.8294 27.0935 26.4628 26.4592C27.0961 25.8248 27.5898 25.065 27.9121 24.2286C28.2771 23.2515 28.4746 22.2199 28.4961 21.1771C28.5567 19.8423 28.5716 19.4137 28.5716 16C28.5716 12.5863 28.5567 12.1577 28.4961 10.8171C28.4746 9.77438 28.2771 8.74274 27.9121 7.76571C27.5885 6.92977 27.0936 6.17074 26.4593 5.53738C25.8249 4.90402 25.0652 4.41033 24.2287 4.088C23.2517 3.72299 22.22 3.52555 21.1773 3.504C19.8424 3.44343 19.4139 3.42857 16.0001 3.42857Z" fill="#1E1E1E"/>
<path d="M16.0004 9.544C14.7236 9.544 13.4754 9.92264 12.4137 10.632C11.352 11.3414 10.5245 12.3497 10.0359 13.5294C9.54723 14.7091 9.41938 16.0072 9.66849 17.2595C9.91759 18.5118 10.5325 19.6622 11.4354 20.5651C12.3382 21.468 13.4886 22.0828 14.7409 22.332C15.9933 22.5811 17.2914 22.4532 18.471 21.9646C19.6507 21.4759 20.659 20.6484 21.3684 19.5868C22.0778 18.5251 22.4564 17.2769 22.4564 16C22.4564 14.2878 21.7763 12.6457 20.5655 11.4349C19.3548 10.2242 17.7127 9.544 16.0004 9.544ZM16.0004 20.1909C15.1716 20.1909 14.3613 19.9451 13.6721 19.4846C12.9829 19.0241 12.4458 18.3695 12.1286 17.6038C11.8114 16.838 11.7284 15.9954 11.8901 15.1824C12.0518 14.3695 12.451 13.6227 13.0371 13.0366C13.6232 12.4505 14.3699 12.0514 15.1828 11.8897C15.9958 11.728 16.8384 11.811 17.6042 12.1282C18.37 12.4453 19.0245 12.9825 19.485 13.6717C19.9455 14.3609 20.1913 15.1711 20.1913 16C20.1913 17.1115 19.7498 18.1774 18.9638 18.9634C18.1779 19.7493 17.1119 20.1909 16.0004 20.1909Z" fill="#1E1E1E"/>
<path d="M22.7112 10.7977C23.5444 10.7977 24.2198 10.1223 24.2198 9.28915C24.2198 8.45598 23.5444 7.78057 22.7112 7.78057C21.878 7.78057 21.2026 8.45598 21.2026 9.28915C21.2026 10.1223 21.878 10.7977 22.7112 10.7977Z" fill="#1E1E1E"/>
</svg>
