<svg width="32" height="32" viewBox="0 0 32 32" fill="none" xmlns="http://www.w3.org/2000/svg">
<path d="M28.5714 2.28572L3.4285 2.28572C2.74279 2.28572 2.28564 2.74286 2.28564 3.42857L2.28564 28.5714C2.28564 29.2571 2.74279 29.7143 3.4285 29.7143L28.5714 29.7143C29.2571 29.7143 29.7142 29.2571 29.7142 28.5714L29.7142 3.42857C29.7142 2.74286 29.2571 2.28572 28.5714 2.28572ZM10.3999 25.7143L6.39993 25.7143L6.39993 12.5714H10.5142L10.5142 25.7143H10.3999ZM8.34279 10.7429C7.08564 10.7429 5.94279 9.71429 5.94279 8.34286C5.94279 7.08572 6.97136 5.94286 8.34279 5.94286C9.59993 5.94286 10.7428 6.97143 10.7428 8.34286C10.7428 9.71429 9.71422 10.7429 8.34279 10.7429ZM25.7142 25.7143L21.5999 25.7143L21.5999 19.3143C21.5999 17.8286 21.5999 15.8857 19.5428 15.8857C17.3714 15.8857 17.1428 17.4857 17.1428 19.2L17.1428 25.7143H13.0285L13.0285 12.5714L16.9142 12.5714L16.9142 14.4C17.4856 13.3714 18.7428 12.3429 20.7999 12.3429C24.9142 12.3429 25.7142 15.0857 25.7142 18.6286L25.7142 25.7143Z" fill="#1E1E1E"/>
</svg>
