<svg width="32" height="32" viewBox="0 0 32 32" fill="none" xmlns="http://www.w3.org/2000/svg">
<path d="M29.7142 7.54286C28.6856 8 27.6571 8.34286 26.5142 8.45714C27.6571 7.77143 28.5714 6.62857 29.0285 5.37143C27.8856 6.05714 26.7428 6.51429 25.4856 6.74286C24.4571 5.6 22.9714 4.91429 21.3714 4.91429C18.2856 4.91429 15.7714 7.42857 15.7714 10.5143C15.7714 10.9714 15.7714 11.4286 15.8856 11.7714C11.0856 11.5429 6.97136 9.25714 4.2285 5.82857C3.65707 6.74286 3.4285 7.65714 3.4285 8.68572C3.4285 10.6286 4.45707 12.3429 5.94279 13.3714C5.0285 13.3714 4.11422 13.1429 3.4285 12.6857C3.4285 12.6857 3.4285 12.6857 3.4285 12.8C3.4285 15.5429 5.37136 17.8286 7.88564 18.2857C7.4285 18.4 6.97136 18.5143 6.39993 18.5143C6.05707 18.5143 5.71422 18.5143 5.37136 18.4C6.05707 20.6857 8.11422 22.2857 10.6285 22.2857C8.68564 23.7714 6.28564 24.6857 3.65707 24.6857C3.19993 24.6857 2.74279 24.6857 2.28564 24.5714C4.79993 26.1714 7.77136 27.0857 10.8571 27.0857C21.2571 27.0857 26.8571 18.5143 26.8571 11.0857C26.8571 10.8571 26.8571 10.6286 26.8571 10.4C27.9999 9.6 28.9142 8.57143 29.7142 7.54286Z" fill="#1E1E1E"/>
</svg>
