<svg width="24" height="24" viewBox="0 0 24 24" fill="none" xmlns="http://www.w3.org/2000/svg">
<g clip-path="url(#clip0_962_1568)">
<path d="M10.2856 22.7144H13.7142" stroke="#1E1E1E" stroke-width="1.71429" stroke-linecap="round" stroke-linejoin="round"/>
<path d="M18.857 9.85714C18.857 8.03851 18.1346 6.29438 16.8486 5.00841C15.5626 3.72245 13.8185 3 11.9999 3C10.1812 3 8.43709 3.72245 7.15112 5.00841C5.86517 6.29438 5.14272 8.03851 5.14272 9.85714V15.8571C5.14272 16.5391 4.87179 17.1933 4.38956 17.6755C3.90733 18.1577 3.25327 18.4286 2.57129 18.4286H21.4284C20.7465 18.4286 20.0923 18.1577 19.6101 17.6755C19.1279 17.1933 18.857 16.5391 18.857 15.8571V9.85714Z" stroke="#1E1E1E" stroke-width="1.71429" stroke-linecap="round" stroke-linejoin="round"/>
<path d="M0.856934 9.63434C0.857858 8.00258 1.24699 6.39446 1.9922 4.9428C2.7374 3.49114 3.81728 2.23762 5.14265 1.28577" stroke="#1E1E1E" stroke-width="1.71429" stroke-linecap="round" stroke-linejoin="round"/>
<path d="M23.1426 9.63434C23.1418 8.00258 22.7526 6.39446 22.0074 4.9428C21.2622 3.49114 20.1822 2.23762 18.8569 1.28577" stroke="#1E1E1E" stroke-width="1.71429" stroke-linecap="round" stroke-linejoin="round"/>
</g>
<defs>
<clipPath id="clip0_962_1568">
<rect width="24" height="24" fill="white"/>
</clipPath>
</defs>
</svg>
