<svg width="24" height="24" viewBox="0 0 24 24" fill="none" xmlns="http://www.w3.org/2000/svg">
<g clip-path="url(#clip0_688_1865)">
<path d="M6.85658 0C6.17461 0 5.52054 0.270917 5.03831 0.753154C4.55608 1.23539 4.28516 1.88945 4.28516 2.57143V23.1429C4.28516 23.4895 4.49399 23.802 4.81429 23.9347C5.13458 24.0674 5.50324 23.9942 5.74838 23.749L11.9994 17.4979L18.2504 23.749C18.4956 23.9942 18.8643 24.0674 19.1845 23.9347C19.5049 23.802 19.7137 23.4895 19.7137 23.1429V2.57143C19.7137 1.88943 19.4429 1.23539 18.9606 0.753154C18.4784 0.270917 17.8242 0 17.1423 0H6.85658Z" fill="#1E1E1E"/>
</g>
<defs>
<clipPath id="clip0_688_1865">
<rect width="24" height="24" fill="white"/>
</clipPath>
</defs>
</svg>
