<svg width="19" height="18" viewBox="0 0 19 18" fill="none" xmlns="http://www.w3.org/2000/svg">
<g clip-path="url(#clip0_916_29)">
<path d="M2.78571 2.57147C2.44472 2.57147 2.1177 2.70694 1.87658 2.94805C1.63546 3.18917 1.5 3.51619 1.5 3.85719V16.0715C1.5 16.4124 1.63546 16.7395 1.87658 16.9806C2.1177 17.2217 2.44472 17.3572 2.78571 17.3572H16.9286C17.2695 17.3572 17.5966 17.2217 17.8377 16.9806C18.0788 16.7395 18.2143 16.4124 18.2143 16.0715V3.85719C18.2143 3.51619 18.0788 3.18917 17.8377 2.94805C17.5966 2.70694 17.2695 2.57147 16.9286 2.57147H14.3571" stroke="black" stroke-width="1.28571" stroke-linecap="round" stroke-linejoin="round"/>
<path d="M5.35742 0.642883V4.50003" stroke="black" stroke-width="1.28571" stroke-linecap="round" stroke-linejoin="round"/>
<path d="M14.3574 0.642883V4.50003" stroke="black" stroke-width="1.28571" stroke-linecap="round" stroke-linejoin="round"/>
<path d="M5.35742 2.57147H11.786" stroke="black" stroke-width="1.28571" stroke-linecap="round" stroke-linejoin="round"/>
<path d="M10.1763 5.98172L11.2519 8.14553C11.276 8.20025 11.3141 8.24762 11.3625 8.28277C11.4108 8.31793 11.4676 8.33964 11.5271 8.34565L13.916 8.70836C13.9843 8.71725 14.0487 8.74541 14.1016 8.78952C14.1545 8.83364 14.1937 8.8919 14.2147 8.9575C14.2357 9.02309 14.2376 9.09332 14.2201 9.15995C14.2027 9.22657 14.1666 9.28686 14.1162 9.33374L12.3526 11.0098C12.3263 11.0599 12.3126 11.1157 12.3126 11.1723C12.3126 11.229 12.3263 11.2848 12.3526 11.335L12.6903 13.7114C12.7047 13.7801 12.6989 13.8514 12.6735 13.9169C12.6482 13.9823 12.6044 14.039 12.5474 14.08C12.4905 14.1211 12.4229 14.1447 12.3528 14.1482C12.2827 14.1515 12.2131 14.1344 12.1525 14.0991L10.0262 12.9734C9.97118 12.9486 9.91149 12.9358 9.8511 12.9358C9.79071 12.9358 9.73103 12.9486 9.676 12.9734L7.54971 14.0991C7.48911 14.1344 7.41952 14.1515 7.34943 14.1482C7.27932 14.1447 7.2117 14.1211 7.15477 14.08C7.09784 14.039 7.05403 13.9823 7.02868 13.9169C7.00331 13.8514 6.99749 13.7801 7.0119 13.7114L7.41213 11.335C7.42935 11.2798 7.43264 11.2212 7.42173 11.1645C7.41082 11.1078 7.38604 11.0546 7.34959 11.0098L5.58603 9.32124C5.53926 9.27385 5.50642 9.2145 5.49113 9.1497C5.47584 9.08489 5.4787 9.01713 5.49936 8.95382C5.52003 8.89052 5.55772 8.83415 5.60831 8.79084C5.6589 8.74755 5.72043 8.71901 5.78615 8.70836L8.1751 8.35815C8.23456 8.35213 8.29138 8.33044 8.33972 8.29528C8.38806 8.26013 8.42621 8.21276 8.45025 8.15803L9.52591 5.99423C9.5547 5.93298 9.60003 5.881 9.65682 5.84417C9.7136 5.80734 9.77955 5.78713 9.84722 5.78583C9.91489 5.78453 9.98157 5.80219 10.0397 5.83681C10.0979 5.87142 10.1452 5.92162 10.1763 5.98172Z" stroke="black" stroke-width="1.28571" stroke-linecap="round" stroke-linejoin="round"/>
</g>
<defs>
<clipPath id="clip0_916_29">
<rect width="18" height="18" fill="white" transform="translate(0.857422)"/>
</clipPath>
</defs>
</svg>
