<svg width="18" height="18" viewBox="0 0 18 18" fill="none" xmlns="http://www.w3.org/2000/svg">
<g clip-path="url(#clip0_919_79)">
<path d="M1.92829 2.57141C1.5873 2.57141 1.26027 2.70687 1.01915 2.94798C0.778037 3.18911 0.642578 3.51613 0.642578 3.85713V16.0714C0.642578 16.4124 0.778037 16.7395 1.01915 16.9805C1.26027 17.2216 1.5873 17.3571 1.92829 17.3571H16.0711C16.4121 17.3571 16.7392 17.2216 16.9803 16.9805C17.2213 16.7395 17.3569 16.4124 17.3569 16.0714V3.85713C17.3569 3.51613 17.2213 3.18911 16.9803 2.94798C16.7392 2.70687 16.4121 2.57141 16.0711 2.57141H13.4997" stroke="white" stroke-width="1.28571" stroke-linecap="round" stroke-linejoin="round"/>
<path d="M4.5 0.642822V4.49997" stroke="white" stroke-width="1.28571" stroke-linecap="round" stroke-linejoin="round"/>
<path d="M13.5 0.642822V4.49997" stroke="white" stroke-width="1.28571" stroke-linecap="round" stroke-linejoin="round"/>
<path d="M4.5 2.57141H10.9286" stroke="white" stroke-width="1.28571" stroke-linecap="round" stroke-linejoin="round"/>
<path d="M9.31888 5.9816L10.3945 8.14541C10.4186 8.20013 10.4567 8.24749 10.5051 8.28265C10.5534 8.31781 10.6102 8.33951 10.6697 8.34553L13.0586 8.70824C13.1269 8.71713 13.1913 8.74528 13.2441 8.7894C13.2971 8.83352 13.3363 8.89178 13.3573 8.95738C13.3782 9.02297 13.3802 9.0932 13.3627 9.15982C13.3453 9.22645 13.3092 9.28674 13.2588 9.33361L11.4952 11.0096C11.4689 11.0598 11.4552 11.1156 11.4552 11.1722C11.4552 11.2289 11.4689 11.2847 11.4952 11.3348L11.8329 13.7113C11.8473 13.78 11.8415 13.8513 11.8161 13.9168C11.7908 13.9822 11.747 14.0389 11.69 14.0799C11.6331 14.1209 11.5655 14.1446 11.4954 14.1481C11.4253 14.1514 11.3557 14.1343 11.2951 14.0989L9.16878 12.9733C9.11376 12.9485 9.05407 12.9356 8.99368 12.9356C8.93329 12.9356 8.87361 12.9485 8.81858 12.9733L6.69229 14.0989C6.63168 14.1343 6.5621 14.1514 6.492 14.1481C6.42189 14.1446 6.35428 14.1209 6.29735 14.0799C6.24042 14.0389 6.19661 13.9822 6.17126 13.9168C6.14589 13.8513 6.14007 13.78 6.15448 13.7113L6.55471 11.3348C6.57192 11.2797 6.57522 11.2211 6.56431 11.1644C6.5534 11.1076 6.52862 11.0545 6.49217 11.0096L4.72861 9.32112C4.68183 9.27373 4.649 9.21438 4.63371 9.14958C4.61842 9.08476 4.62128 9.01701 4.64194 8.9537C4.66261 8.8904 4.7003 8.83402 4.75089 8.79072C4.80148 8.74743 4.863 8.71889 4.92873 8.70824L7.31768 8.35803C7.37714 8.35201 7.43396 8.33032 7.4823 8.29516C7.53064 8.26 7.56879 8.21264 7.59283 8.15791L8.66849 5.99411C8.69727 5.93286 8.74261 5.88088 8.7994 5.84404C8.85618 5.80722 8.92213 5.78701 8.9898 5.78571C9.05747 5.78441 9.12414 5.80207 9.1823 5.83669C9.24045 5.8713 9.28776 5.9215 9.31888 5.9816Z" stroke="white" stroke-width="1.28571" stroke-linecap="round" stroke-linejoin="round"/>
</g>
<defs>
<clipPath id="clip0_919_79">
<rect width="18" height="18" fill="white"/>
</clipPath>
</defs>
</svg>
