<svg width="18" height="18" viewBox="0 0 18 18" fill="none" xmlns="http://www.w3.org/2000/svg">
<g clip-path="url(#clip0_919_86)">
<path d="M6.7245 2.89282L7.27735 1.46568C7.37059 1.22405 7.53464 1.01621 7.74799 0.869381C7.96135 0.722555 8.21407 0.643587 8.47307 0.642822H9.52735C9.78635 0.643587 10.0391 0.722555 10.2524 0.869381C10.4658 1.01621 10.6298 1.22405 10.7231 1.46568L11.2759 2.89282L13.153 3.97282L14.6702 3.74139C14.9228 3.7071 15.1799 3.74868 15.4089 3.86086C15.6378 3.97304 15.8282 4.15074 15.9559 4.37139L16.4702 5.27139C16.6019 5.49556 16.6628 5.75441 16.6444 6.01379C16.626 6.27317 16.5294 6.52089 16.3673 6.72425L15.4287 7.91996V10.08L16.393 11.2757C16.5551 11.479 16.6517 11.7268 16.6701 11.9861C16.6885 12.2455 16.6277 12.5044 16.4959 12.7285L15.9816 13.6285C15.8539 13.8492 15.6635 14.0269 15.4346 14.1391C15.2057 14.2512 14.9485 14.2929 14.6959 14.2585L13.1787 14.0271L11.3016 15.1071L10.7488 16.5343C10.6555 16.7758 10.4915 16.9837 10.2781 17.1306C10.0648 17.2774 9.81206 17.3563 9.55307 17.3571H8.47307C8.21407 17.3563 7.96135 17.2774 7.74799 17.1306C7.53464 16.9837 7.37059 16.7758 7.27735 16.5343L6.7245 15.1071L4.84735 14.0271L3.33021 14.2585C3.07759 14.2929 2.82048 14.2512 2.59154 14.1391C2.36262 14.0269 2.17221 13.8492 2.0445 13.6285L1.53021 12.7285C1.39842 12.5044 1.33771 12.2455 1.35607 11.9861C1.37443 11.7268 1.47102 11.479 1.63307 11.2757L2.57164 10.08V7.91996L1.60735 6.72425C1.4453 6.52089 1.34872 6.27317 1.33036 6.01379C1.312 5.75441 1.37271 5.49556 1.5045 5.27139L2.01878 4.37139C2.14649 4.15074 2.33691 3.97304 2.56583 3.86086C2.79476 3.74868 3.05188 3.7071 3.3045 3.74139L4.82164 3.97282L6.7245 2.89282ZM6.42878 8.99997C6.42878 9.50854 6.5796 10.0057 6.86214 10.4286C7.14471 10.8514 7.5463 11.181 8.01616 11.3757C8.48604 11.5703 9.00306 11.6212 9.50187 11.522C10.0007 11.4228 10.4589 11.1779 10.8185 10.8182C11.1781 10.4586 11.423 10.0004 11.5222 9.50163C11.6214 9.00282 11.5705 8.4858 11.3759 8.01592C11.1813 7.54605 10.8517 7.14445 10.4288 6.8619C10.0059 6.57935 9.50879 6.42854 9.00021 6.42854C8.31823 6.42854 7.66417 6.69945 7.18194 7.1817C6.69971 7.66393 6.42878 8.31798 6.42878 8.99997Z" stroke="white" stroke-width="1.28571" stroke-linecap="round" stroke-linejoin="round"/>
</g>
<defs>
<clipPath id="clip0_919_86">
<rect width="18" height="18" fill="white"/>
</clipPath>
</defs>
</svg>
