<svg width="19" height="18" viewBox="0 0 19 18" fill="none" xmlns="http://www.w3.org/2000/svg">
<g clip-path="url(#clip0_916_50)">
<path d="M6.86707 2.89288L7.41993 1.46574C7.51317 1.22411 7.67721 1.01627 7.89057 0.869442C8.10393 0.722616 8.35665 0.643648 8.61565 0.642883H9.66993C9.92892 0.643648 10.1817 0.722616 10.395 0.869442C10.6084 1.01627 10.7724 1.22411 10.8656 1.46574L11.4185 2.89288L13.2956 3.97288L14.8127 3.74145C15.0654 3.70716 15.3225 3.74874 15.5515 3.86092C15.7804 3.9731 15.9708 4.1508 16.0985 4.37145L16.6127 5.27145C16.7445 5.49562 16.8053 5.75447 16.787 6.01385C16.7686 6.27323 16.672 6.52095 16.5099 6.72431L15.5713 7.92003V10.08L16.5356 11.2757C16.6977 11.4791 16.7943 11.7268 16.8127 11.9862C16.8311 12.2456 16.7702 12.5044 16.6385 12.7286L16.1242 13.6286C15.9965 13.8492 15.8061 14.0269 15.5772 14.1392C15.3482 14.2513 15.0911 14.2929 14.8385 14.2586L13.3213 14.0272L11.4442 15.1072L10.8914 16.5343C10.7981 16.7759 10.6341 16.9838 10.4207 17.1306C10.2074 17.2775 9.95464 17.3564 9.69564 17.3572H8.61565C8.35665 17.3564 8.10393 17.2775 7.89057 17.1306C7.67721 16.9838 7.51317 16.7759 7.41993 16.5343L6.86707 15.1072L4.98993 14.0272L3.47279 14.2586C3.22017 14.2929 2.96305 14.2513 2.73412 14.1392C2.5052 14.0269 2.31478 13.8492 2.18707 13.6286L1.67279 12.7286C1.541 12.5044 1.48029 12.2456 1.49865 11.9862C1.51701 11.7268 1.61359 11.4791 1.77565 11.2757L2.71422 10.08V7.92003L1.74993 6.72431C1.58788 6.52095 1.4913 6.27323 1.47294 6.01385C1.45458 5.75447 1.51529 5.49562 1.64707 5.27145L2.16136 4.37145C2.28907 4.1508 2.47948 3.9731 2.70841 3.86092C2.93734 3.74874 3.19446 3.70716 3.44707 3.74145L4.96422 3.97288L6.86707 2.89288ZM6.57136 9.00003C6.57136 9.5086 6.72217 10.0058 7.00472 10.4286C7.28728 10.8515 7.68888 11.1811 8.15874 11.3757C8.62862 11.5703 9.14564 11.6213 9.64445 11.522C10.1433 11.4228 10.6014 11.1779 10.9611 10.8183C11.3207 10.4587 11.5656 10.0005 11.6648 9.50169C11.764 9.00288 11.7131 8.48586 11.5185 8.01598C11.3239 7.54611 10.9943 7.14451 10.5714 6.86196C10.1485 6.57941 9.65136 6.4286 9.14279 6.4286C8.46081 6.4286 7.80675 6.69951 7.32452 7.18176C6.84229 7.66399 6.57136 8.31804 6.57136 9.00003Z" stroke="black" stroke-width="1.28571" stroke-linecap="round" stroke-linejoin="round"/>
</g>
<defs>
<clipPath id="clip0_916_50">
<rect width="18" height="18" fill="white" transform="translate(0.142578)"/>
</clipPath>
</defs>
</svg>
