<svg width="266" height="266" viewBox="0 0 266 266" fill="none" xmlns="http://www.w3.org/2000/svg">
<path d="M29.0235 155.337H43.0713V149.401H29.0235V155.337Z" fill="#EBEBEB"/>
<path d="M36.8645 141.915L43.8247 141.767L47.3579 141.708C48.5409 141.682 49.7292 141.708 50.9122 141.682H51.1457V141.921L51.1775 147.857V148.122H50.9229L43.899 148.09C41.5595 148.09 39.2146 148.027 36.8751 148H36.7266V147.857C36.7266 146.849 36.769 145.846 36.7955 144.86L36.8645 141.915ZM36.8645 141.915L36.9388 144.913C36.9388 145.905 36.9971 146.881 37.0077 147.852L36.8645 147.708C39.204 147.682 41.5488 147.623 43.8884 147.618L50.9229 147.586L50.6576 147.852V141.915L50.9229 142.175C49.7664 142.175 48.6099 142.175 47.448 142.143L43.9573 142.085L36.8645 141.915Z" fill="#EBEBEB"/>
<path d="M21.2149 141.915L28.1752 141.767L31.7083 141.708C32.8913 141.682 34.0744 141.708 35.2627 141.682H35.4961V141.92L35.5279 147.857V148.122H35.2627L28.2388 148.09C25.894 148.09 23.5545 148.027 21.2149 148H21.0664V147.857C21.0664 146.849 21.1142 145.846 21.1354 144.859L21.2149 141.915ZM21.2149 141.915L21.2892 144.912C21.2892 145.905 21.3476 146.881 21.3582 147.851L21.2149 147.708C23.5545 147.682 25.894 147.623 28.2388 147.618L35.2627 147.586L34.9974 147.851V141.915L35.2362 142.154C34.0744 142.154 32.9232 142.154 31.7614 142.122L28.2706 142.064L21.2149 141.915Z" fill="#EBEBEB"/>
<path d="M237.273 31.7984L230.313 31.9469L226.78 32.0053C225.597 32.0318 224.408 32.0053 223.225 32.0371H222.992V31.7984L222.96 25.8621V25.5968H223.225L230.249 25.6339C232.594 25.6339 234.933 25.6923 237.273 25.7188H237.421V25.8621C237.421 26.87 237.374 27.8727 237.353 28.8647L237.273 31.7984ZM237.273 31.7984L237.199 28.801C237.199 27.8143 237.14 26.8382 237.13 25.8621L237.273 26.0106C234.933 26.0106 232.594 26.0955 230.249 26.0955L223.225 26.1273L223.49 25.8621L223.464 31.7984L223.225 31.565C224.382 31.565 225.538 31.565 226.7 31.565L230.191 31.6286L237.273 31.7984Z" fill="#EBEBEB"/>
<path d="M245.108 33.3475H231.061V39.2839H245.108V33.3475Z" fill="#EBEBEB"/>
<path d="M35.2416 31.8302L28.276 31.9734L24.7429 32.0371C23.5599 32.0371 22.3768 32.0371 21.1938 32.0371H20.9551V31.8302V25.8938V25.6233H21.215L28.2389 25.6551C30.5784 25.6551 32.9179 25.7135 35.2628 25.74H35.406V25.8832C35.406 26.8859 35.3583 27.8885 35.337 28.8806L35.2416 31.8302ZM35.2416 31.8302L35.162 28.8275C35.162 27.8408 35.1036 26.8647 35.093 25.8938L35.2416 26.0371C32.8967 26.0636 30.5572 26.122 28.2177 26.122L21.215 26.1379L21.475 25.8726L21.4272 31.8302L21.215 31.5702C22.3715 31.5702 23.5227 31.5702 24.6845 31.6021L28.1752 31.6604L35.2416 31.8302Z" fill="#EBEBEB"/>
<path d="M119.926 69.2573H133.974V63.3209H119.926V69.2573Z" fill="#EBEBEB"/>
<path d="M231.061 144.133L238.026 143.984L241.56 143.926C242.743 143.899 243.926 143.926 245.109 143.894H245.347V144.133L245.374 150.069V150.334H245.087L238.064 150.302C235.724 150.302 233.385 150.239 231.04 150.212H230.896V150.069C230.896 149.061 230.944 148.058 230.965 147.072L231.061 144.133ZM231.061 144.133L231.141 147.13C231.141 148.122 231.199 149.098 231.209 150.069L231.061 149.926C233.406 149.899 235.745 149.841 238.085 149.836L245.109 149.804L244.849 150.069L244.875 144.133L245.109 144.371C243.952 144.371 242.801 144.371 241.639 144.339L238.148 144.281L231.061 144.133Z" fill="#EBEBEB"/>
<path d="M139.209 199.39H153.257V193.454H139.209V199.39Z" fill="#EBEBEB"/>
<path d="M127.756 55.8355L134.743 55.7029L138.276 55.6445C139.459 55.6445 140.642 55.6445 141.83 55.6445H142.064V55.8833L142.09 61.8196V62.0848H141.825L134.801 62.053C132.456 62.053 130.117 61.9947 127.777 61.9628H127.629V61.8196C127.629 60.8116 127.677 59.809 127.698 58.8222L127.756 55.8355ZM127.756 55.8355L127.836 58.8382C127.836 59.8249 127.894 60.801 127.905 61.7719L127.762 61.6286C130.101 61.6286 132.441 61.5437 134.785 61.5437L141.809 61.5066L141.544 61.7719L141.571 55.8355L141.809 56.0742C140.647 56.0742 139.496 56.0742 138.334 56.0424L134.844 55.9841L127.756 55.8355Z" fill="#EBEBEB"/>
<path d="M57.5656 193.634H39.7618L29.5762 142.838L45.8733 135.347L57.5656 193.634Z" fill="#DBDBDB"/>
<path d="M108.526 193.634H57.5654L45.873 135.347H96.8333L108.526 193.634Z" fill="#EBEBEB"/>
<path d="M48.4244 166.382H21.1406V222.366H48.4244V166.382Z" fill="#DBDBDB"/>
<path d="M121.618 222.366H114.164L103.056 166.382H121.618V222.366Z" fill="#DBDBDB"/>
<path d="M63.4159 166.382H48.4238V222.366H63.4159V166.382Z" fill="#EBEBEB"/>
<path d="M136.61 166.382H121.618V222.366H136.61V166.382Z" fill="#EBEBEB"/>
<path d="M121.619 193.634H63.417V222.361H121.619V193.634Z" fill="#EBEBEB"/>
<path d="M121.619 181.215H63.417V193.751H121.619V181.215Z" fill="#EBEBEB"/>
<path d="M52.1006 166.382L57.7611 166.281L63.4162 166.207H63.586V166.382L63.655 172.944V179.496C63.655 183.862 63.6868 188.228 63.655 192.599C63.6231 196.971 63.655 201.332 63.5807 205.703C63.5064 210.074 63.4852 214.435 63.3897 218.806C63.2978 214.435 63.2359 210.067 63.204 205.703C63.1457 201.332 63.1404 196.966 63.1245 192.599C63.1085 188.233 63.1245 183.862 63.1245 179.496V172.944L63.1881 166.393L63.3579 166.562L57.7027 166.493L52.1006 166.382Z" fill="#DBDBDB"/>
<path d="M121.618 166.382C121.735 170.764 121.788 175.146 121.836 179.533L121.899 192.684L121.836 205.835L121.756 212.414L121.618 218.987L121.48 212.414L121.401 205.835L121.337 192.684L121.401 179.533C121.448 175.146 121.48 170.764 121.618 166.382Z" fill="#DBDBDB"/>
<path d="M121.619 193.634C116.77 193.751 111.921 193.804 107.067 193.851L92.5204 193.915L77.9793 193.851L70.7061 193.772L63.417 193.634L70.6955 193.496L77.9687 193.416L92.5204 193.353L107.067 193.416C111.932 193.464 116.77 193.517 121.619 193.634Z" fill="#DBDBDB"/>
<path d="M121.618 181.215C116.769 181.332 111.92 181.385 107.066 181.432L92.5196 181.496L77.9785 181.432L70.7053 181.353L63.4268 181.215L70.7053 181.077L77.9785 180.997L92.5302 180.934L107.077 180.997C111.931 181.045 116.769 181.098 121.618 181.215Z" fill="#DBDBDB"/>
<path d="M31.5114 222.361L31.1401 226.896L30.2807 237.379H26.3284L25.469 226.896L25.0977 222.361H31.5114Z" fill="#C7C7C7"/>
<path d="M25.0977 222.361H31.5114L31.1401 226.896H25.469L25.0977 222.361Z" fill="#A6A6A6"/>
<path d="M59.1306 222.361L58.7592 226.897L57.8998 237.379H53.9476L53.0882 226.897L52.7168 222.361H59.1306Z" fill="#C7C7C7"/>
<path d="M52.7168 222.361H59.1306L58.7592 226.897H53.0882L52.7168 222.361Z" fill="#A6A6A6"/>
<path d="M104.934 222.361L104.568 226.896L103.708 237.379H99.7562L98.8967 226.896L98.5254 222.361H104.934Z" fill="#C7C7C7"/>
<path d="M98.5254 222.361H104.934L104.568 226.896H98.8967L98.5254 222.361Z" fill="#A6A6A6"/>
<path d="M132.562 222.361L132.191 226.897L131.331 237.379H127.379L126.52 226.897L126.148 222.361H132.562Z" fill="#C7C7C7"/>
<path d="M132.562 222.361L132.191 226.897H126.52L126.148 222.361H132.562Z" fill="#A6A6A6"/>
<path d="M123.029 58.8647H31.9678V62.7745H123.029V58.8647Z" fill="#EBEBEB"/>
<path d="M45.2091 78.1645H41.66L40.2383 62.7745H45.2091V78.1645Z" fill="#EBEBEB"/>
<path d="M109.788 78.1645H113.337L114.759 62.7745H109.788V78.1645Z" fill="#EBEBEB"/>
<path d="M40.2383 62.7745H45.2038V68.0743H40.7263L40.2383 62.7745Z" fill="#DBDBDB"/>
<path d="M114.759 62.7745L114.271 68.0743H109.788V62.7745H114.759Z" fill="#DBDBDB"/>
<path d="M64.9445 35.4111C60.9021 40.8806 56.6899 47.2148 55.666 54.1114C55.6657 54.1328 55.673 54.1535 55.6865 54.17C55.7001 54.1865 55.7191 54.1977 55.7401 54.2015C55.7611 54.2053 55.7828 54.2016 55.8013 54.1909C55.8198 54.1802 55.8339 54.1633 55.8411 54.1432C56.3071 52.2732 56.9045 50.4384 57.6289 48.6525C60.2814 47.9204 62.8915 47.3209 64.2867 44.6843C65.6819 42.0477 65.5281 38.4403 65.2575 35.4854C65.2469 35.3103 65.0241 35.305 64.9445 35.4111Z" fill="#EBEBEB"/>
<path d="M57.6709 48.5835C59.448 44.4117 61.8426 40.5309 64.7744 37.0716L64.8062 37.1034C62.9515 39.4899 61.3229 42.0438 59.9415 44.7321C61.2784 43.374 62.7426 42.1538 64.0105 40.7162C64.0105 40.7162 64.0741 40.7162 64.0529 40.7586C62.7956 42.2652 61.4004 43.9045 59.8089 45.0026C59.3703 45.8161 58.9247 46.6295 58.472 47.4429C58.5834 47.3793 58.7001 47.3262 58.8115 47.2679V47.2997L58.4349 47.4854C58.2227 47.8674 58.0105 48.2546 57.793 48.6366C57.7505 48.7427 57.6285 48.6684 57.6709 48.5835Z" fill="#A6A6A6"/>
<path d="M59.0189 47.1618C60.1049 46.5527 61.1424 45.861 62.1223 45.0928C62.1223 45.0928 62.186 45.0928 62.1594 45.13C61.2101 45.952 60.1708 46.6638 59.0613 47.252C59.0554 47.2548 59.049 47.2564 59.0424 47.2567C59.0359 47.257 59.0293 47.256 59.0232 47.2538C59.017 47.2516 59.0114 47.2482 59.0065 47.2438C59.0017 47.2393 58.9978 47.234 58.995 47.2281C58.9922 47.2222 58.9906 47.2158 58.9903 47.2092C58.99 47.2027 58.991 47.1962 58.9932 47.19C58.9954 47.1839 58.9988 47.1782 59.0032 47.1734C59.0076 47.1685 59.0129 47.1646 59.0189 47.1618Z" fill="#A6A6A6"/>
<path d="M55.2203 54.0318C55.2203 54.1167 55.3689 54.1114 55.3689 54.0318C55.3689 51.7719 55.3689 49.5013 55.406 47.2307C55.9843 46.0636 57.2256 45.4164 58.0904 44.4774C58.7061 43.7936 59.2402 43.0406 59.6819 42.2334C60.7214 40.3041 61.3568 38.1831 61.5492 36C61.788 33.5809 60.8702 25.6074 59.8516 25.8833C59.3211 26.0265 57.6129 29.9788 57.162 31.2838C56.4314 33.4377 55.8987 35.6538 55.5705 37.9045C54.7482 43.2201 54.8171 48.679 55.2203 54.0318Z" fill="#EBEBEB"/>
<path d="M55.2044 44.2811C55.4192 41.4072 55.8789 38.5569 56.5784 35.7612C57.2256 32.7692 57.9842 29.9575 59.5227 27.2732C59.5227 27.2201 59.6235 27.2732 59.597 27.3156C58.5724 29.3885 57.779 31.5679 57.2309 33.8143C57.337 33.6551 57.459 33.5013 57.5651 33.3474C57.6076 33.2891 57.7084 33.3474 57.6659 33.4058C57.5301 33.6477 57.3702 33.8752 57.1885 34.0848C56.658 36.2069 56.276 38.4031 55.9524 40.5835L56.0267 40.4986C56.0267 40.4986 56.0691 40.4986 56.0585 40.4986L55.9312 40.7161C55.7667 41.8196 55.6129 42.923 55.459 44.0159C57.4801 42.3963 59.0617 40.2948 60.0585 37.9045C59.2171 40.4536 57.588 42.6697 55.406 44.2334C55.3689 44.5305 55.3264 44.8222 55.284 45.1193C55.284 45.1777 55.1779 45.1618 55.1779 45.1193C55.1779 44.8594 55.1779 44.5888 55.1779 44.3342C55.1772 44.3238 55.1792 44.3134 55.1839 44.304C55.1886 44.2947 55.1956 44.2868 55.2044 44.2811Z" fill="#A6A6A6"/>
<path d="M56.1322 40.1379C57.6705 37.9622 59.0126 35.6543 60.1428 33.2413C60.1428 33.2413 60.2065 33.2413 60.1959 33.2413C59.3031 35.7798 57.9587 38.136 56.2277 40.1962C56.2239 40.2025 56.2189 40.208 56.2129 40.2123C56.207 40.2166 56.2002 40.2197 56.1931 40.2215C56.186 40.2232 56.1786 40.2235 56.1713 40.2223C56.164 40.2212 56.1571 40.2186 56.1508 40.2148C56.1445 40.211 56.1391 40.2059 56.1348 40.2C56.1304 40.1941 56.1273 40.1873 56.1256 40.1802C56.1239 40.173 56.1236 40.1656 56.1247 40.1584C56.1258 40.1511 56.1284 40.1442 56.1322 40.1379Z" fill="#A6A6A6"/>
<path d="M58.1328 32.6738C58.7588 31.5703 59.4113 30.4987 60.0002 29.374C60.0002 29.3422 60.0586 29.374 60.048 29.4006C59.5663 30.5749 58.956 31.6922 58.2283 32.7321C58.219 32.7406 58.2072 32.7458 58.1946 32.7469C58.1821 32.7481 58.1695 32.7452 58.1588 32.7386C58.148 32.732 58.1397 32.7222 58.135 32.7105C58.1304 32.6988 58.1296 32.6859 58.1328 32.6738Z" fill="#A6A6A6"/>
<path d="M54.1065 48.2387C54.0766 49.7379 53.8989 51.2306 53.576 52.6949C53.576 52.8541 53.6238 53.0132 53.645 53.183C54.1066 51.5651 54.3755 49.8984 54.4461 48.2175C54.4578 48.1935 54.4639 48.1672 54.4639 48.1406C54.4639 48.1139 54.4578 48.0876 54.4461 48.0636C54.5104 45.812 54.3433 43.5597 53.9474 41.3422C53.2471 37.1883 51.7193 33.1989 48.8227 30.0902C48.7985 30.0699 48.77 30.0553 48.7394 30.0475C48.7087 30.0396 48.6768 30.0387 48.6457 30.0448C48.6147 30.0509 48.5855 30.0639 48.5601 30.0827C48.5347 30.1016 48.5139 30.1259 48.4991 30.1538C47.332 33.1246 47.7405 36.6737 48.7378 39.6392C49.2775 41.2455 50.0515 42.7632 51.0349 44.1432C52.0429 45.5331 53.3108 46.7162 54.1065 48.2387Z" fill="#EBEBEB"/>
<path d="M49.1772 31.4747C51.9252 35.931 53.835 41.2095 54.0684 46.4721C54.0684 46.5676 53.9146 46.5941 53.8986 46.4986C53.835 46.0265 53.766 45.5543 53.6864 45.0875C52.495 44.0305 51.448 42.8211 50.5724 41.4907C50.5724 41.4907 50.5724 41.4376 50.6148 41.4907C51.5584 42.6446 52.568 43.7428 53.6387 44.7798C53.4406 43.6197 53.2055 42.4739 52.9331 41.3421C52.8589 41.2625 52.7899 41.1723 52.7156 41.0875C52.6413 41.0026 52.7474 40.9495 52.7952 41.0079L52.8642 41.0822C52.4782 39.5353 51.9981 38.0134 51.4265 36.5251C50.6638 35.748 49.9944 34.8845 49.4318 33.9522C49.4318 33.9522 49.4318 33.9044 49.4689 33.9522C49.8643 34.5342 50.2893 35.0955 50.7421 35.6339C50.9225 35.8461 51.1294 36.0477 51.3204 36.2546C50.6865 34.6401 49.9347 33.0744 49.0711 31.5702C49.0584 31.5562 49.0518 31.5376 49.0528 31.5187C49.0538 31.4998 49.0623 31.4821 49.0764 31.4694C49.0904 31.4568 49.109 31.4502 49.1279 31.4512C49.1468 31.4522 49.1645 31.4607 49.1772 31.4747Z" fill="#A6A6A6"/>
<path d="M49.735 36.9708C50.621 38.1644 51.6342 39.305 52.4565 40.5358C52.4565 40.5729 52.4565 40.61 52.3982 40.5835C51.3486 39.5051 50.4347 38.3025 49.6767 37.0026C49.6502 36.9655 49.7085 36.9336 49.735 36.9708Z" fill="#A6A6A6"/>
<path d="M52.584 40.8117L52.6212 40.8541C52.6212 40.8541 52.6212 40.9178 52.5787 40.8912L52.5416 40.8488C52.5151 40.8488 52.5575 40.7904 52.584 40.8117Z" fill="#A6A6A6"/>
<path d="M44.4561 38.9125C44.7765 41.4015 45.7789 43.7534 47.3526 45.7082C47.9978 46.4768 48.7965 47.102 49.6975 47.5438C50.716 48.0477 51.7823 48.6048 52.8327 49.0398C53.3332 50.3137 53.7064 51.634 53.9468 52.9814C53.9786 52.8647 54.0105 52.748 54.0476 52.6313C53.3686 46.8276 49.6179 41.8674 44.8115 38.6843C44.774 38.6608 44.7306 38.6485 44.6863 38.6487C44.642 38.6489 44.5987 38.6617 44.5615 38.6857C44.5242 38.7096 44.4945 38.7436 44.4758 38.7838C44.4572 38.8239 44.4503 38.8686 44.4561 38.9125Z" fill="#EBEBEB"/>
<path d="M46.2174 42.6313C46.2817 42.672 46.3437 42.7163 46.403 42.764C46.403 42.764 46.403 42.8011 46.403 42.7958C46.3365 42.7638 46.2726 42.7266 46.2121 42.6844C46.2079 42.6811 46.2047 42.6768 46.2027 42.6719C46.2006 42.667 46.1998 42.6617 46.2004 42.6564C46.2009 42.6512 46.2027 42.6461 46.2057 42.6417C46.2087 42.6374 46.2127 42.6338 46.2174 42.6313Z" fill="#A6A6A6"/>
<path d="M59.9515 58.8647H50.0576L50.5457 52.382L50.7314 50.2653H59.1876L59.3786 52.382L59.9515 58.8647Z" fill="#DBDBDB"/>
<path d="M59.3788 52.382H50.5459L50.7316 50.2653H59.1878L59.3788 52.382Z" fill="#C7C7C7"/>
<path d="M59.8613 48.5305H50.0576V50.7002H59.8613V48.5305Z" fill="#DBDBDB"/>
<path d="M83.9844 58.8541V35.3104H78.0533V58.8541H83.9844Z" fill="#C7C7C7"/>
<path d="M83.9893 36.6365V34.0477H78.0582V36.6365H83.9893Z" fill="#DBDBDB"/>
<path d="M83.9844 40.9072V39.947H78.0533V40.9072H83.9844Z" fill="#DBDBDB"/>
<path d="M83.9844 55.7612V53.1724H78.0533V55.7612H83.9844Z" fill="#DBDBDB"/>
<path d="M88.1279 58.8541V31.3899H83.9847V58.8541H88.1279Z" fill="#DBDBDB"/>
<path d="M87.2832 44.5305V33.9681H84.7951V44.5305H87.2832Z" fill="#EBEBEB"/>
<path d="M117.633 55.879L98.1016 36.5711L95.1888 39.5176L114.72 58.8256L117.633 55.879Z" fill="#C7C7C7"/>
<path d="M112.479 51.9283L104.968 44.5027L103.219 46.2722L110.73 53.6977L112.479 51.9283Z" fill="#DBDBDB"/>
<path d="M95.167 58.8542V37.9948H88.1325V58.8542H95.167Z" fill="#A6A6A6"/>
<path d="M95.1621 56.642V54.7003H88.1276V56.642H95.1621Z" fill="#C7C7C7"/>
<path d="M95.167 53.4218V52.6685H88.1325V53.4218H95.167Z" fill="#C7C7C7"/>
<path d="M70.6735 59.1617L78.3184 41.1277L73.8477 39.2326L66.2029 57.2665L70.6735 59.1617Z" fill="#A6A6A6"/>
<path d="M71.1825 56.9587L71.9023 55.2817L67.4369 53.3651L66.7171 55.0421L71.1825 56.9587Z" fill="#C7C7C7"/>
<path d="M75.7831 46.2481L76.5029 44.5711L72.0375 42.6544L71.3177 44.3314L75.7831 46.2481Z" fill="#C7C7C7"/>
<path d="M75.0116 48.0502L75.292 47.397L70.8265 45.4803L70.5461 46.1336L75.0116 48.0502Z" fill="#C7C7C7"/>
<path d="M225.512 173.257H173.634V237.379H225.512V173.257Z" fill="#EBEBEB"/>
<path d="M228.021 170.594H171.119V173.257H228.021V170.594Z" fill="#DBDBDB"/>
<path d="M245.92 170.594H228.026V173.257H245.92V170.594Z" fill="#EBEBEB"/>
<path d="M243.087 173.257H225.512V237.379H243.087V173.257Z" fill="#DBDBDB"/>
<path d="M219.926 203.029H179.221V180.016H219.926V203.029ZM179.353 202.897H219.794V180.148H179.353V202.897Z" fill="#C7C7C7"/>
<path d="M201.82 186.743H193.895V191.3H201.82V186.743Z" fill="#C7C7C7"/>
<path d="M204.239 191.019H196.17V187.019H204.239V191.019ZM196.281 190.886H204.074V187.173H196.281V190.886Z" fill="#C7C7C7"/>
<path d="M219.926 231.931H179.221V208.918H219.926V231.931ZM179.353 231.798H219.794V209.05H179.353V231.798Z" fill="#C7C7C7"/>
<path d="M201.82 215.645H193.895V220.202H201.82V215.645Z" fill="#C7C7C7"/>
<path d="M204.239 219.92H196.17V215.915H204.239V219.92ZM196.281 219.788H204.074V216.074H196.281V219.788Z" fill="#C7C7C7"/>
<path d="M246.18 237.379L217.766 237.507L189.347 237.554L132.509 237.645L75.6708 237.554L47.257 237.507L18.8379 237.379L47.257 237.247L75.6708 237.204L132.509 237.114L189.347 237.204L217.766 237.247L246.18 237.379Z" fill="#263238"/>
<path d="M232.827 237.379H235.867L214.578 124.881H207.008L232.827 237.379Z" fill="#455A64"/>
<path d="M207.008 124.881L210.827 141.517H217.724L214.583 124.897L214.578 124.881H207.008Z" fill="#37474F"/>
<path d="M201.772 237.379H204.811L204.132 124.881H196.567L201.772 237.379Z" fill="#455A64"/>
<path d="M196.567 124.881L197.337 141.517H204.233L204.132 124.897V124.881H196.567Z" fill="#37474F"/>
<path d="M173.756 237.379H170.722L187.48 124.881H195.051L173.756 237.379Z" fill="#455A64"/>
<path d="M185.003 141.517H191.899L195.051 124.881H187.48L187.475 124.896L185.003 141.517Z" fill="#37474F"/>
<path d="M179.989 191.379H224.164V189.183H179.989V191.379Z" fill="#455A64"/>
<path d="M245.938 83.2156C247.489 51.8279 230.675 25.4898 208.383 24.3878C186.09 23.2858 166.76 47.8373 165.209 79.225C163.657 110.613 180.471 136.951 202.764 138.053C225.057 139.155 244.386 114.603 245.938 83.2156Z" fill="#407BFF"/>
<path d="M199.565 23.8249L209.05 24.4137L201.825 138L192.334 137.411L199.565 23.8249Z" fill="#407BFF"/>
<g opacity="0.1">
<path d="M199.565 23.8249L209.05 24.4137L201.825 138L192.334 137.411L199.565 23.8249Z" fill="black"/>
</g>
<path d="M237.205 82.674C238.757 51.2863 221.943 24.9482 199.65 23.8462C177.358 22.7442 158.028 47.2957 156.476 78.6834C154.925 110.071 171.739 136.409 194.031 137.511C216.324 138.613 235.654 114.062 237.205 82.674Z" fill="#407BFF"/>
<path d="M228.33 82.2353C229.541 57.7508 216.424 37.2052 199.033 36.3455C181.641 35.4859 166.562 54.6376 165.352 79.1221C164.141 103.607 177.258 124.152 194.65 125.012C212.041 125.872 227.12 106.72 228.33 82.2353Z" fill="white"/>
<path d="M219.54 81.8008C220.413 64.1463 210.957 49.3321 198.421 48.7124C185.885 48.0927 175.014 61.9021 174.142 79.5566C173.269 97.2111 182.724 112.025 195.261 112.645C207.797 113.265 218.667 99.4553 219.54 81.8008Z" fill="#407BFF"/>
<path d="M210.66 81.3618C211.191 70.6134 205.435 61.5943 197.803 61.217C190.171 60.8398 183.554 69.2472 183.023 79.9956C182.491 90.7439 188.247 99.763 195.879 100.14C203.511 100.518 210.129 92.1101 210.66 81.3618Z" fill="white"/>
<path d="M202.976 79.5755C203.305 84.3501 200.822 88.6737 197.427 89.2944C194.032 89.9151 191.024 86.5782 190.7 81.8302C190.377 77.0822 192.854 72.732 196.244 72.106C199.634 71.48 202.647 74.801 202.976 79.5755Z" fill="#407BFF"/>
<path opacity="0.4" d="M237.205 82.674C238.757 51.2863 221.943 24.9482 199.65 23.8462C177.358 22.7442 158.028 47.2957 156.476 78.6834C154.925 110.071 171.739 136.409 194.031 137.511C216.324 138.613 235.654 114.062 237.205 82.674Z" fill="white"/>
<path d="M158.744 205.836C158.927 201.201 158.863 196.559 158.553 191.931C157.87 182.386 156.413 172.912 154.198 163.602C152.983 158.361 151.487 153.204 149.927 148.058C149.879 147.899 149.635 147.947 149.678 148.106C154.495 166.255 158.452 184.987 158.166 203.851C158.092 209.156 157.482 214.318 156.978 219.565C156.978 219.708 157.195 219.761 157.227 219.618C158.235 215.151 158.558 210.446 158.744 205.836Z" fill="#407BFF"/>
<path d="M149.677 148.127C149.677 148.127 142.372 166.663 144.006 171.019C145.64 175.374 149.014 176.324 149.014 176.324C149.014 176.324 144.547 182.69 147.666 188.684C150.786 194.679 157.746 194.387 158.186 201.167C158.186 201.146 158.573 172.785 149.677 148.127Z" fill="#407BFF"/>
<path d="M157.396 189.438C157.406 189.405 157.406 189.37 157.396 189.337C156.436 176.683 154.06 164.177 150.314 152.053C150.314 152.021 150.245 152.053 150.255 152.053C151.698 157.475 152.977 162.925 154.091 168.403C153.11 167.474 151.912 166.807 150.606 166.462C150.579 166.462 150.568 166.488 150.606 166.499C151.979 167.002 153.212 167.826 154.202 168.902C154.42 169.963 154.627 171.024 154.823 172.127C153.194 170.302 150.929 169.401 148.664 168.541C148.632 168.541 148.616 168.578 148.664 168.589C151.025 169.549 153.37 170.785 154.972 172.833C155.527 175.91 156.015 178.996 156.436 182.09C155.256 180.855 153.743 179.989 152.08 179.597C152.033 179.597 152.001 179.66 152.054 179.676C153.769 180.17 155.302 181.153 156.468 182.504H156.499C156.643 183.591 156.781 184.684 156.908 185.772C155.995 185.001 154.965 184.38 153.858 183.931C153.831 183.931 153.815 183.968 153.858 183.979C154.988 184.469 156.022 185.155 156.913 186.005C156.927 186.01 156.942 186.01 156.956 186.005C157.072 187.066 157.194 188.085 157.301 189.125C155.656 187.137 153.522 185.612 151.11 184.7C151.1 184.697 151.089 184.697 151.079 184.702C151.07 184.706 151.063 184.714 151.059 184.724C151.056 184.734 151.056 184.745 151.061 184.754C151.065 184.764 151.073 184.771 151.083 184.775C153.465 185.827 155.558 187.44 157.184 189.475C157.202 189.497 157.226 189.514 157.253 189.522C157.281 189.531 157.31 189.531 157.338 189.523C157.497 191.114 157.64 192.706 157.757 194.297C157.757 194.297 157.794 194.324 157.794 194.297C157.64 192.711 157.555 191.072 157.396 189.438Z" fill="#263238"/>
<path d="M151.529 164.637C150.207 163.815 148.697 163.343 147.142 163.268C147.135 163.268 147.128 163.271 147.123 163.276C147.118 163.281 147.115 163.287 147.115 163.294C147.115 163.301 147.118 163.308 147.123 163.313C147.128 163.318 147.135 163.321 147.142 163.321C148.644 163.603 150.102 164.079 151.481 164.737C151.534 164.764 151.582 164.674 151.529 164.637Z" fill="#263238"/>
<path d="M152.415 184.26C151.399 183.677 150.281 183.294 149.121 183.13C149.078 183.13 149.078 183.188 149.121 183.194C150.254 183.42 151.351 183.804 152.378 184.334C152.42 184.355 152.458 184.281 152.415 184.26Z" fill="#263238"/>
<path d="M177.937 171.321C174.851 173.456 172.016 175.933 169.486 178.705C166.88 181.642 164.868 185.056 163.561 188.758C160.787 196.478 159.296 204.6 159.147 212.801C159.051 217.342 159.487 221.879 160.447 226.318C160.453 226.352 160.472 226.382 160.501 226.401C160.529 226.421 160.564 226.428 160.598 226.422C160.632 226.415 160.661 226.396 160.681 226.367C160.7 226.339 160.708 226.304 160.701 226.27C159.506 218.436 159.551 210.462 160.834 202.642C162.086 194.971 164.059 186.631 168.929 180.398C171.582 177.008 174.892 174.339 178.165 171.581C178.335 171.432 178.118 171.193 177.937 171.321Z" fill="#407BFF"/>
<path d="M160.208 207.279C161.967 204.435 164.034 201.795 166.372 199.406C170.022 195.751 173.099 193.157 173.577 190.743C174.054 188.329 169.916 186.546 169.916 186.546C169.916 186.546 174.972 187.454 176.351 185.332C177.731 183.21 178.404 170.923 178.404 170.923C178.404 170.923 169.227 177.491 164.935 186.695C160.643 195.899 160.208 207.279 160.208 207.279Z" fill="#407BFF"/>
<path d="M175.131 182.451C174.525 182.363 173.912 182.342 173.301 182.387C173.287 182.391 173.274 182.4 173.265 182.412C173.256 182.424 173.251 182.439 173.251 182.454C173.251 182.469 173.256 182.483 173.265 182.495C173.274 182.507 173.287 182.516 173.301 182.52C173.906 182.52 174.516 182.488 175.121 182.52C175.128 182.518 175.135 182.515 175.14 182.509C175.145 182.504 175.149 182.497 175.15 182.489C175.151 182.482 175.15 182.474 175.147 182.467C175.143 182.46 175.138 182.455 175.131 182.451Z" fill="#263238"/>
<path d="M168.511 194.371C167.541 194.395 166.582 194.587 165.678 194.939C165.678 194.939 165.678 194.987 165.678 194.981C166.617 194.759 167.561 194.668 168.511 194.509C168.529 194.509 168.546 194.502 168.559 194.489C168.572 194.476 168.58 194.459 168.58 194.44C168.58 194.422 168.572 194.404 168.559 194.392C168.546 194.379 168.529 194.371 168.511 194.371Z" fill="#263238"/>
<path d="M166.526 190.254C166.122 190.25 165.719 190.286 165.322 190.36C165.285 190.36 165.285 190.435 165.322 190.435C165.724 190.455 166.128 190.436 166.526 190.376C166.6 190.366 166.6 190.254 166.526 190.254Z" fill="#263238"/>
<path d="M133.263 184.361C136.256 185.374 139.123 186.725 141.81 188.387C144.599 190.159 147.016 192.457 148.929 195.151C152.967 200.755 156.06 206.982 158.086 213.586C159.21 217.24 159.906 221.013 160.16 224.827C160.154 224.852 160.141 224.874 160.121 224.89C160.101 224.906 160.076 224.915 160.051 224.915C160.026 224.915 160.001 224.906 159.981 224.89C159.962 224.874 159.948 224.852 159.942 224.827C159.095 218.209 157.215 211.765 154.372 205.729C151.582 199.814 148.064 193.528 142.701 189.602C139.767 187.48 136.473 186.074 133.189 184.599C132.966 184.541 133.088 184.302 133.263 184.361Z" fill="#407BFF"/>
<path d="M155.916 209.363C153.836 207.47 151.554 205.812 149.11 204.419C145.306 202.297 142.213 200.918 141.274 199.072C140.335 197.225 143.269 194.828 143.269 194.828C143.269 194.828 139.386 196.727 137.778 195.332C136.171 193.936 132.786 184.143 132.786 184.143C132.786 184.143 141.746 187.326 147.343 193.793C152.94 200.26 155.916 209.363 155.916 209.363Z" fill="#407BFF"/>
<path d="M140.659 190.117C140.258 190.089 139.855 190.112 139.46 190.186C139.45 190.186 139.441 190.19 139.434 190.197C139.427 190.204 139.423 190.213 139.423 190.223C139.423 190.233 139.427 190.242 139.434 190.249C139.441 190.256 139.45 190.26 139.46 190.26C139.853 190.218 140.24 190.233 140.638 190.223C140.652 190.226 140.666 190.223 140.678 190.215C140.69 190.207 140.699 190.194 140.701 190.18C140.704 190.166 140.701 190.152 140.693 190.14C140.685 190.128 140.673 190.12 140.659 190.117Z" fill="#263238"/>
<path d="M167.471 237.178H147.248L150.129 216.053L150.866 210.642H163.848L164.585 216.053L167.471 237.178Z" fill="#455A64"/>
<path d="M164.584 216.053H150.128L150.865 210.642H163.847L164.584 216.053Z" fill="#263238"/>
<path d="M165.704 208.759H149.009V213.347H165.704V208.759Z" fill="#455A64"/>
<path d="M166.016 69.4816L25.3145 77.7422L26.8035 103.104L167.505 94.8437L166.016 69.4816Z" fill="#407BFF"/>
<path d="M165.607 62.5464L167.91 101.772L196.414 80.4191L165.607 62.5464Z" fill="#407BFF"/>
<g opacity="0.5">
<path d="M196.414 80.4191L167.91 101.767L167.502 94.8435L26.8013 103.103L25.3105 77.74L166.011 69.4801L165.602 62.5464L196.414 80.4191Z" fill="white"/>
<path d="M25.5547 104.509L23.9102 76.4987L164.605 68.2387L164.138 60.1697L198.817 80.2811L166.727 104.313L166.255 96.2493L25.5547 104.509ZM26.7112 78.992L28.0481 101.708L168.748 93.4376L169.088 99.2254L194.022 80.557L167.072 64.9337L167.411 70.7268L26.7112 78.992Z" fill="#407BFF"/>
</g>
<path d="M96.9866 210.324C96.9866 210.324 96.4561 231.337 96.4561 231.353C96.4561 235.236 96.5515 238.642 96.7584 240.371V240.403C96.7654 240.82 96.865 241.229 97.0502 241.602C98.212 242.382 129.257 243.194 130.35 242.854C131.443 242.515 130.567 239.374 129.39 238.382C128.212 237.39 116.472 231.83 116.472 231.83L116.811 210.828L96.9866 210.324Z" fill="#EB9481"/>
<path d="M96.4189 227.183C96.4189 227.183 96.4561 231.337 96.4508 231.353C96.4508 235.236 96.5463 238.642 96.7532 240.371V240.403C96.8058 240.812 96.9037 241.214 97.0449 241.602C98.2067 242.382 129.252 243.193 130.345 242.854C131.438 242.514 130.562 239.374 129.384 238.382C128.207 237.39 116.472 231.83 116.472 231.83V227.586L96.4189 227.183Z" fill="white"/>
<path d="M118.371 231.83C116.307 231.491 113.793 231.862 112.249 233.363C112.191 233.422 112.276 233.501 112.339 233.48C114.295 232.803 116.317 232.337 118.371 232.09C118.401 232.084 118.428 232.068 118.447 232.044C118.467 232.02 118.477 231.991 118.477 231.96C118.477 231.93 118.467 231.9 118.447 231.876C118.428 231.852 118.401 231.836 118.371 231.83Z" fill="#263238"/>
<path d="M119.889 232.69C117.82 232.35 115.31 232.721 113.767 234.217C113.708 234.276 113.793 234.361 113.857 234.339C115.812 233.662 117.834 233.196 119.889 232.95C119.919 232.943 119.946 232.927 119.965 232.904C119.984 232.88 119.995 232.85 119.995 232.82C119.995 232.789 119.984 232.759 119.965 232.736C119.946 232.712 119.919 232.696 119.889 232.69Z" fill="#263238"/>
<path d="M121.385 233.554C119.316 233.215 116.806 233.581 115.263 235.082C115.204 235.141 115.263 235.225 115.353 235.204C117.306 234.527 119.327 234.061 121.379 233.814C121.41 233.809 121.437 233.793 121.457 233.77C121.477 233.747 121.488 233.717 121.488 233.687C121.489 233.656 121.479 233.626 121.46 233.602C121.441 233.578 121.415 233.561 121.385 233.554Z" fill="#263238"/>
<path d="M130.366 242.902C129.273 243.236 98.2279 242.43 97.0661 241.65C96.6205 241.363 96.472 236.833 96.4561 231.353V231.178L116.488 231.475V231.814C116.488 231.814 128.233 237.438 129.422 238.435C130.61 239.432 131.459 242.568 130.366 242.902Z" fill="#37474F"/>
<path d="M96.4512 231.178V231.353C96.4777 236.833 96.6209 241.363 97.0666 241.65C97.5971 242.005 104.324 242.366 111.592 242.626C120.297 242.934 129.772 243.088 130.366 242.902C131.459 242.568 130.578 239.422 129.406 238.43C128.234 237.438 116.472 231.83 116.472 231.83V231.496L109.809 231.379L96.4512 231.178Z" fill="#407BFF"/>
<path d="M130.043 241.687C124.817 241.422 103.698 240.849 98.5094 240.987C98.4669 240.987 98.4669 241.019 98.5094 241.019C103.687 241.395 124.806 241.798 130.043 241.772C130.154 241.772 130.154 241.692 130.043 241.687Z" fill="#263238"/>
<path opacity="0.1" d="M109.81 231.379C110.298 234.732 111.046 239.676 111.592 242.626C120.298 242.934 129.772 243.088 130.367 242.902C131.459 242.568 130.579 239.422 129.406 238.43C128.234 237.438 116.473 231.83 116.473 231.83V231.496L109.81 231.379Z" fill="black"/>
<path d="M94.6475 231.464L117.114 231.682C117.114 231.682 118.388 195.077 118.483 182.907C118.594 168.971 117.804 127.204 117.804 127.204H101.008C101.008 127.204 96.5042 136.419 99.0772 146.78L99.788 184.069L94.6475 231.464Z" fill="#263238"/>
<path d="M96.3127 227.533C96.9057 227.453 97.5024 227.405 98.1005 227.39C98.7636 227.342 99.4268 227.294 100.09 227.268C101.368 227.209 102.647 227.188 103.925 227.183C106.509 227.183 109.087 227.183 111.666 227.273C113.135 227.321 114.599 227.379 116.063 227.464C116.122 227.464 116.116 227.554 116.063 227.554C113.506 227.65 110.944 227.687 108.387 227.74C105.83 227.793 103.273 227.835 100.721 227.788C99.9838 227.788 99.2517 227.788 98.5196 227.724C97.7875 227.66 97.0395 227.724 96.3233 227.618C96.2809 227.613 96.2597 227.544 96.3127 227.533Z" fill="#37474F"/>
<path d="M115.496 207.342C115.756 201.294 115.953 195.241 116.117 189.194C116.446 177.088 116.533 164.98 116.377 152.87C116.292 146.08 116.112 139.289 115.91 132.499C115.91 132.419 116.021 132.424 116.027 132.499C116.669 144.653 116.918 156.833 116.929 169.003C116.939 181.172 116.706 193.225 116.09 205.305C115.756 212.09 115.342 218.886 114.706 225.65C114.706 225.708 114.61 225.708 114.61 225.65C114.886 219.554 115.231 213.454 115.496 207.342Z" fill="#37474F"/>
<path d="M121.019 213.66C121.019 213.66 121.188 233.973 121.188 233.989C121.188 237.873 121.278 241.278 121.485 243.034C121.482 243.043 121.482 243.052 121.485 243.061C121.486 243.478 121.586 243.889 121.777 244.26C121.775 244.269 121.775 244.278 121.777 244.286C122.934 245.066 153.979 245.878 155.072 245.533C156.164 245.188 155.294 242.058 154.111 241.066C152.928 240.074 141.178 234.451 141.178 234.451L140.817 214.149L121.019 213.66Z" fill="#EB9481"/>
<path d="M121.151 229.814C121.151 229.814 121.188 233.973 121.188 233.989C121.188 237.873 121.279 241.279 121.486 243.034C121.482 243.043 121.482 243.052 121.486 243.061C121.535 243.471 121.633 243.873 121.777 244.26C121.775 244.269 121.775 244.278 121.777 244.286C122.934 245.066 153.979 245.878 155.072 245.533C156.165 245.188 155.295 242.058 154.112 241.066C152.929 240.074 141.178 234.451 141.178 234.451L141.204 230.207L121.151 229.814Z" fill="white"/>
<path d="M143.109 234.483C141.04 234.143 138.531 234.509 136.987 236.011C136.929 236.069 136.987 236.154 137.077 236.133C139.031 235.455 141.051 234.989 143.104 234.743C143.134 234.737 143.161 234.721 143.181 234.698C143.201 234.675 143.212 234.645 143.213 234.615C143.214 234.584 143.204 234.554 143.185 234.53C143.166 234.506 143.139 234.489 143.109 234.483Z" fill="#263238"/>
<path d="M144.615 235.326C142.546 234.987 140.037 235.353 138.493 236.854C138.435 236.913 138.493 236.997 138.583 236.976C140.537 236.299 142.557 235.833 144.61 235.586C144.64 235.581 144.667 235.565 144.687 235.542C144.707 235.518 144.718 235.489 144.719 235.458C144.719 235.428 144.71 235.398 144.691 235.374C144.672 235.35 144.645 235.333 144.615 235.326Z" fill="#263238"/>
<path d="M146.122 236.191C144.053 235.851 141.539 236.191 140 237.719C139.937 237.777 140 237.862 140.091 237.841C142.044 237.163 144.064 236.697 146.117 236.451C146.147 236.445 146.175 236.43 146.194 236.406C146.214 236.383 146.225 236.354 146.226 236.323C146.227 236.293 146.217 236.263 146.198 236.239C146.179 236.214 146.152 236.198 146.122 236.191Z" fill="#263238"/>
<path d="M155.098 245.533C154.005 245.873 122.966 245.066 121.804 244.286C121.358 243.995 121.21 239.464 121.188 233.989C121.188 233.931 121.188 233.873 121.188 233.814L141.22 234.111V234.451C141.22 234.451 152.96 240.074 154.149 241.066C155.337 242.058 156.196 245.204 155.098 245.533Z" fill="#407BFF"/>
<path d="M154.78 244.324C149.549 244.058 128.435 243.485 123.242 243.623C123.205 243.623 123.199 243.623 123.242 243.655C128.42 244.032 149.544 244.43 154.78 244.408C154.902 244.408 154.902 244.329 154.78 244.324Z" fill="#263238"/>
<path d="M110.753 148.679C110.753 148.679 119.968 177.729 120.138 183.066C120.276 187.618 119.698 234.324 119.698 234.324L143.04 234.462C143.04 234.462 141.072 186.833 140.706 182.09C140.027 173.22 132.255 148.87 126.7 127.178H101.533C101.533 127.178 101.751 138.541 106.918 146.753C106.918 146.753 109.279 147.836 110.753 148.679Z" fill="#263238"/>
<path d="M120.95 230.021C123.644 229.942 126.44 229.862 129.135 229.931C131.83 230 134.493 230.037 137.162 230.196C138.674 230.286 140.186 230.34 141.698 230.488C141.745 230.488 141.745 230.568 141.698 230.568C139.003 230.727 136.297 230.695 133.602 230.668C130.907 230.642 128.249 230.615 125.576 230.493C124.058 230.424 122.552 230.35 121.04 230.244C120.859 230.239 120.774 230.027 120.95 230.021Z" fill="#37474F"/>
<path d="M123.926 132.053C124.759 134.828 135.066 172.902 136.127 178.43C137.188 183.958 138.626 220.255 138.525 226.074C138.525 226.796 138.499 227.517 138.472 228.239C138.472 228.253 138.466 228.266 138.457 228.276C138.447 228.286 138.433 228.292 138.419 228.292C138.405 228.292 138.391 228.286 138.381 228.276C138.372 228.266 138.366 228.253 138.366 228.239C138.207 222.456 136.663 184.366 135.671 178.695C134.743 173.125 124.472 135.279 123.756 132.095C123.756 132.075 123.763 132.056 123.775 132.04C123.787 132.024 123.805 132.013 123.824 132.008C123.844 132.003 123.864 132.005 123.883 132.013C123.901 132.021 123.916 132.035 123.926 132.053Z" fill="#37474F"/>
<path d="M116.526 149.241C115.364 149.233 114.205 149.128 113.061 148.928C111.927 148.682 110.806 148.375 109.703 148.011C108.617 147.765 107.517 147.588 106.409 147.48C105.293 147.318 104.206 146.994 103.183 146.52C103.136 146.52 103.098 146.568 103.146 146.589C104.137 147.124 105.172 147.573 106.239 147.931C107.343 148.281 108.499 148.329 109.624 148.605C110.757 148.942 111.911 149.208 113.077 149.401C114.228 149.541 115.392 149.52 116.536 149.337C116.584 149.31 116.568 149.241 116.526 149.241Z" fill="#37474F"/>
<path d="M117.995 172.35C117.772 171.485 117.565 170.626 117.332 169.766C116.86 168.032 116.382 166.297 115.857 164.578C114.796 161.162 113.83 157.724 112.732 154.329C112.106 152.398 111.544 150.451 110.812 148.557C110.808 148.547 110.801 148.539 110.792 148.535C110.782 148.53 110.771 148.53 110.762 148.533C110.752 148.537 110.744 148.544 110.739 148.553C110.735 148.563 110.734 148.574 110.738 148.583C111.109 150.345 111.629 152.069 112.096 153.804C112.563 155.538 113.061 157.268 113.565 158.997C114.557 162.424 115.533 165.862 116.621 169.268C116.922 170.223 117.236 171.174 117.565 172.122C117.899 173.087 118.165 174.085 118.568 175.024C118.594 175.077 118.663 175.056 118.653 175.024C118.499 174.106 118.223 173.231 117.995 172.35Z" fill="#37474F"/>
<path d="M120.753 99.0398C119.066 99.2626 116.159 96.2122 115.252 94.0531C115.416 92.9144 115.637 91.7848 115.915 90.6685C116.133 89.6075 116.345 88.3714 116.446 87.252L123.294 89.6817C122.75 91.0457 122.374 92.4709 122.175 93.9258C122.164 94.0794 122.164 94.2336 122.175 94.3873C122.175 94.3873 122.175 94.435 122.175 94.4669C122.249 95.3422 122.387 98.8276 120.753 99.0398Z" fill="#EB9481"/>
<path d="M115.321 93.496C118.918 94.7056 121.523 92.6791 122.711 91.4377C123.003 90.4297 123.311 89.6817 123.311 89.6817L116.462 87.252C116.345 88.3714 116.133 89.5862 115.931 90.6685C115.677 91.8568 115.433 92.8913 115.321 93.496Z" fill="#263238"/>
<path d="M125.433 78.9973C126.287 81.4695 125.231 88.748 123.507 90.4244C121.013 92.8594 116.796 93.2361 114.695 90.2069C112.663 87.2679 114.207 77.809 116.143 76.2705C118.992 74.0053 124.17 75.3315 125.433 78.9973Z" fill="#EB9481"/>
<path d="M118.266 83.6287C118.266 83.6287 118.303 83.6552 118.298 83.6764C118.218 84.1645 118.213 84.7374 118.637 84.9602C118.096 84.8435 118.112 84.0796 118.266 83.6287Z" fill="#263238"/>
<path d="M118.77 83.1724C119.571 83.2095 119.427 84.8063 118.69 84.7639C117.953 84.7215 118.101 83.1353 118.77 83.1724Z" fill="#263238"/>
<path d="M115.496 83.3793C115.496 83.3793 115.453 83.3793 115.453 83.4165C115.453 83.9151 115.31 84.4775 114.849 84.5995V84.6313C115.4 84.5995 115.549 83.8515 115.496 83.3793Z" fill="#263238"/>
<path d="M115.114 82.8222C114.324 82.6949 114.127 84.2811 114.854 84.4137C115.581 84.5463 115.761 82.9336 115.114 82.8222Z" fill="#263238"/>
<path d="M119.464 82.4987C119.252 82.4244 119.066 82.3183 118.865 82.2281C118.663 82.138 118.44 82.0584 118.334 81.8303C118.303 81.7625 118.295 81.6863 118.311 81.6134C118.327 81.5405 118.367 81.475 118.424 81.4271C118.553 81.3526 118.7 81.3134 118.849 81.3134C118.998 81.3134 119.144 81.3526 119.273 81.4271C119.559 81.5361 119.794 81.748 119.931 82.0212C119.959 82.087 119.968 82.1597 119.955 82.2301C119.942 82.3005 119.908 82.3655 119.858 82.4167C119.808 82.4679 119.744 82.503 119.674 82.5176C119.603 82.5322 119.531 82.5256 119.464 82.4987Z" fill="#263238"/>
<path d="M114.552 81.9681C114.775 81.9681 114.982 81.8992 115.199 81.862C115.433 81.8522 115.658 81.7686 115.841 81.6233C115.886 81.5636 115.91 81.491 115.91 81.4164C115.91 81.3418 115.886 81.2692 115.841 81.2095C115.738 81.1023 115.607 81.0246 115.464 80.9845C115.32 80.9444 115.168 80.9433 115.024 80.9814C114.718 81.0126 114.435 81.1562 114.228 81.3846C114.184 81.4404 114.157 81.5083 114.151 81.5796C114.145 81.6508 114.16 81.7223 114.195 81.7848C114.229 81.8473 114.282 81.8981 114.345 81.9308C114.409 81.9634 114.481 81.9764 114.552 81.9681Z" fill="#263238"/>
<path d="M118.399 88.1592C118.271 88.2653 118.139 88.4138 117.958 88.4138C117.771 88.3969 117.59 88.3389 117.428 88.2441C117.489 88.348 117.578 88.4331 117.685 88.4901C117.792 88.5472 117.912 88.574 118.033 88.5677C118.135 88.5495 118.23 88.5016 118.305 88.4299C118.381 88.3582 118.434 88.2659 118.457 88.1645C118.457 88.1645 118.414 88.1433 118.399 88.1592Z" fill="#263238"/>
<path d="M118.005 86.6365C117.864 86.8209 117.686 86.9737 117.482 87.0852C117.279 87.1967 117.054 87.2643 116.822 87.2837C116.62 87.3131 116.415 87.3131 116.212 87.2837L116.101 87.2572L115.989 87.2307C115.965 87.2228 115.943 87.2072 115.928 87.1862C115.913 87.1652 115.904 87.1399 115.905 87.114C115.902 87.0982 115.902 87.082 115.905 87.0662V87.0026C115.931 86.6206 116.016 86.0477 116.016 86.0477C115.873 86.106 115.135 86.3607 115.162 86.1644C115.359 84.4555 115.727 82.7707 116.26 81.1352C116.263 81.1258 116.269 81.1177 116.277 81.112C116.285 81.1062 116.295 81.1031 116.305 81.1031C116.315 81.1031 116.325 81.1062 116.333 81.112C116.341 81.1177 116.347 81.1258 116.35 81.1352C116.18 82.7267 115.735 84.2546 115.538 85.8408C115.799 85.7434 116.073 85.6844 116.35 85.6657C116.403 85.6657 116.164 86.7745 116.164 86.9442C116.473 87.0025 116.791 86.9982 117.098 86.9317C117.405 86.8652 117.695 86.7377 117.952 86.557C118.005 86.5623 118.037 86.5994 118.005 86.6365Z" fill="#263238"/>
<path d="M116.456 87.0875C116.641 87.3766 116.897 87.6139 117.199 87.7772C117.363 87.8575 117.548 87.8853 117.729 87.8567C118.132 87.7878 118.175 87.427 118.127 87.114C118.101 86.9453 118.056 86.7798 117.995 86.6207C117.543 86.934 117.005 87.0973 116.456 87.0875Z" fill="#263238"/>
<path d="M117.199 87.7771C117.364 87.8575 117.549 87.8852 117.73 87.8567C118.133 87.7877 118.175 87.4269 118.128 87.1139C117.921 87.1045 117.717 87.1647 117.549 87.2849C117.38 87.4052 117.257 87.5785 117.199 87.7771Z" fill="#FF98B9"/>
<path d="M123.534 83.8196C123.136 82.3077 124.155 79.8939 123.46 79.183C121.964 77.6392 118.505 80.1644 116.261 80.0265C114.017 79.8886 113.454 78.435 113.969 76.7002C114.483 74.9655 116.064 73.8833 118.531 73.687C120.678 73.5878 122.792 74.2448 124.505 75.5437C124.505 75.5437 124.017 74.626 124.245 74.366C124.473 74.1061 125.476 75.0292 125.773 75.427C125.989 75.75 126.146 76.1094 126.234 76.488C126.563 76.4294 126.899 76.4186 127.231 76.4562C127.713 76.5248 128.156 76.7593 128.483 77.1193C128.515 77.2573 127.714 77.2997 127.157 77.2891C127.157 77.2891 128.096 78.7374 127.995 79.9098C127.895 81.0822 125.677 86.5411 125.237 86.5729C124.664 86.5941 123.698 84.4138 123.534 83.8196Z" fill="#263238"/>
<path d="M126.955 77.1194C126.955 77.1194 126.907 77.1194 126.923 77.1194C127.433 77.5906 127.801 78.1952 127.984 78.8647C128.155 79.6711 128.105 80.5085 127.841 81.2891C127.309 82.7725 126.621 84.1952 125.788 85.5332C125.785 85.5377 125.784 85.5427 125.783 85.5478C125.783 85.5529 125.783 85.5581 125.785 85.563C125.786 85.5679 125.789 85.5725 125.792 85.5765C125.795 85.5805 125.799 85.5838 125.804 85.5862C125.808 85.5887 125.813 85.5902 125.818 85.5907C125.824 85.5912 125.829 85.5907 125.834 85.5893C125.839 85.5878 125.843 85.5853 125.847 85.5821C125.851 85.5788 125.854 85.5748 125.857 85.5703C126.831 84.1713 127.579 82.6283 128.074 80.9974C128.424 79.6393 128.212 77.9841 126.955 77.1194Z" fill="#263238"/>
<path d="M123.602 78.5942C122.947 78.4721 122.274 78.4721 121.618 78.5942C121.009 78.7623 120.423 79.0046 119.873 79.3156C118.613 79.9716 117.193 80.2585 115.777 80.1432V80.1698C117.066 80.3721 118.386 80.1875 119.57 79.6392C120.158 79.3326 120.764 79.0633 121.385 78.8329C122.108 78.6809 122.852 78.6451 123.586 78.7268C123.595 78.7278 123.604 78.7272 123.612 78.7248C123.621 78.7224 123.629 78.7184 123.636 78.713C123.642 78.7076 123.648 78.7009 123.653 78.6932C123.657 78.6856 123.66 78.6771 123.661 78.6684C123.662 78.6597 123.661 78.6509 123.659 78.6425C123.656 78.634 123.652 78.6261 123.647 78.6192C123.641 78.6123 123.635 78.6065 123.627 78.6023C123.619 78.598 123.611 78.5952 123.602 78.5942Z" fill="#263238"/>
<path d="M123.209 74.8011C122.359 74.2994 121.441 73.9241 120.483 73.687C119.571 73.4261 118.622 73.3274 117.676 73.3952C116.048 73.5438 114.493 74.4562 114.005 76.1008C113.739 76.934 113.794 77.8365 114.159 78.6313C114.165 78.6397 114.175 78.6457 114.185 78.6484C114.195 78.651 114.206 78.6501 114.216 78.6459C114.226 78.6416 114.234 78.6342 114.239 78.6248C114.244 78.6155 114.246 78.6047 114.244 78.5942C113.95 77.8654 113.9 77.061 114.102 76.3016C114.304 75.5422 114.746 74.8687 115.363 74.382C116.764 73.321 118.62 73.3634 120.254 73.74C121.272 73.9904 122.26 74.346 123.204 74.8011C123.204 74.8011 123.215 74.8011 123.209 74.8011Z" fill="#263238"/>
<path d="M124.016 84.9443C124.016 84.9443 125.608 82.5782 126.669 83.1459C127.73 83.7135 126.568 87.1193 125.326 87.6074C125.172 87.6802 125.004 87.7211 124.834 87.7275C124.663 87.734 124.493 87.7059 124.333 87.645C124.174 87.584 124.028 87.4915 123.905 87.3729C123.782 87.2543 123.685 87.1121 123.618 86.9549L124.016 84.9443Z" fill="#EB9481"/>
<path d="M97.1245 132.95C97.1935 133.04 129.485 135.963 129.814 135.655C130.265 135.225 128.339 102.912 122.573 96.313C121.156 94.6843 116.143 92.7321 114.493 93.7453C110.212 96.3979 107.57 102.345 105.878 105.809C104.621 108.377 103.008 112.796 101.512 117.337C99.045 124.822 96.8858 132.626 97.1245 132.95Z" fill="#407BFF"/>
<path d="M116.605 103.247C116.692 103.797 116.856 104.333 117.093 104.838C117.321 105.346 117.617 105.821 117.973 106.249C117.889 105.698 117.725 105.162 117.485 104.658C117.257 104.15 116.961 103.675 116.605 103.247ZM122.037 124.408C122.125 124.96 122.291 125.496 122.53 126C122.753 126.513 123.05 126.99 123.411 127.416C123.225 126.312 122.751 125.276 122.037 124.414V124.408ZM108.626 123.395C108.713 123.947 108.879 124.483 109.119 124.987C109.341 125.5 109.64 125.975 110.005 126.398C109.918 125.846 109.75 125.31 109.506 124.806C109.281 124.297 108.985 123.821 108.626 123.395ZM99.4375 130.069C100.539 129.877 101.572 129.402 102.435 128.69C101.332 128.878 100.298 129.354 99.4375 130.069ZM121.31 113.326C121.861 113.239 122.397 113.075 122.902 112.838C123.412 112.613 123.888 112.314 124.313 111.952C123.762 112.04 123.226 112.206 122.721 112.446C122.21 112.669 121.735 112.965 121.31 113.326ZM112.642 96.9602C113.193 96.8732 113.728 96.7089 114.233 96.4721C114.745 96.2463 115.222 95.9479 115.65 95.5862C114.548 95.7803 113.514 96.2533 112.647 96.9602H112.642ZM121.867 99.3687C122.193 98.9177 122.454 98.423 122.642 97.8992C122.775 97.5369 122.878 97.1643 122.949 96.7851L122.801 96.5835C122.574 96.9506 122.386 97.3399 122.239 97.7453C122.036 98.2654 121.911 98.8123 121.867 99.3687ZM108.992 112.631C109.318 112.178 109.579 111.682 109.766 111.156C109.967 110.638 110.092 110.093 110.138 109.538C109.813 109.99 109.552 110.485 109.363 111.008C109.162 111.532 109.037 112.082 108.992 112.642V112.631ZM106.981 133.851L107.284 133.878C107.328 133.67 107.356 133.459 107.369 133.247C107.221 133.449 107.092 133.664 106.981 133.889V133.851ZM126.939 135.098C127.265 134.647 127.526 134.152 127.713 133.629C127.916 133.109 128.041 132.562 128.085 132.005C127.442 132.92 127.047 133.985 126.939 135.098ZM101.162 118.403C101.289 118.463 101.416 118.516 101.544 118.562C102.064 118.762 102.611 118.887 103.167 118.934C102.715 118.607 102.218 118.348 101.692 118.164L101.289 118.027L101.162 118.403ZM114.774 131.231C115.688 131.876 116.754 132.271 117.867 132.377C117.416 132.052 116.921 131.793 116.398 131.607C115.878 131.404 115.331 131.277 114.774 131.231ZM113.713 118.499C114.166 118.826 114.662 119.086 115.188 119.273C115.698 119.473 116.234 119.598 116.78 119.645C115.866 118.999 114.8 118.604 113.687 118.499H113.713ZM125.273 104.361C125.543 104.568 125.835 104.746 126.143 104.891C126.111 104.753 126.074 104.621 126.042 104.483C125.784 104.423 125.522 104.386 125.257 104.371L125.273 104.361ZM107.894 101.777C108.356 101.947 108.84 102.051 109.331 102.085C108.952 101.804 108.536 101.575 108.095 101.406L107.894 101.777Z" fill="white"/>
<path d="M119.74 101.395C128.021 103.363 140.913 105.31 145.157 102.626C147.326 101.252 152.366 89.2202 153.772 82.4669C154.138 80.7109 139.735 78.2494 139.279 80.1061C138.663 82.6101 137.22 90.504 136.509 91.7454C136.101 92.4563 126.96 93.5173 119.597 94.6844C110.96 96.0637 113.019 99.7984 119.74 101.395Z" fill="#EB9481"/>
<path d="M141.639 64.8753C141.988 64.91 142.322 65.0303 142.613 65.2256C142.904 65.4209 143.141 65.6852 143.305 65.9947C143.734 65.4529 144.338 65.0776 145.013 64.9337C146.218 64.7268 147.066 66.5252 147.066 66.5252C147.628 66.0515 148.32 65.7576 149.051 65.6817C150.223 65.6021 151.342 67.2732 151.342 67.2732C151.713 67.157 152.106 67.1286 152.49 67.1903C152.874 67.252 153.239 67.402 153.555 67.6286C155.788 69.5013 155.088 79.7241 153.295 83.8037L139.655 81.7454C139.655 81.7454 137.825 74.0424 138.127 71.6658C138.372 69.7082 139.517 64.6737 141.639 64.8753Z" fill="#EB9481"/>
<path d="M143.231 66.0265C142.534 68.1082 142.094 70.2675 141.921 72.4562C141.921 72.504 141.99 72.5146 141.995 72.4562C142.218 70.3342 143.024 68.1697 143.332 66.0424C143.359 65.9947 143.268 65.9735 143.231 66.0265Z" fill="#263238"/>
<path d="M146.891 66.5623C146.758 67.0443 146.69 67.5422 146.69 68.0424C146.653 68.5729 146.631 69.1034 146.61 69.6339C146.578 70.695 146.57 71.756 146.584 72.817C146.584 72.8647 146.658 72.8753 146.663 72.817C146.695 71.756 146.748 70.695 146.833 69.6339C146.87 69.1034 146.918 68.5729 146.966 68.0424C147.044 67.5497 147.067 67.0496 147.035 66.5517C147.029 66.5362 147.019 66.5229 147.005 66.5139C146.992 66.5049 146.975 66.5006 146.959 66.5019C146.943 66.5031 146.927 66.5096 146.915 66.5206C146.903 66.5315 146.894 66.5462 146.891 66.5623Z" fill="#263238"/>
<path d="M151.327 67.3316C151.215 67.7678 151.177 68.2197 151.215 68.6684C151.215 69.1512 151.215 69.634 151.215 70.1167C151.189 71.0822 151.168 72.0477 151.109 73.008C151.109 73.061 151.184 73.0663 151.184 73.008C151.247 72.0318 151.322 71.0504 151.375 70.0743C151.401 69.5915 151.428 69.1088 151.449 68.6313C151.508 68.193 151.49 67.7477 151.396 67.3157C151.396 67.3157 151.337 67.3103 151.327 67.3316Z" fill="#263238"/>
<path d="M131.321 105.247L130.79 92.2759C130.79 92.2759 121.74 92.8594 116.61 94.7427C111.48 96.626 113.225 99.4218 118.202 101.363C123.178 103.305 131.321 105.247 131.321 105.247Z" fill="#407BFF"/>
<path d="M129.193 92.9496C128.673 92.7471 128.126 92.6219 127.57 92.5782C128.022 92.9053 128.519 93.1661 129.045 93.3528C129.563 93.5548 130.108 93.6799 130.663 93.7241C130.214 93.3951 129.719 93.1341 129.193 92.9496ZM122.239 97.7241C122.038 98.2449 121.913 98.7915 121.867 99.3475C122.193 98.8946 122.454 98.3982 122.642 97.8727C122.84 97.3622 122.965 96.8265 123.013 96.2812C122.688 96.7328 122.427 97.2273 122.239 97.7507V97.7241ZM131.109 100.218C130.654 100.313 130.213 100.461 129.793 100.658C129.281 100.882 128.804 101.178 128.376 101.538C128.927 101.451 129.463 101.287 129.968 101.05C130.375 100.868 130.761 100.643 131.119 100.377L131.109 100.218ZM114.297 95.9735C114.06 96.17 113.861 96.4071 113.708 96.6737C113.883 96.6101 114.058 96.5411 114.239 96.4668C114.751 96.241 115.228 95.9426 115.655 95.5809C115.187 95.6523 114.73 95.7861 114.297 95.9788V95.9735Z" fill="white"/>
<path d="M128.462 93.0398C128.402 96.7195 128.591 100.399 129.03 104.053H129.115C129.141 101.04 128.738 95.0344 128.584 93.0398C128.589 93.0026 128.462 93.0026 128.462 93.0398Z" fill="#263238"/>
<path d="M131.253 103.618C131.337 104.149 131.385 104.679 131.454 105.241V105.411L131.269 105.374C130.133 105.135 128.998 104.907 127.873 104.631C126.749 104.355 125.624 104.069 124.51 103.751C123.396 103.432 122.282 103.103 121.189 102.721C120.096 102.34 118.998 101.958 117.932 101.485L121.295 102.366C122.414 102.658 123.534 102.95 124.648 103.252L127.995 104.164C129.109 104.462 130.218 104.806 131.332 105.119L131.173 105.252C131.215 104.706 131.215 104.164 131.253 103.618Z" fill="#263238"/>
<path d="M120.881 102.493C120.468 102.594 120.041 102.621 119.619 102.573C119.196 102.535 118.784 102.412 118.409 102.212C118.621 102.212 118.828 102.239 119.035 102.255L119.645 102.308C120.06 102.347 120.473 102.409 120.881 102.493Z" fill="#263238"/>
<path d="M41.9996 231.358C40.1746 230.371 37.7025 229.91 35.7767 230.828C35.7025 230.86 35.7767 230.966 35.8192 230.966C37.8645 230.958 39.9046 231.172 41.9041 231.602C41.9349 231.609 41.9672 231.605 41.9951 231.59C42.023 231.575 42.0447 231.55 42.0562 231.521C42.0677 231.492 42.0683 231.459 42.0579 231.429C42.0476 231.399 42.0269 231.374 41.9996 231.358Z" fill="#263238"/>
<path d="M43.1294 232.653C41.3045 231.666 38.8324 231.204 36.9066 232.122C36.8324 232.154 36.9066 232.26 36.9491 232.26C38.9977 232.25 41.0414 232.462 43.0446 232.891C43.0728 232.893 43.1008 232.885 43.1242 232.869C43.1477 232.853 43.1655 232.83 43.175 232.803C43.1845 232.777 43.1852 232.748 43.177 232.72C43.1688 232.693 43.1521 232.67 43.1294 232.653Z" fill="#263238"/>
<path d="M44.2601 233.952C42.4352 232.966 39.9631 232.504 38.0373 233.422C37.9631 233.454 38.0373 233.56 38.0851 233.56C40.1325 233.555 42.1745 233.772 44.1753 234.207C44.209 234.218 44.2459 234.216 44.2777 234.2C44.3096 234.184 44.3338 234.156 44.345 234.122C44.3563 234.088 44.3537 234.051 44.3377 234.02C44.3218 233.988 44.2939 233.964 44.2601 233.952Z" fill="#263238"/>
<path d="M45.3953 235.241C43.5651 234.255 41.0982 233.793 39.1672 234.711C39.0929 234.743 39.1672 234.849 39.215 234.849C41.2624 234.844 43.3044 235.061 45.3051 235.496C45.3389 235.508 45.376 235.506 45.4084 235.491C45.4407 235.475 45.4656 235.448 45.4776 235.414C45.4895 235.38 45.4876 235.343 45.4722 235.311C45.4567 235.278 45.4291 235.253 45.3953 235.241Z" fill="#263238"/>
<path d="M47.0291 228.016C46.6047 226.722 45.0291 226.738 43.9999 227.157C42.2469 227.914 40.7232 229.117 39.5808 230.647C39.5742 230.652 39.5689 230.659 39.5652 230.666C39.5615 230.673 39.5596 230.682 39.5596 230.69C39.5596 230.698 39.5615 230.706 39.5652 230.714C39.5689 230.721 39.5742 230.727 39.5808 230.732C39.5384 230.881 39.6179 231.082 39.8036 231.072C41.602 230.992 43.5171 231.13 45.2466 230.504C46.2704 230.138 47.4323 229.242 47.0291 228.016ZM42.5251 230.398C41.6444 230.456 40.7691 230.472 39.8726 230.568C40.7373 229.889 41.5649 229.178 42.5251 228.584C42.968 228.292 43.4306 228.031 43.9097 227.804C44.6577 227.464 47.3049 227.077 46.2757 229.098C45.7028 230.239 43.5755 230.324 42.5251 230.398Z" fill="#263238"/>
<path d="M34.8069 228.557C36.1915 229.751 38.0429 230.308 39.6928 231.019C39.7305 231.031 39.7707 231.035 39.81 231.029C39.8493 231.023 39.8867 231.007 39.9189 230.984C39.951 230.961 39.9772 230.93 39.9951 230.895C40.013 230.859 40.0221 230.82 40.0217 230.78C40.0303 230.78 40.0388 230.779 40.0465 230.775C40.0543 230.771 40.061 230.766 40.0662 230.759C40.0714 230.752 40.0749 230.745 40.0764 230.736C40.0779 230.728 40.0773 230.719 40.0748 230.711C39.5512 228.876 38.5541 227.211 37.1835 225.883C36.3719 225.119 34.9077 224.546 34.0482 225.607C33.1888 226.668 34.0005 227.857 34.8069 228.557ZM34.3772 226.891C34.1331 224.637 36.4992 225.936 37.0297 226.52C37.3934 226.906 37.7335 227.313 38.0482 227.74C38.7061 228.626 39.2313 229.586 39.7989 230.525C39.0085 230.127 38.2074 229.798 37.3904 229.432C36.4567 228.992 34.5098 228.117 34.3772 226.891Z" fill="#263238"/>
<path d="M21.5328 228.578C21.4161 229.284 21.2994 229.974 21.1933 230.642C20.493 234.934 20.0792 238.244 20.4028 238.546C21.3896 239.485 51.0076 245.443 52.1164 245.295C53.2251 245.146 52.9015 241.995 51.936 240.849C51.3471 240.154 47.2994 237.162 44.2172 234.928C42.2331 233.496 40.6522 232.366 40.6522 232.366L46.5938 213.162L26.6787 209.231C26.6787 209.231 21.745 227.443 21.5328 228.578Z" fill="#FFC4C0"/>
<path d="M52.1164 245.295C51.0076 245.427 21.3896 239.486 20.4028 238.547C20.0792 238.239 20.493 234.934 21.1933 230.642C21.2994 229.979 21.4108 229.284 21.5328 228.578C21.6018 228.18 22.2543 225.698 23.066 222.637C25.9519 223.21 37.5328 225.539 42.4453 226.525L40.6416 232.361C40.6416 232.361 42.2331 233.486 44.2066 234.923C47.2888 237.157 51.3365 240.143 51.9201 240.844C52.8962 241.995 53.2198 245.151 52.1164 245.295Z" fill="#EBEBEB"/>
<path d="M52.3605 245.486C51.6285 245.57 38.785 243.019 29.4746 240.929C27.3208 240.446 25.3579 239.984 23.777 239.592C21.5966 239.061 20.143 238.626 19.9361 238.43C19.5754 238.08 21.846 225.937 22.2438 224.531L41.9361 228.605L40.7796 232.244C40.7796 232.244 51.2094 239.756 52.2014 240.934C53.1934 242.112 53.4905 245.342 52.3605 245.486Z" fill="#407BFF"/>
<path d="M51.8987 244.127C46.843 242.971 26.3602 238.727 21.278 237.952C21.2355 237.952 21.2302 237.952 21.278 237.984C26.2541 239.257 46.774 243.321 51.8775 244.212C51.9836 244.228 51.9836 244.154 51.8987 244.127Z" fill="#263238"/>
<path d="M46.5673 223.947C46.7795 223.846 52.5514 199.072 55.1827 188.971C58.9811 174.393 62.6628 150.631 63.7662 145.682C66.0441 139.983 67.5913 134.019 68.371 127.931H44.424C44.424 127.931 38.1482 139.936 41.3736 148.424C41.6707 149.204 37.1933 179.194 34.875 184.069C32.875 188.271 23.7344 219.04 23.7344 219.04L46.5673 223.947Z" fill="#37474F"/>
<path d="M46.44 218.87C45.8564 218.658 45.2304 218.552 44.6257 218.393C44.0209 218.233 43.3471 218.069 42.7052 217.926C41.4214 217.634 40.1376 217.358 38.8538 217.077C36.2808 216.52 33.7026 216.016 31.1243 215.485C30.417 215.34 29.7096 215.203 29.0023 215.072C28.3058 214.902 27.5957 214.794 26.8803 214.748C26.8737 214.752 26.8681 214.757 26.8643 214.764C26.8604 214.77 26.8584 214.778 26.8584 214.785C26.8584 214.793 26.8604 214.8 26.8643 214.807C26.8681 214.813 26.8737 214.819 26.8803 214.822C27.4644 215.041 28.0661 215.209 28.6787 215.326C29.3153 215.485 29.9572 215.634 30.5991 215.777C31.8617 216.064 33.1243 216.355 34.3922 216.631C36.9386 217.162 39.4904 217.751 42.0474 218.271C42.7742 218.414 43.4957 218.562 44.2278 218.684C44.9599 218.806 45.6814 218.997 46.4135 219.05C46.4771 219.045 46.5461 218.907 46.44 218.87Z" fill="#263238"/>
<path d="M57.5013 144.584C57.0398 147.077 56.6578 149.586 56.2441 152.085C56.0372 153.363 55.756 154.626 55.5438 155.899C55.3316 157.172 55.1353 158.403 54.9337 159.655C54.1203 164.695 53.3157 169.733 52.5199 174.769C52.1238 177.273 51.7224 179.774 51.3157 182.271C50.942 184.734 50.4373 187.176 49.8037 189.586C49.1459 191.995 48.3714 194.361 47.634 196.753L45.3793 204.085C43.8886 208.944 44.1008 209.772 42.7639 214.695C42.5995 215.305 42.4297 215.915 42.2334 216.525C42.2329 216.539 42.2371 216.552 42.2453 216.563C42.2534 216.574 42.2651 216.581 42.2782 216.584C42.2914 216.587 42.3052 216.586 42.3174 216.58C42.3295 216.574 42.3392 216.564 42.3448 216.552C43.9947 211.735 43.7666 210.907 45.2998 206.048C46.8329 201.188 48.4032 196.371 49.8621 191.512C50.5691 189.146 51.1342 186.741 51.5544 184.308C51.9788 181.804 52.3502 179.294 52.7533 176.785C53.5456 171.749 54.3502 166.711 55.1671 161.671C55.5597 159.199 55.9947 156.722 56.3024 154.244C56.6207 151.666 57.0663 149.104 57.4483 146.536C57.5438 145.905 57.634 145.279 57.7189 144.647C57.7189 144.504 57.5279 144.446 57.5013 144.584Z" fill="#263238"/>
<path d="M78.0954 233.008C76.0529 232.616 73.5595 232.913 71.9893 234.356C71.9309 234.414 71.9893 234.499 72.0794 234.478C74.0319 233.86 76.0453 233.454 78.0847 233.268C78.1151 233.263 78.1428 233.248 78.1632 233.225C78.1836 233.202 78.1955 233.173 78.1967 233.143C78.198 233.112 78.1886 233.082 78.1701 233.057C78.1516 233.033 78.1252 233.015 78.0954 233.008Z" fill="#263238"/>
<path d="M79.57 233.905C77.5329 233.512 75.0342 233.809 73.4692 235.252C73.4056 235.31 73.4692 235.395 73.5541 235.374C75.5102 234.756 77.5271 234.351 79.57 234.164C79.6 234.158 79.6269 234.142 79.6463 234.118C79.6657 234.095 79.6763 234.065 79.6763 234.035C79.6763 234.004 79.6657 233.974 79.6463 233.951C79.6269 233.927 79.6 233.911 79.57 233.905Z" fill="#263238"/>
<path d="M81.0236 234.801C78.9865 234.409 76.4931 234.706 74.9228 236.149C74.8645 236.207 74.9228 236.292 75.013 236.271C76.9655 235.653 78.9789 235.248 81.0183 235.061C81.0485 235.056 81.0758 235.04 81.0956 235.017C81.1155 234.993 81.1267 234.964 81.1273 234.933C81.128 234.903 81.118 234.873 81.0991 234.849C81.0802 234.825 81.0535 234.808 81.0236 234.801Z" fill="#263238"/>
<path d="M82.4938 235.698C80.4567 235.305 77.958 235.602 76.393 237.045C76.3294 237.104 76.3931 237.188 76.4779 237.167C78.4306 236.55 80.4439 236.144 82.4832 235.958C82.5136 235.953 82.5413 235.938 82.5617 235.915C82.5821 235.892 82.594 235.863 82.5952 235.832C82.5965 235.801 82.5871 235.771 82.5686 235.747C82.5501 235.722 82.5237 235.705 82.4938 235.698Z" fill="#263238"/>
<path d="M81.8882 228.318C81.0924 227.21 79.5964 227.692 78.7423 228.403C77.291 229.648 76.1931 231.252 75.5593 233.056C75.5559 233.063 75.5543 233.072 75.5548 233.08C75.5552 233.088 75.5575 233.096 75.5617 233.104C75.5658 233.111 75.5716 233.117 75.5785 233.122C75.5855 233.126 75.5934 233.129 75.6017 233.13C75.6017 233.284 75.7449 233.454 75.92 233.39C77.6123 232.775 79.4903 232.329 80.9386 231.215C81.8033 230.568 82.6415 229.363 81.8882 228.318ZM78.3073 231.936C77.485 232.255 76.6521 232.536 75.8404 232.886C76.4611 231.984 77.0394 231.056 77.7503 230.234C78.0849 229.821 78.4484 229.433 78.8378 229.072C79.4479 228.541 81.8617 227.363 81.4903 229.602C81.2781 230.812 79.2887 231.549 78.3073 231.936Z" fill="#263238"/>
<path d="M70.3919 232.493C72.0683 233.22 73.9993 233.194 75.7871 233.379C75.8268 233.38 75.8661 233.371 75.9019 233.354C75.9376 233.337 75.9689 233.312 75.9931 233.28C76.0173 233.249 76.0338 233.212 76.0414 233.173C76.0489 233.134 76.0472 233.094 76.0365 233.056C76.0423 233.05 76.0469 233.044 76.05 233.036C76.0532 233.029 76.0548 233.021 76.0548 233.013C76.0548 233.005 76.0532 232.997 76.05 232.99C76.0469 232.983 76.0423 232.976 76.0365 232.971C74.9855 231.376 73.5351 230.085 71.8296 229.225C70.8269 228.748 69.2566 228.637 68.758 229.905C68.2593 231.172 69.4105 232.069 70.3919 232.493ZM69.4901 231.034C68.5829 228.955 71.2036 229.496 71.9304 229.878C72.3954 230.133 72.8421 230.42 73.2673 230.737C74.1638 231.385 74.9489 232.143 75.7712 232.859C74.9012 232.716 74.0259 232.647 73.1452 232.536C72.0895 232.414 69.9781 232.18 69.4901 231.034Z" fill="#263238"/>
<path d="M57.6603 230.658C57.6603 231.867 58.1908 243.968 58.5569 244.202C59.708 244.934 89.9202 245.019 90.9759 244.674C92.0317 244.329 91.1086 241.284 89.9149 240.35C89.2041 239.777 84.6577 237.629 81.1988 236.037C78.976 235.013 77.2041 234.218 77.2041 234.218L77.2996 230.668L77.5754 214.525H57.6285C57.6285 214.525 57.5277 222.812 57.6603 230.658Z" fill="#FFC4C0"/>
<path d="M90.9817 244.674C89.9207 245.019 59.7085 244.928 58.5626 244.202C58.1859 243.963 57.6767 231.867 57.6607 230.663C57.6607 229.862 57.6607 229.072 57.6289 228.255H77.3584L77.3159 230.663L77.2151 234.202L81.2098 236.027C84.6634 237.618 89.2098 239.777 89.926 240.345C91.109 241.284 92.0321 244.324 90.9817 244.674Z" fill="#EBEBEB"/>
<path d="M91.692 244.918C90.9918 245.151 77.8989 245.151 68.3498 244.918C66.1429 244.865 64.1058 244.796 62.5143 244.722C60.2703 244.61 58.7636 244.483 58.5196 244.324C58.0952 244.053 57.4957 231.698 57.6124 230.244L77.57 230.345L77.6443 234.149C77.6443 234.149 89.448 239.523 90.6522 240.483C91.8565 241.443 92.7743 244.562 91.692 244.918Z" fill="#407BFF"/>
<path d="M90.9701 243.682C85.787 243.523 64.8693 243.369 59.734 243.602C59.6968 243.602 59.6915 243.634 59.734 243.634C64.8693 243.905 85.787 243.889 90.9701 243.767C91.0815 243.761 91.0815 243.682 90.9701 243.682Z" fill="#263238"/>
<path d="M54.1061 149.353C54.1061 149.353 57.5172 182.828 57.5703 183.613C57.5703 183.926 56.1061 224.833 56.1061 224.833H78.6684C78.6684 224.833 77.8621 186.499 77.5173 181.772C77.4801 181.241 76.0212 147.194 69.4536 127.931H44.3926C44.3926 127.931 44.6101 139.247 49.756 147.432C51.2402 147.992 52.6925 148.633 54.1061 149.353Z" fill="#37474F"/>
<path d="M77.2416 220.605C76.6209 220.515 75.9896 220.536 75.3636 220.504C74.7376 220.472 74.0533 220.44 73.3954 220.425C72.0798 220.398 70.7429 220.387 69.4485 220.371C66.796 220.34 64.1859 220.371 61.5546 220.371H59.4007C58.6756 220.345 57.9496 220.382 57.231 220.483C57.1938 220.483 57.1991 220.552 57.231 220.562C57.8451 220.659 58.4661 220.705 59.0877 220.7C59.7456 220.727 60.4034 220.743 61.0612 220.753C62.3556 220.78 63.6501 220.812 64.9498 220.828C67.5546 220.86 70.1647 220.907 72.7747 220.897C73.5175 220.897 74.2549 220.897 74.9976 220.87C75.7403 220.844 76.483 220.87 77.2151 220.785C77.3106 220.769 77.353 220.621 77.2416 220.605Z" fill="#263238"/>
<path d="M72.1431 185.486C71.5489 173.427 70.281 161.422 68.6842 149.464C67.8142 142.913 66.7903 136.371 65.0184 129.995C65.0184 129.995 64.9707 129.995 64.976 129.995C66.3577 135.829 67.3992 141.738 68.0954 147.692C68.8381 153.581 69.5489 159.48 70.1484 165.39C71.3633 177.379 71.9044 189.411 71.9787 201.464C72.0211 208.244 71.8407 211.438 71.6497 218.212C71.6497 218.276 71.7452 218.271 71.7505 218.212C72.732 206.159 72.7161 197.56 72.1431 185.486Z" fill="#263238"/>
<path d="M70.9175 132.594C70.9175 132.584 70.9136 132.575 70.9067 132.568C70.8997 132.561 70.8902 132.557 70.8804 132.557C70.8705 132.557 70.8611 132.561 70.8541 132.568C70.8472 132.575 70.8433 132.584 70.8433 132.594C70.9388 134.021 71.1828 135.576 70.5462 136.923C69.9892 138.106 68.9228 138.775 67.9414 139.576C67.9414 139.602 67.9414 139.65 67.9838 139.639C69.2836 139.247 70.5833 138.525 71.0979 137.188C71.6708 135.708 71.3579 134.08 70.9175 132.594Z" fill="#263238"/>
<path d="M60.0534 148.615C59.0071 148.585 57.9599 148.62 56.9181 148.722C55.8978 148.775 54.8749 148.758 53.8571 148.668C53.3465 148.616 52.8398 148.53 52.3399 148.414C51.8094 148.292 51.3319 148.101 50.8173 147.958C50.35 147.856 49.8645 147.874 49.4062 148.011C48.8757 148.133 48.3452 148.218 47.7669 148.292C46.5109 148.475 45.2375 148.507 43.9738 148.387C43.9261 148.387 43.9048 148.456 43.9738 148.467C45.0363 148.689 46.119 148.801 47.2046 148.801C47.7608 148.789 48.3155 148.739 48.8651 148.653C49.3695 148.505 49.894 148.437 50.4194 148.451C50.9348 148.589 51.4414 148.757 51.9367 148.955C52.4413 149.096 52.9554 149.201 53.4751 149.268C54.5161 149.406 55.5683 149.438 56.6157 149.363C57.7972 149.337 58.9704 149.159 60.1064 148.833C60.1353 148.826 60.1601 148.808 60.1756 148.782C60.191 148.757 60.1957 148.727 60.1887 148.698C60.1816 148.669 60.1634 148.644 60.1381 148.629C60.1127 148.613 60.0822 148.608 60.0534 148.615Z" fill="#263238"/>
<path d="M57.623 181.772C57.618 181.77 57.6126 181.768 57.6071 181.768C57.6016 181.768 57.5962 181.77 57.5912 181.772C57.5884 181.777 57.5869 181.782 57.5869 181.788C57.5869 181.793 57.5884 181.799 57.5912 181.804V181.883C57.6014 181.887 57.6128 181.887 57.623 181.883V181.804C57.6254 181.799 57.6266 181.793 57.6266 181.788C57.6266 181.782 57.6254 181.777 57.623 181.772Z" fill="#263238"/>
<path d="M57.023 176.005C56.8249 173.837 56.6127 171.669 56.3864 169.501C55.9302 165.162 55.5005 160.822 55.0548 156.483C54.8002 154.021 54.6198 151.539 54.2166 149.098C54.2166 149.035 54.1052 149.035 54.1105 149.098C54.1424 151.273 54.3758 153.448 54.5615 155.618C54.7471 157.788 54.9381 159.958 55.1397 162.127C55.5482 166.467 55.9355 170.812 56.4448 175.146C56.5898 176.373 56.7418 177.611 56.901 178.859C57.0654 180.09 57.2829 181.316 57.4315 182.547C57.4315 182.558 57.436 182.569 57.4439 182.577C57.4519 182.584 57.4627 182.589 57.4739 182.589C57.4852 182.589 57.496 182.584 57.5039 182.577C57.5119 182.569 57.5164 182.558 57.5164 182.547C57.3254 180.371 57.2246 178.175 57.023 176.005Z" fill="#263238"/>
<path d="M57.199 100.722C57.3688 101.188 60.0478 104.021 62.2282 103.645C62.939 103.523 62.4404 99.6128 62.4404 99.6128L62.4669 99.3157L62.8754 95.1619L57.7454 92.7003L57.008 92.382C57.008 92.382 56.9709 93.5279 56.9444 94.9497C56.9444 95.0186 56.9444 95.0823 56.9444 95.1566C56.9444 95.2308 56.9444 95.3104 56.9444 95.3847V96.0319C56.9444 96.2017 56.9444 96.3608 56.9444 96.5306C56.9444 96.7003 56.9444 96.8754 56.9444 97.0611C56.9429 98.2857 57.028 99.5089 57.199 100.722Z" fill="#FFC4C0"/>
<path d="M56.9443 94.9603C57.492 96.0458 58.2699 96.9988 59.2237 97.7529C60.1775 98.507 61.2843 99.0439 62.4669 99.3263L62.8754 95.1725L57.7454 92.7109L57.008 92.3926C57.008 92.3926 56.9709 93.5279 56.9443 94.9603Z" fill="#263238"/>
<path d="M69.2524 121.39L69.454 127.931H44.4248C44.4248 127.931 47.3744 108.541 53.9739 101.406C57.2736 97.8197 60.7802 98.4934 63.2524 100.997C63.8731 101.634 70.7113 110.546 71.4964 114.313C72.1808 117.602 69.2524 121.39 69.2524 121.39Z" fill="#407BFF"/>
<path opacity="0.1" d="M69.4267 127.151H44.5566C44.5885 126.95 44.6309 126.716 44.6787 126.451H69.4108L69.4267 127.151ZM69.3471 124.499H45.0447C44.997 124.743 44.9492 124.976 44.9068 125.199H69.3683L69.3471 124.499ZM69.2887 122.541H45.4532C45.4001 122.78 45.3524 123.013 45.3047 123.241H69.31L69.2887 122.541ZM45.8988 120.578C45.8458 120.817 45.7874 121.05 45.7344 121.279H69.3365C69.4373 121.146 69.607 120.902 69.8086 120.578H45.8988ZM46.3816 118.621L46.2065 119.321H70.5142C70.6309 119.098 70.737 118.865 70.8431 118.621H46.3816ZM46.9121 116.663L46.7211 117.363H71.294C71.3577 117.135 71.4161 116.902 71.4638 116.663H46.9121ZM71.5699 114.706H47.485C47.4108 114.939 47.3418 115.172 47.2728 115.406H71.6123C71.6099 115.17 71.5939 114.934 71.5646 114.7L71.5699 114.706ZM70.9864 112.748H48.111C48.0314 112.981 47.9572 113.215 47.8776 113.448H71.2516C71.1773 113.22 71.0818 112.997 70.981 112.743L70.9864 112.748ZM70.0102 110.785H48.8007C48.7105 111.019 48.6256 111.252 48.5407 111.491H70.3763C70.2649 111.252 70.1375 111.019 70.0208 110.78L70.0102 110.785ZM68.859 108.828H49.5805C49.4815 109.061 49.386 109.294 49.294 109.528H69.2834C69.1455 109.291 69.0023 109.056 68.8537 108.822L68.859 108.828ZM67.5964 106.87H50.4558C50.3444 107.104 50.233 107.337 50.1269 107.57H68.0527L67.5964 106.87ZM66.2489 104.913H51.4797C51.3471 105.141 51.2145 105.374 51.0924 105.613H66.7264C66.5673 105.369 66.4028 105.135 66.2436 104.907L66.2489 104.913ZM64.8219 102.955H52.7105C52.546 103.183 52.3922 103.417 52.2383 103.655H65.3312L64.8219 102.955ZM63.2781 100.997H54.3391C54.2189 101.118 54.0969 101.245 53.9731 101.379C53.8493 101.514 53.7538 101.62 53.6866 101.698H63.8511C63.5752 101.326 63.3736 101.098 63.2728 100.992L63.2781 100.997ZM60.0314 99.0345H57.6336C57.04 99.1792 56.4727 99.4155 55.9519 99.7348H61.7025C61.182 99.4174 60.617 99.1796 60.0261 99.0292L60.0314 99.0345Z" fill="#030402"/>
<path d="M61.0716 106.467C65.5543 108.186 82.2599 112.011 85.7771 109.088C91.2997 104.499 95.618 96.276 97.8461 89.5333C98.6153 87.1884 83.8938 85.1672 83.0875 87.8144C82.0265 91.2627 79.3739 97.5386 78.6684 98.6155C77.9628 99.6924 67.9734 99.8728 61.236 100.504C55.6127 101.029 55.3846 104.292 61.0716 106.467Z" fill="#FFC4C0"/>
<path d="M84.8386 72.1486C85.2411 72.013 85.6754 72.0038 86.0832 72.1224C86.4911 72.2409 86.8528 72.4815 87.1198 72.8117C87.5569 72.2399 88.1798 71.8384 88.8811 71.6765C90.1331 71.4537 91.0349 73.3157 91.0349 73.3157C91.6109 72.8155 92.3248 72.5011 93.0827 72.4139C94.3028 72.3184 95.4806 74.069 95.4806 74.069C96.2639 73.9018 97.0813 74.0223 97.7829 74.4086C99.6132 75.5226 99.6556 78.7905 99.7087 80.8701C99.7617 82.9497 97.9527 88.8913 97.7246 90.0584L84.9288 91.2945C84.9288 91.2945 81.0031 85.7773 81.7989 78.7852C82.0376 76.7056 83.3214 72.7163 84.8386 72.1486Z" fill="#FFC4C0"/>
<path d="M86.9068 72.902C86.1216 75.024 86.0102 77.284 85.7715 79.5227C85.7745 79.5308 85.7799 79.5378 85.787 79.5428C85.7942 79.5477 85.8026 79.5504 85.8113 79.5504C85.8199 79.5504 85.8284 79.5477 85.8355 79.5428C85.8426 79.5378 85.848 79.5308 85.8511 79.5227C86.0633 77.2893 86.7105 75.1301 87.0129 72.9126C87.0235 72.8649 86.928 72.8436 86.9068 72.902Z" fill="#263238"/>
<path d="M90.8586 73.3529C90.726 73.8548 90.6617 74.3723 90.6676 74.8914C90.6358 75.4219 90.6145 75.9895 90.5986 76.5359C90.5986 77.6341 90.5986 78.7375 90.5986 79.8357C90.5986 79.8834 90.6729 79.894 90.6729 79.8357C90.7012 78.7393 90.7489 77.6429 90.8161 76.5465C90.8515 75.9983 90.894 75.4519 90.9435 74.9073C91.0193 74.3945 91.0371 73.8749 90.9965 73.3582C90.99 73.3458 90.9804 73.3353 90.9685 73.3278C90.9567 73.3204 90.9431 73.3161 90.9291 73.3156C90.9151 73.3151 90.9012 73.3182 90.8888 73.3248C90.8764 73.3313 90.866 73.341 90.8586 73.3529Z" fill="#263238"/>
<path d="M95.4856 74.1009C95.3751 74.5572 95.341 75.0286 95.3848 75.4961C95.3848 76.0001 95.3848 76.4987 95.3848 77.0027C95.3848 78.0054 95.3583 79.0027 95.3105 80.0054C95.3105 80.0584 95.3848 80.0637 95.3848 80.0054C95.4432 78.9868 95.5121 77.9682 95.5546 76.955C95.5546 76.4245 95.597 75.9523 95.6129 75.4537C95.6717 74.999 95.6502 74.5375 95.5493 74.0903C95.5479 74.0818 95.5432 74.0743 95.5362 74.0693C95.5292 74.0643 95.5206 74.0623 95.5121 74.0637C95.5037 74.0651 95.4962 74.0698 95.4912 74.0768C95.4862 74.0838 95.4842 74.0924 95.4856 74.1009Z" fill="#263238"/>
<path d="M79.9948 94.9603L91.9046 104.653C91.9046 104.653 87.3741 109.772 84.9126 110.297C82.451 110.822 69.1301 110.058 61.5704 107.003C54.0107 103.947 55.9418 100.981 61.4643 100.334C66.9868 99.6871 77.2203 98.4722 77.5545 98.2706C77.8887 98.069 79.9948 94.9603 79.9948 94.9603Z" fill="#407BFF"/>
<path opacity="0.1" d="M62.6785 107.422C62.3036 107.291 61.9376 107.153 61.5804 107.008C61.1931 106.849 60.827 106.695 60.4875 106.541L56.652 103.406C56.5711 103.117 56.5879 102.809 56.6997 102.531L62.6785 107.422ZM58.1533 101.199C57.9284 101.305 57.7135 101.431 57.5114 101.576L65.8138 108.361C66.3443 108.493 66.8748 108.621 67.3735 108.732L58.1533 101.199ZM60.4026 100.504C60.095 100.562 59.8085 100.626 59.5326 100.7L70.0207 109.284C70.4875 109.369 70.9544 109.448 71.4212 109.523L60.4026 100.504ZM63.0552 100.154L62.0843 100.265L73.7926 109.814C74.2276 109.873 74.6626 109.926 75.087 109.968L63.0552 100.154ZM65.7554 99.8356L64.7952 99.9523L77.3523 110.212L78.5671 110.308L65.7554 99.8356ZM68.4557 99.512L67.4955 99.6287L80.6997 110.419L81.8403 110.451L68.4557 99.512ZM71.1454 99.1777L70.1851 99.2997L83.7926 110.44C84.1233 110.428 84.4529 110.395 84.7793 110.34L71.1454 99.1777ZM73.7979 98.8382L72.843 98.9655L86.1056 109.793C86.3125 109.676 86.5194 109.544 86.7316 109.401L73.7979 98.8382ZM76.4504 98.4775L75.5061 98.6101L87.7501 108.621C87.9358 108.477 88.1215 108.324 88.2806 108.17L76.4504 98.4775ZM78.2382 97.4165C78.079 97.634 77.9358 97.825 77.8138 97.947L89.2515 107.3L89.782 106.812L78.2382 97.4165ZM79.3788 95.825L78.9756 96.3979L90.6467 105.947L91.1294 105.416L79.3788 95.825Z" fill="#030402"/>
<path d="M89.188 105.852C86.005 103.045 82.7795 100.244 79.3312 97.7614C79.3242 97.7565 79.3155 97.7546 79.307 97.756C79.2986 97.7575 79.291 97.7623 79.2861 97.7694C79.2812 97.7764 79.2793 97.7851 79.2808 97.7936C79.2823 97.802 79.287 97.8095 79.2941 97.8145C82.3922 100.716 85.7662 103.326 89.1296 105.91C89.1721 105.942 89.2251 105.883 89.188 105.852Z" fill="#263238"/>
<path d="M55.2043 83.5597C54.9896 83.7223 54.7321 83.8184 54.4634 83.8363C54.1948 83.8543 53.9267 83.7931 53.6924 83.6605C53.0239 83.3953 52.1698 82.7056 51.443 83.1884C50.6261 83.7189 50.9125 84.9019 51.2998 85.6022C51.6747 86.1918 52.0079 86.807 52.2972 87.443C52.5266 88.0574 52.6452 88.7076 52.6473 89.3634C52.6473 90.6844 51.9258 91.9046 52.0107 93.2202C52.1221 94.8117 53.6022 95.9576 54.8648 96.6791C56.1274 97.4006 57.6659 97.6924 59.1088 98.1963C60.3201 98.66 61.3952 99.421 62.2352 100.409C63.0751 101.398 63.6528 102.581 63.9152 103.852C64.0588 104.475 64.1423 105.111 64.1645 105.751C64.1645 106.435 64.1168 107.125 64.1645 107.809C64.1856 108.197 64.2992 108.574 64.4958 108.909C64.6924 109.244 64.9662 109.527 65.2945 109.735C65.9213 110.064 66.6024 110.278 67.3051 110.366C67.3274 110.372 67.3474 110.385 67.3629 110.402C67.3784 110.419 67.3887 110.44 67.3926 110.463C67.3965 110.486 67.3938 110.509 67.3849 110.531C67.376 110.552 67.3612 110.57 67.3422 110.584C66.9595 110.848 66.5589 111.086 66.1433 111.294C65.7848 111.502 65.3884 111.635 64.9775 111.687C64.5667 111.739 64.1496 111.708 63.7507 111.597C62.8489 111.279 62.3078 110.435 61.8144 109.671C61.2724 108.757 60.51 107.992 59.5969 107.448C58.654 106.95 57.6333 106.614 56.5783 106.456C54.5359 106.106 52.4457 106.212 50.4139 105.783C49.4287 105.608 48.4891 105.236 47.6513 104.689C46.8135 104.142 46.0949 103.431 45.5385 102.6C44.9923 101.754 44.6308 100.804 44.4775 99.8091C44.364 98.7229 44.4213 97.6256 44.6473 96.5571C45.0729 94.2667 45.2243 91.9337 45.0982 89.6075C45.0188 88.5116 44.8807 87.4207 44.6844 86.3396C44.4781 85.3306 44.3767 84.3031 44.382 83.2733C44.4035 82.3806 44.66 81.5093 45.1257 80.7474C45.5914 79.9855 46.2498 79.3599 47.0346 78.9337C47.8065 78.4813 48.6818 78.2349 49.5764 78.2182C50.4711 78.2015 51.355 78.415 52.1433 78.8382C54.7003 80.2971 55.5385 83.2308 55.2043 83.5597Z" fill="#263238"/>
<path d="M52.3555 94.3821C52.6473 95.0879 53.0802 95.7268 53.6275 96.2595C54.1748 96.7922 54.8251 97.2076 55.5385 97.4803C56.9974 98.0108 58.5995 98.0426 60.0849 98.5413C61.4658 98.9484 62.6964 99.7528 63.6234 100.854C64.4078 101.955 64.817 103.28 64.7905 104.631C64.8435 106.159 64.6897 107.682 64.8541 109.204C64.8541 109.231 64.8117 109.242 64.8064 109.204C64.2759 106.552 65.2998 103.581 63.6393 101.21C62.6265 99.8947 61.1913 98.9692 59.5756 98.589C58.1698 98.1912 56.6526 98.154 55.2998 97.5758C54.6208 97.2668 54.0105 96.825 53.5048 96.2765C52.9992 95.7281 52.6084 95.084 52.3555 94.3821Z" fill="#263238"/>
<path d="M44.2174 101.719C44.081 100.828 44.1098 99.9201 44.3023 99.0398C44.4986 97.9788 44.7479 96.9178 44.9761 95.8568C44.7904 96.764 44.6365 97.6817 44.4774 98.5995C44.2975 99.4625 44.2386 100.346 44.3023 101.226C44.4219 102.093 44.7353 102.923 45.2193 103.653C45.7033 104.383 46.3454 104.995 47.0981 105.443C48.6259 106.382 50.366 106.562 52.1166 106.568C53.6726 106.54 55.2286 106.616 56.7745 106.796C58.5071 106.986 60.1806 107.537 61.6869 108.414C61.6869 108.414 61.6869 108.467 61.6869 108.451C58.6524 106.674 55.1723 106.764 51.7771 106.769C50.0975 106.849 48.43 106.448 46.9708 105.613C46.268 105.189 45.6605 104.624 45.1867 103.954C44.7128 103.284 44.3828 102.523 44.2174 101.719Z" fill="#263238"/>
<path d="M54.1431 85.2627C54.2386 85.2627 55.533 83.9046 55.671 83.772C55.8089 83.6393 57.1776 82.3714 57.1988 82.2812C56.7552 81.8365 56.2337 81.4768 55.6603 81.2202C55.3155 81.146 54.2863 82.0054 54.1166 82.1645C53.9468 82.3237 53.0556 83.3422 53.1404 83.6924C53.3775 84.2719 53.7171 84.8038 54.1431 85.2627Z" fill="#407BFF"/>
<path d="M68.2762 87.9736C70.1966 95.0452 66.2125 97.0611 64.6475 97.4059C63.247 97.7189 58.499 98.8754 55.8624 92.0372C53.2258 85.199 55.9048 82.0744 59.0454 81.0505C62.186 80.0266 66.3611 80.8966 68.2762 87.9736Z" fill="#FFC4C0"/>
<path d="M67.5123 86.5413C67.3425 86.5413 67.1834 86.5413 66.9818 86.5413C66.798 86.5672 66.6109 86.5298 66.4513 86.4352C66.4085 86.3979 66.3792 86.3476 66.3677 86.2921C66.3562 86.2365 66.3632 86.1787 66.3876 86.1275C66.4544 86.0328 66.545 85.9574 66.6503 85.909C66.7555 85.8606 66.8717 85.8408 66.9871 85.8517C67.2223 85.8414 67.453 85.9189 67.6343 86.0692C67.6697 86.1038 67.6953 86.1471 67.7086 86.1947C67.7219 86.2424 67.7223 86.2927 67.71 86.3406C67.6976 86.3885 67.6728 86.4322 67.6381 86.4675C67.6034 86.5027 67.56 86.5282 67.5123 86.5413Z" fill="#263238"/>
<path d="M62.9235 87.7083C63.0809 87.6516 63.235 87.586 63.385 87.512C63.5606 87.4644 63.7155 87.3599 63.8253 87.2149C63.8507 87.1639 63.8582 87.1059 63.8466 87.0501C63.8351 86.9943 63.8052 86.944 63.7617 86.9072C63.663 86.8484 63.5503 86.8173 63.4354 86.8173C63.3205 86.8173 63.2078 86.8484 63.1092 86.9072C62.8809 86.9808 62.6905 87.1407 62.5787 87.3528C62.5613 87.4014 62.5578 87.4538 62.5687 87.5042C62.5796 87.5546 62.6045 87.601 62.6404 87.638C62.6763 87.675 62.7218 87.7012 62.7719 87.7136C62.8219 87.726 62.8744 87.7242 62.9235 87.7083Z" fill="#263238"/>
<path d="M64.3293 89.268C64.3293 89.268 64.2974 89.2998 64.3293 89.3211C64.4513 89.8038 64.5096 90.3821 64.1064 90.6367C64.1064 90.6367 64.1064 90.6685 64.1064 90.6632C64.6104 90.4722 64.5255 89.7083 64.3293 89.268Z" fill="#263238"/>
<path d="M63.7821 88.8595C62.9863 88.9709 63.2516 90.5571 64.0102 90.451C64.7688 90.3449 64.4505 88.7587 63.7821 88.8595Z" fill="#263238"/>
<path d="M63.4856 88.9975C63.3636 89.1142 63.2575 89.2946 63.093 89.3423C62.9285 89.3901 62.727 89.2575 62.5625 89.1195C62.6156 89.4272 62.7853 89.7137 63.093 89.7031C63.4007 89.6925 63.5652 89.3848 63.5864 89.0612C63.597 89.024 63.5333 88.9498 63.4856 88.9975Z" fill="#263238"/>
<path d="M66.9174 88.5199C66.9174 88.5199 66.9598 88.5199 66.9651 88.557C67.0341 89.0504 67.1985 89.618 67.6707 89.6923V89.7188C67.1137 89.7347 66.9068 88.9974 66.9174 88.5199Z" fill="#263238"/>
<path d="M67.2681 87.9312C68.0532 87.7296 68.3875 89.3052 67.666 89.4909C66.9445 89.6765 66.6156 88.0956 67.2681 87.9312Z" fill="#263238"/>
<path d="M67.6233 87.963C67.7613 88.0213 67.9204 88.1433 68.069 88.1221C68.2175 88.1009 68.3342 87.8993 68.4085 87.7136C68.4085 87.7136 68.4085 87.7136 68.4403 87.7136C68.5093 88.016 68.4775 88.3502 68.2016 88.4669C67.9257 88.5836 67.6976 88.3608 67.565 88.0744C67.5385 88.0319 67.565 87.9417 67.6233 87.963Z" fill="#263238"/>
<path d="M66.716 90.8966C66.716 90.8966 66.9547 91.6075 67.0237 91.9576C67.0237 91.9894 66.9494 92.0213 66.8327 92.0531C66.5467 92.1643 66.2358 92.1949 65.9336 92.1416C65.6315 92.0883 65.3498 91.9531 65.1192 91.7507C65.1138 91.7444 65.1107 91.7364 65.1104 91.7281C65.1101 91.7198 65.1126 91.7116 65.1175 91.7049C65.1223 91.6981 65.1294 91.6932 65.1374 91.691C65.1454 91.6887 65.1539 91.6892 65.1616 91.6924C65.6633 91.909 66.2216 91.9574 66.7531 91.8303C66.7531 91.7295 66.2969 90.626 66.3499 90.6101C66.6222 90.5825 66.897 90.5915 67.1669 90.6367C66.7054 89.1406 66.0104 87.7242 65.5754 86.2282C65.5713 86.2171 65.5715 86.205 65.5758 86.1941C65.5801 86.1832 65.5883 86.1742 65.5988 86.169C65.6093 86.1637 65.6214 86.1625 65.6327 86.1656C65.6441 86.1687 65.6539 86.1759 65.6603 86.1857C66.4554 87.6779 67.1004 89.2452 67.586 90.8648C67.6231 91.0504 66.8645 90.9284 66.716 90.8966Z" fill="#263238"/>
<path d="M66.7534 91.7773C66.6323 92.1056 66.4296 92.3977 66.1645 92.6261C66.0127 92.7464 65.8274 92.8168 65.634 92.8277C65.2202 92.8277 65.1035 92.4988 65.0717 92.1752C65.0503 91.999 65.0503 91.8208 65.0717 91.6447C65.6029 91.8707 66.1933 91.9172 66.7534 91.7773Z" fill="#263238"/>
<path d="M66.1641 92.6367C66.0123 92.757 65.827 92.8274 65.6336 92.8383C65.2198 92.8383 65.1031 92.5094 65.0713 92.1858C65.2776 92.1263 65.498 92.1385 65.6964 92.2204C65.8949 92.3023 66.0598 92.449 66.1641 92.6367Z" fill="#FF98B9"/>
<path d="M56.9115 94.3078C57.5322 94.1964 56.9115 90.2919 56.9115 90.2919C56.9115 90.2919 59.3412 88.9921 59.4526 85.2998C59.5845 86.3743 59.4001 87.4639 58.9221 88.4351C58.9221 88.4351 63.1662 87.1142 64.2643 83.1301C64.2643 83.1301 63.9036 85.1195 63.3518 85.9099C64.3837 85.3573 65.1973 84.4707 65.6595 83.3953C65.6595 83.3953 66.832 85.337 67.5322 85.7985C67.5322 85.7985 66.7312 78.4351 58.9911 80.4563C57.6005 80.794 56.3295 81.5076 55.3171 82.519C54.3048 83.5305 53.59 84.8008 53.251 86.1911C52.694 88.5624 53.4845 91.3794 54.4606 92.9603C55.0707 93.8993 56.9115 94.3078 56.9115 94.3078Z" fill="#263238"/>
<path d="M58.8809 90.8807C58.8809 90.8807 57.0825 88.7587 56.0957 89.4059C55.109 90.0532 56.6262 93.2627 57.8676 93.6022C58.0253 93.6565 58.1923 93.6785 58.3586 93.6668C58.5249 93.6551 58.6872 93.6101 58.8357 93.5343C58.9843 93.4586 59.116 93.3537 59.2231 93.2259C59.3302 93.0981 59.4105 92.95 59.4591 92.7906L58.8809 90.8807Z" fill="#FFC4C0"/>
</svg>
