<svg width="200" height="200" viewBox="0 0 200 200" fill="none" xmlns="http://www.w3.org/2000/svg">
<path d="M179.96 159.396H166.712V159.496H179.96V159.396Z" fill="#EBEBEB"/>
<path d="M132.488 160.484H129.012V160.584H132.488V160.484Z" fill="#EBEBEB"/>
<path d="M166.312 155.684H158.636V155.784H166.312V155.684Z" fill="#EBEBEB"/>
<path d="M38.2604 156.356H20.9844V156.456H38.2604V156.356Z" fill="#EBEBEB"/>
<path d="M44.3562 156.356H41.8242V156.456H44.3562V156.356Z" fill="#EBEBEB"/>
<path d="M90.0599 158.044H52.5879V158.144H90.0599V158.044Z" fill="#EBEBEB"/>
<path d="M95.3599 135.12H18.1199C17.5142 135.12 16.9332 134.879 16.5049 134.451C16.0766 134.023 15.8359 133.442 15.8359 132.836V24.264C15.8412 23.6617 16.0842 23.0859 16.5119 22.6619C16.9397 22.2379 17.5176 22 18.1199 22H95.3599C95.6599 22 95.9569 22.0591 96.234 22.1739C96.5111 22.2886 96.7629 22.4569 96.975 22.669C97.187 22.8811 97.3553 23.1328 97.4701 23.41C97.5849 23.6871 97.6439 23.9841 97.6439 24.284V132.836C97.6439 133.136 97.5849 133.433 97.4701 133.71C97.3553 133.987 97.187 134.239 96.975 134.451C96.7629 134.663 96.5111 134.831 96.234 134.946C95.9569 135.061 95.6599 135.12 95.3599 135.12ZM18.1199 22.08C17.541 22.0811 16.9861 22.3115 16.5768 22.7208C16.1674 23.1302 15.937 23.6851 15.9359 24.264V132.836C15.937 133.415 16.1674 133.97 16.5768 134.379C16.9861 134.789 17.541 135.019 18.1199 135.02H95.3599C95.9388 135.019 96.4937 134.789 96.9031 134.379C97.3124 133.97 97.5429 133.415 97.5439 132.836V24.264C97.5429 23.6851 97.3124 23.1302 96.9031 22.7208C96.4937 22.3115 95.9388 22.0811 95.3599 22.08H18.1199Z" fill="#EBEBEB"/>
<path d="M181.88 135.12H104.64C104.035 135.12 103.454 134.879 103.025 134.451C102.597 134.023 102.356 133.442 102.356 132.836V24.264C102.362 23.6617 102.605 23.0859 103.032 22.6619C103.46 22.2379 104.038 22 104.64 22H181.88C182.486 22 183.067 22.2406 183.495 22.669C183.924 23.0973 184.164 23.6782 184.164 24.284V132.836C184.164 133.442 183.924 134.023 183.495 134.451C183.067 134.879 182.486 135.12 181.88 135.12ZM104.64 22.08C104.062 22.0811 103.507 22.3115 103.097 22.7208C102.688 23.1302 102.458 23.6851 102.456 24.264V132.836C102.458 133.415 102.688 133.97 103.097 134.379C103.507 134.789 104.062 135.019 104.64 135.02H181.88C182.459 135.019 183.014 134.789 183.424 134.379C183.833 133.97 184.063 133.415 184.064 132.836V24.264C184.063 23.6851 183.833 23.1302 183.424 22.7208C183.014 22.3115 182.459 22.0811 181.88 22.08H104.64Z" fill="#EBEBEB"/>
<path d="M200 152.96H0V153.06H200V152.96Z" fill="#EBEBEB"/>
<path d="M118.272 150.616H150.864V120.248H118.272V150.616Z" fill="#E6E6E6"/>
<path d="M145.68 153.028H149.84V151.576H145.68V153.028Z" fill="#E0E0E0"/>
<path d="M52.0964 150.324H118.276V120.248H52.0964V150.324Z" fill="#E6E6E6"/>
<path d="M41.0402 153.028H51.2002L51.2002 118.012H41.0402V153.028Z" fill="#E6E6E6"/>
<path d="M86.3559 148.92H115.048V122.644H86.3559V148.92Z" fill="#F5F5F5"/>
<path d="M119.072 148.92H147.764V122.644H119.072V148.92Z" fill="#F5F5F5"/>
<path d="M53.3275 148.92H82.0195V122.644H53.3275V148.92Z" fill="#F5F5F5"/>
<path d="M51.1523 118V153.016H53.3683V152.184H149.832V153.016H152.052V118H51.1523ZM149.832 133.856H119.348V121.292H149.832V133.856ZM119.348 148.92V135.74H149.832V148.92H119.348ZM86.3563 121.292H117.128V148.92H86.3563V121.292ZM53.3683 135.74H84.1403V148.92H53.3683V135.74ZM53.3683 121.292H84.1403V133.868H53.3683V121.292Z" fill="#F0F0F0"/>
<path d="M131.016 126.116H135.816C135.939 126.116 136.06 126.093 136.174 126.046C136.287 126 136.391 125.931 136.478 125.844C136.565 125.758 136.634 125.655 136.681 125.542C136.728 125.428 136.752 125.307 136.752 125.184C136.752 125.061 136.728 124.94 136.681 124.826C136.634 124.713 136.565 124.61 136.478 124.524C136.391 124.437 136.287 124.368 136.174 124.322C136.06 124.275 135.939 124.251 135.816 124.252H131.016C130.769 124.252 130.532 124.35 130.357 124.525C130.182 124.7 130.084 124.937 130.084 125.184C130.084 125.431 130.182 125.668 130.357 125.843C130.532 126.018 130.769 126.116 131.016 126.116Z" fill="#E6E6E6"/>
<path d="M90.4842 137.688V132.888C90.4842 132.641 90.386 132.404 90.2112 132.229C90.0365 132.054 89.7994 131.956 89.5522 131.956C89.4295 131.956 89.3079 131.979 89.1943 132.026C89.0808 132.072 88.9776 132.141 88.8906 132.228C88.8036 132.314 88.7346 132.417 88.6875 132.53C88.6404 132.644 88.6162 132.765 88.6162 132.888V137.688C88.6162 137.811 88.6404 137.932 88.6875 138.046C88.7346 138.159 88.8036 138.262 88.8906 138.348C88.9776 138.435 89.0808 138.504 89.1943 138.55C89.3079 138.597 89.4295 138.621 89.5522 138.62C89.7994 138.62 90.0365 138.522 90.2112 138.347C90.386 138.172 90.4842 137.935 90.4842 137.688Z" fill="#E6E6E6"/>
<path d="M131.016 139.6H135.816C135.939 139.6 136.06 139.577 136.174 139.53C136.287 139.484 136.391 139.415 136.478 139.328C136.565 139.242 136.634 139.139 136.681 139.026C136.728 138.912 136.752 138.791 136.752 138.668C136.752 138.42 136.653 138.182 136.478 138.006C136.302 137.831 136.064 137.732 135.816 137.732H131.016C130.893 137.732 130.772 137.756 130.658 137.803C130.545 137.85 130.442 137.919 130.356 138.006C130.269 138.093 130.2 138.197 130.154 138.31C130.107 138.424 130.083 138.545 130.084 138.668C130.084 138.915 130.182 139.152 130.357 139.327C130.532 139.502 130.769 139.6 131.016 139.6Z" fill="#E6E6E6"/>
<path d="M65.2758 126.116H70.0758C70.3229 126.116 70.56 126.018 70.7348 125.843C70.9096 125.668 71.0078 125.431 71.0078 125.184C71.0078 124.937 70.9096 124.7 70.7348 124.525C70.56 124.35 70.3229 124.252 70.0758 124.252H65.2758C65.0286 124.252 64.7915 124.35 64.6167 124.525C64.4419 124.7 64.3438 124.937 64.3438 125.184C64.3438 125.431 64.4419 125.668 64.6167 125.843C64.7915 126.018 65.0286 126.116 65.2758 126.116Z" fill="#E6E6E6"/>
<path d="M65.2758 139.6H70.0758C70.3229 139.6 70.56 139.502 70.7348 139.327C70.9096 139.152 71.0078 138.915 71.0078 138.668C71.0083 138.545 70.9846 138.424 70.938 138.31C70.8914 138.197 70.8228 138.093 70.7362 138.006C70.6496 137.919 70.5467 137.85 70.4333 137.803C70.32 137.756 70.1985 137.732 70.0758 137.732H65.2758C65.153 137.732 65.0315 137.756 64.9182 137.803C64.8048 137.85 64.7019 137.919 64.6153 138.006C64.5287 138.093 64.4602 138.197 64.4136 138.31C64.367 138.424 64.3432 138.545 64.3438 138.668C64.3438 138.915 64.4419 139.152 64.6167 139.327C64.7915 139.502 65.0286 139.6 65.2758 139.6Z" fill="#E6E6E6"/>
<path d="M28.3763 152.336H37.8643L37.8643 63.6399H28.3763L28.3763 152.336Z" fill="#E0E0E0"/>
<path d="M20.9844 62.864V153.112H28.3724V62.864H20.9844Z" fill="#E6E6E6"/>
<path d="M37.5078 62.864V153.112H44.8998V62.864H37.5078Z" fill="#E6E6E6"/>
<path d="M27.4883 62.864V153.112H46.1523V62.864H27.4883ZM44.4003 64.42V80.6H29.2603V64.42H44.4003ZM29.2603 116.08V99.896H44.4003V116.08H29.2603ZM44.3803 117.636V133.82H29.2603V117.636H44.3803ZM29.2603 98.34V82.16H44.4003V98.34H29.2603ZM29.2603 151.54V135.376H44.4003V151.556L29.2603 151.54Z" fill="#F5F5F5"/>
<path d="M36.7157 68.1919H34.5117V80.7479H36.7157V68.1919Z" fill="#EBEBEB"/>
<path d="M34.5116 68.1919H32.8076V80.7479H34.5116V68.1919Z" fill="#E6E6E6"/>
<path d="M40.1238 68.4919H36.7158V80.7519H40.1238V68.4919Z" fill="#E0E0E0"/>
<path d="M41.828 68.4919H40.124V80.7519H41.828V68.4919Z" fill="#EBEBEB"/>
<path d="M31.6685 68.4919H29.3965V80.7519H31.6685V68.4919Z" fill="#EBEBEB"/>
<path d="M32.8079 68.4919H31.6719V80.7519H32.8079V68.4919Z" fill="#FAFAFA"/>
<path d="M34.5118 98.3359H36.7158V85.7799H34.5118V98.3359Z" fill="#E6E6E6"/>
<path d="M36.7159 98.3359H38.4199V85.7799H36.7159V98.3359Z" fill="#EBEBEB"/>
<path d="M31.1037 98.332H34.5117V86.072H31.1037V98.332Z" fill="#EBEBEB"/>
<path d="M29.3995 98.332H31.1035V86.072H29.3995V98.332Z" fill="#E0E0E0"/>
<path d="M39.56 98.332H41.832V86.072H39.56V98.332Z" fill="#EBEBEB"/>
<path d="M38.4197 98.332H39.5557V86.072H38.4197V98.332Z" fill="#F0F0F0"/>
<path d="M34.5118 116.228H36.7158V103.672H34.5118V116.228Z" fill="#E6E6E6"/>
<path d="M36.7159 116.228H38.4199V103.672H36.7159V116.228Z" fill="#EBEBEB"/>
<path d="M31.1037 116.228H34.5117V103.968H31.1037V116.228Z" fill="#EBEBEB"/>
<path d="M29.3995 116.228H31.1035V103.968H29.3995V116.228Z" fill="#E0E0E0"/>
<path d="M39.56 116.228H41.832V103.968H39.56V116.228Z" fill="#EBEBEB"/>
<path d="M38.4197 116.228H39.5557V103.968H38.4197V116.228Z" fill="#F0F0F0"/>
<path d="M36.7157 121.568H34.5117V134.124H36.7157V121.568Z" fill="#EBEBEB"/>
<path d="M34.5116 121.568H32.8076V134.124H34.5116V121.568Z" fill="#E6E6E6"/>
<path d="M40.1238 121.568H36.7158V133.828H40.1238V121.568Z" fill="#E0E0E0"/>
<path d="M41.828 121.568H40.124V133.828H41.828V121.568Z" fill="#EBEBEB"/>
<path d="M31.6685 121.568H29.3965V133.828H31.6685V121.568Z" fill="#EBEBEB"/>
<path d="M32.8079 121.568H31.6719V133.828H32.8079V121.568Z" fill="#FAFAFA"/>
<path d="M34.5118 152.016H36.7158V139.46H34.5118V152.016Z" fill="#E6E6E6"/>
<path d="M36.7159 152.016H38.4199V139.46H36.7159V152.016Z" fill="#EBEBEB"/>
<path d="M31.1037 151.72H34.5117V139.46H31.1037V151.72Z" fill="#EBEBEB"/>
<path d="M29.3995 151.72H31.1035V139.46H29.3995V151.72Z" fill="#E0E0E0"/>
<path d="M39.56 151.72H41.832V139.46H39.56V151.72Z" fill="#FAFAFA"/>
<path d="M38.4197 151.72H39.5557V139.46H38.4197V151.72Z" fill="#F0F0F0"/>
<path d="M163.552 134.36C163.512 134.404 163.728 134.7 162.856 134.572C160.716 134.248 156.98 133.372 155.944 131.176C154.46 128.028 159.06 129.176 158.9 127.576C158.74 125.976 153.508 126.244 152.952 123.884C152.396 121.524 155.948 122.648 155.992 121.484C156.036 120.32 151.948 121.048 151.136 118.504C150.324 115.96 153.416 117.832 153.064 116.772C152.712 115.712 149.248 110.924 151.128 110.372C153.008 109.82 156.184 114.732 157.408 115.428C158.632 116.124 159.72 112.112 161.18 113.804C162.64 115.496 160.324 121.424 162.184 122.576C163.572 123.432 163.18 121.072 165.008 121.512C167.496 122.112 166.66 130.884 163.552 134.36Z" fill="#EBEBEB"/>
<path d="M156.936 121.504C157.568 121.548 158.191 121.676 158.788 121.884C158.395 121.286 157.955 120.72 157.472 120.192C157.443 120.161 157.426 120.12 157.426 120.078C157.426 120.035 157.443 119.995 157.472 119.964C157.502 119.935 157.543 119.918 157.584 119.918C157.626 119.918 157.666 119.935 157.696 119.964C158.733 121.125 159.62 122.411 160.336 123.792C160.707 121.195 160.345 118.547 159.292 116.144C159.28 116.116 159.28 116.084 159.291 116.055C159.301 116.026 159.323 116.002 159.351 115.989C159.379 115.976 159.41 115.973 159.44 115.983C159.469 115.992 159.494 116.013 159.508 116.04C159.508 116.08 161.34 119.868 160.516 124.128C160.736 124.548 160.956 124.992 161.176 125.472C161.943 127.188 162.55 128.972 162.988 130.8C163.778 129.305 164.211 127.647 164.252 125.956C164.252 125.94 164.256 125.925 164.262 125.911C164.268 125.896 164.277 125.883 164.288 125.872C164.299 125.862 164.312 125.853 164.327 125.848C164.341 125.842 164.357 125.839 164.372 125.84C164.388 125.84 164.403 125.843 164.418 125.849C164.432 125.855 164.445 125.864 164.456 125.875C164.467 125.887 164.475 125.9 164.481 125.914C164.486 125.929 164.489 125.944 164.488 125.96C164.452 127.776 163.964 129.555 163.068 131.136C163.878 134.724 164.148 138.412 163.868 142.08C163.864 142.122 163.844 142.161 163.812 142.189C163.78 142.216 163.739 142.23 163.696 142.228H163.676C163.639 142.22 163.605 142.199 163.582 142.168C163.559 142.137 163.549 142.098 163.552 142.06C163.927 137.407 163.368 132.726 161.908 128.292C161.255 127.533 160.361 127.022 159.376 126.844C159.345 126.839 159.317 126.822 159.298 126.797C159.28 126.771 159.272 126.739 159.276 126.708C159.279 126.693 159.284 126.678 159.292 126.665C159.301 126.652 159.311 126.64 159.324 126.631C159.337 126.622 159.351 126.616 159.366 126.613C159.381 126.609 159.397 126.609 159.412 126.612C160.279 126.759 161.083 127.159 161.724 127.76C161.037 125.827 160.128 123.98 159.016 122.256C158.347 121.973 157.634 121.806 156.908 121.76C156.89 121.758 156.872 121.753 156.856 121.743C156.84 121.734 156.827 121.721 156.816 121.706C156.806 121.69 156.799 121.673 156.796 121.655C156.794 121.636 156.795 121.618 156.8 121.6C156.803 121.585 156.808 121.57 156.816 121.557C156.825 121.544 156.835 121.532 156.848 121.523C156.861 121.514 156.875 121.508 156.89 121.505C156.905 121.501 156.921 121.501 156.936 121.504Z" fill="#F5F5F5"/>
<path d="M166.3 135.576C168.08 135.608 171.12 133.956 172.3 132.348C173.48 130.74 170.104 131.728 170.452 130.444C170.8 129.16 175.004 130.108 175.78 128.272C176.556 126.436 173.524 126.86 173.644 125.92C173.764 124.98 176.908 125.172 177.916 123.22C178.924 121.268 176.16 122.36 176.596 121.552C177.032 120.744 180.492 117.336 179.044 116.628C177.596 115.92 174.344 119.464 173.256 119.86C172.168 120.256 171.916 117.808 170.5 118.98C169.084 120.152 170.144 125.272 168.476 125.948C167.236 126.452 167.764 124.104 166.336 124.696C163.852 125.732 165.576 135.56 166.3 135.576Z" fill="#E0E0E0"/>
<g opacity="0.3">
<path d="M166.3 135.576C168.08 135.608 171.12 133.956 172.3 132.348C173.48 130.74 170.104 131.728 170.452 130.444C170.8 129.16 175.004 130.108 175.78 128.272C176.556 126.436 173.524 126.86 173.644 125.92C173.764 124.98 176.908 125.172 177.916 123.22C178.924 121.268 176.16 122.36 176.596 121.552C177.032 120.744 180.492 117.336 179.044 116.628C177.596 115.92 174.344 119.464 173.256 119.86C172.168 120.256 171.916 117.808 170.5 118.98C169.084 120.152 170.144 125.272 168.476 125.948C167.236 126.452 167.764 124.104 166.336 124.696C163.852 125.732 165.576 135.56 166.3 135.576Z" fill="#EBEBEB"/>
</g>
<path d="M166.888 133.436C166.874 133.433 166.861 133.427 166.85 133.417C166.839 133.408 166.83 133.397 166.824 133.384C166.141 131.892 165.865 130.245 166.024 128.612C166.025 128.596 166.029 128.581 166.036 128.567C166.043 128.552 166.053 128.54 166.065 128.529C166.077 128.519 166.09 128.511 166.105 128.506C166.12 128.501 166.136 128.499 166.152 128.5C166.183 128.503 166.213 128.518 166.233 128.542C166.254 128.565 166.265 128.596 166.264 128.628C166.127 130.177 166.375 131.737 166.984 133.168C167.719 131.179 168.627 129.259 169.696 127.428C169.557 124.987 170.136 122.56 171.36 120.444C171.379 120.422 171.405 120.408 171.433 120.404C171.462 120.4 171.491 120.406 171.515 120.422C171.539 120.437 171.557 120.461 171.566 120.488C171.574 120.516 171.572 120.546 171.56 120.572C170.426 122.543 169.856 124.787 169.912 127.06C171.192 124.864 172.719 122.821 174.464 120.972C174.494 120.943 174.534 120.926 174.576 120.926C174.618 120.926 174.658 120.943 174.688 120.972C174.703 120.986 174.715 121.004 174.723 121.023C174.731 121.042 174.735 121.063 174.735 121.084C174.735 121.105 174.731 121.125 174.723 121.145C174.715 121.164 174.703 121.181 174.688 121.196C173.395 122.556 172.228 124.03 171.2 125.6C172.276 125.196 173.418 124.994 174.568 125.004C174.599 125.006 174.629 125.02 174.65 125.043C174.672 125.066 174.684 125.096 174.684 125.128C174.683 125.159 174.67 125.189 174.647 125.21C174.625 125.232 174.595 125.244 174.564 125.244C173.329 125.231 172.104 125.469 170.964 125.944C170.261 127.021 169.614 128.133 169.024 129.276C169.503 128.944 170.048 128.72 170.622 128.619C171.196 128.519 171.785 128.543 172.348 128.692C172.363 128.696 172.377 128.702 172.39 128.712C172.402 128.721 172.413 128.733 172.42 128.746C172.428 128.76 172.433 128.774 172.435 128.79C172.437 128.805 172.436 128.821 172.432 128.836C172.429 128.851 172.422 128.866 172.413 128.879C172.404 128.891 172.392 128.902 172.379 128.91C172.365 128.918 172.35 128.923 172.334 128.925C172.319 128.926 172.303 128.925 172.288 128.92C171.678 128.761 171.038 128.756 170.425 128.905C169.812 129.054 169.246 129.351 168.776 129.772C166.714 133.83 165.537 138.281 165.324 142.828C165.322 142.869 165.304 142.908 165.274 142.936C165.245 142.964 165.205 142.98 165.164 142.98C165.143 142.979 165.123 142.975 165.104 142.966C165.085 142.958 165.067 142.945 165.053 142.93C165.039 142.915 165.028 142.897 165.021 142.877C165.014 142.858 165.011 142.837 165.012 142.816C165.154 139.612 165.787 136.448 166.888 133.436Z" fill="#F5F5F5"/>
<path d="M161.288 152.972C159.588 149.772 158.488 145.156 158.488 143.132C158.496 142.304 158.686 141.487 159.045 140.741C159.404 139.994 159.922 139.336 160.564 138.812H169.272C169.914 139.336 170.432 139.994 170.79 140.741C171.148 141.488 171.337 142.304 171.344 143.132C171.344 145.156 170.228 149.776 168.544 152.972H161.288Z" fill="#F0F0F0"/>
<path d="M146.4 90.8561C146.4 90.7521 146.4 90.6481 146.4 90.5481L147.004 90.2121C146.956 89.9269 146.881 89.6469 146.78 89.3761H146.088C146.002 89.1884 145.899 89.009 145.78 88.8401L146.136 88.2521C145.953 88.0253 145.747 87.8188 145.52 87.6361L144.932 87.9921C144.763 87.8733 144.584 87.7702 144.396 87.6841V86.9921C144.125 86.8908 143.845 86.8158 143.56 86.7681L143.224 87.3721C143.124 87.3721 143.02 87.3721 142.916 87.3721C142.812 87.3721 142.708 87.3721 142.608 87.3721L142.272 86.7681C141.987 86.8158 141.707 86.8908 141.436 86.9921V87.6841C141.248 87.7702 141.069 87.8733 140.9 87.9921L140.308 87.6361C140.084 87.8199 139.879 88.0264 139.696 88.2521L140.052 88.8401C139.932 89.008 139.829 89.1876 139.744 89.3761H139.052C138.949 89.6463 138.874 89.9265 138.828 90.2121L139.432 90.5481C139.432 90.6481 139.432 90.7521 139.432 90.8561C139.432 90.9601 139.432 91.0641 139.432 91.1641L138.828 91.5001C138.874 91.7857 138.949 92.0658 139.052 92.3361H139.744C139.829 92.5245 139.932 92.7041 140.052 92.8721L139.696 93.4641C139.88 93.6876 140.085 93.8926 140.308 94.0761L140.9 93.7201C141.068 93.8403 141.248 93.9435 141.436 94.0281V94.7201C141.706 94.8232 141.987 94.8982 142.272 94.9441L142.608 94.3401C142.708 94.3401 142.812 94.3401 142.916 94.3401C143.02 94.3401 143.124 94.3401 143.224 94.3401L143.56 94.9441C143.846 94.8982 144.126 94.8232 144.396 94.7201V94.0281C144.585 93.9435 144.764 93.8403 144.932 93.7201L145.52 94.0761C145.746 93.8937 145.952 93.6886 146.136 93.4641L145.78 92.8721C145.899 92.7032 146.002 92.5238 146.088 92.3361H146.78C146.881 92.0652 146.956 91.7853 147.004 91.5001L146.4 91.1641C146.4 91.0641 146.4 90.9601 146.4 90.8561ZM142.916 93.2241C142.448 93.2241 141.99 93.0852 141.601 92.825C141.211 92.5648 140.908 92.195 140.728 91.7623C140.549 91.3296 140.502 90.8534 140.594 90.3941C140.685 89.9347 140.911 89.5128 141.242 89.1816C141.573 88.8505 141.995 88.6249 142.454 88.5336C142.913 88.4422 143.39 88.4891 143.822 88.6683C144.255 88.8476 144.625 89.1511 144.885 89.5405C145.145 89.9299 145.284 90.3877 145.284 90.8561C145.284 91.1684 145.222 91.4776 145.102 91.766C144.982 92.0543 144.806 92.3161 144.585 92.5362C144.363 92.7563 144.1 92.9304 143.811 93.0484C143.522 93.1665 143.212 93.2262 142.9 93.2241H142.916Z" fill="#F0F0F0"/>
<path d="M141.848 99.4041C141.848 99.2481 141.848 99.0961 141.828 98.9441L142.728 98.4401C142.663 98.0162 142.553 97.6005 142.4 97.2001L141.372 97.2201C141.24 96.9408 141.085 96.6732 140.908 96.4201L141.44 95.5361C141.167 95.1985 140.859 94.8914 140.52 94.6201L139.636 95.1481C139.383 94.9713 139.116 94.8174 138.836 94.6881V93.6561C138.431 93.5007 138.012 93.3881 137.584 93.3201L137.084 94.2241C136.777 94.1921 136.467 94.1921 136.16 94.2241L135.66 93.3201C135.232 93.3881 134.812 93.5007 134.408 93.6561V94.6881C134.128 94.8174 133.86 94.9713 133.608 95.1481L132.72 94.6201C132.383 94.8926 132.076 95.1996 131.804 95.5361L132.336 96.4201C132.159 96.6732 132.004 96.9408 131.872 97.2201L130.84 97.2001C130.685 97.6047 130.572 98.0243 130.504 98.4521L131.408 98.9561C131.408 99.1081 131.388 99.2601 131.388 99.4161C131.388 99.5721 131.388 99.7241 131.408 99.8761L130.504 100.38C130.572 100.808 130.685 101.227 130.84 101.632L131.872 101.612C132.003 101.892 132.158 102.159 132.336 102.412L131.804 103.296C132.076 103.633 132.383 103.94 132.72 104.212L133.608 103.684C133.86 103.862 134.127 104.016 134.408 104.144V105.176C134.812 105.331 135.232 105.444 135.66 105.512L136.16 104.608C136.467 104.64 136.777 104.64 137.084 104.608L137.584 105.512C138.012 105.444 138.431 105.331 138.836 105.176V104.144C139.116 104.016 139.384 103.862 139.636 103.684L140.52 104.212C140.859 103.941 141.167 103.634 141.44 103.296L140.9 102.4C141.078 102.147 141.233 101.88 141.364 101.6L142.392 101.62C142.549 101.216 142.661 100.796 142.728 100.368L141.828 99.8641C141.84 99.7121 141.848 99.5601 141.848 99.4041ZM136.648 101.46C136.241 101.46 135.844 101.339 135.506 101.114C135.168 100.888 134.904 100.567 134.748 100.191C134.593 99.8152 134.552 99.4018 134.631 99.003C134.711 98.6041 134.907 98.2378 135.194 97.9503C135.482 97.6627 135.848 97.4669 136.247 97.3876C136.646 97.3082 137.059 97.349 137.435 97.5046C137.81 97.6602 138.131 97.9237 138.357 98.2618C138.583 98.5999 138.704 98.9974 138.704 99.4041C138.704 99.6754 138.65 99.9441 138.546 100.195C138.442 100.445 138.289 100.672 138.096 100.864C137.903 101.055 137.675 101.206 137.424 101.308C137.172 101.411 136.903 101.462 136.632 101.46H136.648Z" fill="#F0F0F0"/>
<path d="M60.8639 83.5481H56.1519C55.7492 83.5481 55.3504 83.6275 54.9784 83.7817C54.6064 83.9359 54.2685 84.162 53.9839 84.4469C53.6993 84.7319 53.4737 85.0701 53.32 85.4423C53.1662 85.8145 53.0874 86.2134 53.0879 86.6161V91.3241C53.0879 92.1371 53.4106 92.9168 53.9851 93.4921C54.5596 94.0673 55.3389 94.391 56.1519 94.3921H60.8639C61.6769 94.391 62.4562 94.0673 63.0307 93.4921C63.6052 92.9168 63.9279 92.1371 63.9279 91.3241V86.6161C63.9284 86.2134 63.8496 85.8145 63.6958 85.4423C63.5421 85.0701 63.3165 84.7319 63.0319 84.4469C62.7473 84.162 62.4094 83.9359 62.0374 83.7817C61.6654 83.6275 61.2666 83.5481 60.8639 83.5481ZM58.5079 92.3481C58.5079 92.3481 55.9599 89.5721 55.9599 88.1641C55.9599 87.4883 56.2283 86.8402 56.7062 86.3624C57.184 85.8845 57.8321 85.6161 58.5079 85.6161C59.1837 85.6161 59.8318 85.8845 60.3096 86.3624C60.7874 86.8402 61.0559 87.4883 61.0559 88.1641C61.0559 89.5601 58.5079 92.3361 58.5079 92.3361V92.3481Z" fill="#F0F0F0"/>
<path d="M58.5077 86.992C58.2774 86.992 58.0521 87.0603 57.8606 87.1884C57.6691 87.3165 57.52 87.4985 57.432 87.7114C57.344 87.9244 57.3212 88.1586 57.3664 88.3845C57.4116 88.6104 57.5229 88.8178 57.6861 88.9804C57.8493 89.1431 58.0571 89.2536 58.2831 89.2981C58.5092 89.3425 58.7433 89.3189 58.956 89.2302C59.1686 89.1415 59.3501 88.9917 59.4775 88.7997C59.6049 88.6078 59.6725 88.3823 59.6717 88.152C59.6717 87.9993 59.6416 87.8481 59.5831 87.7071C59.5245 87.5661 59.4387 87.4381 59.3306 87.3303C59.2224 87.2225 59.0941 87.1372 58.9529 87.0791C58.8117 87.021 58.6604 86.9914 58.5077 86.992Z" fill="#F0F0F0"/>
<path d="M156 48.3999H151.028C150.657 48.3994 150.288 48.4721 149.945 48.614C149.601 48.7559 149.289 48.9641 149.026 49.2268C148.763 49.4894 148.554 49.8014 148.412 50.1448C148.27 50.4881 148.196 50.8562 148.196 51.2279V56.2039C148.196 56.5756 148.27 56.9437 148.412 57.2871C148.554 57.6304 148.763 57.9424 149.026 58.205C149.289 58.4677 149.601 58.6759 149.945 58.8178C150.288 58.9597 150.657 59.0324 151.028 59.0319H156C156.372 59.0324 156.74 58.9596 157.083 58.8177C157.426 58.6758 157.738 58.4675 158.001 58.2048C158.264 57.9421 158.472 57.6301 158.614 57.2868C158.756 56.9434 158.829 56.5754 158.828 56.2039V51.1999C158.822 50.4544 158.521 49.7417 157.991 49.2171C157.462 48.6926 156.746 48.3988 156 48.3999ZM156.664 52.0359C156.534 52.2009 156.382 52.3476 156.212 52.4719C156.205 52.4746 156.199 52.4797 156.196 52.4863C156.192 52.4928 156.191 52.5005 156.192 52.5079C156.198 52.6938 156.187 52.8799 156.16 53.0639C156.119 53.4497 156.016 53.8265 155.856 54.1799C155.691 54.5396 155.47 54.8705 155.2 55.1599C154.738 55.6473 154.138 55.9822 153.48 56.1199C153.249 56.1711 153.013 56.2005 152.776 56.2079C152.071 56.224 151.376 56.035 150.776 55.6639H150.744C151.406 55.7316 152.069 55.5505 152.604 55.1559C152.342 55.1496 152.088 55.0625 151.876 54.9065C151.665 54.7504 151.507 54.533 151.424 54.2839C151.602 54.3218 151.786 54.3218 151.964 54.2839C151.795 54.2482 151.634 54.1784 151.493 54.0787C151.351 53.979 151.231 53.8515 151.14 53.7039C151.015 53.5051 150.948 53.2749 150.948 53.0399C151.117 53.1306 151.305 53.1826 151.496 53.1919C151.236 53.0096 151.052 52.7375 150.98 52.4279C150.902 52.1206 150.947 51.7951 151.104 51.5199C151.425 51.9064 151.823 52.2224 152.271 52.4482C152.72 52.6739 153.211 52.8046 153.712 52.8319C153.71 52.7844 153.702 52.7373 153.688 52.6919C153.647 52.4056 153.708 52.1139 153.86 51.8679C153.953 51.7197 154.077 51.5935 154.223 51.4982C154.37 51.4028 154.535 51.3406 154.708 51.3159C154.905 51.2814 155.107 51.2951 155.297 51.3557C155.487 51.4163 155.66 51.522 155.8 51.6639C155.809 51.6739 155.821 51.6811 155.833 51.6847C155.846 51.6882 155.86 51.688 155.872 51.6839C156.126 51.6296 156.371 51.5365 156.596 51.4079C156.506 51.6743 156.33 51.9034 156.096 52.0599C156.337 52.0318 156.571 51.967 156.792 51.8679L156.664 52.0359Z" fill="#F0F0F0"/>
<path d="M51.7563 45.136H46.4323C44.76 45.136 43.4043 46.4917 43.4043 48.164V53.488C43.4043 55.1603 44.76 56.516 46.4323 56.516H51.7563C53.4286 56.516 54.7843 55.1603 54.7843 53.488V48.164C54.7843 46.4917 53.4286 45.136 51.7563 45.136Z" fill="#F0F0F0"/>
<path d="M50.3685 49.0159V50.6159C50.3685 50.7735 50.3374 50.9295 50.2771 51.0751C50.2168 51.2207 50.1284 51.353 50.017 51.4644C49.9056 51.5759 49.7733 51.6643 49.6277 51.7246C49.4821 51.7849 49.3261 51.8159 49.1685 51.8159H47.6365L45.8885 53.5639V51.8159C45.5702 51.8159 45.265 51.6895 45.0399 51.4644C44.8149 51.2394 44.6885 50.9342 44.6885 50.6159V49.0159C44.6885 48.6977 44.8149 48.3924 45.0399 48.1674C45.265 47.9423 45.5702 47.8159 45.8885 47.8159H49.1685C49.4867 47.8159 49.792 47.9423 50.017 48.1674C50.242 48.3924 50.3685 48.6977 50.3685 49.0159Z" fill="white"/>
<path d="M53.4998 51.4361V52.6681C53.4998 52.9132 53.4025 53.1482 53.2292 53.3215C53.0559 53.4948 52.8209 53.5921 52.5758 53.5921V54.9361L51.2318 53.6001H50.0558C49.8108 53.6001 49.5758 53.5028 49.4025 53.3295C49.2292 53.1562 49.1318 52.9212 49.1318 52.6761V51.4441C49.1313 51.3224 49.1548 51.2019 49.201 51.0893C49.2472 50.9767 49.3152 50.8744 49.4011 50.7882C49.4869 50.7019 49.589 50.6335 49.7013 50.5868C49.8137 50.5401 49.9342 50.5161 50.0558 50.5161H52.5758C52.8202 50.5161 53.0546 50.6129 53.2278 50.7853C53.401 50.9577 53.4988 51.1917 53.4998 51.4361Z" fill="white"/>
<path d="M49.1001 49.116H46.1321C46.096 49.116 46.0614 49.1017 46.0359 49.0762C46.0104 49.0507 45.9961 49.0161 45.9961 48.98C45.9961 48.9439 46.0104 48.9093 46.0359 48.8838C46.0614 48.8583 46.096 48.844 46.1321 48.844H49.1001C49.1362 48.844 49.1708 48.8583 49.1963 48.8838C49.2218 48.9093 49.2361 48.9439 49.2361 48.98C49.2361 49.0161 49.2218 49.0507 49.1963 49.0762C49.1708 49.1017 49.1362 49.116 49.1001 49.116Z" fill="#EBEBEB"/>
<path d="M49.1001 49.8079H46.1321C46.096 49.8079 46.0614 49.7936 46.0359 49.7681C46.0104 49.7426 45.9961 49.708 45.9961 49.6719C45.9961 49.6358 46.0104 49.6012 46.0359 49.5757C46.0614 49.5502 46.096 49.5359 46.1321 49.5359H49.1001C49.1362 49.5359 49.1708 49.5502 49.1963 49.5757C49.2218 49.6012 49.2361 49.6358 49.2361 49.6719C49.2361 49.708 49.2218 49.7426 49.1963 49.7681C49.1708 49.7936 49.1362 49.8079 49.1001 49.8079Z" fill="#EBEBEB"/>
<path d="M48.2721 50.5H46.1321C46.096 50.5 46.0614 50.4857 46.0359 50.4602C46.0104 50.4347 45.9961 50.4001 45.9961 50.364C45.9961 50.328 46.0104 50.2934 46.0359 50.2679C46.0614 50.2424 46.096 50.228 46.1321 50.228H48.2721C48.3082 50.228 48.3428 50.2424 48.3683 50.2679C48.3938 50.2934 48.4081 50.328 48.4081 50.364C48.4081 50.4001 48.3938 50.4347 48.3683 50.4602C48.3428 50.4857 48.3082 50.5 48.2721 50.5Z" fill="#EBEBEB"/>
<path d="M100 169.484C142.833 169.484 177.556 167.457 177.556 164.956C177.556 162.455 142.833 160.428 100 160.428C57.1673 160.428 22.4443 162.455 22.4443 164.956C22.4443 167.457 57.1673 169.484 100 169.484Z" fill="#F5F5F5"/>
<path d="M118.36 70.236H117.96V65.944C117.959 65.1175 117.63 64.3252 117.046 63.7404C116.462 63.1556 115.67 62.8261 114.844 62.824H106.944C106.011 62.8229 105.116 62.4517 104.456 61.7918C103.796 61.1319 103.425 60.2372 103.424 59.304V56H103.824V59.312C103.825 60.1391 104.154 60.9321 104.739 61.517C105.324 62.1019 106.117 62.4309 106.944 62.432H114.844C115.777 62.4331 116.671 62.8044 117.33 63.4644C117.99 64.1244 118.36 65.0191 118.36 65.952V70.236Z" fill="black"/>
<path d="M121.2 70.3201H116C115.495 70.3201 115.012 70.5201 114.655 70.8763C114.298 71.2325 114.097 71.7158 114.096 72.2201V77.4201C114.097 77.9243 114.298 78.4076 114.655 78.7638C115.012 79.12 115.495 79.3201 116 79.3201H121.2C121.704 79.3201 122.188 79.12 122.545 78.7638C122.902 78.4076 123.103 77.9243 123.104 77.4201V72.2201C123.103 71.7158 122.902 71.2325 122.545 70.8763C122.188 70.5201 121.704 70.3201 121.2 70.3201Z" fill="#C53F3F"/>
<g opacity="0.4">
<path d="M121.201 70.3201H116.001C115.496 70.3201 115.013 70.5201 114.656 70.8763C114.299 71.2325 114.098 71.7158 114.097 72.2201V77.4201C114.098 77.9243 114.299 78.4076 114.656 78.7638C115.013 79.12 115.496 79.3201 116.001 79.3201H121.201C121.705 79.3201 122.189 79.12 122.546 78.7638C122.903 78.4076 123.104 77.9243 123.105 77.4201V72.2201C123.104 71.7158 122.903 71.2325 122.546 70.8763C122.189 70.5201 121.705 70.3201 121.201 70.3201Z" fill="white"/>
</g>
<path d="M118.559 71.168C117.852 71.1672 117.16 71.3763 116.571 71.769C115.983 72.1616 115.524 72.7201 115.252 73.3736C114.981 74.0272 114.91 74.7466 115.048 75.4406C115.186 76.1347 115.527 76.7722 116.027 77.2726C116.527 77.7729 117.165 78.1136 117.859 78.2515C118.553 78.3893 119.272 78.3182 119.926 78.047C120.579 77.7758 121.138 77.3169 121.53 76.7282C121.923 76.1395 122.132 75.4476 122.131 74.74C122.129 73.7933 121.752 72.8859 121.083 72.2165C120.414 71.5471 119.506 71.1701 118.559 71.168ZM117.991 71.568C117.644 71.9143 117.362 72.3209 117.159 72.768H116.027C116.513 72.138 117.216 71.7117 117.999 71.572L117.991 71.568ZM115.783 73.104H117.007C116.831 73.5627 116.724 74.0455 116.691 74.536V74.62H115.351C115.37 74.0882 115.518 73.569 115.783 73.108V73.104ZM115.855 76.484C115.562 76.0304 115.388 75.5105 115.347 74.972H116.699C116.751 75.4941 116.886 76.0045 117.099 76.484H115.855ZM116.119 76.836H117.267C117.487 77.2496 117.779 77.6197 118.131 77.928C117.35 77.8256 116.633 77.4381 116.119 76.84V76.836ZM118.383 77.68C118.104 77.4385 117.865 77.1536 117.675 76.836H118.399L118.383 77.68ZM118.383 76.48H117.483C117.255 76.0044 117.11 75.4928 117.055 74.968H118.399L118.383 76.48ZM118.383 74.616H117.043C117.067 74.0942 117.183 73.5807 117.387 73.1H118.399L118.383 74.616ZM118.383 72.748H117.551C117.757 72.3439 118.04 71.9839 118.383 71.688V72.748ZM121.779 74.616H120.435V74.532C120.405 74.0412 120.298 73.5581 120.119 73.1H121.343C121.614 73.5634 121.764 74.0874 121.779 74.624V74.616ZM121.091 72.748H119.963C119.758 72.3015 119.475 71.8952 119.127 71.548C119.91 71.6926 120.61 72.1232 121.091 72.756V72.748ZM118.735 71.692C119.08 71.9855 119.363 72.3444 119.567 72.748H118.735V71.692ZM118.735 73.1H119.731C119.937 73.5806 120.054 74.094 120.079 74.616H118.735V73.1ZM118.735 74.968H120.063C120.011 75.4932 119.866 76.005 119.635 76.48H118.735V74.968ZM118.735 77.676V76.84H119.443C119.257 77.1592 119.017 77.4446 118.735 77.684V77.676ZM118.987 77.924C119.34 77.6157 119.632 77.2456 119.851 76.832H120.999C120.488 77.4346 119.771 77.8264 118.987 77.932V77.924ZM121.263 76.48H120.023C120.237 76.0005 120.372 75.4901 120.423 74.968H121.775C121.737 75.5099 121.56 76.033 121.263 76.488V76.48Z" fill="white"/>
<path d="M134.5 63.6H134.1V59.308C134.1 58.4816 133.772 57.689 133.187 57.1047C132.603 56.5203 131.81 56.192 130.984 56.192H112.132V55.792H130.984C131.916 55.7931 132.81 56.1638 133.469 56.823C134.128 57.4821 134.499 58.3758 134.5 59.308V63.6Z" fill="black"/>
<path d="M135.792 60.488H130.592C130.087 60.488 129.604 60.6881 129.247 61.0443C128.89 61.4005 128.689 61.8838 128.688 62.388V67.588C128.689 68.0923 128.89 68.5756 129.247 68.9318C129.604 69.288 130.087 69.488 130.592 69.488H135.792C136.296 69.488 136.779 69.288 137.136 68.9318C137.493 68.5756 137.694 68.0923 137.695 67.588V62.4C137.697 62.1493 137.648 61.9009 137.553 61.669C137.458 61.437 137.318 61.2262 137.141 61.0485C136.964 60.8709 136.754 60.7299 136.522 60.6337C136.29 60.5375 136.042 60.488 135.792 60.488Z" fill="#C53F3F"/>
<g opacity="0.4">
<path d="M135.792 60.488H130.592C130.087 60.488 129.604 60.6881 129.247 61.0443C128.89 61.4005 128.689 61.8838 128.688 62.388V67.588C128.689 68.0923 128.89 68.5756 129.247 68.9318C129.604 69.288 130.087 69.488 130.592 69.488H135.792C136.296 69.488 136.779 69.288 137.136 68.9318C137.493 68.5756 137.694 68.0923 137.695 67.588V62.4C137.697 62.1493 137.648 61.9009 137.553 61.669C137.458 61.437 137.318 61.2262 137.141 61.0485C136.964 60.8709 136.754 60.7299 136.522 60.6337C136.29 60.5375 136.042 60.488 135.792 60.488Z" fill="white"/>
</g>
<path opacity="0.9" d="M133.8 62.5041C133.507 62.2106 133.136 62.0068 132.731 61.9164C132.326 61.8261 131.904 61.8529 131.513 61.9939C131.123 62.1349 130.781 62.3841 130.527 62.7124C130.274 63.0407 130.119 63.4345 130.08 63.8477C130.042 64.2609 130.123 64.6764 130.312 65.0455C130.502 65.4146 130.793 65.7221 131.151 65.932C131.509 66.1419 131.919 66.2455 132.334 66.2306C132.748 66.2158 133.15 66.0831 133.492 65.8481C133.508 65.9483 133.556 66.0407 133.628 66.1121L134.984 67.4681C135.029 67.5135 135.083 67.5496 135.143 67.5742C135.202 67.5988 135.266 67.6114 135.33 67.6114C135.394 67.6114 135.458 67.5988 135.517 67.5742C135.577 67.5496 135.631 67.5135 135.676 67.4681C135.721 67.4227 135.758 67.3687 135.782 67.3094C135.807 67.25 135.819 67.1864 135.819 67.1221C135.819 67.0578 135.807 66.9942 135.782 66.9349C135.758 66.8755 135.721 66.8215 135.676 66.7761L134.32 65.4201C134.248 65.3473 134.154 65.2996 134.052 65.2841C134.341 64.8642 134.474 64.3563 134.428 63.8486C134.382 63.3409 134.16 62.8652 133.8 62.5041ZM133.336 65.1281C133.122 65.3427 132.849 65.489 132.552 65.5484C132.254 65.6078 131.946 65.5777 131.666 65.4618C131.386 65.346 131.146 65.1496 130.978 64.8976C130.809 64.6456 130.719 64.3493 130.719 64.0461C130.719 63.743 130.809 63.4466 130.978 63.1946C131.146 62.9426 131.386 62.7462 131.666 62.6304C131.946 62.5145 132.254 62.4844 132.552 62.5438C132.849 62.6032 133.122 62.7495 133.336 62.9641C133.478 63.1061 133.591 63.2747 133.668 63.4604C133.745 63.646 133.785 63.8451 133.785 64.0461C133.785 64.2471 133.745 64.4462 133.668 64.6319C133.591 64.8175 133.478 64.9862 133.336 65.1281Z" fill="white"/>
<path d="M135.812 48.9761H111.684V49.3761H135.812V48.9761Z" fill="black"/>
<path d="M139.628 42.1121H134.448C134.198 42.1121 133.951 42.1613 133.72 42.2571C133.489 42.3528 133.279 42.4931 133.103 42.67C132.926 42.8468 132.787 43.0568 132.691 43.2877C132.596 43.5187 132.547 43.7662 132.548 44.0161V49.2001C132.547 49.4499 132.596 49.6974 132.691 49.9284C132.787 50.1594 132.926 50.3693 133.103 50.5462C133.279 50.723 133.489 50.8633 133.72 50.9591C133.951 51.0548 134.198 51.1041 134.448 51.1041H139.628C140.133 51.1041 140.617 50.9035 140.974 50.5464C141.331 50.1893 141.532 49.705 141.532 49.2001V44.0001C141.528 43.4979 141.325 43.0177 140.969 42.6641C140.612 42.3104 140.13 42.112 139.628 42.1121Z" fill="#C53F3F"/>
<g opacity="0.4">
<path d="M139.628 42.1121H134.448C134.198 42.1121 133.951 42.1613 133.72 42.2571C133.489 42.3528 133.279 42.4931 133.103 42.67C132.926 42.8468 132.787 43.0568 132.691 43.2877C132.596 43.5187 132.547 43.7662 132.548 44.0161V49.2001C132.547 49.4499 132.596 49.6974 132.691 49.9284C132.787 50.1594 132.926 50.3693 133.103 50.5462C133.279 50.723 133.489 50.8633 133.72 50.9591C133.951 51.0548 134.198 51.1041 134.448 51.1041H139.628C140.133 51.1041 140.617 50.9035 140.974 50.5464C141.331 50.1893 141.532 49.705 141.532 49.2001V44.0001C141.528 43.4979 141.325 43.0177 140.969 42.6641C140.612 42.3104 140.13 42.112 139.628 42.1121Z" fill="white"/>
</g>
<g opacity="0.5">
<path d="M135.775 49.176C135.775 49.3097 135.735 49.4404 135.661 49.5516C135.587 49.6627 135.481 49.7494 135.358 49.8006C135.234 49.8517 135.098 49.8651 134.967 49.839C134.836 49.8129 134.715 49.7486 134.621 49.654C134.526 49.5595 134.462 49.439 134.436 49.3079C134.41 49.1768 134.423 49.0408 134.474 48.9173C134.525 48.7938 134.612 48.6882 134.723 48.6139C134.834 48.5397 134.965 48.5 135.099 48.5C135.188 48.4995 135.276 48.5166 135.358 48.5504C135.44 48.5842 135.515 48.6339 135.578 48.6968C135.641 48.7597 135.691 48.8344 135.724 48.9167C135.758 48.9989 135.775 49.0871 135.775 49.176Z" fill="white"/>
<path d="M138.399 49.176C138.399 49.3097 138.359 49.4404 138.285 49.5516C138.211 49.6627 138.105 49.7494 137.982 49.8006C137.858 49.8517 137.722 49.8651 137.591 49.839C137.46 49.8129 137.339 49.7486 137.245 49.654C137.15 49.5595 137.086 49.439 137.06 49.3079C137.034 49.1768 137.047 49.0408 137.098 48.9173C137.15 48.7938 137.236 48.6882 137.347 48.6139C137.458 48.5397 137.589 48.5 137.723 48.5C137.812 48.4995 137.9 48.5166 137.982 48.5504C138.064 48.5842 138.139 48.6339 138.202 48.6968C138.265 48.7597 138.315 48.8344 138.348 48.9167C138.382 48.9989 138.399 49.0871 138.399 49.176Z" fill="white"/>
</g>
<path d="M138.288 48.156H134.36C134.321 48.1553 134.284 48.1426 134.253 48.1196C134.222 48.0966 134.199 48.0646 134.188 48.028L133.364 45.296C133.355 45.269 133.353 45.2404 133.358 45.2125C133.363 45.1847 133.374 45.1584 133.392 45.136C133.408 45.1136 133.43 45.0955 133.455 45.083C133.48 45.0705 133.508 45.064 133.536 45.064H139.112C139.14 45.064 139.168 45.0704 139.194 45.0829C139.22 45.0954 139.242 45.1135 139.26 45.136C139.276 45.1588 139.287 45.1851 139.292 45.2128C139.297 45.2405 139.295 45.2689 139.288 45.296L138.46 48.028C138.449 48.0649 138.426 48.0973 138.395 48.1204C138.364 48.1434 138.326 48.1559 138.288 48.156ZM134.496 47.796H138.156L138.872 45.424H133.776L134.496 47.796Z" fill="white"/>
<path d="M139.112 45.4241H139.064C139.041 45.4177 139.02 45.4067 139.001 45.3919C138.982 45.3772 138.967 45.3588 138.955 45.338C138.944 45.3172 138.936 45.2942 138.934 45.2706C138.931 45.2469 138.933 45.2229 138.94 45.2001L139.256 44.1001C139.298 43.9561 139.385 43.8295 139.504 43.7393C139.624 43.6491 139.77 43.6003 139.92 43.6001H140.544C140.592 43.6001 140.637 43.6191 140.671 43.6528C140.705 43.6866 140.724 43.7324 140.724 43.7801C140.724 43.8278 140.705 43.8736 140.671 43.9074C140.637 43.9411 140.592 43.9601 140.544 43.9601H139.92C139.848 43.9607 139.779 43.9845 139.722 44.0277C139.665 44.0709 139.624 44.1314 139.604 44.2001L139.288 45.3001C139.275 45.3366 139.252 45.3683 139.22 45.3905C139.188 45.4128 139.151 45.4245 139.112 45.4241Z" fill="white"/>
<path d="M118.8 43.632H110.952V43.232H118.8C119.627 43.232 120.419 42.9037 121.003 42.3193C121.588 41.735 121.916 40.9424 121.916 40.116V35.824H122.316V40.116C122.315 41.0482 121.944 41.9418 121.285 42.601C120.626 43.2601 119.732 43.6309 118.8 43.632Z" fill="black"/>
<path d="M124.884 28.9719H119.38C118.408 28.9719 117.62 29.7599 117.62 30.7319V36.2359C117.62 37.2079 118.408 37.9959 119.38 37.9959H124.884C125.856 37.9959 126.644 37.2079 126.644 36.2359V30.7319C126.644 29.7599 125.856 28.9719 124.884 28.9719Z" fill="#C53F3F"/>
<g opacity="0.4">
<path d="M124.884 28.9719H119.38C118.408 28.9719 117.62 29.7599 117.62 30.7319V36.2359C117.62 37.2079 118.408 37.9959 119.38 37.9959H124.884C125.856 37.9959 126.644 37.2079 126.644 36.2359V30.7319C126.644 29.7599 125.856 28.9719 124.884 28.9719Z" fill="white"/>
</g>
<path d="M125.552 34.4279C125.552 34.5239 125.552 34.8639 125.532 34.9599H122.448V33.4879H122.868L122 32.6159L121.128 33.4879H121.548V34.9599H118.652C118.652 34.9119 118.652 34.6159 118.652 34.5599C118.653 34.1751 118.796 33.8042 119.055 33.5195C119.314 33.2348 119.669 33.0567 120.052 33.0199V32.9599C120.049 32.5249 120.202 32.1031 120.483 31.7713C120.764 31.4395 121.155 31.2197 121.585 31.1518C122.015 31.084 122.455 31.1727 122.824 31.4018C123.194 31.6308 123.47 31.985 123.6 32.3999C123.709 32.4022 123.817 32.4129 123.924 32.4319C124.387 32.5195 124.805 32.7678 125.102 33.1329C125.4 33.4981 125.56 33.9567 125.552 34.4279Z" fill="white"/>
<path d="M100.66 33.384H100.26V41.604H100.66V33.384Z" fill="black"/>
<path d="M103.052 25.5439H97.8718C97.3668 25.5439 96.8825 25.7445 96.5254 26.1016C96.1684 26.4587 95.9678 26.943 95.9678 27.4479V32.6279C95.9678 33.1329 96.1684 33.6172 96.5254 33.9743C96.8825 34.3313 97.3668 34.5319 97.8718 34.5319H103.052C103.302 34.5319 103.549 34.4827 103.78 34.3869C104.011 34.2912 104.22 34.1509 104.397 33.974C104.573 33.7972 104.713 33.5873 104.808 33.3563C104.904 33.1253 104.952 32.8778 104.952 32.6279V27.4479C104.952 27.1981 104.904 26.9506 104.808 26.7196C104.713 26.4886 104.573 26.2787 104.397 26.1019C104.22 25.925 104.011 25.7847 103.78 25.689C103.549 25.5932 103.302 25.5439 103.052 25.5439Z" fill="#C53F3F"/>
<g opacity="0.4">
<path d="M103.052 25.5439H97.8718C97.3668 25.5439 96.8825 25.7445 96.5254 26.1016C96.1684 26.4587 95.9678 26.943 95.9678 27.4479V32.6279C95.9678 33.1329 96.1684 33.6172 96.5254 33.9743C96.8825 34.3313 97.3668 34.5319 97.8718 34.5319H103.052C103.302 34.5319 103.549 34.4827 103.78 34.3869C104.011 34.2912 104.22 34.1509 104.397 33.974C104.573 33.7972 104.713 33.5873 104.808 33.3563C104.904 33.1253 104.952 32.8778 104.952 32.6279V27.4479C104.952 27.1981 104.904 26.9506 104.808 26.7196C104.713 26.4886 104.573 26.2787 104.397 26.1019C104.22 25.925 104.011 25.7847 103.78 25.689C103.549 25.5932 103.302 25.5439 103.052 25.5439Z" fill="white"/>
</g>
<path d="M101.291 30.628C101.291 30.568 101.291 30.508 101.291 30.452L101.655 30.308C101.652 30.1421 101.631 29.9771 101.591 29.816L101.191 29.772C101.157 29.6602 101.113 29.5517 101.059 29.448L101.303 29.14C101.216 28.9973 101.116 28.8634 101.003 28.74L100.643 28.896C100.556 28.8162 100.463 28.7439 100.363 28.68L100.419 28.28C100.275 28.1983 100.122 28.1339 99.9634 28.088L99.7314 28.404L99.5994 28.4H99.4274L99.2794 28.032C99.115 28.0373 98.9516 28.0587 98.7914 28.096L98.7474 28.496C98.6339 28.5305 98.524 28.5761 98.4194 28.632L98.1114 28.384C97.9678 28.471 97.8337 28.5729 97.7114 28.688L97.8674 29.048C97.7892 29.1353 97.7183 29.229 97.6554 29.328L97.2554 29.268C97.1781 29.4135 97.1151 29.5662 97.0674 29.724L97.3834 29.96C97.3834 30.016 97.3594 30.072 97.3514 30.132C97.3474 30.1906 97.3474 30.2494 97.3514 30.308L96.9834 30.452C96.9864 30.6178 97.0079 30.7829 97.0474 30.944L97.4474 30.988C97.4831 31.0992 97.5272 31.2075 97.5794 31.312L97.3354 31.62C97.4224 31.7626 97.5228 31.8966 97.6354 32.02L97.9994 31.864C98.0843 31.9447 98.1767 32.017 98.2754 32.08L98.2194 32.48C98.3638 32.5596 98.5168 32.6227 98.6754 32.668L98.9074 32.352L99.0834 32.384H99.2594L99.4034 32.748C99.5679 32.7449 99.7316 32.7235 99.8914 32.684L99.9354 32.284C100.049 32.2494 100.159 32.2039 100.263 32.148L100.571 32.392C100.716 32.3077 100.85 32.2071 100.971 32.092L100.815 31.732C100.894 31.6449 100.965 31.5512 101.027 31.452L101.427 31.512C101.505 31.3664 101.568 31.2137 101.615 31.056L101.299 30.82C101.271 30.744 101.283 30.684 101.291 30.628ZM99.1994 31.144C99.0409 31.1263 98.8913 31.0615 98.7698 30.9581C98.6483 30.8547 98.5605 30.7174 98.5177 30.5637C98.4749 30.4101 98.4789 30.2471 98.5294 30.0958C98.5799 29.9445 98.6744 29.8117 98.801 29.7145C98.9275 29.6173 99.0801 29.5602 99.2393 29.5504C99.3986 29.5407 99.5571 29.5787 99.6945 29.6597C99.8319 29.7407 99.942 29.861 100.011 30.005C100.079 30.149 100.103 30.3102 100.079 30.468C100.049 30.6726 99.9397 30.8573 99.7757 30.9834C99.6116 31.1094 99.405 31.167 99.1994 31.144Z" fill="#C53F3F"/>
<path d="M101.291 30.628C101.291 30.568 101.291 30.508 101.291 30.452L101.655 30.308C101.652 30.1421 101.631 29.9771 101.591 29.816L101.191 29.772C101.157 29.6602 101.113 29.5517 101.059 29.448L101.303 29.14C101.216 28.9973 101.116 28.8634 101.003 28.74L100.643 28.896C100.556 28.8162 100.463 28.7439 100.363 28.68L100.419 28.28C100.275 28.1983 100.122 28.1339 99.9634 28.088L99.7314 28.404L99.5994 28.4H99.4274L99.2794 28.032C99.115 28.0373 98.9516 28.0587 98.7914 28.096L98.7474 28.496C98.6339 28.5305 98.524 28.5761 98.4194 28.632L98.1114 28.384C97.9678 28.471 97.8337 28.5729 97.7114 28.688L97.8674 29.048C97.7892 29.1353 97.7183 29.229 97.6554 29.328L97.2554 29.268C97.1781 29.4135 97.1151 29.5662 97.0674 29.724L97.3834 29.96C97.3834 30.016 97.3594 30.072 97.3514 30.132C97.3474 30.1906 97.3474 30.2494 97.3514 30.308L96.9834 30.452C96.9864 30.6178 97.0079 30.7829 97.0474 30.944L97.4474 30.988C97.4831 31.0992 97.5272 31.2075 97.5794 31.312L97.3354 31.62C97.4224 31.7626 97.5228 31.8966 97.6354 32.02L97.9994 31.864C98.0843 31.9447 98.1767 32.017 98.2754 32.08L98.2194 32.48C98.3638 32.5596 98.5168 32.6227 98.6754 32.668L98.9074 32.352L99.0834 32.384H99.2594L99.4034 32.748C99.5679 32.7449 99.7316 32.7235 99.8914 32.684L99.9354 32.284C100.049 32.2494 100.159 32.2039 100.263 32.148L100.571 32.392C100.716 32.3077 100.85 32.2071 100.971 32.092L100.815 31.732C100.894 31.6449 100.965 31.5512 101.027 31.452L101.427 31.512C101.505 31.3664 101.568 31.2137 101.615 31.056L101.299 30.82C101.271 30.744 101.283 30.684 101.291 30.628ZM99.1994 31.144C99.0409 31.1263 98.8913 31.0615 98.7698 30.9581C98.6483 30.8547 98.5605 30.7174 98.5177 30.5637C98.4749 30.4101 98.4789 30.2471 98.5294 30.0958C98.5799 29.9445 98.6744 29.8117 98.801 29.7145C98.9275 29.6173 99.0801 29.5602 99.2393 29.5504C99.3986 29.5407 99.5571 29.5787 99.6945 29.6597C99.8319 29.7407 99.942 29.861 100.011 30.005C100.079 30.149 100.103 30.3102 100.079 30.468C100.049 30.6726 99.9397 30.8573 99.7757 30.9834C99.6116 31.1094 99.405 31.167 99.1994 31.144Z" fill="white"/>
<g opacity="0.5">
<path d="M102.932 29.408C102.702 29.4087 102.479 29.3322 102.299 29.1908C102.119 29.0494 101.991 28.8514 101.937 28.6286C101.883 28.4058 101.905 28.1713 102.001 27.9629C102.097 27.7546 102.259 27.5844 102.464 27.48V28.124C102.465 28.2487 102.515 28.3679 102.604 28.456C102.691 28.543 102.808 28.5919 102.932 28.592C103.056 28.592 103.175 28.5427 103.262 28.4549C103.35 28.3671 103.4 28.2481 103.4 28.124V27.48C103.604 27.5844 103.767 27.7546 103.862 27.9629C103.958 28.1713 103.98 28.4058 103.926 28.6286C103.872 28.8514 103.744 29.0494 103.564 29.1908C103.384 29.3322 103.161 29.4087 102.932 29.408Z" fill="white"/>
<path d="M102.468 31.956V29.124C102.467 29.0627 102.479 29.002 102.502 28.9452C102.525 28.8885 102.559 28.8368 102.602 28.7933C102.645 28.7498 102.697 28.7153 102.753 28.6917C102.81 28.6681 102.871 28.656 102.932 28.656C102.993 28.656 103.054 28.6681 103.11 28.6917C103.167 28.7153 103.218 28.7498 103.261 28.7933C103.304 28.8368 103.339 28.8885 103.362 28.9452C103.385 29.002 103.396 29.0627 103.396 29.124V31.956C103.396 32.0169 103.384 32.0773 103.36 32.1336C103.337 32.1899 103.303 32.241 103.26 32.2841C103.217 32.3272 103.166 32.3614 103.109 32.3847C103.053 32.408 102.993 32.42 102.932 32.42C102.871 32.42 102.811 32.408 102.754 32.3847C102.698 32.3614 102.647 32.3272 102.604 32.2841C102.561 32.241 102.526 32.1899 102.503 32.1336C102.48 32.0773 102.468 32.0169 102.468 31.956Z" fill="white"/>
</g>
<path d="M83.1158 70.236H82.7158V65.944C82.7169 65.0108 83.0881 64.1161 83.748 63.4562C84.4079 62.7963 85.3026 62.4251 86.2358 62.424H94.1318C94.959 62.4229 95.7519 62.0939 96.3368 61.509C96.9217 60.9241 97.2508 60.1311 97.2518 59.304V56H97.6518V59.312C97.6508 60.2452 97.2796 61.1399 96.6197 61.7998C95.9598 62.4597 95.0651 62.8309 94.1318 62.832H86.2358C85.4087 62.8331 84.6157 63.1621 84.0308 63.747C83.4459 64.3319 83.1169 65.1249 83.1158 65.952V70.236Z" fill="black"/>
<path d="M85.3081 69.7319H80.1081C79.6031 69.7319 79.1188 69.9325 78.7618 70.2896C78.4047 70.6467 78.2041 71.131 78.2041 71.6359V76.7999C78.2041 77.0498 78.2534 77.2972 78.3491 77.528C78.4448 77.7587 78.5852 77.9684 78.762 78.1449C78.9389 78.3213 79.1488 78.4612 79.3798 78.5565C79.6108 78.6517 79.8583 78.7005 80.1081 78.6999H85.3081C85.8106 78.6978 86.2918 78.4967 86.6464 78.1406C87.001 77.7845 87.2001 77.3025 87.2001 76.7999V71.6359C87.2001 71.133 87.0012 70.6506 86.6467 70.2938C86.2922 69.9371 85.811 69.7351 85.3081 69.7319Z" fill="#C53F3F"/>
<g opacity="0.4">
<path d="M85.3081 69.7319H80.1081C79.6031 69.7319 79.1188 69.9325 78.7618 70.2896C78.4047 70.6467 78.2041 71.131 78.2041 71.6359V76.7999C78.2041 77.0498 78.2534 77.2972 78.3491 77.528C78.4448 77.7587 78.5852 77.9684 78.762 78.1449C78.9389 78.3213 79.1488 78.4612 79.3798 78.5565C79.6108 78.6517 79.8583 78.7005 80.1081 78.6999H85.3081C85.8106 78.6978 86.2918 78.4967 86.6464 78.1406C87.001 77.7845 87.2001 77.3025 87.2001 76.7999V71.6359C87.2001 71.133 87.0012 70.6506 86.6467 70.2938C86.2922 69.9371 85.811 69.7351 85.3081 69.7319Z" fill="white"/>
</g>
<path d="M85.9403 76.3759C85.9403 76.4906 85.9063 76.6027 85.8425 76.6981C85.7788 76.7935 85.6882 76.8679 85.5822 76.9117C85.4763 76.9556 85.3596 76.9671 85.2471 76.9448C85.1346 76.9224 85.0313 76.8671 84.9502 76.786C84.869 76.7049 84.8138 76.6016 84.7914 76.4891C84.769 76.3765 84.7805 76.2599 84.8244 76.1539C84.8683 76.048 84.9427 75.9574 85.038 75.8936C85.1334 75.8299 85.2456 75.7959 85.3603 75.7959C85.5141 75.7959 85.6616 75.857 85.7704 75.9658C85.8792 76.0745 85.9403 76.2221 85.9403 76.3759Z" fill="white"/>
<path d="M83.3719 76.3759C83.3719 76.4906 83.3379 76.6027 83.2742 76.6981C83.2104 76.7935 83.1199 76.8679 83.0139 76.9117C82.9079 76.9556 82.7913 76.9671 82.6788 76.9448C82.5662 76.9224 82.4629 76.8671 82.3818 76.786C82.3007 76.7049 82.2454 76.6016 82.2231 76.4891C82.2007 76.3765 82.2122 76.2599 82.2561 76.1539C82.3 76.048 82.3743 75.9574 82.4697 75.8936C82.5651 75.8299 82.6772 75.7959 82.7919 75.7959C82.9457 75.7959 83.0933 75.857 83.202 75.9658C83.3108 76.0745 83.3719 76.2221 83.3719 76.3759Z" fill="white"/>
<path d="M80.7998 76.3759C80.8006 76.4916 80.767 76.6049 80.7034 76.7014C80.6397 76.798 80.5487 76.8735 80.4421 76.9183C80.3355 76.9631 80.2179 76.9752 80.1044 76.9532C79.9908 76.9311 79.8864 76.8758 79.8043 76.7943C79.7222 76.7128 79.6662 76.6087 79.6434 76.4953C79.6205 76.3819 79.6318 76.2643 79.6759 76.1574C79.72 76.0504 79.7948 75.959 79.891 75.8946C79.9871 75.8303 80.1001 75.7959 80.2158 75.7959C80.2923 75.7954 80.3682 75.81 80.439 75.8389C80.5098 75.8678 80.5743 75.9105 80.6285 75.9644C80.6828 76.0183 80.7259 76.0824 80.7553 76.153C80.7847 76.2237 80.7998 76.2994 80.7998 76.3759Z" fill="white"/>
<path d="M85.4925 77.5361H80.0645C79.7654 77.5361 79.4784 77.4172 79.2669 77.2057C79.0554 76.9941 78.9365 76.7072 78.9365 76.4081V76.3441C78.9365 76.0449 79.0554 75.758 79.2669 75.5464C79.4784 75.3349 79.7654 75.2161 80.0645 75.2161H85.4925C85.7917 75.2161 86.0786 75.3349 86.2901 75.5464C86.5017 75.758 86.6205 76.0449 86.6205 76.3441V76.4001C86.6216 76.5489 86.5932 76.6964 86.537 76.8342C86.4808 76.972 86.3978 77.0973 86.293 77.2029C86.1881 77.3085 86.0634 77.3923 85.926 77.4494C85.7887 77.5066 85.6413 77.5361 85.4925 77.5361ZM80.0645 75.5761C79.8608 75.5761 79.6655 75.657 79.5215 75.801C79.3774 75.945 79.2965 76.1404 79.2965 76.3441V76.4001C79.2965 76.6038 79.3774 76.7991 79.5215 76.9431C79.6655 77.0872 79.8608 77.1681 80.0645 77.1681H85.4925C85.6962 77.1681 85.8916 77.0872 86.0356 76.9431C86.1796 76.7991 86.2605 76.6038 86.2605 76.4001V76.3361C86.2605 76.1324 86.1796 75.937 86.0356 75.793C85.8916 75.649 85.6962 75.5681 85.4925 75.5681L80.0645 75.5761Z" fill="white"/>
<path d="M85.4402 75.5639C85.3447 75.5639 85.2531 75.526 85.1856 75.4585C85.1181 75.391 85.0802 75.2994 85.0802 75.2039V74.0639L82.8002 71.6839L81.4922 72.1119C81.4023 72.1387 81.3055 72.1294 81.2223 72.0859C81.1392 72.0424 81.0764 71.9681 81.0472 71.879C81.018 71.7898 81.0247 71.6928 81.066 71.6085C81.1073 71.5243 81.1798 71.4595 81.2682 71.4279L82.7882 70.9279C82.8525 70.9062 82.9217 70.9033 82.9876 70.9196C83.0535 70.9359 83.1134 70.9707 83.1602 71.0199L85.7162 73.6679C85.7801 73.7347 85.8159 73.8235 85.8162 73.9159V75.1999C85.8168 75.2489 85.8074 75.2975 85.7885 75.3427C85.7697 75.3879 85.7418 75.4288 85.7066 75.4629C85.6714 75.497 85.6296 75.5235 85.5838 75.5409C85.538 75.5583 85.4891 75.5661 85.4402 75.5639Z" fill="white"/>
<path d="M81.264 72.848C81.2162 72.848 81.1705 72.8291 81.1367 72.7953C81.1029 72.7616 81.084 72.7158 81.084 72.668V71.772C81.084 71.7243 81.1029 71.6785 81.1367 71.6448C81.1705 71.611 81.2162 71.592 81.264 71.592C81.3117 71.592 81.3575 71.611 81.3913 71.6448C81.425 71.6785 81.444 71.7243 81.444 71.772V72.668C81.444 72.7158 81.425 72.7616 81.3913 72.7953C81.3575 72.8291 81.3117 72.848 81.264 72.848Z" fill="white"/>
<path d="M80.9845 73.5239C80.9607 73.5243 80.9372 73.5199 80.9152 73.511C80.8932 73.5021 80.8732 73.4888 80.8565 73.4719C80.7501 73.3658 80.6898 73.2221 80.6885 73.0719C80.7005 72.9269 80.7667 72.7918 80.8737 72.6932C80.9808 72.5947 81.121 72.54 81.2665 72.54C81.412 72.54 81.5522 72.5947 81.6592 72.6932C81.7663 72.7918 81.8324 72.9269 81.8445 73.0719C81.8455 73.2195 81.7912 73.3622 81.6925 73.4719C81.6765 73.4895 81.6571 73.5038 81.6356 73.5139C81.6141 73.524 81.5907 73.5298 81.567 73.5309C81.519 73.5332 81.472 73.5163 81.4365 73.4839C81.4009 73.4516 81.3797 73.4064 81.3775 73.3584C81.3752 73.3104 81.3921 73.2635 81.4245 73.2279C81.4439 73.2086 81.4593 73.1855 81.4696 73.16C81.4799 73.1346 81.4849 73.1073 81.4845 73.0799C81.4834 73.0223 81.4598 72.9673 81.4186 72.9269C81.3775 72.8865 81.3221 72.8639 81.2645 72.8639C81.2072 72.8639 81.1523 72.8867 81.1117 72.9272C81.0712 72.9677 81.0485 73.0226 81.0485 73.0799C81.0491 73.1382 81.072 73.194 81.1125 73.2359C81.1455 73.2696 81.1639 73.3148 81.1639 73.3619C81.1639 73.409 81.1455 73.4543 81.1125 73.4879C81.0762 73.5162 81.0302 73.5291 80.9845 73.5239Z" fill="white"/>
<path d="M83.0204 71.288C83.0212 71.3166 83.0134 71.3448 82.9981 71.369C82.9827 71.3932 82.9605 71.4123 82.9343 71.4238C82.9081 71.4353 82.879 71.4388 82.8508 71.4337C82.8226 71.4286 82.7966 71.4152 82.776 71.3952C82.7555 71.3752 82.7414 71.3496 82.7355 71.3215C82.7296 71.2935 82.7322 71.2644 82.743 71.2378C82.7538 71.2113 82.7722 71.1885 82.796 71.1725C82.8197 71.1565 82.8477 71.148 82.8764 71.1479C82.9139 71.1479 82.9499 71.1626 82.9768 71.1887C83.0037 71.2148 83.0193 71.2505 83.0204 71.288Z" fill="#C53F3F"/>
<path d="M85.5566 73.936C85.5566 73.9645 85.5481 73.9923 85.5323 74.016C85.5165 74.0397 85.494 74.0581 85.4677 74.069C85.4414 74.0799 85.4124 74.0828 85.3845 74.0772C85.3565 74.0717 85.3309 74.058 85.3107 74.0378C85.2906 74.0177 85.2769 73.992 85.2713 73.9641C85.2658 73.9362 85.2686 73.9072 85.2795 73.8809C85.2904 73.8546 85.3089 73.8321 85.3326 73.8163C85.3562 73.8004 85.3841 73.792 85.4126 73.792C85.4315 73.792 85.4502 73.7957 85.4677 73.803C85.4851 73.8102 85.501 73.8208 85.5144 73.8342C85.5278 73.8475 85.5384 73.8634 85.5456 73.8809C85.5528 73.8984 85.5566 73.9171 85.5566 73.936Z" fill="#C53F3F"/>
<path opacity="0.4" d="M81.8117 73.9241H80.7197V75.0161H81.8117V73.9241Z" fill="white"/>
<path d="M86.4005 43.632H78.5405C77.6076 43.632 76.7129 43.2617 76.0529 42.6024C75.3929 41.9431 75.0216 41.0488 75.0205 40.116V35.824H75.4205V40.116C75.4216 40.9428 75.7507 41.7353 76.3357 42.3196C76.9207 42.9038 77.7137 43.232 78.5405 43.232H86.4005V43.632Z" fill="black"/>
<path d="M78.5605 28.5601H73.3845C72.3329 28.5601 71.4805 29.4125 71.4805 30.4641V35.6401C71.4805 36.6916 72.3329 37.5441 73.3845 37.5441H78.5605C79.612 37.5441 80.4645 36.6916 80.4645 35.6401V30.4641C80.4645 29.4125 79.612 28.5601 78.5605 28.5601Z" fill="#C53F3F"/>
<path opacity="0.4" d="M78.5605 28.5601H73.3845C72.3329 28.5601 71.4805 29.4125 71.4805 30.4641V35.6401C71.4805 36.6916 72.3329 37.5441 73.3845 37.5441H78.5605C79.612 37.5441 80.4645 36.6916 80.4645 35.6401V30.4641C80.4645 29.4125 79.612 28.5601 78.5605 28.5601Z" fill="white"/>
<path d="M75.9725 30.4001C76.7725 30.4001 77.1725 31.0321 77.1725 31.8161C77.1725 32.6001 76.7525 33.2321 75.9725 33.2321C75.1925 33.2321 74.7725 32.5961 74.7725 31.8161C74.7725 31.0361 75.2005 30.4001 75.9725 30.4001Z" fill="white"/>
<path d="M79.1009 35.708H72.8449C72.7953 35.7071 72.748 35.6871 72.7129 35.652L73.1129 34.556C73.2391 34.2121 73.4679 33.9152 73.7684 33.7056C74.0689 33.496 74.4265 33.3837 74.7929 33.384H77.1529C77.5194 33.3832 77.8773 33.4952 78.1779 33.7049C78.4785 33.9146 78.7072 34.2118 78.8329 34.556L79.2329 35.652C79.1978 35.6871 79.1505 35.7071 79.1009 35.708Z" fill="white"/>
<path d="M68.232 63.6H67.832V59.308C67.8331 58.3751 68.2044 57.4808 68.8644 56.8216C69.5244 56.1623 70.4192 55.792 71.352 55.792H90.2V56.192H71.352C70.5252 56.192 69.7323 56.5202 69.1473 57.1044C68.5623 57.6887 68.2331 58.4812 68.232 59.308V63.6Z" fill="black"/>
<path d="M70.7763 60.428H65.6003C64.5487 60.428 63.6963 61.2804 63.6963 62.332V67.508C63.6963 68.5595 64.5487 69.412 65.6003 69.412H70.7763C71.8278 69.412 72.6803 68.5595 72.6803 67.508V62.332C72.6803 61.2804 71.8278 60.428 70.7763 60.428Z" fill="#C53F3F"/>
<path opacity="0.4" d="M70.7763 60.428H65.6003C64.5487 60.428 63.6963 61.2804 63.6963 62.332V67.508C63.6963 68.5595 64.5487 69.412 65.6003 69.412H70.7763C71.8278 69.412 72.6803 68.5595 72.6803 67.508V62.332C72.6803 61.2804 71.8278 60.428 70.7763 60.428Z" fill="white"/>
<path opacity="0.6" d="M66.3406 65.74H65.2246V67.888H66.3406V65.74Z" fill="white"/>
<path opacity="0.6" d="M69.5047 65.0159H68.3887V67.8879H69.5047V65.0159Z" fill="white"/>
<path d="M67.8641 64.292H66.748V67.888H67.8641V64.292Z" fill="white"/>
<path d="M71.0926 63.5679H69.9766V67.8879H71.0926V63.5679Z" fill="white"/>
<path d="M91.7071 48.9761H67.5791V49.3761H91.7071V48.9761Z" fill="black"/>
<path d="M68.3516 42H63.1716C62.6666 42 62.1823 42.2006 61.8253 42.5577C61.4682 42.9147 61.2676 43.399 61.2676 43.904V49.084C61.2676 49.589 61.4682 50.0733 61.8253 50.4303C62.1823 50.7874 62.6666 50.988 63.1716 50.988H68.3516C68.6014 50.988 68.8488 50.9387 69.0796 50.843C69.3104 50.7473 69.52 50.6069 69.6965 50.4301C69.873 50.2532 70.0129 50.0433 70.1081 49.8123C70.2033 49.5813 70.2521 49.3338 70.2516 49.084V43.916C70.2537 43.6651 70.2061 43.4164 70.1116 43.184C70.017 42.9516 69.8774 42.7403 69.7008 42.5621C69.5241 42.384 69.314 42.2426 69.0824 42.1461C68.8508 42.0497 68.6024 42 68.3516 42Z" fill="#C53F3F"/>
<g opacity="0.4">
<path d="M68.3516 42H63.1716C62.6666 42 62.1823 42.2006 61.8253 42.5577C61.4682 42.9147 61.2676 43.399 61.2676 43.904V49.084C61.2676 49.589 61.4682 50.0733 61.8253 50.4303C62.1823 50.7874 62.6666 50.988 63.1716 50.988H68.3516C68.6014 50.988 68.8488 50.9387 69.0796 50.843C69.3104 50.7473 69.52 50.6069 69.6965 50.4301C69.873 50.2532 70.0129 50.0433 70.1081 49.8123C70.2033 49.5813 70.2521 49.3338 70.2516 49.084V43.916C70.2537 43.6651 70.2061 43.4164 70.1116 43.184C70.017 42.9516 69.8774 42.7403 69.7008 42.5621C69.5241 42.384 69.314 42.2426 69.0824 42.1461C68.8508 42.0497 68.6024 42 68.3516 42Z" fill="white"/>
</g>
<path d="M65.96 43.2V44.032C66.48 44.0745 66.9738 44.2787 67.372 44.616L67.96 44.028C67.4048 43.5357 66.7005 43.2442 65.96 43.2Z" fill="#C53F3F"/>
<path opacity="0.6" d="M65.96 43.2V44.032C66.48 44.0745 66.9738 44.2787 67.372 44.616L67.96 44.028C67.4048 43.5357 66.7005 43.2442 65.96 43.2Z" fill="white"/>
<path d="M65.5554 48.988C64.9662 48.9413 64.413 48.6861 63.9951 48.2682C63.5773 47.8503 63.322 47.2971 63.2754 46.708H62.4434C62.4927 47.5172 62.8364 48.2805 63.4096 48.8537C63.9829 49.427 64.7461 49.7707 65.5554 49.82V48.988Z" fill="#C53F3F"/>
<path opacity="0.8" d="M65.5554 48.988C64.9662 48.9413 64.413 48.6861 63.9951 48.2682C63.5773 47.8503 63.322 47.2971 63.2754 46.708H62.4434C62.4927 47.5172 62.8364 48.2805 63.4096 48.8537C63.9829 49.427 64.7461 49.7707 65.5554 49.82V48.988Z" fill="white"/>
<path d="M63.2754 46.304C63.3228 45.7151 63.5783 45.1624 63.996 44.7446C64.4138 44.3269 64.9665 44.0714 65.5554 44.024V43.2C64.7461 43.2492 63.9829 43.5929 63.4096 44.1662C62.8364 44.7395 62.4927 45.5027 62.4434 46.312L63.2754 46.304Z" fill="#C53F3F"/>
<path opacity="0.7" d="M63.2754 46.304C63.3228 45.7151 63.5783 45.1624 63.996 44.7446C64.4138 44.3269 64.9665 44.0714 65.5554 44.024V43.2C64.7461 43.2492 63.9829 43.5929 63.4096 44.1662C62.8364 44.7395 62.4927 45.5027 62.4434 46.312L63.2754 46.304Z" fill="white"/>
<path d="M68.244 44.304L67.656 44.892C67.9524 45.2413 68.1468 45.6656 68.2178 46.1183C68.2888 46.5709 68.2336 47.0344 68.0583 47.4577C67.883 47.881 67.5944 48.2478 67.2242 48.5178C66.8541 48.7877 66.4166 48.9504 65.96 48.988V49.82C66.5814 49.7823 67.1797 49.5708 67.6866 49.2094C68.1935 48.848 68.5886 48.3513 68.8268 47.7762C69.065 47.201 69.1366 46.5704 69.0335 45.9564C68.9305 45.3425 68.6569 44.7699 68.244 44.304Z" fill="white"/>
<path d="M86.9877 41.652L88.1117 41.604L89.6917 59.048H88.4917C87.8957 58.992 87.7557 58.32 87.5917 57.048L86.4877 44.868C86.2317 42 86.7237 41.652 86.9877 41.652Z" fill="#C53F3F"/>
<path opacity="0.3" d="M86.9877 41.652L88.1117 41.604L89.6917 59.048H88.4917C87.8957 58.992 87.7557 58.32 87.5917 57.048L86.4877 44.868C86.2317 42 86.7237 41.652 86.9877 41.652Z" fill="black"/>
<path d="M88.7995 59.048H112.443C112.509 59.0436 112.572 59.0253 112.63 58.9944C112.687 58.9635 112.738 58.9207 112.777 58.8689C112.817 58.817 112.845 58.7573 112.86 58.6937C112.875 58.6301 112.876 58.5641 112.863 58.5L111.387 42.148C111.38 42.0094 111.323 41.8781 111.227 41.7781C111.131 41.6782 111.002 41.6163 110.863 41.604H87.1995C87.1344 41.608 87.0709 41.6258 87.0132 41.6562C86.9554 41.6866 86.9049 41.7289 86.8648 41.7804C86.8247 41.8318 86.796 41.8912 86.7806 41.9546C86.7652 42.018 86.7634 42.0839 86.7755 42.148L88.2555 58.5C88.2613 58.6428 88.3204 58.7782 88.4211 58.8796C88.5217 58.9811 88.6567 59.0411 88.7995 59.048Z" fill="#C53F3F"/>
<path d="M89.6881 56.9799H111.16L109.968 43.3679H88.4961L89.6881 56.9799Z" fill="#C53F3F"/>
<path d="M89.9993 58.0479H111.155C111.295 58.0505 111.433 58.0233 111.561 57.9682C111.689 57.9131 111.804 57.8313 111.897 57.7283C111.991 57.6254 112.062 57.5036 112.105 57.3711C112.148 57.2386 112.163 57.0984 112.147 56.9599L110.967 43.4319C110.938 43.1342 110.799 42.8579 110.577 42.6574C110.355 42.4569 110.066 42.3465 109.767 42.3479H88.6113C88.4722 42.3448 88.334 42.3714 88.206 42.4261C88.078 42.4807 87.9632 42.5621 87.8693 42.6648C87.7753 42.7674 87.7044 42.889 87.6613 43.0213C87.6182 43.1536 87.6039 43.2936 87.6193 43.4319L88.7993 56.9599C88.8273 57.2584 88.966 57.5356 89.188 57.7369C89.4101 57.9383 89.6995 58.0492 89.9993 58.0479Z" fill="#263238"/>
<path d="M89.6881 56.9799H111.16L109.968 43.3679H88.4961L89.6881 56.9799Z" fill="#C53F3F"/>
<path opacity="0.4" d="M89.6881 56.9799H111.16L109.968 43.3679H88.4961L89.6881 56.9799Z" fill="white"/>
<path d="M91.4395 49.6319L91.5914 49.2959C91.7765 49.4259 91.9972 49.4958 92.2234 49.4959C92.4874 49.4959 92.5955 49.4079 92.5955 49.2919C92.5955 48.9319 91.4794 49.1799 91.4794 48.4679C91.4794 48.1399 91.7394 47.8679 92.2794 47.8679C92.5123 47.8637 92.7419 47.9232 92.9435 48.0399L92.8075 48.3759C92.6457 48.2819 92.4625 48.231 92.2755 48.2279C92.0115 48.2279 91.9115 48.3239 91.9115 48.4439C91.9115 48.7999 93.0275 48.5559 93.0275 49.2439C93.0275 49.5639 92.7595 49.8359 92.2275 49.8359C91.9501 49.8497 91.6752 49.7785 91.4395 49.6319Z" fill="white"/>
<path d="M93.2195 48.86C93.2075 48.6497 93.2589 48.4405 93.3671 48.2597C93.4754 48.0789 93.6354 47.9348 93.8265 47.846C94.0176 47.7572 94.231 47.7279 94.4389 47.7617C94.6469 47.7956 94.8399 47.8912 94.993 48.036C95.146 48.1809 95.252 48.3684 95.2972 48.5742C95.3425 48.78 95.3249 48.9946 95.2467 49.1903C95.1685 49.386 95.0334 49.5537 94.8588 49.6717C94.6842 49.7897 94.4782 49.8525 94.2675 49.852C94.1326 49.8597 93.9975 49.8397 93.8706 49.7932C93.7438 49.7468 93.6277 49.6749 93.5295 49.5821C93.4314 49.4892 93.3533 49.3772 93.3 49.2531C93.2467 49.1289 93.2193 48.9952 93.2195 48.86ZM94.8715 48.86C94.8691 48.7411 94.8317 48.6255 94.7639 48.5278C94.6961 48.4301 94.601 48.3545 94.4904 48.3107C94.3799 48.2668 94.2588 48.2565 94.1425 48.2812C94.0261 48.3058 93.9196 48.3642 93.8363 48.4492C93.7531 48.5341 93.6967 48.6417 93.6744 48.7586C93.652 48.8754 93.6647 48.9962 93.7107 49.1059C93.7568 49.2155 93.8342 49.3092 93.9332 49.375C94.0323 49.4409 94.1485 49.476 94.2675 49.476C94.3485 49.4783 94.429 49.4639 94.5041 49.4336C94.5793 49.4033 94.6473 49.3578 94.704 49.3C94.7607 49.2421 94.8049 49.1732 94.8337 49.0975C94.8625 49.0218 94.8754 48.941 94.8715 48.86Z" fill="white"/>
<path d="M96.0993 48.2601V48.7641H96.9873V49.1241H96.0993V49.8201H95.6553V47.9041H97.1033V48.2601H96.0993Z" fill="white"/>
<path d="M97.8192 48.2641H97.1992V47.9041H98.8712V48.2641H98.2592V49.8201H97.8152L97.8192 48.2641Z" fill="white"/>
<path d="M102 47.9041L101.372 49.8201H100.896L100.472 48.5241L100.04 49.8201H99.5636L98.9316 47.9041H99.3956L99.8276 49.2521L100.28 47.9041H100.68L101.116 49.2641L101.564 47.9041H102Z" fill="white"/>
<path d="M103.428 49.4081H102.54L102.368 49.8081H101.916L102.768 47.8921H103.2L104.056 49.8081H103.6L103.428 49.4081ZM103.288 49.0721L102.984 48.3401L102.68 49.0721H103.288Z" fill="white"/>
<path d="M105.487 49.8201L105.119 49.2881H104.719V49.8201H104.275V47.9041H105.103C105.619 47.9041 105.939 48.1681 105.939 48.6001C105.944 48.7298 105.908 48.8578 105.836 48.966C105.764 49.0743 105.661 49.1575 105.539 49.2041L105.971 49.8201H105.487ZM105.087 48.2641H104.727V48.9321H105.087C105.359 48.9321 105.487 48.8081 105.487 48.6001C105.487 48.3921 105.343 48.2641 105.071 48.2641H105.087Z" fill="white"/>
<path d="M107.767 49.4641V49.8201H106.283V47.9041H107.731V48.2601H106.723V48.6601H107.599V49.0041H106.707V49.4481L107.767 49.4641Z" fill="white"/>
<path d="M90.292 51.2H90.736V53.12H90.292V51.2Z" fill="white"/>
<path d="M92.9512 51.2V53.12H92.5872L91.6312 51.956V53.12H91.1992V51.2H91.5672L92.5192 52.368V51.2H92.9512Z" fill="white"/>
<path d="M93.8032 51.556H93.1992V51.2H94.8712V51.564H94.2552V53.12H93.8112L93.8032 51.556Z" fill="white"/>
<path d="M96.5875 52.756V53.112H95.1035V51.2H96.5515V51.5599H95.5435V51.9599H96.4355V52.3039H95.5435V52.7479L96.5875 52.756Z" fill="white"/>
<path d="M98.2315 52.1241H98.6315V52.9001C98.4048 53.0609 98.1333 53.1462 97.8555 53.1441C97.5903 53.1441 97.3359 53.0388 97.1484 52.8512C96.9608 52.6637 96.8555 52.4093 96.8555 52.1441C96.8555 51.8789 96.9608 51.6246 97.1484 51.437C97.3359 51.2495 97.5903 51.1441 97.8555 51.1441C98.0049 51.1382 98.1539 51.1648 98.292 51.2221C98.4301 51.2795 98.5541 51.3661 98.6555 51.4761L98.3675 51.7401C98.306 51.6706 98.2302 51.6153 98.1452 51.578C98.0603 51.5407 97.9682 51.5223 97.8755 51.5241C97.7907 51.5173 97.7054 51.5281 97.625 51.5558C97.5445 51.5836 97.4707 51.6277 97.4082 51.6853C97.3457 51.743 97.2958 51.813 97.2616 51.891C97.2275 51.9689 97.2099 52.053 97.2099 52.1381C97.2099 52.2232 97.2275 52.3073 97.2616 52.3853C97.2958 52.4632 97.3457 52.5332 97.4082 52.5909C97.4707 52.6486 97.5445 52.6927 97.625 52.7204C97.7054 52.7482 97.7907 52.759 97.8755 52.7521C97.9954 52.7539 98.1138 52.725 98.2195 52.6681L98.2315 52.1241Z" fill="white"/>
<path d="M100.276 53.112L99.9036 52.576H99.5036V53.112H99.0596V51.2H99.8916C100.404 51.2 100.724 51.468 100.724 51.896C100.729 52.0264 100.693 52.1552 100.621 52.2643C100.55 52.3734 100.445 52.4572 100.324 52.5039L100.756 53.12L100.276 53.112ZM99.8556 51.556H99.4956V52.224H99.8556C100.128 52.224 100.256 52.1 100.256 51.888C100.256 51.676 100.128 51.556 99.8556 51.556Z" fill="white"/>
<path d="M102.332 52.6999H101.44L101.272 53.0999H100.8L101.656 51.1799H102.092L102.952 53.0999H102.484L102.332 52.6999ZM102.192 52.3639L101.888 51.6279L101.584 52.3639H102.192Z" fill="white"/>
<path d="M103.471 51.556H102.855V51.2H104.527V51.564H103.911V53.12H103.471V51.556Z" fill="white"/>
<path d="M104.768 51.2H105.2V53.12H104.756L104.768 51.2Z" fill="white"/>
<path d="M105.547 52.1521C105.536 51.9428 105.588 51.7349 105.696 51.5554C105.804 51.3759 105.964 51.2329 106.154 51.1449C106.344 51.0569 106.557 51.028 106.763 51.0619C106.97 51.0958 107.162 51.1909 107.314 51.335C107.467 51.4791 107.572 51.6655 107.617 51.8702C107.662 52.0748 107.645 52.2883 107.568 52.4831C107.49 52.6779 107.356 52.845 107.183 52.9628C107.01 53.0807 106.805 53.1438 106.595 53.1441C106.46 53.1517 106.325 53.1317 106.199 53.0853C106.072 53.0389 105.956 52.967 105.857 52.8741C105.759 52.7812 105.681 52.6693 105.628 52.5451C105.575 52.421 105.547 52.2872 105.547 52.1521ZM107.195 52.1521C107.192 52.0342 107.154 51.9198 107.087 51.8232C107.019 51.7267 106.924 51.6523 106.814 51.6093C106.704 51.5663 106.584 51.5567 106.469 51.5816C106.354 51.6066 106.248 51.6649 106.166 51.7494C106.083 51.834 106.028 51.9409 106.006 52.0568C105.984 52.1727 105.997 52.2925 106.043 52.4012C106.089 52.51 106.165 52.6027 106.264 52.668C106.362 52.7332 106.477 52.7681 106.595 52.7681C106.677 52.771 106.757 52.757 106.833 52.7269C106.908 52.6968 106.976 52.6513 107.033 52.5933C107.09 52.5354 107.134 52.4662 107.163 52.3902C107.191 52.3143 107.204 52.2332 107.199 52.1521H107.195Z" fill="white"/>
<path d="M109.74 51.2V53.12H109.376L108.42 51.956V53.12H108V51.2H108.368L109.324 52.368V51.2H109.74Z" fill="white"/>
<path opacity="0.1" d="M95.8639 42.3521L91.6719 58.0401H93.0839L97.2319 42.3521H95.8639Z" fill="white"/>
<path opacity="0.1" d="M98.0437 42.3521L93.8477 58.0401H96.6477L100.796 42.3521H98.0437Z" fill="white"/>
<path d="M88.4961 43.3679L88.6041 44.5879H110.076L109.968 43.3679H88.4961Z" fill="#C53F3F"/>
<path d="M89.4835 43.9121C89.487 43.9432 89.4837 43.9748 89.4739 44.0046C89.4642 44.0344 89.4481 44.0618 89.4269 44.0849C89.4057 44.108 89.3798 44.1263 89.3509 44.1386C89.322 44.1509 89.2909 44.1568 89.2595 44.1561C89.1927 44.1554 89.1284 44.1302 89.079 44.0852C89.0295 44.0402 88.9984 43.9786 88.9915 43.9121C88.9881 43.8807 88.9914 43.849 89.0012 43.819C89.0109 43.7889 89.0269 43.7613 89.048 43.7379C89.0692 43.7145 89.095 43.6958 89.1239 43.6831C89.1527 43.6704 89.184 43.6639 89.2155 43.6641C89.2827 43.6657 89.3471 43.6917 89.3964 43.7374C89.4457 43.7831 89.4767 43.8452 89.4835 43.9121Z" fill="white"/>
<path d="M90.132 43.9121C90.1354 43.9432 90.1321 43.9748 90.1223 44.0046C90.1126 44.0344 90.0966 44.0618 90.0753 44.0849C90.0541 44.108 90.0282 44.1263 89.9993 44.1386C89.9705 44.1509 89.9393 44.1568 89.908 44.1561C89.8411 44.1554 89.7768 44.1302 89.7274 44.0852C89.678 44.0402 89.6468 43.9786 89.64 43.9121C89.6366 43.8807 89.6399 43.849 89.6496 43.819C89.6593 43.7889 89.6753 43.7613 89.6964 43.7379C89.7176 43.7145 89.7434 43.6958 89.7723 43.6831C89.8012 43.6704 89.8324 43.6639 89.864 43.6641C89.9312 43.6657 89.9955 43.6917 90.0448 43.7374C90.0942 43.7831 90.1252 43.8452 90.132 43.9121Z" fill="white"/>
<path d="M90.7999 43.9121C90.8034 43.9432 90.8001 43.9748 90.7903 44.0046C90.7806 44.0344 90.7645 44.0618 90.7433 44.0849C90.7221 44.108 90.6962 44.1263 90.6673 44.1386C90.6384 44.1509 90.6073 44.1568 90.5759 44.1561C90.5091 44.1554 90.4448 44.1302 90.3954 44.0852C90.3459 44.0402 90.3148 43.9786 90.3079 43.9121C90.3046 43.8807 90.3078 43.849 90.3176 43.819C90.3273 43.7889 90.3433 43.7613 90.3644 43.7379C90.3856 43.7145 90.4114 43.6958 90.4403 43.6831C90.4691 43.6704 90.5004 43.6639 90.5319 43.6641C90.5991 43.6657 90.6635 43.6917 90.7128 43.7374C90.7621 43.7831 90.7931 43.8452 90.7999 43.9121Z" fill="white"/>
<path d="M113.168 59.0959H89.0677C88.7849 59.0959 88.5557 59.3252 88.5557 59.6079V59.9159C88.5557 60.1987 88.7849 60.4279 89.0677 60.4279H113.168C113.45 60.4279 113.68 60.1987 113.68 59.9159V59.6079C113.68 59.3252 113.45 59.0959 113.168 59.0959Z" fill="#C53F3F"/>
<path d="M98.1152 59.0959H123.031V59.3999C123.031 59.6726 122.923 59.9341 122.73 60.1268C122.537 60.3196 122.276 60.4279 122.003 60.4279H99.1432C98.8706 60.4279 98.6091 60.3196 98.4163 60.1268C98.2235 59.9341 98.1152 59.6726 98.1152 59.3999V59.0959Z" fill="#C53F3F"/>
<path opacity="0.3" d="M98.1152 59.0959H123.031V59.3999C123.031 59.6726 122.923 59.9341 122.73 60.1268C122.537 60.3196 122.276 60.4279 122.003 60.4279H99.1432C98.8706 60.4279 98.6091 60.3196 98.4163 60.1268C98.2235 59.9341 98.1152 59.6726 98.1152 59.3999V59.0959Z" fill="white"/>
<path opacity="0.3" d="M108.544 59.1321C108.545 59.3086 108.616 59.4774 108.741 59.6018C108.866 59.7263 109.035 59.7961 109.212 59.7961H112.26C112.436 59.7961 112.605 59.7261 112.729 59.6016C112.854 59.4771 112.924 59.3082 112.924 59.1321H108.544Z" fill="black"/>
<path d="M77.3118 86.168L74.7358 85.42C74.4857 85.3356 74.2266 85.2805 73.9638 85.256L72.2358 85.184L70.8238 84.592C70.747 84.5477 70.6605 84.5231 70.5719 84.5205C70.4833 84.5179 70.3955 84.5372 70.3162 84.5768C70.2369 84.6165 70.1687 84.6751 70.1177 84.7476C70.0667 84.82 70.0344 84.904 70.0238 84.992L69.9318 85.944C69.9234 86.0388 69.9401 86.1341 69.9801 86.2204C70.0201 86.3068 70.0821 86.3811 70.1598 86.436L72.2398 87.892L75.1478 87.404L77.7558 88.664L78.0638 86.4L77.3118 86.168Z" fill="#B55B52"/>
<path d="M122.688 86.8721L125.296 86.2362C125.549 86.1641 125.809 86.1198 126.072 86.1041H127.8L129.236 85.5762C129.315 85.5299 129.405 85.5049 129.496 85.5035C129.588 85.5021 129.678 85.5244 129.759 85.5683C129.839 85.6122 129.907 85.6761 129.956 85.7538C130.004 85.8316 130.032 85.9206 130.036 86.0122L130.088 86.9682C130.093 87.0626 130.073 87.1567 130.03 87.241C129.987 87.3253 129.923 87.3968 129.844 87.4481L127.7 88.8161L124.8 88.2041L122.14 89.3522L121.932 87.0802L122.688 86.8721Z" fill="#B55B52"/>
<path d="M93.5361 159.376L92.9201 165.036L89.8281 164.708L90.1441 158.536L93.5361 159.376Z" fill="#B55B52"/>
<path d="M88.3721 164.764C88.0428 164.778 87.7202 164.668 87.4681 164.456C87.4388 164.407 87.4257 164.349 87.4307 164.292C87.4358 164.234 87.4586 164.18 87.4961 164.136C87.5249 164.095 87.5617 164.06 87.6043 164.033C87.6469 164.006 87.6944 163.988 87.7441 163.98C88.2761 163.876 89.3241 164.58 89.3681 164.612C89.3813 164.62 89.3916 164.632 89.3974 164.647C89.4031 164.661 89.4041 164.677 89.4001 164.692C89.3962 164.707 89.3881 164.72 89.3767 164.73C89.3653 164.74 89.3511 164.746 89.3361 164.748C89.0159 164.784 88.6932 164.789 88.3721 164.764ZM87.9161 164.12C87.8698 164.112 87.8224 164.112 87.7761 164.12C87.7448 164.123 87.7146 164.132 87.6875 164.148C87.6605 164.164 87.6375 164.186 87.6201 164.212C87.5601 164.3 87.5761 164.344 87.5961 164.372C87.7241 164.588 88.5121 164.652 89.1041 164.624C88.7437 164.382 88.3405 164.211 87.9161 164.12Z" fill="#C53F3F"/>
<path d="M89.3234 164.748C89.3131 164.752 89.3016 164.752 89.2914 164.748C88.9314 164.556 88.2274 163.82 88.3234 163.472C88.3234 163.388 88.4074 163.288 88.6114 163.284C88.6854 163.282 88.7591 163.295 88.8279 163.323C88.8967 163.35 88.9591 163.392 89.0114 163.444C89.3874 163.8 89.4114 164.644 89.4114 164.692C89.4117 164.705 89.4085 164.718 89.4021 164.729C89.3958 164.74 89.3866 164.75 89.3754 164.756L89.3234 164.748ZM88.6514 163.42H88.6114C88.4754 163.42 88.4634 163.476 88.4554 163.496C88.4194 163.704 88.8754 164.272 89.2554 164.532C89.2465 164.174 89.1278 163.828 88.9154 163.54C88.8473 163.474 88.758 163.434 88.6634 163.428L88.6514 163.42Z" fill="#C53F3F"/>
<path d="M89.688 164.332L93.104 164.592C93.167 164.595 93.2269 164.62 93.2736 164.662C93.3203 164.705 93.3508 164.762 93.36 164.824L93.76 167.652C93.7685 167.713 93.7648 167.775 93.7492 167.834C93.7336 167.893 93.7065 167.949 93.6693 167.998C93.6321 168.046 93.5856 168.087 93.5325 168.118C93.4794 168.148 93.4208 168.168 93.36 168.176H93.26C92.032 168.06 90.94 167.912 89.408 167.8C87.596 167.664 88.04 167.916 85.908 167.8C84.624 167.724 84.5 166.248 85.048 166.2C87.56 166.072 87.876 165.34 88.904 164.524C89.1323 164.365 89.4119 164.296 89.688 164.332Z" fill="#263238"/>
<path opacity="0.2" d="M89.9675 161.96L92.2755 161.876L93.2195 162.268L93.0915 163.464L89.8955 163.276L89.9675 161.96Z" fill="black"/>
<path d="M101.376 102.356L95.444 137.832L94 162.708L89.356 162.628C88.3823 153.722 88.1322 144.751 88.608 135.804C89.332 122.632 92.396 107.228 92.736 102.836L94.452 99.8042L97.868 100.232L101.376 102.356Z" fill="#C53F3F"/>
<path d="M110.324 165.688L112.964 165.388C112.964 165.388 112.888 164.3 112.756 162.544C112.728 162.144 112.696 161.744 112.664 161.276L109.632 161.816H109.6C109.6 161.884 109.628 161.952 109.64 162.016C109.704 162.372 109.772 162.7 109.828 163.016C110.128 164.668 110.324 165.688 110.324 165.688Z" fill="#B55B52"/>
<path d="M113.464 164.448C113.448 164.447 113.433 164.442 113.42 164.432C113.408 164.423 113.398 164.411 113.392 164.396C113.388 164.382 113.388 164.367 113.392 164.352C113.396 164.338 113.404 164.326 113.416 164.316C113.46 164.28 114.44 163.48 114.984 163.54C115.084 163.55 115.177 163.597 115.244 163.672C115.285 163.713 115.313 163.766 115.323 163.823C115.333 163.88 115.325 163.94 115.3 163.992C115.2 164.18 114.812 164.316 114.428 164.392C114.109 164.437 113.786 164.455 113.464 164.448ZM113.684 164.308C114.276 164.284 115.056 164.152 115.168 163.908C115.168 163.88 115.196 163.832 115.128 163.752C115.109 163.727 115.084 163.707 115.055 163.693C115.027 163.679 114.996 163.672 114.964 163.672C114.916 163.666 114.868 163.666 114.82 163.672C114.405 163.812 114.02 164.027 113.684 164.308Z" fill="#C53F3F"/>
<path d="M113.424 164.448C113.411 164.444 113.4 164.436 113.392 164.425C113.384 164.414 113.38 164.401 113.38 164.388C113.38 164.348 113.32 163.496 113.664 163.108C113.713 163.049 113.774 163.002 113.843 162.969C113.912 162.936 113.987 162.918 114.064 162.916C114.272 162.916 114.352 162.992 114.372 163.076C114.496 163.416 113.86 164.212 113.516 164.436C113.507 164.439 113.497 164.439 113.488 164.436C113.48 164.444 113.469 164.449 113.458 164.451C113.446 164.454 113.435 164.452 113.424 164.448ZM114.024 163.06C113.932 163.076 113.848 163.124 113.788 163.196C113.601 163.502 113.511 163.858 113.532 164.216C113.88 163.924 114.28 163.316 114.228 163.112C114.228 163.112 114.2 163.04 114.068 163.052H114.024V163.06Z" fill="#C53F3F"/>
<path d="M112.876 164.132L110.18 164.532C110.118 164.543 110.061 164.574 110.019 164.622C109.977 164.669 109.952 164.729 109.948 164.792L109.792 167.648C109.788 167.708 109.796 167.769 109.815 167.826C109.834 167.883 109.864 167.936 109.904 167.982C109.944 168.027 109.992 168.064 110.047 168.09C110.101 168.117 110.16 168.132 110.22 168.136C110.253 168.14 110.287 168.14 110.32 168.136C111.52 167.912 111.92 167.808 113.44 167.56C115.236 167.264 114.816 167.56 116.932 167.236C118.204 167.04 118.2 165.56 117.648 165.576C115.132 165.684 113.14 164.076 112.876 164.132Z" fill="#263238"/>
<path opacity="0.2" d="M109.816 163.02L112.756 162.544C112.728 162.144 112.696 161.744 112.664 161.276L109.632 161.816V162.02C109.692 162.376 109.76 162.704 109.816 163.02Z" fill="black"/>
<path opacity="0.2" d="M99.9555 110.596L98.3555 120.08C97.8795 113.28 98.5155 105.188 98.5155 105.188L99.9555 110.596Z" fill="black"/>
<path d="M106.464 101.472C106.464 101.472 110.232 128.848 111.636 135.892C112.884 142.148 113.112 161.936 113.112 161.936L108.98 162.4C108.98 162.4 106.62 151.512 105.84 143.856C105.568 141.184 105.644 138.944 105.4 137.568C105.076 135.752 94.5397 106.432 96.4997 101.804L106.464 101.472Z" fill="#C53F3F"/>
<path d="M92.5753 97.8002C92.7133 96.6161 92.7467 95.4221 92.6753 94.2322C91.7273 82.9122 91.3873 82.2322 91.4753 80.2322C91.4809 80.055 91.54 79.8837 91.645 79.7408C91.75 79.598 91.8959 79.4904 92.0633 79.4322C99.8953 76.7682 105.987 78.0322 107.755 79.0322C110.111 80.3602 109.171 81.7802 109.143 82.1842C108.915 85.5402 107.067 91.7602 107.027 97.2042C107.027 98.0042 107.107 99.9242 107.159 100.988C107.169 101.197 107.104 101.403 106.976 101.568C106.847 101.733 106.664 101.846 106.459 101.888C104.703 102.252 96.9993 102.348 95.5553 102.288C94.1753 102.24 93.2673 102.156 92.6873 102.08C92.5676 102.064 92.4526 102.023 92.3497 101.959C92.2467 101.896 92.158 101.812 92.0892 101.713C92.0204 101.614 91.973 101.501 91.9499 101.383C91.9268 101.264 91.9287 101.142 91.9553 101.024C92.1793 100.068 92.5073 98.5082 92.5753 97.8002Z" fill="#263238"/>
<path d="M102 72.5562C101.704 74.3082 101.824 76.8802 103.076 78.0202C103.076 78.0202 103.052 79.8042 98.1557 81.8522C96.3077 79.3402 97.6197 78.1522 97.6197 78.1522C99.5677 77.6402 99.0957 76.8442 98.7237 75.4922L102 72.5562Z" fill="#B55B52"/>
<path opacity="0.2" d="M100.668 73.7361L98.7402 75.4921C98.8322 75.8045 98.8964 76.1244 98.9322 76.4481C99.6802 76.3241 100.836 75.6481 100.976 74.8481C100.967 74.4576 100.861 74.0755 100.668 73.7361Z" fill="black"/>
<path d="M104.208 69.5C103.496 72.384 103.252 73.616 101.504 74.84C98.872 76.688 95.504 75.176 95.324 72.136C95.18 69.4 96.38 65.128 99.448 64.508C100.124 64.3658 100.825 64.3986 101.485 64.6034C102.145 64.8082 102.742 65.1781 103.219 65.6781C103.695 66.1782 104.036 66.7917 104.21 67.4606C104.383 68.1294 104.382 68.8315 104.208 69.5Z" fill="#B55B52"/>
<path d="M99.1997 69.128C99.1517 69.364 98.9917 69.528 98.8397 69.528C98.6877 69.528 98.5917 69.28 98.6357 69.044C98.6797 68.808 98.8437 68.644 98.9957 68.664C99.1477 68.684 99.2357 68.9 99.1997 69.128Z" fill="#263238"/>
<path d="M96.5435 68.664C96.4995 68.904 96.3355 69.064 96.1835 69.064C96.0315 69.064 95.9355 68.816 95.9795 68.58C96.0235 68.344 96.1875 68.18 96.3395 68.204C96.4915 68.228 96.5875 68.424 96.5435 68.664Z" fill="#263238"/>
<path d="M97.4835 69.5C97.1715 70.0029 96.792 70.4605 96.3555 70.86C96.461 70.9691 96.589 71.0539 96.7306 71.1085C96.8722 71.1631 97.024 71.1861 97.1755 71.176L97.4835 69.5Z" fill="#A02724"/>
<path d="M98.296 72.3441C98.1765 72.3406 98.0574 72.3273 97.94 72.3041C97.931 72.3026 97.9224 72.2994 97.9147 72.2946C97.907 72.2897 97.9003 72.2834 97.8951 72.2759C97.8899 72.2685 97.8862 72.26 97.8843 72.2511C97.8824 72.2422 97.8823 72.233 97.884 72.2241C97.8854 72.2147 97.8888 72.2056 97.8939 72.1976C97.899 72.1896 97.9057 72.1827 97.9136 72.1774C97.9215 72.1721 97.9304 72.1686 97.9398 72.167C97.9492 72.1654 97.9588 72.1657 97.968 72.1681C98.2624 72.2275 98.5665 72.2172 98.8562 72.138C99.1458 72.0588 99.4129 71.913 99.636 71.7121C99.6493 71.6983 99.6675 71.6903 99.6866 71.69C99.7058 71.6896 99.7242 71.6968 99.738 71.7101C99.7518 71.7233 99.7598 71.7415 99.7602 71.7607C99.7605 71.7798 99.7533 71.7983 99.74 71.8121C99.5464 71.9917 99.3191 72.1312 99.0713 72.2225C98.8234 72.3138 98.5599 72.3551 98.296 72.3441Z" fill="#263238"/>
<path d="M100.468 68.7641C100.438 68.7696 100.408 68.7651 100.381 68.7514C100.354 68.7376 100.333 68.7154 100.32 68.6881C100.194 68.4944 100.029 68.3289 99.8351 68.2023C99.6416 68.0756 99.4239 67.9904 99.1959 67.9521C99.1582 67.9462 99.1245 67.9256 99.102 67.8949C99.0795 67.8642 99.0701 67.8258 99.0759 67.7881C99.0818 67.7516 99.1019 67.7188 99.1319 67.6971C99.1619 67.6753 99.1993 67.6664 99.2359 67.6721C99.5098 67.7155 99.771 67.8177 100.002 67.9717C100.232 68.1257 100.427 68.3278 100.572 68.5641C100.587 68.5977 100.589 68.6359 100.577 68.6709C100.566 68.7059 100.541 68.735 100.508 68.7521C100.496 68.7591 100.482 68.7632 100.468 68.7641Z" fill="#263238"/>
<path d="M96.0756 67.74C96.0504 67.7459 96.0242 67.745 95.9995 67.7372C95.9749 67.7295 95.9528 67.7153 95.9356 67.696C95.9223 67.683 95.9117 67.6674 95.9045 67.6503C95.8973 67.6331 95.8936 67.6147 95.8936 67.596C95.8936 67.5774 95.8973 67.559 95.9045 67.5418C95.9117 67.5246 95.9223 67.5091 95.9356 67.496C96.0979 67.3364 96.297 67.2189 96.5152 67.1541C96.7335 67.0892 96.9644 67.0789 97.1876 67.124C97.2051 67.1274 97.2218 67.1342 97.2366 67.1441C97.2514 67.154 97.264 67.1669 97.2738 67.1818C97.2835 67.1968 97.2901 67.2135 97.2931 67.2311C97.2962 67.2487 97.2957 67.2667 97.2916 67.284C97.283 67.3201 97.2605 67.3512 97.2291 67.3707C97.1976 67.3902 97.1596 67.3965 97.1236 67.388C96.9475 67.3578 96.7668 67.37 96.5963 67.4235C96.4259 67.4771 96.2707 67.5705 96.1436 67.696C96.1259 67.7173 96.1022 67.7326 96.0756 67.74Z" fill="#263238"/>
<path d="M103.6 77.8441L103.084 77.7561L100.216 79.3201L99.328 79.3521L97.624 77.9041L97.052 78.0401C96.5211 79.6817 96.4192 81.4319 96.756 83.1241L97.72 87.9641L98.728 93.2641L98.944 92.7761L99.744 90.9521L100.84 88.8721L102.84 83.7841L103.408 81.6881C103.745 80.436 103.803 79.1253 103.58 77.8481L103.6 77.8441Z" fill="#263238"/>
<path opacity="0.2" d="M100.508 79.356C97.4317 79.384 97.0917 78.252 97.0917 78.252V78C97.0917 78 96.1637 79.748 98.8317 80.056C101.5 80.364 103.28 79.1 103.66 78.34C103.364 78.724 102.568 79.34 100.508 79.356Z" fill="black"/>
<path d="M104.096 65.5361C103.997 65.0697 103.775 64.6386 103.452 64.2881C103.285 64.1196 103.059 64.0225 102.822 64.0172C102.584 64.012 102.354 64.0991 102.18 64.2601C101.919 63.9647 101.593 63.7336 101.228 63.5851C100.863 63.4366 100.469 63.3747 100.076 63.4041C99.7027 63.4369 99.3432 63.5604 99.0288 63.764C98.7143 63.9676 98.4545 64.245 98.2719 64.5721C97.9159 65.2321 96.7919 65.4641 96.0479 65.5401C96.5359 66.0321 97.7439 66.3401 98.3479 66.0081C98.1999 66.2401 97.5239 66.3641 97.2479 66.4081C97.6923 66.676 98.1861 66.8515 98.6999 66.9241C98.9575 66.956 99.2188 66.9097 99.4499 66.7913C99.681 66.673 99.8712 66.4879 99.9959 66.2601C99.8847 66.4474 99.8375 66.6657 99.8613 66.8822C99.8852 67.0986 99.9787 67.3015 100.128 67.4601C100.28 67.6172 100.48 67.7207 100.696 67.7553C100.912 67.7899 101.134 67.7537 101.328 67.6521C101.205 67.6136 101.098 67.5346 101.025 67.4278C100.953 67.3211 100.918 67.1929 100.928 67.0641C100.932 66.9261 100.979 66.7927 101.062 66.6824C101.145 66.5721 101.26 66.4902 101.392 66.4481C101.431 66.8184 101.613 67.1587 101.9 67.3961C102.164 67.6001 102.396 67.6841 102.56 67.9761C102.724 68.2681 102.528 68.9761 102.004 68.9281C102.24 69.1801 103.204 69.0881 103.312 68.7601C103.227 69.1738 103.054 69.5642 102.804 69.9046C102.554 70.245 102.233 70.5273 101.864 70.7321C102.056 70.7428 102.245 70.7833 102.424 70.8521C102.529 70.8756 102.628 70.9199 102.715 70.9825C102.802 71.045 102.876 71.1245 102.932 71.2161C102.983 71.3567 103.007 71.5061 103.001 71.6557C102.994 71.8053 102.959 71.9523 102.896 72.0881C102.655 72.8312 102.366 73.558 102.032 74.2641C102.51 74.1354 102.953 73.8996 103.326 73.5746C103.7 73.2496 103.994 72.8439 104.188 72.3881C104.645 72.2309 105.037 71.9273 105.304 71.5245C105.571 71.1217 105.697 70.6421 105.664 70.1601C106.137 69.7429 106.458 69.1799 106.576 68.5601C106.615 68.2611 106.543 67.958 106.374 67.7087C106.204 67.4594 105.948 67.2812 105.656 67.2081C105.753 66.9709 105.785 66.7119 105.746 66.4583C105.708 66.2048 105.602 65.9663 105.44 65.7681C105.367 65.6646 105.274 65.5765 105.167 65.5088C105.06 65.4411 104.941 65.3951 104.816 65.3736C104.691 65.352 104.563 65.3553 104.44 65.3832C104.316 65.4111 104.199 65.463 104.096 65.5361Z" fill="#263238"/>
<path d="M104.088 71.6C103.827 72.058 103.396 72.3944 102.888 72.536C102.212 72.716 101.88 72.104 102.088 71.464C102.268 70.892 102.836 70.108 103.516 70.2C103.633 70.2199 103.744 70.2625 103.844 70.3256C103.945 70.3886 104.031 70.4708 104.1 70.5674C104.168 70.664 104.217 70.7731 104.243 70.8885C104.269 71.004 104.272 71.1234 104.252 71.24C104.226 71.3712 104.17 71.4944 104.088 71.6Z" fill="#B55B52"/>
<path d="M102.799 69.5241L100.831 69.1881C100.667 68.6841 99.9554 68.5641 99.6554 68.5121C99.3554 68.4601 98.5914 68.3321 98.2874 68.8161L97.6034 68.6961C97.4754 68.1441 96.7234 68.0121 96.4034 67.9601C96.0834 67.9081 95.0634 67.7321 94.9194 68.5641C94.8995 68.9001 95.0042 69.2316 95.2135 69.4953C95.4227 69.7589 95.7218 69.9362 96.0536 69.9931C96.3853 70.0501 96.7264 69.9827 97.0116 69.8039C97.2968 69.6251 97.5061 69.3475 97.5994 69.0241C97.6032 68.9788 97.6032 68.9333 97.5994 68.8881L98.1874 68.9881C98.1739 69.0314 98.1632 69.0754 98.1554 69.1201C98.1368 69.4556 98.2423 69.7863 98.4519 70.049C98.6615 70.3118 98.9605 70.4881 99.2918 70.5445C99.6231 70.6009 99.9636 70.5333 100.248 70.3547C100.533 70.1761 100.742 69.8989 100.835 69.5761C100.841 69.5109 100.841 69.4453 100.835 69.3801L102.739 69.7081C102.999 69.7516 103.235 69.8846 103.407 70.0841L103.547 69.9641C103.355 69.7371 103.091 69.582 102.799 69.5241ZM96.0954 69.8121C95.8073 69.7798 95.5432 69.6363 95.3594 69.4121C95.1756 69.188 95.0866 68.9009 95.1114 68.6121C95.1914 68.1561 95.5674 68.0201 96.3794 68.1561C97.1914 68.2921 97.5034 68.5561 97.4234 69.0081C97.3506 69.2905 97.1698 69.5331 96.9199 69.6835C96.67 69.8339 96.371 69.8801 96.0874 69.8121H96.0954ZM99.3394 70.3641C99.0516 70.3318 98.7879 70.1881 98.6048 69.9638C98.4216 69.7396 98.3335 69.4525 98.3594 69.1641C98.4354 68.7081 98.8154 68.5721 99.6274 68.7121C100.439 68.8521 100.747 69.1121 100.671 69.5601C100.599 69.8434 100.417 70.0867 100.166 70.2371C99.9156 70.3876 99.6156 70.4332 99.3314 70.3641H99.3394Z" fill="#263238"/>
<path d="M76.7993 85.7841C79.7487 86.5465 82.8138 86.7554 85.8393 86.4001C87.4081 83.657 89.5337 81.2725 92.0793 79.4001L93.1993 83.6001C93.1993 83.6001 89.8633 88.9001 87.1633 90.1201C85.0233 91.0881 78.6033 89.3641 76.0273 88.6041C76.0658 87.6175 76.3299 86.6528 76.7993 85.7841Z" fill="#263238"/>
<path d="M123.372 86.256C120.41 86.9449 117.347 87.0806 114.336 86.656C112.83 83.8777 110.757 81.4465 108.252 79.52L107.052 83.692C107.052 83.692 110.272 89.068 112.948 90.344C115.064 91.356 121.52 89.772 124.112 89.072C124.081 88.0894 123.828 87.1266 123.372 86.256Z" fill="#263238"/>
<path d="M97.1035 77.116V78.252C97.1035 78.252 97.3435 79.484 100.42 79.452C103.496 79.42 103.856 77.968 103.856 77.968V77.144C103.857 77.0051 103.828 76.8675 103.77 76.7413C103.713 76.615 103.627 76.5032 103.521 76.414C103.414 76.3247 103.289 76.2603 103.155 76.2254C103.02 76.1905 102.88 76.1859 102.744 76.212C101.225 76.4507 99.6782 76.4507 98.1595 76.212C98.0296 76.1952 97.8975 76.2058 97.772 76.2432C97.6464 76.2806 97.53 76.344 97.4305 76.4292C97.331 76.5144 97.2504 76.6196 97.1941 76.7379C97.1378 76.8562 97.1069 76.985 97.1035 77.116Z" fill="#263238"/>
</svg>
