<svg width="80" height="53" viewBox="0 0 80 53" fill="none" xmlns="http://www.w3.org/2000/svg">
<path d="M71.4043 45.4312C75.1857 42.4036 77.3624 37.7975 77.4292 32.9523C77.472 29.8975 77.2528 26.0619 76.2266 22.7775C72.8419 11.9481 63.281 6.07353 56.2862 4.82073C49.2914 3.56794 42.0879 5.86473 36.6591 9.51872C31.2303 13.1727 31.7523 12.5463 22.4607 11.1891C13.1691 9.83192 5.54796 13.7991 3.04237 21.1071C0.536773 28.4151 8.15795 32.5566 8.99315 36.3849C9.82835 40.2133 8.36675 46.9982 22.8783 48.6686C37.3899 50.339 41.7747 42.1958 48.9782 44.4926C54.7745 46.3415 63.4104 51.8403 71.4043 45.4312Z" fill="#92E3A9"/>
<path opacity="0.7" d="M71.4043 45.4312C75.1857 42.4036 77.3624 37.7975 77.4292 32.9523C77.472 29.8975 77.2528 26.0619 76.2266 22.7775C72.8419 11.9481 63.281 6.07353 56.2862 4.82073C49.2914 3.56794 42.0879 5.86473 36.6591 9.51872C31.2303 13.1727 31.7523 12.5463 22.4607 11.1891C13.1691 9.83192 5.54796 13.7991 3.04237 21.1071C0.536773 28.4151 8.15795 32.5566 8.99315 36.3849C9.82835 40.2133 8.36675 46.9982 22.8783 48.6686C37.3899 50.339 41.7747 42.1958 48.9782 44.4926C54.7745 46.3415 63.4104 51.8403 71.4043 45.4312Z" fill="white"/>
<path d="M13.3731 8.53945C13.2259 8.38703 12.9701 8.24609 12.5264 8.23461C11.5294 8.2106 11.7956 8.91634 11.5294 9.08651C11.2632 9.25668 11.1891 8.98942 10.9208 9.15959C10.6524 9.32976 10.7746 9.6701 10.5564 9.71917C10.3382 9.76824 10.0459 9.49993 9.77758 9.6701C9.50927 9.84027 9.51031 9.9833 9.38817 9.9833C9.26602 9.9833 9.02381 9.88621 8.87765 9.9833C8.73149 10.0804 8.56445 10.2025 8.56445 10.2025H11.1744" stroke="#263238" stroke-width="0.1044" stroke-linecap="round" stroke-linejoin="round"/>
<path d="M13.6474 8.97487L13.5722 8.94042C13.5605 8.84949 13.5299 8.76201 13.4824 8.68359" stroke="#263238" stroke-width="0.1044" stroke-linecap="round" stroke-linejoin="round"/>
<path d="M11.5078 10.2037H14.716C14.716 10.2037 14.7891 9.98448 14.5218 9.83832C14.2546 9.69216 14.1324 9.81431 14.0353 9.69216C13.9382 9.57001 14.2285 9.32154 13.7754 9.04175" stroke="#263238" stroke-width="0.1044" stroke-linecap="round" stroke-linejoin="round"/>
<path d="M43.4932 16.3748C43.345 16.2213 43.0892 16.0804 42.6455 16.0699C41.6485 16.0459 41.9147 16.7506 41.6485 16.9208C41.3823 17.091 41.3081 16.8237 41.0409 16.9939C40.7736 17.164 40.8947 17.5054 40.6755 17.5535C40.4562 17.6015 40.165 17.3342 39.8977 17.5054C39.6304 17.6766 39.6294 17.8186 39.5083 17.8186C39.3872 17.8186 39.1429 17.7215 38.9978 17.8186C38.8527 17.9157 38.6846 18.0379 38.6846 18.0379H41.2946" stroke="#263238" stroke-width="0.1044" stroke-linecap="round" stroke-linejoin="round"/>
<path d="M43.7685 16.8101L43.6923 16.7756C43.6808 16.6847 43.6502 16.5971 43.6025 16.5188" stroke="#263238" stroke-width="0.1044" stroke-linecap="round" stroke-linejoin="round"/>
<path d="M41.6279 18.0398H44.8351C44.8351 18.0398 44.9082 17.8206 44.6409 17.6755C44.3736 17.5304 44.2515 17.6504 44.1544 17.5293C44.0573 17.4082 44.3475 17.1587 43.8944 16.8789" stroke="#263238" stroke-width="0.1044" stroke-linecap="round" stroke-linejoin="round"/>
<path d="M64.7506 5.55269C64.4854 5.27707 64.0198 5.02338 63.2243 5.00354C61.4265 4.9597 61.9047 6.2365 61.4265 6.53822C60.9484 6.83993 60.8126 6.36283 60.3303 6.66976C59.848 6.9767 60.0672 7.59057 59.6737 7.67826C59.2801 7.76596 58.7528 7.2805 58.2705 7.5937C57.7882 7.9069 57.7882 8.16372 57.5689 8.16372C57.3497 8.16372 56.9112 7.98833 56.6481 8.16372C56.3851 8.33911 56.0781 8.55835 56.0781 8.55835H60.7855" stroke="#263238" stroke-width="0.1044" stroke-linecap="round" stroke-linejoin="round"/>
<path d="M65.2448 6.34093C65.202 6.32005 65.1571 6.29917 65.1091 6.27829C65.0878 6.11456 65.0327 5.95705 64.9473 5.8158" stroke="#263238" stroke-width="0.1044" stroke-linecap="round" stroke-linejoin="round"/>
<path d="M61.3877 8.55513H67.1694C67.1694 8.55513 67.3009 8.1605 66.8186 7.89741C66.3362 7.63432 66.118 7.85356 65.9427 7.63432C65.7861 7.4391 66.2903 6.96616 65.4739 6.46191" stroke="#263238" stroke-width="0.1044" stroke-linecap="round" stroke-linejoin="round"/>
<path d="M29.8668 10.21H36.2268C36.2268 10.21 36.444 9.5596 35.6485 9.12634C34.8529 8.69308 34.4928 9.05431 34.2036 8.69308C33.9144 8.33186 34.9991 7.39226 32.8318 6.45371C32.8318 6.45371 32.6866 4.43044 29.7248 4.35841C28.447 4.32709 27.8686 4.69979 27.5596 5.17377" stroke="#263238" stroke-width="0.1044" stroke-linecap="round" stroke-linejoin="round"/>
<path d="M27.9268 10.2098H28.9854" stroke="#263238" stroke-width="0.1044" stroke-linecap="round" stroke-linejoin="round"/>
<path d="M27.175 6.17175C27.0841 6.47973 26.986 6.74595 26.7636 6.88689C25.9691 7.39219 25.753 6.5977 24.9575 7.10404C24.162 7.61038 24.5295 8.62097 23.8749 8.76504C23.2203 8.90911 22.3569 8.11568 21.5624 8.62097C20.7679 9.12626 20.7679 9.56057 20.4067 9.56057C20.0455 9.56057 19.3231 9.27242 18.8898 9.56057C18.4565 9.84871 17.9502 10.211 17.9502 10.211H26.0735" stroke="#263238" stroke-width="0.1044" stroke-linecap="round" stroke-linejoin="round"/>
<path d="M69.5625 28.2637L73.2865 20.7427L74.4046 21.296L74.1384 17.1399L70.6723 19.4482L71.7904 20.0015L68.0654 27.5224" stroke="#263238" stroke-width="0.1044" stroke-linecap="round" stroke-linejoin="round"/>
<path d="M67.7464 16.8423L70.0933 12.1026L70.798 12.4513L70.631 9.83191L68.4459 11.2862L69.1506 11.6349L66.8037 16.3757" stroke="#263238" stroke-width="0.1044" stroke-linecap="round" stroke-linejoin="round"/>
<path d="M43.7201 8.69016C44.2237 7.53411 45.1626 6.6231 46.3333 6.15456C47.504 5.68601 48.8122 5.69769 49.9744 6.18706C51.1365 6.67643 52.059 7.60407 52.5419 8.76892C53.0248 9.93377 53.0292 11.242 52.5541 12.4101C52.0791 13.5781 51.1628 14.512 50.004 15.0091C48.8452 15.5063 47.5371 15.5268 46.3633 15.0661C45.1895 14.6054 44.2445 13.7007 43.7331 12.5481C43.2217 11.3955 43.1852 10.0877 43.6314 8.90835" stroke="#263238" stroke-width="0.1044" stroke-miterlimit="10"/>
<path d="M43.6657 8.67011C44.1749 7.50021 45.1247 6.57815 46.3092 6.1038C47.4937 5.62945 48.8174 5.64103 49.9934 6.13604C51.1694 6.63104 52.1029 7.56958 52.5916 8.74821C53.0803 9.92684 53.0848 11.2506 52.6041 12.4325C52.1234 13.6144 51.1963 14.5593 50.0237 15.0623C48.8511 15.5652 47.5275 15.5858 46.3398 15.1195C45.1522 14.6532 44.1961 13.7376 43.6789 12.5712C43.1617 11.4048 43.1251 10.0816 43.5769 8.88831" stroke="#263238" stroke-width="0.0521999" stroke-miterlimit="10"/>
<path d="M44.9336 9.14821C45.3195 8.29554 46.025 7.62867 46.8981 7.29141C47.7711 6.95415 48.7418 6.97352 49.6007 7.34533C50.4596 7.71714 51.138 8.41161 51.4896 9.279C51.8412 10.1464 51.8378 11.1172 51.4802 11.9821C51.1226 12.8471 50.4394 13.5368 49.5779 13.9026C48.7164 14.2685 47.7457 14.2811 46.875 13.9378C46.0043 13.5944 45.3034 12.9227 44.9234 12.0674C44.5434 11.212 44.5148 10.2416 44.8438 9.36537" stroke="#263238" stroke-width="0.1044" stroke-miterlimit="10"/>
<path d="M44.8792 9.1273C45.2457 8.32061 45.8975 7.67794 46.7093 7.32291C47.5211 6.96789 48.4355 6.92558 49.2767 7.20413C50.1178 7.48269 50.8262 8.06242 51.2656 8.83182C51.705 9.60122 51.8444 10.5059 51.657 11.3719C51.4695 12.2379 50.9685 13.004 50.2503 13.5228C49.532 14.0416 48.6473 14.2766 47.7663 14.1824C46.8852 14.0882 46.0702 13.6715 45.4778 13.0126C44.8855 12.3536 44.5577 11.4989 44.5576 10.6129C44.5568 10.1795 44.6353 9.74957 44.7894 9.34445" stroke="#263238" stroke-width="0.0521999" stroke-miterlimit="10"/>
<path d="M46.4799 9.73707C46.7071 9.31024 47.0914 8.98854 47.5515 8.84007C48.0117 8.69159 48.5116 8.72798 48.9453 8.94154C49.3791 9.15509 49.7128 9.52906 49.8757 9.98429C50.0387 10.4395 50.0181 10.9403 49.8183 11.3806C49.6186 11.8209 49.2553 12.1662 48.8055 12.3435C48.3556 12.5207 47.8545 12.5159 47.4081 12.3302C46.9616 12.1444 46.605 11.7923 46.4137 11.3482C46.2223 10.9042 46.2113 10.4031 46.3828 9.95109V9.94169" stroke="#263238" stroke-width="0.1044" stroke-miterlimit="10"/>
<path d="M46.4055 9.7561L46.4275 9.71225C46.648 9.29206 47.0147 8.96715 47.4584 8.79889C47.9021 8.63064 48.3921 8.63068 48.8357 8.79901C49.2794 8.96734 49.6461 9.2923 49.8665 9.71253C50.087 10.1328 50.1459 10.6192 50.0322 11.0799C49.9185 11.5406 49.64 11.9437 49.2493 12.2131C48.8587 12.4825 48.3829 12.5996 47.9119 12.5421C47.4408 12.4847 47.0071 12.2568 46.6927 11.9014C46.3782 11.546 46.2048 11.0878 46.2051 10.6132C46.2047 10.3789 46.2471 10.1464 46.3304 9.92731" stroke="#263238" stroke-width="0.0521999" stroke-miterlimit="10"/>
<path d="M46.5117 9.74337H46.496L46.4825 9.73815L46.4282 9.71727L44.9342 9.15352L44.8799 9.13264L43.7211 8.6952L43.6668 8.67537L41.8001 7.97067L41.892 7.28163C41.8938 7.26901 41.8913 7.25617 41.8851 7.24505C41.8789 7.23393 41.8692 7.22514 41.8575 7.22003L40.3803 6.54979C40.3698 6.54518 40.3581 6.54373 40.3468 6.54559C40.3355 6.54745 40.3249 6.55255 40.3164 6.56028C40.3079 6.568 40.3018 6.57802 40.2989 6.58913C40.296 6.60024 40.2963 6.61195 40.2999 6.62287L40.5995 7.51026L40.3792 7.42675C40.3646 7.42024 40.3488 7.4168 40.3327 7.41662C40.3167 7.41644 40.3008 7.41954 40.286 7.42572C40.2712 7.43189 40.2578 7.44103 40.2466 7.45255C40.2355 7.46408 40.2268 7.47776 40.2211 7.49276C40.2154 7.50776 40.2128 7.52376 40.2136 7.53978C40.2143 7.5558 40.2182 7.57152 40.2252 7.58596C40.2322 7.60039 40.242 7.61326 40.2542 7.62376C40.2663 7.63426 40.2804 7.64218 40.2957 7.64703L40.5254 7.73368L39.8364 8.26299C39.8272 8.27003 39.8203 8.27965 39.8166 8.29061C39.8129 8.30158 39.8125 8.3134 39.8155 8.32458C39.8183 8.3357 39.8244 8.34571 39.8329 8.35334C39.8415 8.36097 39.8521 8.36586 39.8635 8.36739L41.5182 8.62212H41.5266C41.5385 8.62212 41.5502 8.61854 41.56 8.61184C41.5699 8.60514 41.5775 8.59563 41.5819 8.58454L41.7375 8.18991L43.577 8.88416L43.6313 8.904L44.7891 9.34039L44.8434 9.36127L46.3311 9.92294L46.3854 9.94278L46.4292 9.95948" stroke="#263238" stroke-width="0.1044" stroke-miterlimit="10"/>
<path d="M46.4805 9.73712H46.4961H46.5118L47.5756 10.1391L47.6926 9.78827C47.7002 9.76495 47.715 9.74464 47.7349 9.73021C47.7548 9.71578 47.7787 9.70797 47.8032 9.70789C47.8281 9.70834 47.8522 9.71667 47.8721 9.73167C47.892 9.74668 47.9066 9.76759 47.9139 9.79141L48.1227 10.4825C48.1306 10.5091 48.129 10.5377 48.1182 10.5632C48.1073 10.5888 48.0879 10.6097 48.0632 10.6224L47.5307 10.8876C47.5146 10.8958 47.4967 10.9001 47.4785 10.9001C47.4502 10.9003 47.4228 10.8903 47.4013 10.8719C47.3839 10.8565 47.3714 10.8363 47.3653 10.8139C47.3592 10.7915 47.3597 10.7678 47.3668 10.7456L47.4963 10.3687L46.4293 9.96366C46.4143 9.95813 46.4007 9.9492 46.3896 9.93756" stroke="#263238" stroke-width="0.1044" stroke-miterlimit="10"/>
<path d="M16.7379 22.1532L17.6775 22.362L17.8947 21.4098L16.9937 21.201C16.9937 21.1749 16.9937 21.1478 16.9937 21.1206C16.9943 20.8314 16.936 20.5452 16.8225 20.2792L17.5533 19.6966L16.9447 18.9335L16.2494 19.4951C16.0042 19.2825 15.714 19.1283 15.4006 19.0441V18.1379H14.4244V19.0128C14.1023 19.0754 13.799 19.2115 13.5381 19.4106L12.8313 18.8468L12.2227 19.61L12.9127 20.1602C12.7665 20.4495 12.688 20.7683 12.6831 21.0925L11.7842 21.3013L12.0013 22.2534L12.8877 22.0508C13.0221 22.3366 13.2174 22.5896 13.4598 22.7921L13.0422 23.6492L13.9223 24.0731L14.3284 23.2295C14.6284 23.3034 14.9408 23.3109 15.244 23.2514L15.6616 24.1253L16.5417 23.7014L16.1324 22.8516C16.3822 22.6651 16.5888 22.4269 16.7379 22.1532ZM13.8795 21.129C13.8795 20.9394 13.9357 20.7541 14.041 20.5965C14.1463 20.4389 14.296 20.3161 14.4711 20.2436C14.6462 20.171 14.8389 20.152 15.0248 20.189C15.2108 20.226 15.3815 20.3173 15.5156 20.4513C15.6496 20.5853 15.7409 20.7561 15.7778 20.942C15.8148 21.1279 15.7958 21.3206 15.7233 21.4958C15.6508 21.6709 15.5279 21.8206 15.3703 21.9259C15.2127 22.0312 15.0274 22.0874 14.8379 22.0874C14.712 22.0874 14.5874 22.0626 14.4711 22.0144C14.3548 21.9663 14.2492 21.8957 14.1602 21.8067C14.0712 21.7177 14.0006 21.612 13.9524 21.4958C13.9043 21.3795 13.8795 21.2548 13.8795 21.129Z" stroke="#263238" stroke-width="0.1044" stroke-linecap="round" stroke-linejoin="round"/>
<path d="M73.7147 31.8771L74.3505 32.0222L74.4977 31.377L73.887 31.2371C73.887 31.2194 73.887 31.2006 73.887 31.1828C73.8874 30.9867 73.8483 30.7925 73.7721 30.6118L74.267 30.2171L73.8494 29.6951L73.3879 30.0772C73.2219 29.9331 73.0252 29.8289 72.8127 29.7724V29.1554H72.1456V29.7473C71.9274 29.7904 71.7221 29.8829 71.5453 30.0177L71.0661 29.6356L70.6485 30.1576L71.1162 30.5303C71.0176 30.7247 70.9644 30.9389 70.9606 31.1567L70.3604 31.2925L70.5076 31.9376L71.1089 31.8009C71.2 31.9944 71.3322 32.1658 71.4962 32.303L71.2164 32.8835L71.8125 33.1706L72.0882 32.5985C72.2002 32.6266 72.3151 32.641 72.4306 32.6413C72.5238 32.6408 72.6168 32.6317 72.7083 32.6142L72.9933 33.2061L73.5905 32.919L73.3128 32.3438C73.478 32.2181 73.6149 32.0591 73.7147 31.8771ZM71.7771 31.1881C71.7771 31.0596 71.8151 30.9341 71.8865 30.8273C71.9578 30.7205 72.0593 30.6373 72.1779 30.5881C72.2966 30.539 72.4271 30.5261 72.5531 30.5512C72.6791 30.5762 72.7948 30.6381 72.8856 30.7289C72.9764 30.8197 73.0383 30.9354 73.0633 31.0614C73.0884 31.1873 73.0755 31.3179 73.0264 31.4366C72.9772 31.5552 72.894 31.6566 72.7872 31.728C72.6804 31.7993 72.5549 31.8374 72.4264 31.8374C72.2542 31.8374 72.089 31.769 71.9672 31.6472C71.8455 31.5254 71.7771 31.3603 71.7771 31.1881Z" stroke="#263238" stroke-width="0.1044" stroke-linecap="round" stroke-linejoin="round"/>
<path d="M18.5372 17.4742L19.3077 17.6496L19.4852 16.8687L18.746 16.7006C18.746 16.6787 18.746 16.6568 18.746 16.6348C18.7474 16.3983 18.7009 16.1639 18.6092 15.9458L19.2095 15.4677L18.7105 14.8413L18.1363 15.2985C17.935 15.1244 17.697 14.9981 17.44 14.929V14.1825H16.6392V14.9018C16.3737 14.953 16.1236 15.0648 15.9084 15.2286L15.328 14.7661L14.8289 15.3925L15.3948 15.8435C15.2752 16.0807 15.2109 16.342 15.2069 16.6077L14.4688 16.7768L14.6473 17.5577L15.3781 17.3917C15.4881 17.626 15.6481 17.8334 15.8468 17.9993L15.5075 18.702L16.23 19.0496L16.563 18.3574C16.6997 18.3912 16.8399 18.4084 16.9806 18.4086C17.0934 18.4084 17.206 18.3976 17.3168 18.3762L17.6613 19.0924L18.3837 18.7448L18.0476 18.0484C18.2505 17.8948 18.4176 17.6989 18.5372 17.4742ZM16.1934 16.639C16.1932 16.4835 16.2392 16.3314 16.3254 16.202C16.4117 16.0726 16.5344 15.9716 16.678 15.912C16.8216 15.8523 16.9797 15.8366 17.1323 15.8668C17.2849 15.897 17.425 15.9718 17.5351 16.0817C17.6451 16.1916 17.7201 16.3317 17.7505 16.4842C17.7809 16.6367 17.7654 16.7949 17.706 16.9386C17.6465 17.0823 17.5457 17.2051 17.4164 17.2915C17.2871 17.378 17.1351 17.4241 16.9796 17.4241C16.8761 17.4241 16.7736 17.4037 16.678 17.364C16.5824 17.3243 16.4956 17.2661 16.4226 17.1927C16.3495 17.1194 16.2917 17.0324 16.2524 16.9366C16.213 16.8409 16.193 16.7383 16.1934 16.6348V16.639Z" stroke="#263238" stroke-width="0.1044" stroke-linecap="round" stroke-linejoin="round"/>
<path d="M60.312 44.1912C60.312 44.1912 59.6637 44.6088 59.5342 44.7132C59.4048 44.8176 58.8086 44.9471 58.8869 45.1308C58.9652 45.3146 59.7159 45.4158 59.9236 45.4158C60.1314 45.4158 60.9332 44.9982 61.1409 44.9502C61.3487 44.9022 61.3497 44.6652 61.2704 44.4835C61.1848 44.3242 61.0796 44.1762 60.9572 44.043L60.4133 44.1985L60.312 44.1912Z" fill="white" stroke="#263238" stroke-width="0.1044" stroke-linecap="round" stroke-linejoin="round"/>
<path d="M67.6701 44.1205C67.6701 44.1205 67.1774 44.7166 67.1001 44.8461C67.0229 44.9755 66.5781 45.1822 66.5781 45.39C66.5781 45.5977 67.3298 45.4944 67.5626 45.4672C67.7027 45.4455 67.8361 45.3923 67.9527 45.3116C68.0693 45.231 68.1662 45.125 68.236 45.0016C68.3665 44.7417 68.4698 44.1977 68.3143 43.991C68.1587 43.7843 67.6701 44.1205 67.6701 44.1205Z" fill="white" stroke="#263238" stroke-width="0.1044" stroke-linecap="round" stroke-linejoin="round"/>
<path d="M61.4516 32.6425L61.4307 32.7991L61.2699 34.0414C61.2699 34.0414 59.8292 36.0762 59.302 37.1358C59.0326 37.6766 58.6568 38.3187 58.709 38.4993L60.3115 44.1912C60.433 44.2508 60.5649 44.2863 60.6999 44.2956C60.8243 44.2913 60.9469 44.2651 61.0622 44.2183L60.9891 38.9503L63.2128 36.5042L63.4978 36.8665C63.4978 36.8665 64.2359 39.4848 64.547 39.8993C64.8581 40.3138 67.5412 44.1974 67.5412 44.1974C67.6794 44.262 67.8293 44.2975 67.9818 44.3018C68.2156 44.3018 68.319 43.9886 68.319 43.9886C68.319 43.9886 66.3886 39.2228 66.3354 39.0672C66.2822 38.9117 66.3218 35.1 66.3218 35.1L66.0086 33.2605L65.6464 32.0944C65.6464 32.0944 64.973 32.276 63.8329 32.2238C62.6929 32.1716 61.6051 32.0944 61.6051 32.0944L61.4516 32.6425Z" fill="#263238" stroke="#263238" stroke-width="0.1044" stroke-linecap="round" stroke-linejoin="round"/>
<path d="M58.394 20.1552C58.394 20.1552 58.0317 20.6991 57.9764 21.0363C57.9548 21.2607 58.0198 21.4847 58.158 21.6627L57.9492 22.1033C57.9492 22.1033 58.6487 23.5283 59.0632 24.1756C59.4776 24.8229 60.151 25.9118 60.5655 26.1195C60.9799 26.3273 61.7828 27.1813 61.7828 27.1813L62.2494 26.1707C62.2494 26.1707 60.8818 24.4554 60.0247 23.2642C59.5065 22.5411 59.0307 21.7885 58.5996 21.0102C58.5988 20.7847 58.6162 20.5595 58.6518 20.3368C58.6858 20.1399 58.7029 19.9405 58.703 19.7407L58.394 20.1552Z" fill="#263238" stroke="#263238" stroke-width="0.1044" stroke-linecap="round" stroke-linejoin="round"/>
<path d="M62.5919 25.7774C62.5919 25.7774 61.5292 27.0469 61.3224 27.8759C61.1157 28.7048 61.3736 31.2699 61.3736 31.6343C61.3736 31.9986 61.1648 32.3859 61.4519 32.6449C61.739 32.9038 62.5919 32.7743 62.902 32.7493C63.2121 32.7242 64.6904 32.7493 65.1309 32.6188C65.5715 32.4883 65.7782 32.3056 65.7782 31.9976C65.7782 31.6896 65.2343 29.2258 65.1518 28.8113C65.0693 28.3968 65.3606 26.9718 64.9712 26.2973C64.5818 25.6229 63.3426 25.5185 62.5919 25.7774Z" fill="white" stroke="#263238" stroke-width="0.1044" stroke-linecap="round" stroke-linejoin="round"/>
<path d="M62.4098 25.9589C62.4098 25.9589 61.1142 27.2795 60.9325 27.979C60.7509 28.6785 60.1036 30.0263 59.8969 30.6224C59.7168 31.0926 59.5076 31.5511 59.2705 31.9953L59.5033 32.9275L60.0994 32.2803C60.0994 32.2803 60.6956 30.233 61.0067 29.378C61.3178 28.5229 61.3689 27.7201 61.4243 27.4873C61.4796 27.2545 62.4098 25.9589 62.4098 25.9589Z" fill="#263238" stroke="#263238" stroke-width="0.1044" stroke-linecap="round" stroke-linejoin="round"/>
<path d="M62.5922 25.8808C62.5922 25.8808 61.8144 28.0053 61.8405 28.1609C61.8666 28.3164 62.2289 34.0678 62.2289 34.0678C62.2289 34.0678 62.5922 34.9489 64.2239 34.8195C65.8557 34.69 67.1242 34.4562 67.1242 34.4562C67.1242 34.4562 66.6324 32.5133 66.1919 31.6322C65.7513 30.751 65.5185 30.2332 65.5185 29.8187C65.5185 29.4043 65.3368 26.6325 65.2335 26.1919C65.1884 25.9656 65.1096 25.7474 64.9996 25.5446L64.8451 25.4152L62.5922 25.8808Z" fill="#92E3A9" stroke="#263238" stroke-width="0.1044" stroke-linecap="round" stroke-linejoin="round"/>
<path d="M61.9697 30.2854L63.2392 33.3944C63.2392 33.3944 62.7172 33.6032 62.5398 33.7828C62.4402 33.883 62.3357 33.9781 62.2266 34.0678L61.9697 30.2854Z" fill="#92E3A9" stroke="#263238" stroke-width="0.1044" stroke-linecap="round" stroke-linejoin="round"/>
<path d="M63.6534 21.7098C63.6534 21.7098 62.8506 22.357 62.8506 22.5387C62.8506 22.7204 62.6418 22.9793 62.6418 22.9793C62.6418 22.9793 62.2242 23.0315 62.2012 23.1881C62.1783 23.3447 62.3307 23.6547 62.3307 23.6547C62.3307 23.6547 62.0718 24.5359 62.1762 24.7426C62.2806 24.9493 63.0302 24.9764 63.0302 24.9764L63.0563 25.5465L64.8446 25.2614L64.8185 24.8209C64.8185 24.8209 65.7769 23.7842 66.2436 23.3436C66.7103 22.9031 66.1141 22.1263 65.5441 21.5302C64.9741 20.9341 63.6263 20.9341 63.5229 21.2452C63.4909 21.3262 63.4864 21.4156 63.5099 21.4995C63.5335 21.5834 63.5839 21.6572 63.6534 21.7098Z" fill="white" stroke="#263238" stroke-width="0.1044" stroke-linecap="round" stroke-linejoin="round"/>
<path d="M62.9805 22.6424C63.0377 22.6139 63.1014 22.6013 63.1652 22.6059C63.2289 22.6105 63.2902 22.6321 63.3427 22.6685" stroke="#263238" stroke-width="0.1044" stroke-linecap="round" stroke-linejoin="round"/>
<path d="M63.0075 23.0161C62.9877 23.0996 63.0002 23.1748 63.0346 23.1821C63.0691 23.1894 63.114 23.1299 63.1338 23.0464C63.1537 22.9629 63.1411 22.8888 63.1067 22.8804C63.0722 22.8721 63.0273 22.9326 63.0075 23.0161Z" fill="#263238"/>
<path d="M65.545 21.5281C64.975 20.932 63.6272 20.932 63.5239 21.2431C63.4912 21.3243 63.4862 21.414 63.5096 21.4983C63.533 21.5827 63.5835 21.657 63.6533 21.7098C63.6533 21.7098 64.5344 21.8142 64.405 22.047C64.2755 22.2798 63.835 22.2798 63.9383 22.4354C64.0417 22.5909 64.405 22.9271 64.2755 23.0054C64.1461 23.0837 64.0667 23.2382 64.1461 23.2904C64.2254 23.3426 64.3549 23.2121 64.6681 23.2643C64.9813 23.3165 64.9009 24.041 64.6159 24.1454C64.3309 24.2498 64.1983 24.1193 64.7203 24.586C64.7816 24.6397 64.8524 24.6815 64.9291 24.7092C65.188 24.4304 65.8781 23.6955 66.2518 23.3415C66.706 22.901 66.115 22.1242 65.545 21.5281Z" fill="#263238" stroke="#263238" stroke-width="0.1044" stroke-linecap="round" stroke-linejoin="round"/>
<path d="M64.4047 24.2226L63.9381 24.1193L63.627 24.3521" stroke="#263238" stroke-width="0.1044" stroke-linecap="round" stroke-linejoin="round"/>
<path d="M64.9492 24.9481L62.5657 25.5954L62.4102 26.0882L65.2342 25.5703L64.9492 24.9481Z" fill="#92E3A9" stroke="#263238" stroke-width="0.1044" stroke-linecap="round" stroke-linejoin="round"/>
<path d="M58.9382 20.932L58.8599 20.3881C58.8599 20.3881 59.0927 19.6375 59.0927 19.4558C59.0927 19.2742 58.9121 18.8597 58.9121 18.7564C58.9121 18.653 58.7565 18.4974 58.7033 18.7042C58.65 18.9109 58.5477 19.6886 58.5477 19.6886C58.5477 19.6886 58.2116 20.2587 58.2345 20.5437C58.2575 20.8287 58.5185 21.4248 58.5185 21.4248L58.9852 21.1398L58.9382 20.932Z" fill="white" stroke="#263238" stroke-width="0.1044" stroke-linecap="round" stroke-linejoin="round"/>
<path d="M59.2748 21.3478L58.9386 20.9323L58.3164 21.425L58.6787 22.0472L59.2748 21.3478Z" fill="white" stroke="#263238" stroke-width="0.1044" stroke-linecap="round" stroke-linejoin="round"/>
<path d="M64.923 26.6844C64.7511 26.2499 64.4292 25.8914 64.0157 25.6738C63.5752 25.4577 63.1157 25.283 62.6429 25.1518L59.1194 21.1366L58.4199 21.8361C58.4199 21.8361 59.8972 24.919 60.1822 25.4368C60.4672 25.9546 63.7568 29.5084 63.7568 29.5084" fill="#92E3A9"/>
<path d="M64.923 26.6844C64.7511 26.2499 64.4292 25.8914 64.0157 25.6738C63.5752 25.4577 63.1157 25.283 62.6429 25.1518L59.1194 21.1366L58.4199 21.8361C58.4199 21.8361 59.8972 24.919 60.1822 25.4368C60.4672 25.9546 63.7568 29.5084 63.7568 29.5084" stroke="#263238" stroke-width="0.1044" stroke-linecap="round" stroke-linejoin="round"/>
<path d="M34.2053 43.6575C34.2053 43.6575 33.7094 44.3622 33.605 44.7537C33.5006 45.1452 33.5267 45.6672 33.7877 45.615C34.0487 45.5628 34.649 44.9103 34.7012 44.7276C34.7534 44.5449 34.9361 43.7097 34.9361 43.7097L34.3097 43.6575H34.2053Z" fill="white" stroke="#263238" stroke-width="0.1044" stroke-linecap="round" stroke-linejoin="round"/>
<path d="M43.1572 44.1012C43.1572 44.1012 43.1572 44.8319 43.3138 44.9363C43.4704 45.0407 44.5405 45.4844 44.8537 45.5105C45.1669 45.5366 45.2713 45.4844 45.0886 45.119C44.9059 44.7536 43.8619 44.049 43.8619 44.049L43.1572 44.1012Z" fill="white" stroke="#263238" stroke-width="0.1044" stroke-linecap="round" stroke-linejoin="round"/>
<path d="M36.7369 31.7559L36.1366 34.2876L35.8234 39.0377C35.8234 39.0377 34.6751 41.0213 34.5707 41.7521C34.4663 42.4829 34.127 43.9706 34.127 43.9706C34.127 43.9706 34.5968 44.1794 34.6751 44.1794C34.7534 44.1794 35.6929 42.8222 36.2149 42.3002C36.7369 41.7782 37.9114 39.5336 37.9636 39.4292C38.0158 39.3248 38.851 36.0101 38.9032 35.9057C38.9554 35.8013 39.2686 35.6708 39.2686 35.6708C39.2686 35.6708 40.8409 37.9311 41.0309 38.1211C41.3347 38.4249 41.8264 39.1943 41.8264 39.1943C41.8264 39.1943 42.8965 43.4486 42.9748 43.6574C43.0315 43.8531 43.0665 44.0544 43.0792 44.2577L44.0449 44.4665C44.0449 44.4665 44.1232 41.6216 44.071 40.943C44.0188 40.2644 43.81 38.8028 43.81 38.8028C43.81 38.8028 42.2179 34.4442 42.1396 34.3398C42.0613 34.2354 41.5915 33.1914 41.5915 33.1914L41.4349 32.1996C40.5168 32.4568 39.5508 32.4926 38.6161 32.304C37.0501 31.9908 36.7369 31.7559 36.7369 31.7559Z" fill="#263238" stroke="#263238" stroke-width="0.1044" stroke-linecap="round" stroke-linejoin="round"/>
<path d="M38.2125 24.6786C37.6456 25.0535 37.0572 25.3948 36.4503 25.7007C35.6495 26.0839 35.4585 26.467 35.4585 26.6581C35.4585 26.8491 34.7621 30.0166 34.8143 30.1899C34.8665 30.3632 35.3363 30.6252 35.6328 30.6952C35.9293 30.7651 36.3459 30.6774 36.4325 30.6075C36.5192 30.5375 36.7979 29.3547 36.7979 29.3547C36.7979 29.3547 36.6413 31.4949 36.5724 31.7736C36.5035 32.0524 37.1466 32.7654 37.773 32.8876C38.3994 33.0097 40.0865 33.0087 40.5219 32.8698C40.9572 32.731 41.2526 32.6955 41.3915 32.4345C41.5304 32.1735 41.618 30.312 41.6358 30.1899C41.6535 30.0678 41.7924 28.9548 41.7924 28.9548L42.2444 30.4864L42.4188 30.7996C42.4188 30.7996 42.5054 30.6075 43.0452 30.2943C43.5849 29.9811 43.7582 29.9466 43.7582 29.9466C43.7582 29.9466 43.445 28.9204 43.254 28.3284C43.0629 27.7365 42.8708 26.6581 42.6276 26.2227C42.3843 25.7874 41.949 25.5963 41.357 25.2309C40.7651 24.8655 39.8955 24.6567 39.7911 24.6045C39.6867 24.5523 38.7565 24.4751 38.2125 24.6786Z" fill="white" stroke="#263238" stroke-width="0.1044" stroke-linecap="round" stroke-linejoin="round"/>
<path d="M36.7979 29.3548L37.1653 28.0822" stroke="#263238" stroke-width="0.1044" stroke-linecap="round" stroke-linejoin="round"/>
<path d="M42.0469 27.7668L42.1095 27.4786" stroke="#263238" stroke-width="0.1044" stroke-linecap="round" stroke-linejoin="round"/>
<path d="M41.792 28.9549L41.9914 28.0278" stroke="#263238" stroke-width="0.1044" stroke-linecap="round" stroke-linejoin="round"/>
<path d="M38.6689 26.6925L39.0343 27.2145L39.2431 27.6843L38.7211 32.0169L39.4519 32.6955L40.0261 31.9386L39.5041 27.7365L39.8173 27.1362L40.2339 26.4545L39.478 26.0139L38.6689 26.6925Z" fill="#92E3A9" stroke="#263238" stroke-width="0.1044" stroke-linecap="round" stroke-linejoin="round"/>
<path d="M38.4138 24.4919C38.4138 24.4919 38.0516 24.5869 37.9722 24.8051C37.8929 25.0233 38.0036 26.3513 38.1142 26.6353C38.2043 26.8485 38.309 27.0554 38.4274 27.2543C38.4274 27.2543 39.3963 26.6353 39.5696 26.6039C39.7429 26.5726 40.7378 27.0936 40.7378 27.0936C40.7378 27.0936 40.7691 26.4776 40.4246 25.61C40.0801 24.7425 39.2762 24.2529 38.9254 24.2205C38.8231 24.2119 38.7205 24.233 38.6298 24.2811C38.5391 24.3292 38.4641 24.4024 38.4138 24.4919Z" fill="white" stroke="#263238" stroke-width="0.1044" stroke-linecap="round" stroke-linejoin="round"/>
<path d="M38.2695 24.3821C38.2695 24.3821 38.3176 24.9344 38.3645 25.3123C38.4115 25.6902 38.9962 26.9389 39.1997 27.1122C39.4033 27.2855 39.8261 26.7175 39.9733 26.4649C40.0353 26.35 40.1051 26.2394 40.1821 26.1339C40.1821 26.1339 39.1726 25.6443 38.8573 25.0764C38.542 24.5084 38.5723 24.2412 38.4303 24.2234C38.2883 24.2057 38.2695 24.3821 38.2695 24.3821Z" fill="white" stroke="#263238" stroke-width="0.1044" stroke-linecap="round" stroke-linejoin="round"/>
<path d="M38.7793 25.7395L39.555 26.9923C39.555 26.9923 39.912 26.6624 39.9726 26.4703C40.0331 26.2782 38.7793 25.7395 38.7793 25.7395Z" fill="#263238" stroke="#263238" stroke-width="0.1044" stroke-linecap="round" stroke-linejoin="round"/>
<path d="M37.9658 23.4959C37.8984 23.6768 37.8731 23.8706 37.8916 24.0628C37.9157 24.4083 38.113 24.6547 38.2122 24.6787C38.3016 24.6956 38.3925 24.704 38.4836 24.7038C38.4836 24.7038 38.5076 25.3197 38.779 25.7394C39.0505 26.1591 39.9629 26.75 40.2333 26.4546C40.5037 26.1591 40.8503 24.9752 40.9735 24.4083C41.051 24.0418 41.1085 23.6713 41.1458 23.2986L39.3219 22.881L38.4585 22.6847L37.9658 23.4959Z" fill="white" stroke="#263238" stroke-width="0.1044" stroke-linecap="round" stroke-linejoin="round"/>
<path d="M39.0259 23.2537C39.0259 23.2537 39.1251 23.5742 38.9277 23.7757C38.7304 23.9772 38.6563 23.973 38.6563 23.973C38.6563 23.973 38.7054 24.2935 38.6312 24.2935C38.5986 24.2941 38.5663 24.2881 38.536 24.2758C38.5058 24.2636 38.4784 24.2454 38.4554 24.2222C38.4324 24.1991 38.4143 24.1716 38.4022 24.1414C38.39 24.1111 38.3842 24.0787 38.3849 24.0461C38.3785 23.9139 38.3359 23.7861 38.2617 23.6765L37.9662 23.5043C37.8946 23.1453 37.9028 22.775 37.9902 22.4195C38.1385 21.8526 39.1981 21.6303 40.0866 21.6553C40.975 21.6804 41.1953 22.8142 41.1953 22.8142C41.3832 22.8993 41.5647 22.998 41.7382 23.1096C41.8123 23.1837 41.8864 23.356 41.4667 23.5784C41.0471 23.8007 40.3079 23.8738 39.8642 23.7016C39.5703 23.5811 39.2894 23.4311 39.0259 23.2537Z" fill="#263238" stroke="#263238" stroke-width="0.1044" stroke-linecap="round" stroke-linejoin="round"/>
<path d="M39.624 24.565C39.5948 24.6569 39.5353 24.7195 39.4893 24.706C39.4434 24.6924 39.4298 24.6016 39.458 24.5139C39.4862 24.4262 39.5468 24.3593 39.5916 24.374C39.6365 24.3886 39.6522 24.4742 39.624 24.565Z" fill="#263238"/>
<path d="M40.6489 24.6443C40.6207 24.7361 40.5601 24.7988 40.5152 24.7842C40.4703 24.7695 40.4547 24.6798 40.4829 24.5931C40.5111 24.5065 40.5716 24.4386 40.6175 24.4522C40.6635 24.4657 40.6771 24.5524 40.6489 24.6443Z" fill="#263238"/>
<path d="M39.249 24.2559C39.249 24.2559 39.4077 24.0189 39.771 24.1139" stroke="#263238" stroke-width="0.1044" stroke-linecap="round" stroke-linejoin="round"/>
<path d="M40.3691 24.2235C40.4014 24.1927 40.4398 24.1691 40.4817 24.154C40.5236 24.1388 40.5683 24.1326 40.6127 24.1356C40.6572 24.1387 40.7005 24.1509 40.74 24.1716C40.7795 24.1923 40.8143 24.221 40.8421 24.2558" stroke="#263238" stroke-width="0.1044" stroke-linecap="round" stroke-linejoin="round"/>
<path d="M39.8751 25.3604C39.7249 25.3651 39.5761 25.3915 39.4334 25.4387C39.1965 25.518 38.8499 25.423 39.0075 25.6287C39.1651 25.8343 39.4648 25.897 39.7801 25.897C40.0953 25.897 40.3804 25.8813 40.4754 25.7393C40.5704 25.5973 40.7113 25.4554 40.6017 25.4387C40.4921 25.4219 40.0651 25.3917 40.017 25.3917C39.9687 25.3865 39.9211 25.376 39.8751 25.3604Z" fill="#263238" stroke="#263238" stroke-width="0.1044" stroke-linecap="round" stroke-linejoin="round"/>
<path d="M40.2929 24.4449C40.2929 24.4449 40.2616 25.3125 40.2302 25.4712C40.2252 25.5133 40.2075 25.5528 40.1794 25.5845C40.1514 25.6163 40.1143 25.6388 40.0732 25.649C40.0321 25.6591 39.9888 25.6566 39.9492 25.6416C39.9095 25.6267 39.8754 25.6 39.8513 25.5652C39.751 25.4333 39.6662 25.2904 39.5986 25.1392" fill="white"/>
<path d="M40.2929 24.4449C40.2929 24.4449 40.2616 25.3125 40.2302 25.4712C40.2252 25.5133 40.2075 25.5528 40.1794 25.5845C40.1514 25.6163 40.1143 25.6388 40.0732 25.649C40.0321 25.6591 39.9888 25.6566 39.9492 25.6416C39.9095 25.6267 39.8754 25.6 39.8513 25.5652C39.751 25.4333 39.6662 25.2904 39.5986 25.1392" stroke="#263238" stroke-width="0.1044" stroke-linecap="round" stroke-linejoin="round"/>
<path d="M43.6535 29.5636C43.6535 29.5636 42.9018 29.6868 42.5886 29.8956C42.2754 30.1044 42.1658 30.286 42.2441 30.4865C42.3111 30.6833 42.3985 30.8726 42.5051 31.0513C42.6356 31.2601 42.8705 31.1035 42.8705 31.1035C42.8486 31.0801 42.8318 31.0524 42.8212 31.0223C42.8106 30.9921 42.8064 30.96 42.8088 30.9281C42.8113 30.8962 42.8203 30.8651 42.8355 30.8369C42.8506 30.8087 42.8714 30.7839 42.8966 30.7642C43.0793 30.5815 43.7579 30.3205 43.7579 30.3205H43.9928C44.0972 30.3205 43.9928 30.0334 43.9145 29.9029C43.8362 29.7724 43.8362 29.5114 43.6535 29.5636Z" fill="white" stroke="#263238" stroke-width="0.1044" stroke-linecap="round" stroke-linejoin="round"/>
<path d="M34.8057 30.8163C34.8057 30.8163 34.8057 31.5732 34.8579 32.3301C34.9101 33.087 35.5365 35.2011 35.5365 35.2011L36.1629 35.0445C36.1629 35.0445 36.1368 33.0609 36.1368 32.4345C36.1368 31.8081 36.1107 31.0512 36.1107 31.0512L34.8057 30.8163Z" fill="white" stroke="#263238" stroke-width="0.1044" stroke-linecap="round" stroke-linejoin="round"/>
<path d="M34.6923 30.2891C34.6962 30.2564 34.7086 30.2253 34.7282 30.1988C34.7479 30.1724 34.7741 30.1516 34.8042 30.1384C34.8344 30.1252 34.8675 30.1201 34.9002 30.1237C34.933 30.1272 34.9642 30.1392 34.9909 30.1586C35.1627 30.2727 35.3584 30.3459 35.563 30.3726C35.8128 30.417 36.0677 30.4251 36.3199 30.3966C36.3452 30.3932 36.3709 30.3963 36.3947 30.4054C36.4185 30.4146 36.4396 30.4295 36.4561 30.449C36.4726 30.4684 36.484 30.4916 36.4892 30.5166C36.4944 30.5416 36.4933 30.5674 36.4859 30.5918C36.4201 30.8079 36.3209 31.1023 36.2416 31.1817C36.1111 31.3122 35.4847 31.3122 35.1715 31.2078C34.8583 31.1034 34.78 31.0251 34.7017 30.7641C34.6707 30.6075 34.6675 30.4467 34.6923 30.2891Z" fill="white" stroke="#263238" stroke-width="0.1044" stroke-linecap="round" stroke-linejoin="round"/>
<path d="M46.8642 32.8522C46.9236 32.6625 47.0316 32.4915 47.1774 32.3563C47.4123 32.1475 47.5167 32.0953 47.2818 32.0692C47.0469 32.0431 46.7598 32.4085 46.7598 32.4085L46.8642 32.8522Z" fill="white" stroke="#263238" stroke-width="0.1044" stroke-linecap="round" stroke-linejoin="round"/>
<path d="M42.8701 31.1034C43.0295 31.2638 43.2148 31.3962 43.4182 31.4949C43.8097 31.7037 45.7672 32.7738 45.7672 32.7738L46.4719 32.3562C46.4719 32.3562 45.3757 31.8603 44.8798 31.3383C44.3839 30.8163 43.9924 30.3204 43.9924 30.3204C43.9924 30.3204 42.6874 30.3987 42.8701 31.1034Z" fill="white" stroke="#263238" stroke-width="0.1044" stroke-linecap="round" stroke-linejoin="round"/>
<path d="M45.4287 32.4868C45.4287 32.4868 45.5331 33.0349 45.7158 33.061C45.8985 33.0871 46.7859 33.0088 46.8642 32.8522C46.9425 32.6956 46.9947 32.1475 46.8642 32.1214C46.7337 32.0953 45.4287 32.4868 45.4287 32.4868Z" fill="white" stroke="#263238" stroke-width="0.1044" stroke-linecap="round" stroke-linejoin="round"/>
<path d="M35.6157 35.836C35.4927 35.6793 35.3312 35.5574 35.1469 35.482C34.8536 35.3703 34.7377 35.3578 34.9486 35.2503C35.1595 35.1427 35.5562 35.3839 35.5562 35.3839L35.6157 35.836Z" fill="white" stroke="#263238" stroke-width="0.1044" stroke-linecap="round" stroke-linejoin="round"/>
<path d="M36.8288 34.9871C36.8288 34.9871 36.9248 35.5362 36.763 35.6249C36.6012 35.7137 35.7441 35.9538 35.6146 35.8337C35.4851 35.7137 35.2429 35.2199 35.3567 35.1499C35.4705 35.08 36.8288 34.9871 36.8288 34.9871Z" fill="white" stroke="#263238" stroke-width="0.1044" stroke-linecap="round" stroke-linejoin="round"/>
<path d="M10.4348 39.1118C10.4348 39.1118 10.5257 38.783 10.5277 38.7621C10.5632 38.5126 10.4839 38.0115 10.2302 37.8883C10.1874 37.8691 10.1411 37.8592 10.0943 37.8591C10.0474 37.8591 10.0011 37.8688 9.95824 37.8878C9.91541 37.9068 9.87706 37.9346 9.84567 37.9694C9.81429 38.0042 9.79057 38.0452 9.77607 38.0898C9.70821 38.2766 9.79486 38.5074 9.89612 38.6629C10.0172 38.8488 10.4348 39.1118 10.4348 39.1118Z" fill="#263238"/>
<path d="M5.43841 39.0034C5.64095 39.0921 6.13476 39.0806 6.1358 39.0806C6.13684 39.0806 6.0314 38.757 6.01992 38.7372C5.91552 38.5106 5.56787 38.1358 5.28912 38.1734C5.24296 38.1809 5.1989 38.1981 5.15982 38.2238C5.12074 38.2495 5.08751 38.2832 5.06229 38.3226C5.03708 38.362 5.02045 38.4062 5.01348 38.4525C5.00651 38.4987 5.00937 38.5459 5.02186 38.591C5.06779 38.7841 5.26615 38.9282 5.43841 39.0034Z" fill="#263238"/>
<path d="M5.60999 40.4356C5.81879 40.4659 6.2604 40.3385 6.2959 40.3312C6.36809 40.5837 6.45738 40.831 6.56316 41.0714C6.62371 41.2124 6.68948 41.3512 6.7563 41.489C6.71663 41.4295 6.68009 41.3773 6.67382 41.37C6.50992 41.18 6.07979 40.9096 5.82088 41.0192C5.77831 41.0387 5.74031 41.067 5.70936 41.1021C5.67841 41.1372 5.65519 41.1785 5.64122 41.2232C5.62724 41.2679 5.62281 41.315 5.62822 41.3615C5.63363 41.408 5.64876 41.4529 5.67263 41.4932C5.76868 41.6675 5.99836 41.7531 6.18419 41.7803C6.37002 41.8074 6.75108 41.7062 6.85026 41.6759C6.8774 41.7291 6.90246 41.7803 6.9296 41.8356C7.05697 42.0904 7.18643 42.344 7.3044 42.5956C7.34616 42.6844 7.38374 42.7742 7.42237 42.8629C7.38687 42.8107 7.35555 42.7669 7.35033 42.7585C7.18643 42.5685 6.7563 42.2971 6.49739 42.4077C6.45496 42.4273 6.4171 42.4555 6.38625 42.4905C6.3554 42.5256 6.33224 42.5667 6.31827 42.6113C6.3043 42.6558 6.29983 42.7028 6.30515 42.7492C6.31047 42.7956 6.32545 42.8404 6.34914 42.8807C6.44519 43.054 6.67487 43.1406 6.8607 43.1678C7.04653 43.1949 7.39001 43.103 7.50902 43.0707C7.54556 43.1625 7.5821 43.2555 7.61342 43.3463C7.63326 43.4089 7.65622 43.4684 7.67293 43.5321C7.68963 43.5958 7.70842 43.6574 7.72513 43.719C7.75436 43.8401 7.78464 43.9633 7.80969 44.0823C7.82848 44.1637 7.84414 44.242 7.8598 44.3214C7.81909 44.2326 7.73661 44.0604 7.72826 44.0468C7.59358 43.838 7.20626 43.5008 6.93691 43.5697C6.89192 43.5825 6.85014 43.6047 6.81429 43.6347C6.77844 43.6648 6.74932 43.7021 6.72883 43.7441C6.70835 43.7862 6.69695 43.8321 6.69539 43.8788C6.69382 43.9256 6.70213 43.9722 6.71976 44.0155C6.78762 44.2024 7.00164 44.3224 7.18121 44.3778C7.37852 44.4383 7.817 44.383 7.87129 44.3778C7.89739 44.5083 7.9214 44.6356 7.94332 44.7567C7.98717 45.0083 8.02162 45.2359 8.04772 45.4301H8.23147C8.20015 45.2286 8.15943 44.9906 8.10723 44.7254C8.08113 44.5928 8.04981 44.4508 8.01745 44.3078C8.14935 44.2549 8.27798 44.1943 8.40268 44.1261C8.54675 44.2827 8.91633 44.4654 8.96435 44.4884C8.91424 44.6116 8.85995 44.7317 8.81506 44.8444C8.71901 45.0647 8.62714 45.262 8.54571 45.4311H8.74407C8.81402 45.2766 8.89023 45.1012 8.96853 44.9091C9.01968 44.7839 9.07293 44.6481 9.12513 44.5093C9.17837 44.5208 9.61163 44.6085 9.81417 44.5625C9.99687 44.5218 10.2192 44.4185 10.3017 44.2368C10.3224 44.1952 10.3341 44.1498 10.3362 44.1034C10.3382 44.057 10.3306 44.0106 10.3136 43.9674C10.2967 43.9241 10.271 43.8849 10.238 43.8522C10.205 43.8195 10.1655 43.794 10.1221 43.7775C9.85593 43.6877 9.44772 43.9863 9.29843 44.1951C9.29008 44.2076 9.20865 44.3475 9.15854 44.4362C9.18046 44.3798 9.20134 44.3245 9.22222 44.266C9.26502 44.1491 9.3047 44.0322 9.34646 43.9069L9.40283 43.72C9.42267 43.6584 9.43519 43.5906 9.45294 43.5248C9.48948 43.3724 9.51871 43.2116 9.54482 43.0581C9.64921 43.0947 10.0094 43.222 10.1984 43.2085C10.3873 43.1949 10.616 43.126 10.7287 42.96C10.7556 42.9217 10.7742 42.8782 10.7832 42.8322C10.7922 42.7863 10.7914 42.739 10.7808 42.6934C10.7703 42.6478 10.7502 42.6049 10.722 42.5675C10.6938 42.5302 10.658 42.4992 10.617 42.4766C10.3664 42.3472 9.91752 42.581 9.74004 42.7627C9.72856 42.7742 9.61476 42.9151 9.55421 42.9945C9.56883 42.8995 9.58449 42.8044 9.59597 42.7074C9.63042 42.4286 9.65757 42.1446 9.68471 41.8617C9.69306 41.7751 9.70246 41.6884 9.71185 41.6028C9.74735 41.6164 10.1764 41.7751 10.3873 41.7605C10.5752 41.7479 10.8101 41.679 10.9187 41.512C10.9456 41.4736 10.9641 41.43 10.973 41.384C10.9819 41.3381 10.981 41.2907 10.9704 41.2451C10.9597 41.1995 10.9396 41.1566 10.9113 41.1193C10.8829 41.082 10.8471 41.0511 10.806 41.0286C10.5564 40.8992 10.1075 41.133 9.92901 41.3147C9.91543 41.3282 9.75257 41.5329 9.7129 41.5861C9.73378 41.3961 9.7557 41.2071 9.78389 41.0213C9.82074 40.7681 9.87339 40.5173 9.94153 40.2707C9.95824 40.2769 10.4051 40.4461 10.6212 40.4304C10.8081 40.4179 11.0388 40.349 11.1515 40.1819C11.1785 40.1436 11.197 40.1001 11.206 40.0542C11.215 40.0082 11.2142 39.9609 11.2036 39.9153C11.1931 39.8697 11.1731 39.8268 11.1448 39.7895C11.1166 39.7521 11.0808 39.7211 11.0398 39.6986C10.7893 39.5691 10.3414 39.803 10.1629 39.9846C10.1514 39.9971 10.0261 40.1517 9.96868 40.2268L9.95511 40.2195C10.032 39.9758 10.1309 39.7396 10.2506 39.5138C10.3142 39.3885 10.3821 39.2716 10.451 39.1599C10.5314 39.2006 10.8989 39.3791 11.0952 39.3864C11.2914 39.3937 11.5232 39.352 11.6495 39.1974C11.6805 39.1623 11.7037 39.121 11.7176 39.0763C11.7316 39.0316 11.7359 38.9845 11.7304 38.938C11.7249 38.8915 11.7096 38.8467 11.6856 38.8065C11.6616 38.7663 11.6294 38.7316 11.591 38.7047C11.3572 38.5491 10.8843 38.737 10.688 38.8936C10.6776 38.902 10.5836 38.998 10.5074 39.0732C10.5387 39.0231 10.5711 38.9688 10.6024 38.9239C10.7204 38.7464 10.8394 38.5919 10.9459 38.4552C11.0064 38.3779 11.0628 38.309 11.1171 38.2464C11.2215 38.2464 11.6151 38.2328 11.7884 38.1514C11.9617 38.0699 12.1538 37.9217 12.1945 37.7275C12.2058 37.6821 12.2073 37.6348 12.1991 37.5887C12.1909 37.5426 12.173 37.4988 12.1467 37.4601C12.1204 37.4214 12.0863 37.3887 12.0465 37.364C12.0067 37.3394 11.9621 37.3235 11.9157 37.3172C11.6359 37.2869 11.3029 37.6711 11.2006 37.9008C11.1912 37.9206 11.0889 38.2474 11.0962 38.2474H11.1025C11.0492 38.308 10.9928 38.3727 10.9333 38.4458C10.8289 38.5804 10.7016 38.7329 10.5794 38.9093C10.445 39.0964 10.3223 39.2917 10.2119 39.4939C10.087 39.7199 9.98225 39.9564 9.89873 40.2007C9.89873 40.2007 9.89873 40.2007 9.89873 40.2091C9.89873 40.1266 9.89873 39.8959 9.89873 39.8781C9.86741 39.6286 9.65757 39.1661 9.37673 39.115C9.33051 39.1076 9.28325 39.11 9.23805 39.1222C9.19284 39.1343 9.15072 39.1559 9.11444 39.1855C9.07816 39.215 9.04854 39.2519 9.02753 39.2938C9.00653 39.3356 8.9946 39.3814 8.99254 39.4282C8.97584 39.6265 9.11991 39.8249 9.2598 39.9502C9.41745 40.0911 9.85593 40.2279 9.8862 40.2383C9.80888 40.4884 9.7482 40.7434 9.70455 41.0015C9.67845 41.1518 9.65548 41.3053 9.63564 41.4577C9.63564 41.3867 9.63564 41.323 9.63564 41.3136C9.60328 41.0651 9.39448 40.6016 9.11364 40.5505C9.06745 40.5432 9.02025 40.5458 8.97511 40.558C8.92998 40.5702 8.88792 40.5918 8.85168 40.6214C8.81544 40.6509 8.78582 40.6877 8.76477 40.7295C8.74371 40.7712 8.73168 40.817 8.72945 40.8637C8.71379 41.062 8.85682 41.2604 8.99672 41.3857C9.13661 41.5109 9.51141 41.6362 9.60954 41.6686L9.58762 41.845C9.55421 42.1279 9.52185 42.4098 9.48322 42.6854C9.4686 42.7825 9.45086 42.8775 9.43415 42.9736C9.43415 42.9099 9.43415 42.8566 9.43415 42.8483C9.40179 42.5988 9.19299 42.1363 8.91215 42.0851C8.86593 42.0777 8.81867 42.0802 8.77347 42.0923C8.72826 42.1045 8.68614 42.1261 8.64986 42.1556C8.61358 42.1852 8.58396 42.2221 8.56296 42.2639C8.54195 42.3058 8.53002 42.3516 8.52796 42.3983C8.51126 42.5967 8.65533 42.7951 8.79523 42.9203C8.93512 43.0456 9.27338 43.1584 9.3903 43.197C9.36942 43.2941 9.34959 43.3912 9.32558 43.4841C9.30678 43.5478 9.29426 43.6094 9.27233 43.672L9.21282 43.8578C9.17002 43.9737 9.12722 44.0938 9.08337 44.2065C9.05309 44.2848 9.02282 44.359 8.99254 44.4341C9.0082 44.337 9.0343 44.147 9.0343 44.1314C9.03088 43.9112 8.97122 43.6956 8.861 43.505C8.86307 43.4803 8.86307 43.4555 8.861 43.4308C8.85522 43.3844 8.83972 43.3398 8.81552 43.2997C8.79133 43.2597 8.75897 43.2252 8.72056 43.1985C8.68215 43.1718 8.63854 43.1535 8.59259 43.1448C8.54663 43.1361 8.49936 43.1372 8.45384 43.1479C8.18135 43.221 8.0091 43.6992 7.99552 43.9497C7.99552 43.9643 8.00492 44.1261 8.01327 44.2285C7.99866 44.169 7.98613 44.1115 7.97151 44.051C7.94332 43.9299 7.91096 43.8109 7.87755 43.6824L7.82118 43.4966C7.80343 43.434 7.77628 43.3693 7.7554 43.3056C7.70112 43.1584 7.63952 43.0122 7.57375 42.866C7.67815 42.841 8.0519 42.746 8.20015 42.6301C8.34839 42.5142 8.50708 42.3294 8.50499 42.13C8.50627 42.0827 8.49746 42.0357 8.47913 41.9921C8.46081 41.9484 8.43339 41.9092 8.39872 41.877C8.36405 41.8448 8.32291 41.8204 8.27805 41.8053C8.23319 41.7902 8.18563 41.7849 8.13855 41.7897C7.85772 41.82 7.61655 42.2668 7.56435 42.5132C7.56435 42.5278 7.54452 42.7094 7.53721 42.8086C7.49754 42.7209 7.45787 42.6332 7.41402 42.5466C7.28874 42.2939 7.15511 42.0423 7.02147 41.7918C6.98076 41.7145 6.94109 41.6373 6.90141 41.56C6.939 41.5517 7.38374 41.4483 7.55182 41.3199C7.70112 41.205 7.85876 41.0182 7.85772 40.8198C7.85896 40.7727 7.85019 40.7259 7.83199 40.6824C7.81379 40.6389 7.78657 40.5998 7.75213 40.5676C7.71769 40.5355 7.67682 40.511 7.63221 40.4958C7.5876 40.4806 7.54028 40.475 7.49336 40.4795C7.21357 40.5097 6.97136 40.9555 6.91916 41.2019C6.91916 41.2207 6.89202 41.4807 6.88993 41.5475C6.80119 41.3773 6.71454 41.2071 6.63624 41.037C6.53031 40.8057 6.4393 40.5679 6.36376 40.325C6.3815 40.325 6.84713 40.2206 7.01834 40.0838C7.16763 39.969 7.32528 39.7821 7.32423 39.5837C7.32557 39.5369 7.31701 39.4903 7.29912 39.4471C7.28124 39.4038 7.25442 39.3648 7.22043 39.3325C7.18644 39.3003 7.14604 39.2756 7.10186 39.2601C7.05769 39.2445 7.01073 39.2385 6.96405 39.2423C6.68426 39.2726 6.44206 39.7184 6.3909 39.9648C6.3909 39.9815 6.36898 40.1798 6.36271 40.278H6.34705C6.27662 40.0319 6.2284 39.78 6.20298 39.5253C6.18732 39.3854 6.18001 39.2507 6.17688 39.1202C6.26562 39.1087 6.66965 39.0555 6.83773 38.9542C7.00581 38.8529 7.17599 38.688 7.19687 38.4896C7.20319 38.4433 7.19969 38.3962 7.18659 38.3513C7.1735 38.3064 7.15111 38.2648 7.12088 38.2292C7.09065 38.1935 7.05326 38.1646 7.01113 38.1444C6.969 38.1242 6.92308 38.113 6.87636 38.1117C6.59448 38.1117 6.30425 38.5293 6.22595 38.7663C6.22595 38.7798 6.19358 38.9166 6.17479 39.0168C6.17479 38.9573 6.17479 38.8968 6.17479 38.8393C6.17479 38.6306 6.18941 38.4322 6.20194 38.2589C6.21029 38.1608 6.22073 38.072 6.23012 37.9895C6.31156 37.9342 6.63728 37.7035 6.73751 37.5396C6.83773 37.3757 6.91499 37.147 6.84191 36.9622C6.82633 36.9181 6.80161 36.8778 6.76937 36.844C6.73713 36.8101 6.6981 36.7834 6.65483 36.7657C6.61156 36.7479 6.56503 36.7395 6.51828 36.741C6.47154 36.7425 6.42564 36.7539 6.38359 36.7743C6.13303 36.9038 6.07039 37.407 6.10902 37.6555C6.10902 37.6763 6.20716 38.0052 6.21342 38.0031C6.20194 38.0825 6.1915 38.1681 6.18106 38.262C6.16435 38.4343 6.1466 38.6295 6.14138 38.8435C6.13269 39.0737 6.13827 39.3041 6.15809 39.5336C6.17725 39.7913 6.21989 40.0468 6.28546 40.2968V40.3051C6.24056 40.2352 6.11006 40.0452 6.09858 40.0316C5.93467 39.8416 5.50455 39.5701 5.24564 39.6808C5.2031 39.7002 5.16512 39.7283 5.13418 39.7634C5.10323 39.7984 5.08001 39.8396 5.06603 39.8842C5.05204 39.9288 5.04761 39.9759 5.05301 40.0223C5.05842 40.0688 5.07354 40.1135 5.09739 40.1537C5.19448 40.3218 5.42416 40.4085 5.60999 40.4356Z" fill="#263238"/>
<path opacity="0.3" d="M5.43841 39.0034C5.64095 39.0921 6.13476 39.0806 6.1358 39.0806C6.13684 39.0806 6.0314 38.757 6.01992 38.7372C5.91552 38.5106 5.56787 38.1358 5.28912 38.1734C5.24296 38.1809 5.1989 38.1981 5.15982 38.2238C5.12074 38.2495 5.08751 38.2832 5.06229 38.3226C5.03708 38.362 5.02045 38.4062 5.01348 38.4525C5.00651 38.4987 5.00937 38.5459 5.02186 38.591C5.06779 38.7841 5.26615 38.9282 5.43841 39.0034Z" fill="#263238"/>
<path opacity="0.3" d="M10.4348 39.1118C10.4348 39.1118 10.5257 38.783 10.5277 38.7621C10.5632 38.5126 10.4839 38.0115 10.2302 37.8883C10.1874 37.8691 10.1411 37.8592 10.0943 37.8591C10.0474 37.8591 10.0011 37.8688 9.95824 37.8878C9.91541 37.9068 9.87706 37.9346 9.84567 37.9694C9.81429 38.0042 9.79057 38.0452 9.77607 38.0898C9.70821 38.2766 9.79486 38.5074 9.89612 38.6629C10.0172 38.8488 10.4348 39.1118 10.4348 39.1118Z" fill="#263238"/>
<path opacity="0.3" d="M5.60999 40.4356C5.81879 40.4659 6.2604 40.3385 6.2959 40.3312C6.36809 40.5837 6.45738 40.831 6.56316 41.0714C6.62371 41.2124 6.68948 41.3512 6.7563 41.489C6.71663 41.4295 6.68009 41.3773 6.67382 41.37C6.50992 41.18 6.07979 40.9096 5.82088 41.0192C5.77831 41.0387 5.74031 41.067 5.70936 41.1021C5.67841 41.1372 5.65519 41.1785 5.64122 41.2232C5.62724 41.2679 5.62281 41.315 5.62822 41.3615C5.63363 41.408 5.64876 41.4529 5.67263 41.4932C5.76868 41.6675 5.99836 41.7531 6.18419 41.7803C6.37002 41.8074 6.75108 41.7062 6.85026 41.6759C6.8774 41.7291 6.90246 41.7803 6.9296 41.8356C7.05697 42.0904 7.18643 42.344 7.3044 42.5956C7.34616 42.6844 7.38374 42.7742 7.42237 42.8629C7.38687 42.8107 7.35555 42.7669 7.35033 42.7585C7.18643 42.5685 6.7563 42.2971 6.49739 42.4077C6.45496 42.4273 6.4171 42.4555 6.38625 42.4905C6.3554 42.5256 6.33224 42.5667 6.31827 42.6113C6.3043 42.6558 6.29983 42.7028 6.30515 42.7492C6.31047 42.7956 6.32545 42.8404 6.34914 42.8807C6.44519 43.054 6.67487 43.1406 6.8607 43.1678C7.04653 43.1949 7.39001 43.103 7.50902 43.0707C7.54556 43.1625 7.5821 43.2555 7.61342 43.3463C7.63326 43.4089 7.65622 43.4684 7.67293 43.5321C7.68963 43.5958 7.70842 43.6574 7.72513 43.719C7.75436 43.8401 7.78464 43.9633 7.80969 44.0823C7.82848 44.1637 7.84414 44.242 7.8598 44.3214C7.81909 44.2326 7.73661 44.0604 7.72826 44.0468C7.59358 43.838 7.20626 43.5008 6.93691 43.5697C6.89192 43.5825 6.85014 43.6047 6.81429 43.6347C6.77844 43.6648 6.74932 43.7021 6.72883 43.7441C6.70835 43.7862 6.69695 43.8321 6.69539 43.8788C6.69382 43.9256 6.70213 43.9722 6.71976 44.0155C6.78762 44.2024 7.00164 44.3224 7.18121 44.3778C7.37852 44.4383 7.817 44.383 7.87129 44.3778C7.89739 44.5083 7.9214 44.6356 7.94332 44.7567C7.98717 45.0083 8.02162 45.2359 8.04772 45.4301H8.23147C8.20015 45.2286 8.15943 44.9906 8.10723 44.7254C8.08113 44.5928 8.04981 44.4508 8.01745 44.3078C8.14935 44.2549 8.27798 44.1943 8.40268 44.1261C8.54675 44.2827 8.91633 44.4654 8.96435 44.4884C8.91424 44.6116 8.85995 44.7317 8.81506 44.8444C8.71901 45.0647 8.62714 45.262 8.54571 45.4311H8.74407C8.81402 45.2766 8.89023 45.1012 8.96853 44.9091C9.01968 44.7839 9.07293 44.6481 9.12513 44.5093C9.17837 44.5208 9.61163 44.6085 9.81417 44.5625C9.99687 44.5218 10.2192 44.4185 10.3017 44.2368C10.3224 44.1952 10.3341 44.1498 10.3362 44.1034C10.3382 44.057 10.3306 44.0106 10.3136 43.9674C10.2967 43.9241 10.271 43.8849 10.238 43.8522C10.205 43.8195 10.1655 43.794 10.1221 43.7775C9.85593 43.6877 9.44772 43.9863 9.29843 44.1951C9.29008 44.2076 9.20865 44.3475 9.15854 44.4362C9.18046 44.3798 9.20134 44.3245 9.22222 44.266C9.26502 44.1491 9.3047 44.0322 9.34646 43.9069L9.40283 43.72C9.42267 43.6584 9.43519 43.5906 9.45294 43.5248C9.48948 43.3724 9.51871 43.2116 9.54482 43.0581C9.64921 43.0947 10.0094 43.222 10.1984 43.2085C10.3873 43.1949 10.616 43.126 10.7287 42.96C10.7556 42.9217 10.7742 42.8782 10.7832 42.8322C10.7922 42.7863 10.7914 42.739 10.7808 42.6934C10.7703 42.6478 10.7502 42.6049 10.722 42.5675C10.6938 42.5302 10.658 42.4992 10.617 42.4766C10.3664 42.3472 9.91752 42.581 9.74004 42.7627C9.72856 42.7742 9.61476 42.9151 9.55421 42.9945C9.56883 42.8995 9.58449 42.8044 9.59597 42.7074C9.63042 42.4286 9.65757 42.1446 9.68471 41.8617C9.69306 41.7751 9.70246 41.6884 9.71185 41.6028C9.74735 41.6164 10.1764 41.7751 10.3873 41.7605C10.5752 41.7479 10.8101 41.679 10.9187 41.512C10.9456 41.4736 10.9641 41.43 10.973 41.384C10.9819 41.3381 10.981 41.2907 10.9704 41.2451C10.9597 41.1995 10.9396 41.1566 10.9113 41.1193C10.8829 41.082 10.8471 41.0511 10.806 41.0286C10.5564 40.8992 10.1075 41.133 9.92901 41.3147C9.91543 41.3282 9.75257 41.5329 9.7129 41.5861C9.73378 41.3961 9.7557 41.2071 9.78389 41.0213C9.82074 40.7681 9.87339 40.5173 9.94153 40.2707C9.95824 40.2769 10.4051 40.4461 10.6212 40.4304C10.8081 40.4179 11.0388 40.349 11.1515 40.1819C11.1785 40.1436 11.197 40.1001 11.206 40.0542C11.215 40.0082 11.2142 39.9609 11.2036 39.9153C11.1931 39.8697 11.1731 39.8268 11.1448 39.7895C11.1166 39.7521 11.0808 39.7211 11.0398 39.6986C10.7893 39.5691 10.3414 39.803 10.1629 39.9846C10.1514 39.9971 10.0261 40.1517 9.96868 40.2268L9.95511 40.2195C10.032 39.9758 10.1309 39.7396 10.2506 39.5138C10.3142 39.3885 10.3821 39.2716 10.451 39.1599C10.5314 39.2006 10.8989 39.3791 11.0952 39.3864C11.2914 39.3937 11.5232 39.352 11.6495 39.1974C11.6805 39.1623 11.7037 39.121 11.7176 39.0763C11.7316 39.0316 11.7359 38.9845 11.7304 38.938C11.7249 38.8915 11.7096 38.8467 11.6856 38.8065C11.6616 38.7663 11.6294 38.7316 11.591 38.7047C11.3572 38.5491 10.8843 38.737 10.688 38.8936C10.6776 38.902 10.5836 38.998 10.5074 39.0732C10.5387 39.0231 10.5711 38.9688 10.6024 38.9239C10.7204 38.7464 10.8394 38.5919 10.9459 38.4552C11.0064 38.3779 11.0628 38.309 11.1171 38.2464C11.2215 38.2464 11.6151 38.2328 11.7884 38.1514C11.9617 38.0699 12.1538 37.9217 12.1945 37.7275C12.2058 37.6821 12.2073 37.6348 12.1991 37.5887C12.1909 37.5426 12.173 37.4988 12.1467 37.4601C12.1204 37.4214 12.0863 37.3887 12.0465 37.364C12.0067 37.3394 11.9621 37.3235 11.9157 37.3172C11.6359 37.2869 11.3029 37.6711 11.2006 37.9008C11.1912 37.9206 11.0889 38.2474 11.0962 38.2474H11.1025C11.0492 38.308 10.9928 38.3727 10.9333 38.4458C10.8289 38.5804 10.7016 38.7329 10.5794 38.9093C10.445 39.0964 10.3223 39.2917 10.2119 39.4939C10.087 39.7199 9.98225 39.9564 9.89873 40.2007C9.89873 40.2007 9.89873 40.2007 9.89873 40.2091C9.89873 40.1266 9.89873 39.8959 9.89873 39.8781C9.86741 39.6286 9.65757 39.1661 9.37673 39.115C9.33051 39.1076 9.28325 39.11 9.23805 39.1222C9.19284 39.1343 9.15072 39.1559 9.11444 39.1855C9.07816 39.215 9.04854 39.2519 9.02753 39.2938C9.00653 39.3356 8.9946 39.3814 8.99254 39.4282C8.97584 39.6265 9.11991 39.8249 9.2598 39.9502C9.41745 40.0911 9.85593 40.2279 9.8862 40.2383C9.80888 40.4884 9.7482 40.7434 9.70455 41.0015C9.67845 41.1518 9.65548 41.3053 9.63564 41.4577C9.63564 41.3867 9.63564 41.323 9.63564 41.3136C9.60328 41.0651 9.39448 40.6016 9.11364 40.5505C9.06745 40.5432 9.02025 40.5458 8.97511 40.558C8.92998 40.5702 8.88792 40.5918 8.85168 40.6214C8.81544 40.6509 8.78582 40.6877 8.76477 40.7295C8.74371 40.7712 8.73168 40.817 8.72945 40.8637C8.71379 41.062 8.85682 41.2604 8.99672 41.3857C9.13661 41.5109 9.51141 41.6362 9.60954 41.6686L9.58762 41.845C9.55421 42.1279 9.52185 42.4098 9.48322 42.6854C9.4686 42.7825 9.45086 42.8775 9.43415 42.9736C9.43415 42.9099 9.43415 42.8566 9.43415 42.8483C9.40179 42.5988 9.19299 42.1363 8.91215 42.0851C8.86593 42.0777 8.81867 42.0802 8.77347 42.0923C8.72826 42.1045 8.68614 42.1261 8.64986 42.1556C8.61358 42.1852 8.58396 42.2221 8.56296 42.2639C8.54195 42.3058 8.53002 42.3516 8.52796 42.3983C8.51126 42.5967 8.65533 42.7951 8.79523 42.9203C8.93512 43.0456 9.27338 43.1584 9.3903 43.197C9.36942 43.2941 9.34959 43.3912 9.32558 43.4841C9.30678 43.5478 9.29426 43.6094 9.27233 43.672L9.21282 43.8578C9.17002 43.9737 9.12722 44.0938 9.08337 44.2065C9.05309 44.2848 9.02282 44.359 8.99254 44.4341C9.0082 44.337 9.0343 44.147 9.0343 44.1314C9.03088 43.9112 8.97122 43.6956 8.861 43.505C8.86307 43.4803 8.86307 43.4555 8.861 43.4308C8.85522 43.3844 8.83972 43.3398 8.81552 43.2997C8.79133 43.2597 8.75897 43.2252 8.72056 43.1985C8.68215 43.1718 8.63854 43.1535 8.59259 43.1448C8.54663 43.1361 8.49936 43.1372 8.45384 43.1479C8.18135 43.221 8.0091 43.6992 7.99552 43.9497C7.99552 43.9643 8.00492 44.1261 8.01327 44.2285C7.99866 44.169 7.98613 44.1115 7.97151 44.051C7.94332 43.9299 7.91096 43.8109 7.87755 43.6824L7.82118 43.4966C7.80343 43.434 7.77628 43.3693 7.7554 43.3056C7.70112 43.1584 7.63952 43.0122 7.57375 42.866C7.67815 42.841 8.0519 42.746 8.20015 42.6301C8.34839 42.5142 8.50708 42.3294 8.50499 42.13C8.50627 42.0827 8.49746 42.0357 8.47913 41.9921C8.46081 41.9484 8.43339 41.9092 8.39872 41.877C8.36405 41.8448 8.32291 41.8204 8.27805 41.8053C8.23319 41.7902 8.18563 41.7849 8.13855 41.7897C7.85772 41.82 7.61655 42.2668 7.56435 42.5132C7.56435 42.5278 7.54452 42.7094 7.53721 42.8086C7.49754 42.7209 7.45787 42.6332 7.41402 42.5466C7.28874 42.2939 7.15511 42.0423 7.02147 41.7918C6.98076 41.7145 6.94109 41.6373 6.90141 41.56C6.939 41.5517 7.38374 41.4483 7.55182 41.3199C7.70112 41.205 7.85876 41.0182 7.85772 40.8198C7.85896 40.7727 7.85019 40.7259 7.83199 40.6824C7.81379 40.6389 7.78657 40.5998 7.75213 40.5676C7.71769 40.5355 7.67682 40.511 7.63221 40.4958C7.5876 40.4806 7.54028 40.475 7.49336 40.4795C7.21357 40.5097 6.97136 40.9555 6.91916 41.2019C6.91916 41.2207 6.89202 41.4807 6.88993 41.5475C6.80119 41.3773 6.71454 41.2071 6.63624 41.037C6.53031 40.8057 6.4393 40.5679 6.36376 40.325C6.3815 40.325 6.84713 40.2206 7.01834 40.0838C7.16763 39.969 7.32528 39.7821 7.32423 39.5837C7.32557 39.5369 7.31701 39.4903 7.29912 39.4471C7.28124 39.4038 7.25442 39.3648 7.22043 39.3325C7.18644 39.3003 7.14604 39.2756 7.10186 39.2601C7.05769 39.2445 7.01073 39.2385 6.96405 39.2423C6.68426 39.2726 6.44206 39.7184 6.3909 39.9648C6.3909 39.9815 6.36898 40.1798 6.36271 40.278H6.34705C6.27662 40.0319 6.2284 39.78 6.20298 39.5253C6.18732 39.3854 6.18001 39.2507 6.17688 39.1202C6.26562 39.1087 6.66965 39.0555 6.83773 38.9542C7.00581 38.8529 7.17599 38.688 7.19687 38.4896C7.20319 38.4433 7.19969 38.3962 7.18659 38.3513C7.1735 38.3064 7.15111 38.2648 7.12088 38.2292C7.09065 38.1935 7.05326 38.1646 7.01113 38.1444C6.969 38.1242 6.92308 38.113 6.87636 38.1117C6.59448 38.1117 6.30425 38.5293 6.22595 38.7663C6.22595 38.7798 6.19358 38.9166 6.17479 39.0168C6.17479 38.9573 6.17479 38.8968 6.17479 38.8393C6.17479 38.6306 6.18941 38.4322 6.20194 38.2589C6.21029 38.1608 6.22073 38.072 6.23012 37.9895C6.31156 37.9342 6.63728 37.7035 6.73751 37.5396C6.83773 37.3757 6.91499 37.147 6.84191 36.9622C6.82633 36.9181 6.80161 36.8778 6.76937 36.844C6.73713 36.8101 6.6981 36.7834 6.65483 36.7657C6.61156 36.7479 6.56503 36.7395 6.51828 36.741C6.47154 36.7425 6.42564 36.7539 6.38359 36.7743C6.13303 36.9038 6.07039 37.407 6.10902 37.6555C6.10902 37.6763 6.20716 38.0052 6.21342 38.0031C6.20194 38.0825 6.1915 38.1681 6.18106 38.262C6.16435 38.4343 6.1466 38.6295 6.14138 38.8435C6.13269 39.0737 6.13827 39.3041 6.15809 39.5336C6.17725 39.7913 6.21989 40.0468 6.28546 40.2968V40.3051C6.24056 40.2352 6.11006 40.0452 6.09858 40.0316C5.93467 39.8416 5.50455 39.5701 5.24564 39.6808C5.2031 39.7002 5.16512 39.7283 5.13418 39.7634C5.10323 39.7984 5.08001 39.8396 5.06603 39.8842C5.05204 39.9288 5.04761 39.9759 5.05301 40.0223C5.05842 40.0688 5.07354 40.1135 5.09739 40.1537C5.19448 40.3218 5.42416 40.4085 5.60999 40.4356Z" fill="#263238"/>
<path d="M73.8392 39.1118C73.8392 39.1118 73.929 38.783 73.9321 38.7621C73.9665 38.5126 73.8872 38.0115 73.6335 37.8883C73.5907 37.8691 73.5444 37.8592 73.4976 37.8591C73.4507 37.8591 73.4044 37.8688 73.3615 37.8878C73.3187 37.9068 73.2804 37.9346 73.249 37.9694C73.2176 38.0042 73.1939 38.0452 73.1794 38.0898C73.1115 38.2766 73.1982 38.5074 73.3005 38.6629C73.4195 38.8488 73.8381 39.1118 73.8392 39.1118Z" fill="#263238"/>
<path d="M68.8378 39.0034C69.0404 39.0921 69.5342 39.0806 69.5352 39.0806C69.5363 39.0806 69.4308 38.757 69.4193 38.7372C69.3149 38.5106 68.9683 38.1358 68.6885 38.1734C68.6424 38.1809 68.5983 38.1981 68.5592 38.2238C68.5202 38.2495 68.4869 38.2832 68.4617 38.3226C68.4365 38.362 68.4199 38.4062 68.4129 38.4525C68.4059 38.4987 68.4088 38.5459 68.4213 38.591C68.4672 38.7841 68.6656 38.9282 68.8378 39.0034Z" fill="#263238"/>
<path d="M69.0084 40.4357C69.2172 40.4659 69.6588 40.3386 69.6943 40.3313C69.7669 40.5836 69.8562 40.8309 69.9615 41.0715C70.0221 41.2124 70.0878 41.3512 70.1557 41.4891L70.0732 41.37C69.9083 41.18 69.4782 40.9096 69.2192 41.0193C69.1768 41.0389 69.1389 41.0672 69.1081 41.1024C69.0772 41.1375 69.054 41.1787 69.0401 41.2234C69.0261 41.268 69.0216 41.3151 69.027 41.3616C69.0323 41.4081 69.0473 41.4529 69.071 41.4932C69.167 41.6676 69.3967 41.7532 69.5826 41.7803C69.7684 41.8075 70.1494 41.7062 70.2497 41.6759L70.328 41.8357C70.4553 42.0904 70.5848 42.3441 70.7028 42.5957C70.7445 42.6844 70.7832 42.7742 70.8207 42.863C70.7852 42.8108 70.755 42.7669 70.7497 42.7586C70.5848 42.5685 70.1547 42.2971 69.8958 42.4078C69.8532 42.4273 69.8152 42.4555 69.7842 42.4907C69.7533 42.5258 69.7301 42.5671 69.7161 42.6117C69.7021 42.6564 69.6977 42.7036 69.7031 42.7501C69.7085 42.7966 69.7236 42.8415 69.7475 42.8817C69.8436 43.0551 70.0732 43.1417 70.2591 43.1688C70.4449 43.196 70.7894 43.1041 70.9074 43.0718C70.9439 43.1636 70.9805 43.2565 71.0118 43.3474C71.0316 43.41 71.0556 43.4695 71.0713 43.5332C71.087 43.5969 71.1068 43.6585 71.1235 43.7201C71.1527 43.8412 71.183 43.9644 71.2081 44.0834C71.2269 44.1648 71.2425 44.2431 71.2582 44.3225C71.2185 44.2337 71.135 44.0615 71.1266 44.0479C70.993 43.8391 70.6046 43.5019 70.3353 43.5708C70.2903 43.5836 70.2485 43.6058 70.2127 43.6358C70.1768 43.6659 70.1477 43.7032 70.1272 43.7452C70.1067 43.7873 70.0953 43.8332 70.0938 43.8799C70.0922 43.9267 70.1005 43.9732 70.1181 44.0166C70.186 44.2034 70.4 44.3235 70.5796 44.3788C70.7769 44.4394 71.2154 44.3841 71.2697 44.3788C71.2958 44.5093 71.3208 44.6367 71.3417 44.7578C71.3855 45.0094 71.42 45.237 71.4461 45.4312H71.6298C71.5985 45.2297 71.5578 44.9917 71.5056 44.7265C71.4795 44.5939 71.4492 44.4519 71.4158 44.3089C71.5477 44.256 71.6764 44.1954 71.801 44.1272C71.9451 44.2838 72.3147 44.4665 72.3627 44.4895C72.3126 44.6127 72.2583 44.7328 72.2134 44.8455C72.1174 45.0658 72.0266 45.2631 71.9441 45.4322H72.1435C72.2124 45.2777 72.2886 45.1023 72.3669 44.9102C72.4191 44.785 72.4713 44.6492 72.5235 44.5104C72.5767 44.5219 73.01 44.6096 73.2125 44.5636C73.3963 44.5229 73.6176 44.4196 73.7001 44.2379C73.7208 44.1959 73.7324 44.1501 73.7342 44.1033C73.736 44.0565 73.728 44.0099 73.7105 43.9664C73.6931 43.923 73.6667 43.8837 73.6331 43.8511C73.5994 43.8186 73.5593 43.7935 73.5153 43.7775C73.2491 43.6877 72.8409 43.9863 72.6916 44.1951C72.6832 44.2076 72.6018 44.3475 72.5517 44.4363C72.5736 44.3799 72.5945 44.3246 72.6154 44.2661C72.6582 44.1492 72.6978 44.0322 72.7396 43.907L72.796 43.7201C72.8158 43.6585 72.8294 43.5906 72.8461 43.5249C72.8826 43.3724 72.9119 43.2117 72.938 43.0582C73.0424 43.0947 73.4036 43.2221 73.5915 43.2085C73.7794 43.1949 74.0091 43.126 74.1219 42.96C74.1488 42.9218 74.1674 42.8782 74.1763 42.8323C74.1853 42.7863 74.1845 42.739 74.174 42.6934C74.1634 42.6478 74.1434 42.6049 74.1152 42.5676C74.0869 42.5302 74.0512 42.4993 74.0102 42.4767C73.7596 42.3472 73.3107 42.5811 73.1332 42.7627C73.1217 42.7742 73.0079 42.9152 72.9474 42.9945C72.962 42.8995 72.9776 42.8045 72.9891 42.7074C73.0246 42.4287 73.0507 42.1447 73.0779 41.8618C73.0862 41.7751 73.0956 41.6885 73.105 41.6029C73.1415 41.6164 73.5696 41.7751 73.7805 41.7605C73.9684 41.748 74.1981 41.6791 74.3119 41.512C74.3386 41.4737 74.3571 41.4302 74.366 41.3842C74.3749 41.3383 74.374 41.2911 74.3635 41.2455C74.3529 41.1999 74.333 41.1571 74.3048 41.1197C74.2767 41.0824 74.241 41.0514 74.2002 41.0287C73.9496 40.8992 73.5007 41.1331 73.3222 41.3147C73.3086 41.3283 73.1457 41.5329 73.1071 41.5861C73.1269 41.3961 73.1488 41.2072 73.1781 41.0213C73.2161 40.77 73.2701 40.5214 73.3399 40.277C73.3566 40.2832 73.8034 40.4524 74.0195 40.4367C74.2075 40.4242 74.4424 40.3553 74.5509 40.1882C74.5777 40.1498 74.596 40.1062 74.6049 40.0603C74.6137 40.0143 74.6127 39.967 74.6021 39.9215C74.5915 39.8759 74.5714 39.8331 74.5432 39.7958C74.5149 39.7584 74.4792 39.7275 74.4382 39.7049C74.1887 39.5754 73.7398 39.8093 73.5612 39.9909C73.5497 40.0034 73.4245 40.158 73.367 40.2331L73.3535 40.2258C73.4304 39.9821 73.5293 39.7459 73.6489 39.5201C73.7126 39.3948 73.7805 39.2779 73.8494 39.1662C73.9298 39.2069 74.2973 39.3854 74.4935 39.3927C74.6898 39.4 74.9226 39.3583 75.0479 39.2037C75.0789 39.1687 75.1022 39.1275 75.1162 39.0828C75.1302 39.0382 75.1347 38.991 75.1292 38.9445C75.1238 38.898 75.1087 38.8532 75.0847 38.813C75.0608 38.7727 75.0287 38.738 74.9905 38.711C74.7556 38.5554 74.2837 38.7433 74.0864 38.8999C74.0759 38.9083 73.9767 39.0043 73.9058 39.0795C73.9371 39.0294 73.9694 38.9751 74.0008 38.9302C74.1187 38.7527 74.2377 38.5982 74.3442 38.4615C74.4048 38.3842 74.4622 38.3153 74.5154 38.2527C74.6198 38.2527 75.0134 38.2391 75.1878 38.1577C75.3621 38.0762 75.5521 37.928 75.5928 37.7338C75.6041 37.6884 75.6057 37.6411 75.5975 37.595C75.5892 37.5489 75.5714 37.5051 75.5451 37.4664C75.5188 37.4277 75.4846 37.395 75.4448 37.3703C75.405 37.3457 75.3605 37.3298 75.3141 37.3235C75.0343 37.2932 74.7013 37.6774 74.599 37.9071C74.5906 37.9269 74.4873 38.2537 74.4946 38.2537H74.5008C74.4476 38.3143 74.3964 38.379 74.3317 38.4521C74.2273 38.5867 74.0999 38.7392 73.9778 38.9156C73.8437 39.103 73.721 39.2982 73.6103 39.5002C73.4854 39.7262 73.3806 39.9627 73.2971 40.207C73.2971 40.207 73.2971 40.207 73.2971 40.2154C73.2971 40.1329 73.2971 39.9022 73.2971 39.8844C73.2647 39.6349 73.0549 39.1724 72.7751 39.1213C72.7289 39.1139 72.6816 39.1163 72.6364 39.1285C72.5912 39.1406 72.5491 39.1622 72.5128 39.1918C72.4765 39.2213 72.4469 39.2583 72.4259 39.3001C72.4049 39.3419 72.393 39.3877 72.3909 39.4345C72.3742 39.6328 72.5183 39.8312 72.6582 39.9565C72.8158 40.0974 73.2553 40.2342 73.2846 40.2446C73.2056 40.4952 73.1439 40.7509 73.0998 41.0099C73.0726 41.1602 73.0497 41.3137 73.0298 41.4661C73.0298 41.3951 73.0298 41.3314 73.0298 41.322C72.9975 41.0735 72.7887 40.61 72.5078 40.5589C72.4616 40.5516 72.4143 40.5542 72.3691 40.5664C72.324 40.5786 72.2818 40.6002 72.2455 40.6297C72.2092 40.6592 72.1795 40.6961 72.1583 40.7378C72.1371 40.7796 72.125 40.8253 72.1226 40.8721C72.1069 41.0704 72.25 41.2688 72.3909 41.3941C72.5318 41.5193 72.9046 41.6446 73.0027 41.677L72.9808 41.8534C72.9474 42.1363 72.915 42.4182 72.8764 42.6938C72.8617 42.7909 72.845 42.8859 72.8273 42.982C72.8273 42.9183 72.8273 42.865 72.8273 42.8567C72.7949 42.6072 72.5861 42.1447 72.3053 42.0935C72.2591 42.0861 72.2118 42.0886 72.1666 42.1007C72.1214 42.1129 72.0793 42.1344 72.043 42.164C72.0067 42.1936 71.9771 42.2305 71.9561 42.2723C71.9351 42.3142 71.9232 42.36 71.9211 42.4067C71.9055 42.6051 72.0485 42.8034 72.1884 42.9287C72.3283 43.054 72.6665 43.1668 72.7835 43.2054C72.7626 43.3025 72.7427 43.3996 72.7187 43.4925C72.6999 43.5562 72.6874 43.6178 72.6655 43.6804L72.606 43.8662C72.5632 43.9821 72.5204 44.1022 72.4765 44.2149C72.4462 44.2932 72.416 44.3674 72.3867 44.4425C72.4013 44.3454 72.4274 44.1554 72.4274 44.1398C72.424 43.9196 72.3644 43.704 72.2541 43.5134C72.2562 43.4887 72.2562 43.4639 72.2541 43.4392C72.2482 43.3928 72.2326 43.3481 72.2083 43.3081C72.184 43.268 72.1515 43.2336 72.1131 43.2069C72.0746 43.1802 72.0309 43.1619 71.9849 43.1532C71.9389 43.1445 71.8915 43.1456 71.8459 43.1563C71.5735 43.2294 71.4012 43.7076 71.3887 43.9581C71.3887 43.9727 71.397 44.1345 71.4054 44.2369C71.3918 44.1773 71.3782 44.1199 71.3636 44.0594C71.3354 43.9383 71.3031 43.8193 71.2697 43.6908L71.2133 43.505C71.1955 43.4424 71.1694 43.3776 71.1475 43.314C71.0932 43.1668 71.0316 43.0206 70.9659 42.8744C71.0703 42.8494 71.444 42.7544 71.5922 42.6385C71.7405 42.5226 71.8992 42.3378 71.8981 42.1384C71.8993 42.0917 71.8906 42.0452 71.8727 42.002C71.8548 41.9588 71.8279 41.9198 71.794 41.8876C71.76 41.8554 71.7197 41.8307 71.6756 41.8151C71.6315 41.7995 71.5846 41.7934 71.538 41.797C71.2582 41.8273 71.016 42.2741 70.9638 42.5205C70.9638 42.5351 70.9439 42.7168 70.9366 42.816C70.897 42.7283 70.8573 42.6406 70.8145 42.5539C70.6892 42.3013 70.5545 42.0497 70.4209 41.7991C70.3802 41.7219 70.3405 41.6446 70.3008 41.5674C70.3384 41.559 70.7842 41.4556 70.9512 41.3272C71.1005 41.2124 71.2582 41.0255 71.2571 40.8272C71.2585 40.7803 71.2499 40.7338 71.232 40.6905C71.2141 40.6472 71.1873 40.6082 71.1533 40.576C71.1193 40.5438 71.0789 40.5191 71.0348 40.5035C70.9906 40.488 70.9436 40.4819 70.897 40.4858C70.6172 40.5161 70.375 40.9618 70.3228 41.2082C70.3228 41.227 70.2956 41.487 70.2935 41.5538C70.2048 41.3836 70.1192 41.2134 70.0409 41.0433C69.9335 40.8126 69.8414 40.5751 69.7653 40.3323C69.783 40.3323 70.2486 40.2279 70.4198 40.0911C70.5691 39.9763 70.733 39.7894 70.7257 39.5911C70.7271 39.5443 70.7185 39.4977 70.7006 39.4544C70.6827 39.4111 70.6559 39.3721 70.6219 39.3399C70.5879 39.3077 70.5475 39.283 70.5034 39.2674C70.4592 39.2519 70.4122 39.2458 70.3656 39.2497C70.0858 39.28 69.8436 39.7257 69.7924 39.9721C69.7924 39.9888 69.7705 40.1872 69.7642 40.2853H69.7486C69.6781 40.0392 69.6299 39.7873 69.6045 39.5326C69.5888 39.3927 69.5826 39.258 69.5784 39.1275C69.6671 39.116 70.0722 39.0628 70.2392 38.9615C70.4063 38.8603 70.5775 38.6953 70.5984 38.497C70.6047 38.4507 70.6012 38.4035 70.5881 38.3587C70.575 38.3138 70.5526 38.2722 70.5224 38.2365C70.4922 38.2009 70.4548 38.172 70.4126 38.1518C70.3705 38.1315 70.3246 38.1204 70.2779 38.119C69.996 38.119 69.7057 38.5366 69.6285 38.7736C69.6285 38.7872 69.5961 38.924 69.5763 39.0242C69.5763 38.9647 69.5763 38.9041 69.5763 38.8467C69.5763 38.6379 69.5899 38.4395 69.6034 38.2662C69.6118 38.1681 69.6212 38.0794 69.6306 37.9969C69.712 37.9416 70.0377 37.7108 70.138 37.5469C70.2382 37.383 70.3165 37.1544 70.2424 36.9696C70.2267 36.9255 70.2018 36.8851 70.1695 36.8513C70.1372 36.8174 70.098 36.7907 70.0547 36.773C70.0113 36.7552 69.9647 36.7468 69.9179 36.7483C69.8711 36.7498 69.8251 36.7612 69.783 36.7817C69.5324 36.9111 69.4698 37.4143 69.5084 37.6628C69.5084 37.6837 69.6066 38.0125 69.6128 38.0105C69.6014 38.0898 69.5909 38.1754 69.5805 38.2694C69.5638 38.4416 69.546 38.6369 69.5408 38.8509C69.5331 39.081 69.5387 39.3114 69.5575 39.541C69.5777 39.7986 69.6203 40.0539 69.6849 40.3041V40.3125C69.641 40.2425 69.5105 40.0525 69.498 40.0389C69.3341 39.8489 68.904 39.5775 68.645 39.6882C68.6025 39.7076 68.5645 39.7357 68.5336 39.7707C68.5026 39.8058 68.4794 39.847 68.4654 39.8916C68.4515 39.9362 68.447 39.9832 68.4524 40.0297C68.4578 40.0761 68.473 40.1209 68.4968 40.1611C68.5929 40.3219 68.8225 40.4085 69.0084 40.4357Z" fill="#263238"/>
<path opacity="0.3" d="M68.8378 39.0034C69.0404 39.0921 69.5342 39.0806 69.5352 39.0806C69.5363 39.0806 69.4308 38.757 69.4193 38.7372C69.3149 38.5106 68.9683 38.1358 68.6885 38.1734C68.6424 38.1809 68.5983 38.1981 68.5592 38.2238C68.5202 38.2495 68.4869 38.2832 68.4617 38.3226C68.4365 38.362 68.4199 38.4062 68.4129 38.4525C68.4059 38.4987 68.4088 38.5459 68.4213 38.591C68.4672 38.7841 68.6656 38.9282 68.8378 39.0034Z" fill="#263238"/>
<path opacity="0.3" d="M73.8392 39.1118C73.8392 39.1118 73.929 38.783 73.9321 38.7621C73.9665 38.5126 73.8872 38.0115 73.6335 37.8883C73.5907 37.8691 73.5444 37.8592 73.4976 37.8591C73.4507 37.8591 73.4044 37.8688 73.3615 37.8878C73.3187 37.9068 73.2804 37.9346 73.249 37.9694C73.2176 38.0042 73.1939 38.0452 73.1794 38.0898C73.1115 38.2766 73.1982 38.5074 73.3005 38.6629C73.4195 38.8488 73.8381 39.1118 73.8392 39.1118Z" fill="#263238"/>
<path opacity="0.3" d="M69.0084 40.4357C69.2172 40.4659 69.6588 40.3386 69.6943 40.3313C69.7669 40.5836 69.8562 40.8309 69.9615 41.0715C70.0221 41.2124 70.0878 41.3512 70.1557 41.4891L70.0732 41.37C69.9083 41.18 69.4782 40.9096 69.2192 41.0193C69.1768 41.0389 69.1389 41.0672 69.1081 41.1024C69.0772 41.1375 69.054 41.1787 69.0401 41.2234C69.0261 41.268 69.0216 41.3151 69.027 41.3616C69.0323 41.4081 69.0473 41.4529 69.071 41.4932C69.167 41.6676 69.3967 41.7532 69.5826 41.7803C69.7684 41.8075 70.1494 41.7062 70.2497 41.6759L70.328 41.8357C70.4553 42.0904 70.5848 42.3441 70.7028 42.5957C70.7445 42.6844 70.7832 42.7742 70.8207 42.863C70.7852 42.8108 70.755 42.7669 70.7497 42.7586C70.5848 42.5685 70.1547 42.2971 69.8958 42.4078C69.8532 42.4273 69.8152 42.4555 69.7842 42.4907C69.7533 42.5258 69.7301 42.5671 69.7161 42.6117C69.7021 42.6564 69.6977 42.7036 69.7031 42.7501C69.7085 42.7966 69.7236 42.8415 69.7475 42.8817C69.8436 43.0551 70.0732 43.1417 70.2591 43.1688C70.4449 43.196 70.7894 43.1041 70.9074 43.0718C70.9439 43.1636 70.9805 43.2565 71.0118 43.3474C71.0316 43.41 71.0556 43.4695 71.0713 43.5332C71.087 43.5969 71.1068 43.6585 71.1235 43.7201C71.1527 43.8412 71.183 43.9644 71.2081 44.0834C71.2269 44.1648 71.2425 44.2431 71.2582 44.3225C71.2185 44.2337 71.135 44.0615 71.1266 44.0479C70.993 43.8391 70.6046 43.5019 70.3353 43.5708C70.2903 43.5836 70.2485 43.6058 70.2127 43.6358C70.1768 43.6659 70.1477 43.7032 70.1272 43.7452C70.1067 43.7873 70.0953 43.8332 70.0938 43.8799C70.0922 43.9267 70.1005 43.9732 70.1181 44.0166C70.186 44.2034 70.4 44.3235 70.5796 44.3788C70.7769 44.4394 71.2154 44.3841 71.2697 44.3788C71.2958 44.5093 71.3208 44.6367 71.3417 44.7578C71.3855 45.0094 71.42 45.237 71.4461 45.4312H71.6298C71.5985 45.2297 71.5578 44.9917 71.5056 44.7265C71.4795 44.5939 71.4492 44.4519 71.4158 44.3089C71.5477 44.256 71.6764 44.1954 71.801 44.1272C71.9451 44.2838 72.3147 44.4665 72.3627 44.4895C72.3126 44.6127 72.2583 44.7328 72.2134 44.8455C72.1174 45.0658 72.0266 45.2631 71.9441 45.4322H72.1435C72.2124 45.2777 72.2886 45.1023 72.3669 44.9102C72.4191 44.785 72.4713 44.6492 72.5235 44.5104C72.5767 44.5219 73.01 44.6096 73.2125 44.5636C73.3963 44.5229 73.6176 44.4196 73.7001 44.2379C73.7208 44.1959 73.7324 44.1501 73.7342 44.1033C73.736 44.0565 73.728 44.0099 73.7105 43.9664C73.6931 43.923 73.6667 43.8837 73.6331 43.8511C73.5994 43.8186 73.5593 43.7935 73.5153 43.7775C73.2491 43.6877 72.8409 43.9863 72.6916 44.1951C72.6832 44.2076 72.6018 44.3475 72.5517 44.4363C72.5736 44.3799 72.5945 44.3246 72.6154 44.2661C72.6582 44.1492 72.6978 44.0322 72.7396 43.907L72.796 43.7201C72.8158 43.6585 72.8294 43.5906 72.8461 43.5249C72.8826 43.3724 72.9119 43.2117 72.938 43.0582C73.0424 43.0947 73.4036 43.2221 73.5915 43.2085C73.7794 43.1949 74.0091 43.126 74.1219 42.96C74.1488 42.9218 74.1674 42.8782 74.1763 42.8323C74.1853 42.7863 74.1845 42.739 74.174 42.6934C74.1634 42.6478 74.1434 42.6049 74.1152 42.5676C74.0869 42.5302 74.0512 42.4993 74.0102 42.4767C73.7596 42.3472 73.3107 42.5811 73.1332 42.7627C73.1217 42.7742 73.0079 42.9152 72.9474 42.9945C72.962 42.8995 72.9776 42.8045 72.9891 42.7074C73.0246 42.4287 73.0507 42.1447 73.0779 41.8618C73.0862 41.7751 73.0956 41.6885 73.105 41.6029C73.1415 41.6164 73.5696 41.7751 73.7805 41.7605C73.9684 41.748 74.1981 41.6791 74.3119 41.512C74.3386 41.4737 74.3571 41.4302 74.366 41.3842C74.3749 41.3383 74.374 41.2911 74.3635 41.2455C74.3529 41.1999 74.333 41.1571 74.3048 41.1197C74.2767 41.0824 74.241 41.0514 74.2002 41.0287C73.9496 40.8992 73.5007 41.1331 73.3222 41.3147C73.3086 41.3283 73.1457 41.5329 73.1071 41.5861C73.1269 41.3961 73.1488 41.2072 73.1781 41.0213C73.2161 40.77 73.2701 40.5214 73.3399 40.277C73.3566 40.2832 73.8034 40.4524 74.0195 40.4367C74.2075 40.4242 74.4424 40.3553 74.5509 40.1882C74.5777 40.1498 74.596 40.1062 74.6049 40.0603C74.6137 40.0143 74.6127 39.967 74.6021 39.9215C74.5915 39.8759 74.5714 39.8331 74.5432 39.7958C74.5149 39.7584 74.4792 39.7275 74.4382 39.7049C74.1887 39.5754 73.7398 39.8093 73.5612 39.9909C73.5497 40.0034 73.4245 40.158 73.367 40.2331L73.3535 40.2258C73.4304 39.9821 73.5293 39.7459 73.6489 39.5201C73.7126 39.3948 73.7805 39.2779 73.8494 39.1662C73.9298 39.2069 74.2973 39.3854 74.4935 39.3927C74.6898 39.4 74.9226 39.3583 75.0479 39.2037C75.0789 39.1687 75.1022 39.1275 75.1162 39.0828C75.1302 39.0382 75.1347 38.991 75.1292 38.9445C75.1238 38.898 75.1087 38.8532 75.0847 38.813C75.0608 38.7727 75.0287 38.738 74.9905 38.711C74.7556 38.5554 74.2837 38.7433 74.0864 38.8999C74.0759 38.9083 73.9767 39.0043 73.9058 39.0795C73.9371 39.0294 73.9694 38.9751 74.0008 38.9302C74.1187 38.7527 74.2377 38.5982 74.3442 38.4615C74.4048 38.3842 74.4622 38.3153 74.5154 38.2527C74.6198 38.2527 75.0134 38.2391 75.1878 38.1577C75.3621 38.0762 75.5521 37.928 75.5928 37.7338C75.6041 37.6884 75.6057 37.6411 75.5975 37.595C75.5892 37.5489 75.5714 37.5051 75.5451 37.4664C75.5188 37.4277 75.4846 37.395 75.4448 37.3703C75.405 37.3457 75.3605 37.3298 75.3141 37.3235C75.0343 37.2932 74.7013 37.6774 74.599 37.9071C74.5906 37.9269 74.4873 38.2537 74.4946 38.2537H74.5008C74.4476 38.3143 74.3964 38.379 74.3317 38.4521C74.2273 38.5867 74.0999 38.7392 73.9778 38.9156C73.8437 39.103 73.721 39.2982 73.6103 39.5002C73.4854 39.7262 73.3806 39.9627 73.2971 40.207C73.2971 40.207 73.2971 40.207 73.2971 40.2154C73.2971 40.1329 73.2971 39.9022 73.2971 39.8844C73.2647 39.6349 73.0549 39.1724 72.7751 39.1213C72.7289 39.1139 72.6816 39.1163 72.6364 39.1285C72.5912 39.1406 72.5491 39.1622 72.5128 39.1918C72.4765 39.2213 72.4469 39.2583 72.4259 39.3001C72.4049 39.3419 72.393 39.3877 72.3909 39.4345C72.3742 39.6328 72.5183 39.8312 72.6582 39.9565C72.8158 40.0974 73.2553 40.2342 73.2846 40.2446C73.2056 40.4952 73.1439 40.7509 73.0998 41.0099C73.0726 41.1602 73.0497 41.3137 73.0298 41.4661C73.0298 41.3951 73.0298 41.3314 73.0298 41.322C72.9975 41.0735 72.7887 40.61 72.5078 40.5589C72.4616 40.5516 72.4143 40.5542 72.3691 40.5664C72.324 40.5786 72.2818 40.6002 72.2455 40.6297C72.2092 40.6592 72.1795 40.6961 72.1583 40.7378C72.1371 40.7796 72.125 40.8253 72.1226 40.8721C72.1069 41.0704 72.25 41.2688 72.3909 41.3941C72.5318 41.5193 72.9046 41.6446 73.0027 41.677L72.9808 41.8534C72.9474 42.1363 72.915 42.4182 72.8764 42.6938C72.8617 42.7909 72.845 42.8859 72.8273 42.982C72.8273 42.9183 72.8273 42.865 72.8273 42.8567C72.7949 42.6072 72.5861 42.1447 72.3053 42.0935C72.2591 42.0861 72.2118 42.0886 72.1666 42.1007C72.1214 42.1129 72.0793 42.1344 72.043 42.164C72.0067 42.1936 71.9771 42.2305 71.9561 42.2723C71.9351 42.3142 71.9232 42.36 71.9211 42.4067C71.9055 42.6051 72.0485 42.8034 72.1884 42.9287C72.3283 43.054 72.6665 43.1668 72.7835 43.2054C72.7626 43.3025 72.7427 43.3996 72.7187 43.4925C72.6999 43.5562 72.6874 43.6178 72.6655 43.6804L72.606 43.8662C72.5632 43.9821 72.5204 44.1022 72.4765 44.2149C72.4462 44.2932 72.416 44.3674 72.3867 44.4425C72.4013 44.3454 72.4274 44.1554 72.4274 44.1398C72.424 43.9196 72.3644 43.704 72.2541 43.5134C72.2562 43.4887 72.2562 43.4639 72.2541 43.4392C72.2482 43.3928 72.2326 43.3481 72.2083 43.3081C72.184 43.268 72.1515 43.2336 72.1131 43.2069C72.0746 43.1802 72.0309 43.1619 71.9849 43.1532C71.9389 43.1445 71.8915 43.1456 71.8459 43.1563C71.5735 43.2294 71.4012 43.7076 71.3887 43.9581C71.3887 43.9727 71.397 44.1345 71.4054 44.2369C71.3918 44.1773 71.3782 44.1199 71.3636 44.0594C71.3354 43.9383 71.3031 43.8193 71.2697 43.6908L71.2133 43.505C71.1955 43.4424 71.1694 43.3776 71.1475 43.314C71.0932 43.1668 71.0316 43.0206 70.9659 42.8744C71.0703 42.8494 71.444 42.7544 71.5922 42.6385C71.7405 42.5226 71.8992 42.3378 71.8981 42.1384C71.8993 42.0917 71.8906 42.0452 71.8727 42.002C71.8548 41.9588 71.8279 41.9198 71.794 41.8876C71.76 41.8554 71.7197 41.8307 71.6756 41.8151C71.6315 41.7995 71.5846 41.7934 71.538 41.797C71.2582 41.8273 71.016 42.2741 70.9638 42.5205C70.9638 42.5351 70.9439 42.7168 70.9366 42.816C70.897 42.7283 70.8573 42.6406 70.8145 42.5539C70.6892 42.3013 70.5545 42.0497 70.4209 41.7991C70.3802 41.7219 70.3405 41.6446 70.3008 41.5674C70.3384 41.559 70.7842 41.4556 70.9512 41.3272C71.1005 41.2124 71.2582 41.0255 71.2571 40.8272C71.2585 40.7803 71.2499 40.7338 71.232 40.6905C71.2141 40.6472 71.1873 40.6082 71.1533 40.576C71.1193 40.5438 71.0789 40.5191 71.0348 40.5035C70.9906 40.488 70.9436 40.4819 70.897 40.4858C70.6172 40.5161 70.375 40.9618 70.3228 41.2082C70.3228 41.227 70.2956 41.487 70.2935 41.5538C70.2048 41.3836 70.1192 41.2134 70.0409 41.0433C69.9335 40.8126 69.8414 40.5751 69.7653 40.3323C69.783 40.3323 70.2486 40.2279 70.4198 40.0911C70.5691 39.9763 70.733 39.7894 70.7257 39.5911C70.7271 39.5443 70.7185 39.4977 70.7006 39.4544C70.6827 39.4111 70.6559 39.3721 70.6219 39.3399C70.5879 39.3077 70.5475 39.283 70.5034 39.2674C70.4592 39.2519 70.4122 39.2458 70.3656 39.2497C70.0858 39.28 69.8436 39.7257 69.7924 39.9721C69.7924 39.9888 69.7705 40.1872 69.7642 40.2853H69.7486C69.6781 40.0392 69.6299 39.7873 69.6045 39.5326C69.5888 39.3927 69.5826 39.258 69.5784 39.1275C69.6671 39.116 70.0722 39.0628 70.2392 38.9615C70.4063 38.8603 70.5775 38.6953 70.5984 38.497C70.6047 38.4507 70.6012 38.4035 70.5881 38.3587C70.575 38.3138 70.5526 38.2722 70.5224 38.2365C70.4922 38.2009 70.4548 38.172 70.4126 38.1518C70.3705 38.1315 70.3246 38.1204 70.2779 38.119C69.996 38.119 69.7057 38.5366 69.6285 38.7736C69.6285 38.7872 69.5961 38.924 69.5763 39.0242C69.5763 38.9647 69.5763 38.9041 69.5763 38.8467C69.5763 38.6379 69.5899 38.4395 69.6034 38.2662C69.6118 38.1681 69.6212 38.0794 69.6306 37.9969C69.712 37.9416 70.0377 37.7108 70.138 37.5469C70.2382 37.383 70.3165 37.1544 70.2424 36.9696C70.2267 36.9255 70.2018 36.8851 70.1695 36.8513C70.1372 36.8174 70.098 36.7907 70.0547 36.773C70.0113 36.7552 69.9647 36.7468 69.9179 36.7483C69.8711 36.7498 69.8251 36.7612 69.783 36.7817C69.5324 36.9111 69.4698 37.4143 69.5084 37.6628C69.5084 37.6837 69.6066 38.0125 69.6128 38.0105C69.6014 38.0898 69.5909 38.1754 69.5805 38.2694C69.5638 38.4416 69.546 38.6369 69.5408 38.8509C69.5331 39.081 69.5387 39.3114 69.5575 39.541C69.5777 39.7986 69.6203 40.0539 69.6849 40.3041V40.3125C69.641 40.2425 69.5105 40.0525 69.498 40.0389C69.3341 39.8489 68.904 39.5775 68.645 39.6882C68.6025 39.7076 68.5645 39.7357 68.5336 39.7707C68.5026 39.8058 68.4794 39.847 68.4654 39.8916C68.4515 39.9362 68.447 39.9832 68.4524 40.0297C68.4578 40.0761 68.473 40.1209 68.4968 40.1611C68.5929 40.3219 68.8225 40.4085 69.0084 40.4357Z" fill="#263238"/>
<path d="M19.4062 36.0364C19.4062 36.0364 19.5367 36.0103 20.6068 35.6971C21.2923 35.4776 21.9176 35.1024 22.4338 34.6009L22.0945 32.4607L19.9282 32.7739L19.4062 36.0364Z" fill="#92E3A9" stroke="#263238" stroke-width="0.1044" stroke-linecap="round" stroke-linejoin="round"/>
<path d="M14.0815 43.2921C14.0815 43.2921 13.7161 44.0229 13.6639 44.7015C13.6117 45.3801 14.0032 45.615 14.1337 45.4323C14.2642 45.2496 14.473 44.5971 14.4991 44.31L14.5774 43.4487L14.0815 43.2921Z" fill="white" stroke="#263238" stroke-width="0.1044" stroke-linecap="round" stroke-linejoin="round"/>
<path d="M23.6932 43.7618C23.6932 43.7618 23.5888 44.7014 23.5606 45.1451C23.5324 45.5888 24.0826 46.0064 24.1599 46.0336C24.2371 46.0607 24.3165 46.0336 24.447 45.7204C24.5775 45.4072 24.5785 44.6503 24.5013 44.4154C24.424 44.1805 24.2674 43.8151 24.2674 43.8151L23.6932 43.7618Z" fill="white" stroke="#263238" stroke-width="0.1044" stroke-linecap="round" stroke-linejoin="round"/>
<path d="M20.033 30.0072C20.033 30.0072 18.9796 31.26 18.6142 32.304C18.2488 33.348 17.9575 34.6405 17.7101 35.3316C17.5033 35.9219 17.329 36.5231 17.1881 37.1325C17.1881 37.1325 16.5095 37.8111 16.3268 38.4114C16.1441 39.0117 14.0039 43.4487 14.0039 43.4487C14.0039 43.4487 14.1344 43.6314 14.2388 43.6575C14.3432 43.6836 14.5781 43.5531 14.5781 43.5531C14.5781 43.5531 18.3626 38.5941 18.5975 38.2287C18.8324 37.8633 19.5736 37.0176 19.6519 36.8871C19.7302 36.7566 20.3201 34.9401 20.5289 34.6791C20.6835 34.4711 20.8191 34.2496 20.934 34.0172L21.0906 34.1216L21.2733 34.1477C21.2733 34.1477 22.0949 35.8014 22.3037 36.48C22.5125 37.1586 23.1128 40.8648 23.2694 41.5434C23.426 42.222 23.6348 43.9968 23.6348 43.9968C23.7291 44.0278 23.8249 44.054 23.9219 44.0751C24.0524 44.1012 24.3917 43.9968 24.3917 43.9968C24.3917 43.9968 24.992 41.2824 25.0181 40.3428C25.0442 39.4032 24.8615 37.3152 24.8615 37.002C24.8615 36.6888 24.3917 32.3823 24.1568 31.8081C23.9219 31.2339 23.1389 30.216 23.1389 30.216L20.033 30.0072Z" fill="#263238" stroke="#263238" stroke-width="0.1044" stroke-linecap="round" stroke-linejoin="round"/>
<path d="M21.5729 25.0745L20.0069 25.5704C20.0069 25.5704 20.0069 28.598 20.033 28.9895C20.0591 29.381 19.8503 30.0334 19.9808 30.19C20.1113 30.3466 20.7377 30.973 21.8861 30.9991C23.0345 31.0252 23.3477 30.6598 23.3477 30.6598L23.5826 29.642C23.5826 29.642 24.3395 27.6062 24.3395 27.293C24.3395 26.9798 23.5826 26.0663 23.1389 25.7009C22.6952 25.3355 21.5729 25.0745 21.5729 25.0745Z" fill="white" stroke="#263238" stroke-width="0.1044" stroke-linecap="round" stroke-linejoin="round"/>
<path d="M17.5275 28.6501C17.1941 28.8746 16.8452 29.0752 16.4835 29.2504L14.3955 30.2944L14.6304 30.7903C15.1397 30.6995 15.6539 30.6384 16.1703 30.6076C16.8489 30.5815 17.9973 30.1378 18.0756 30.0073C18.1539 29.8768 18.4149 29.1721 18.4149 29.1721L17.5275 28.6501Z" fill="white" stroke="#263238" stroke-width="0.1044" stroke-linecap="round" stroke-linejoin="round"/>
<path d="M21.364 25.1005C21.364 25.1005 20.2417 28.1803 20.1895 28.624C20.1373 29.0677 19.6936 30.1899 19.6675 30.3465C19.6414 30.5031 18.9106 32.0952 18.9106 32.0952C18.9106 32.0952 19.6936 29.6419 19.7719 29.146C19.8148 28.8289 19.7789 28.5062 19.6675 28.2064C19.6675 28.2064 19.1382 29.3297 19.0599 29.408C18.9816 29.4863 18.4502 30.3831 18.4502 30.3831L17.5273 28.6501C17.5273 28.6501 18.5452 26.8753 18.754 26.5882C18.9628 26.3011 19.4065 25.5181 19.7197 25.3615C20.0329 25.2049 21.364 25.1005 21.364 25.1005Z" fill="#92E3A9" stroke="#263238" stroke-width="0.1044" stroke-linecap="round" stroke-linejoin="round"/>
<path d="M22.9037 25.4919C22.9037 25.4919 22.0946 28.8849 22.0946 29.433C22.0946 29.9811 22.0163 31.6776 21.938 32.6172C21.8597 33.5568 21.7031 36.5583 21.7031 36.5583C22.2039 36.635 22.712 36.6525 23.2169 36.6105C23.9477 36.5322 25.2005 36.0363 25.2005 36.0363C25.2005 36.0363 24.548 32.7477 24.287 31.9647C24.0675 31.2877 23.8845 30.5995 23.7389 29.9028C23.7389 29.8245 24.4436 27.5277 24.4436 27.2145C24.4436 26.9013 23.1908 25.5702 22.9037 25.4919Z" fill="#92E3A9" stroke="#263238" stroke-width="0.1044" stroke-linecap="round" stroke-linejoin="round"/>
<path d="M13.7 30.4905C13.7155 30.2926 13.6796 30.0941 13.5956 29.9142C13.4536 29.6344 13.3763 29.5478 13.6039 29.6094C13.8315 29.671 13.9651 30.1168 13.9651 30.1168L13.7 30.4905Z" fill="white" stroke="#263238" stroke-width="0.1044" stroke-linecap="round" stroke-linejoin="round"/>
<path d="M15.1691 30.6786C15.1691 30.6786 14.8705 31.1505 14.691 31.1077C14.5114 31.0649 13.7148 30.6661 13.7002 30.4907C13.6856 30.3153 13.837 29.7881 13.9685 29.811C14.1001 29.834 15.1691 30.6786 15.1691 30.6786Z" fill="white" stroke="#263238" stroke-width="0.1044" stroke-linecap="round" stroke-linejoin="round"/>
<path d="M24.0061 22.2901C24.0742 22.4927 24.1255 22.7004 24.1596 22.9113C24.1499 23.0399 24.1261 23.1669 24.0886 23.2903C24.0886 23.2903 24.5156 23.6703 24.5396 23.7653C24.5636 23.8603 24.3026 24.0023 24.3026 24.0023C24.3026 24.0023 24.3256 24.9983 24.3256 25.0693C24.3256 25.1402 23.1636 25.1883 23.1636 25.1883L21.9495 26.6112L21.3805 25.2123L21.6415 24.4293C21.6415 24.4293 20.8585 23.9783 21.1435 23.2903C21.4285 22.6023 22.0685 22.2233 22.7095 22.1283C23.1268 22.0737 23.5503 22.0896 23.9623 22.1753L24.0061 22.2901Z" fill="white" stroke="#263238" stroke-width="0.1044" stroke-linecap="round" stroke-linejoin="round"/>
<path d="M23.1588 25.1883L22.5637 25.0745L22.5293 25.8752L23.1588 25.1883Z" fill="#263238" stroke="#263238" stroke-width="0.1044" stroke-linecap="round" stroke-linejoin="round"/>
<path d="M23.8409 23.3821C23.8409 23.4656 23.8107 23.5324 23.772 23.5324C23.7334 23.5324 23.7031 23.4656 23.7031 23.3821C23.7031 23.2986 23.7344 23.2328 23.772 23.2328C23.8096 23.2328 23.8409 23.2996 23.8409 23.3821Z" fill="#263238"/>
<path d="M23.6113 23.1409C23.6113 23.1409 23.6802 23.0031 23.9329 23.072" stroke="#263238" stroke-width="0.1044" stroke-linecap="round" stroke-linejoin="round"/>
<path d="M24.1871 24.2454C24.1871 24.2454 23.8875 24.2913 23.7695 24.1295" stroke="#263238" stroke-width="0.1044" stroke-linecap="round" stroke-linejoin="round"/>
<path d="M24.0603 22.5792C24.0603 22.5792 23.2784 22.3892 23.1353 22.6742C22.9923 22.9592 23.1124 23.1012 22.9934 23.3622C22.8743 23.6232 22.4244 23.9552 22.4244 23.9552C22.4244 23.9552 21.9974 23.4801 21.8544 23.7171C21.7113 23.9541 21.7594 24.3101 21.9024 24.4291C22.0454 24.5481 22.4473 24.4761 22.4473 24.4761L21.8314 24.7611C21.8314 24.7611 21.8544 25.1171 21.2854 25.2591C20.7164 25.4011 20.0326 25.0221 20.1234 24.5481C20.2142 24.0742 21.0004 23.7892 21.0004 23.7892C21.0004 23.7892 20.1652 22.7692 20.8584 22.0144C21.5516 21.2596 22.8984 21.6114 22.8984 21.6114C22.8984 21.6114 23.0884 21.4026 23.6292 21.3504C24.1699 21.2982 24.4122 21.8484 24.4122 22.1574C24.4122 22.4664 24.0603 22.5792 24.0603 22.5792Z" fill="#263238" stroke="#263238" stroke-width="0.1044" stroke-linecap="round" stroke-linejoin="round"/>
<path d="M63.4549 14.6929L63.1762 9.30798L58.5471 11.823L58.6515 12.2406L60.4023 13.1342L52.1641 29.2796L26.0182 36.3893L7.9435 24.0534C7.78332 23.944 7.58625 23.9028 7.39566 23.9387C7.20506 23.9746 7.03654 24.0848 6.92717 24.245C6.8178 24.4051 6.77654 24.6022 6.81246 24.7928C6.84839 24.9834 6.95856 25.1519 7.11874 25.2613L25.468 37.7861C25.591 37.8702 25.7367 37.9146 25.8856 37.9135C25.9502 37.9136 26.0145 37.9048 26.0767 37.8874L52.8604 30.6055C52.9587 30.5788 53.0504 30.5319 53.1295 30.4677C53.2086 30.4035 53.2734 30.3235 53.3198 30.2328L61.7052 13.8024L63.4549 14.6929Z" fill="#263238" stroke="#263238" stroke-width="0.1044" stroke-linecap="round" stroke-linejoin="round"/>
<path d="M63.3504 14.2752L63.0717 8.89026L58.547 11.8228L60.2978 12.7165L52.0596 28.8619L25.9137 35.9715L7.839 23.6357C7.67883 23.5263 7.48176 23.485 7.29116 23.521C7.10056 23.5569 6.93204 23.6671 6.82267 23.8272C6.7133 23.9874 6.67204 24.1845 6.70797 24.3751C6.7439 24.5657 6.85407 24.7342 7.01425 24.8436L25.3635 37.3684C25.4865 37.4524 25.6322 37.4969 25.7811 37.4958C25.8457 37.4959 25.91 37.4871 25.9722 37.4697L52.7559 30.1878C52.8542 30.1611 52.9459 30.1142 53.025 30.05C53.1041 29.9858 53.1689 29.9058 53.2153 29.8151L61.6007 13.3847L63.3504 14.2752Z" fill="#92E3A9" stroke="#263238" stroke-width="0.1044" stroke-linecap="round" stroke-linejoin="round"/>
<path d="M62.5974 9.82263L59.5897 11.7697L61.0001 12.489L52.4195 29.3088L25.8174 36.5385L7.54745 24.0669C7.52477 24.0515 7.49926 24.0407 7.4724 24.0351C7.44553 24.0295 7.41782 24.0293 7.39087 24.0344C7.36391 24.0396 7.33824 24.05 7.3153 24.065C7.29237 24.0801 7.27264 24.0996 7.25722 24.1223C7.22594 24.1679 7.21408 24.2242 7.22426 24.2786C7.23444 24.333 7.26583 24.3812 7.31151 24.4125L25.665 36.9405C25.6997 36.9643 25.7408 36.977 25.7829 36.977C25.8013 36.9766 25.8195 36.9742 25.8372 36.9697L52.621 29.6868C52.6489 29.6794 52.6751 29.6663 52.6977 29.6484C52.7204 29.6304 52.739 29.6079 52.7525 29.5824L61.3749 12.6874L62.7853 13.4067L62.5974 9.82263Z" fill="white"/>
<path d="M23.4659 31.1599L23.3228 31.71C23.1606 32.0222 22.9727 32.3204 22.7612 32.6016C22.4167 33.0578 21.1795 34.3305 21.1795 34.3305L20.8298 34.7616L20.7891 35.1396L21.073 35.2492C21.073 35.2492 21.215 35.3045 21.3309 35.364C21.4468 35.4235 21.7485 35.4778 21.8414 35.4079C21.9343 35.3379 22.1546 34.771 22.1546 34.771L22.2381 34.3336C22.2381 34.3336 23.7081 33.18 24.0442 32.8302C24.3804 32.4805 24.6706 32.1663 24.7688 31.9637C24.8669 31.7612 24.7865 31.14 24.7865 31.14L23.4659 31.1599Z" fill="white" stroke="#263238" stroke-width="0.1044" stroke-linecap="round" stroke-linejoin="round"/>
<path d="M23.4288 28.4914L23.1709 31.2642C23.4164 31.3525 23.6675 31.4244 23.9226 31.4793C24.335 31.567 25.1963 31.3394 25.1963 31.3394C25.1963 31.3394 25.0637 29.0311 24.8914 28.1865C24.7191 27.3419 24.2389 26.7103 23.9299 26.6049" fill="#92E3A9"/>
<path d="M23.4288 28.4914L23.1709 31.2642C23.4164 31.3525 23.6675 31.4244 23.9226 31.4793C24.335 31.567 25.1963 31.3394 25.1963 31.3394C25.1963 31.3394 25.0637 29.0311 24.8914 28.1865C24.7191 27.3419 24.2389 26.7103 23.9299 26.6049" stroke="#263238" stroke-width="0.1044" stroke-linecap="round" stroke-linejoin="round"/>
<path d="M56.4951 45.4325H75.3915" stroke="#263238" stroke-width="0.1044" stroke-linecap="round" stroke-linejoin="round"/>
<path d="M54.1982 45.4325H55.5554" stroke="#263238" stroke-width="0.1044" stroke-linecap="round" stroke-linejoin="round"/>
<path d="M20.0596 45.4325H53.0499" stroke="#263238" stroke-width="0.1044" stroke-linecap="round" stroke-linejoin="round"/>
<path d="M4.29492 45.4324H19.1197" stroke="#263238" stroke-width="0.1044" stroke-linecap="round" stroke-linejoin="round"/>
</svg>
