<svg width="80" height="79" viewBox="0 0 80 79" fill="none" xmlns="http://www.w3.org/2000/svg">
<g clip-path="url(#clip0_92_3214)">
<path d="M79.1299 60.2239H0.830078V60.263H79.1299V60.2239Z" fill="#EBEBEB"/>
<path d="M14.2315 61.7147H9.04492V61.7539H14.2315V61.7147Z" fill="#EBEBEB"/>
<path d="M28.9911 61.2903H24.8584V61.3294H28.9911V61.2903Z" fill="#EBEBEB"/>
<path d="M22.11 62.6385H14.9189V62.6777H22.11V62.6385Z" fill="#EBEBEB"/>
<path d="M71.2839 62.9064H67.9014V62.9455H71.2839V62.9064Z" fill="#EBEBEB"/>
<path d="M67.1403 62.9064H62.1338V62.9455H67.1403V62.9064Z" fill="#EBEBEB"/>
<path d="M52.873 62.2456H44.2412V62.2848H52.873V62.2456Z" fill="#EBEBEB"/>
<path d="M37.9439 53.2395H7.70609C7.46921 53.2391 7.24218 53.1447 7.07482 52.977C6.90747 52.8094 6.81348 52.5822 6.81348 52.3453V9.83948C6.81554 9.60396 6.91044 9.37876 7.07757 9.2128C7.2447 9.04684 7.47056 8.95353 7.70609 8.95312H37.9439C38.1811 8.95313 38.4085 9.04733 38.5762 9.21503C38.7439 9.38272 38.8381 9.61016 38.8381 9.84731V52.3453C38.8381 52.5824 38.7439 52.8099 38.5762 52.9776C38.4085 53.1453 38.1811 53.2395 37.9439 53.2395ZM7.70609 8.98445C7.4796 8.98486 7.26252 9.07513 7.10251 9.23543C6.94249 9.39574 6.85263 9.61298 6.85263 9.83948V52.3453C6.85263 52.5718 6.94249 52.789 7.10251 52.9493C7.26252 53.1096 7.4796 53.1999 7.70609 53.2003H37.9439C38.1705 53.1999 38.3878 53.1097 38.548 52.9494C38.7083 52.7892 38.7985 52.5719 38.7989 52.3453V9.83948C38.7985 9.61284 38.7083 9.3956 38.548 9.23534C38.3878 9.07508 38.1705 8.98486 37.9439 8.98445H7.70609Z" fill="#EBEBEB"/>
<path d="M71.8181 53.2395H41.5788C41.3417 53.2391 41.1145 53.1447 40.9469 52.9771C40.7793 52.8095 40.685 52.5823 40.6846 52.3453V9.83948C40.687 9.60381 40.7823 9.37862 40.9497 9.2127C41.1171 9.04679 41.3431 8.95352 41.5788 8.95312H71.8181C72.0534 8.95394 72.2788 9.04744 72.4456 9.21335C72.6124 9.37926 72.7071 9.60423 72.7092 9.83948V52.3453C72.7092 52.5819 72.6154 52.8089 72.4484 52.9765C72.2814 53.1441 72.0547 53.2386 71.8181 53.2395ZM41.5788 8.98445C41.3521 8.98486 41.1349 9.07508 40.9746 9.23534C40.8143 9.3956 40.7241 9.61284 40.7237 9.83948V52.3453C40.7241 52.5719 40.8143 52.7892 40.9746 52.9494C41.1349 53.1097 41.3521 53.1999 41.5788 53.2003H71.8181C72.0448 53.1999 72.262 53.1097 72.4223 52.9494C72.5825 52.7892 72.6727 52.5719 72.6732 52.3453V9.83948C72.6727 9.61284 72.5825 9.3956 72.4223 9.23534C72.262 9.07508 72.0448 8.98486 71.8181 8.98445H41.5788Z" fill="#EBEBEB"/>
<path d="M14.3356 35.2603L65.4873 35.2603V13.0717L14.3356 13.0717V35.2603Z" fill="#E6E6E6"/>
<path d="M13.6302 35.2603L65.1797 35.2603V13.0717L13.6302 13.0717V35.2603Z" fill="#F5F5F5"/>
<path d="M63.9141 33.981V14.3512L14.8937 14.3512V33.981H63.9141Z" fill="#FAFAFA"/>
<path d="M35.7376 33.981L30.147 14.3528H26.2461L31.8367 33.981H35.7376Z" fill="white"/>
<path d="M30.7294 33.981L25.1404 14.3528H22.4531L28.0437 33.981H30.7294Z" fill="white"/>
<path d="M59.2073 33.981L53.6183 14.3528H49.7158L55.3064 33.981H59.2073Z" fill="white"/>
<path d="M54.2001 33.981L48.6095 14.3528H45.9238L51.5129 33.981H54.2001Z" fill="white"/>
<path d="M25.7305 33.9809V14.3512H24.2208V33.9809H25.7305Z" fill="#E6E6E6"/>
<path d="M55.5996 33.9825V14.3528H54.09V33.9825H55.5996Z" fill="#E6E6E6"/>
<path d="M25.458 34.7936V13.4005H23.5506V34.7936H25.458Z" fill="#F5F5F5"/>
<path d="M55.3281 34.7936V13.4005H53.4207V34.7936H55.3281Z" fill="#F5F5F5"/>
<path d="M15.0283 33.9825L15.0283 14.3528H14.8936L14.8936 33.9825H15.0283Z" fill="#E6E6E6"/>
<path d="M13.098 11.4274H66.8618C66.9033 11.4274 66.9431 11.4439 66.9725 11.4732C67.0019 11.5026 67.0184 11.5424 67.0184 11.584C67.0184 11.6255 67.0019 11.6653 66.9725 11.6947C66.9431 11.7241 66.9033 11.7406 66.8618 11.7406H13.098C13.0565 11.7406 13.0166 11.7241 12.9873 11.6947C12.9579 11.6653 12.9414 11.6255 12.9414 11.584C12.9414 11.5424 12.9579 11.5026 12.9873 11.4732C13.0166 11.4439 13.0565 11.4274 13.098 11.4274Z" fill="#E6E6E6"/>
<path d="M65.4849 12.5033C65.5432 12.5034 65.5991 12.4803 65.6404 12.4392C65.6818 12.3982 65.7053 12.3424 65.7057 12.2841V11.8143C65.7057 11.7557 65.6824 11.6996 65.641 11.6582C65.5996 11.6168 65.5434 11.5935 65.4849 11.5935C65.4266 11.5939 65.3708 11.6174 65.3297 11.6587C65.2887 11.7001 65.2656 11.756 65.2656 11.8143V12.2841C65.2656 12.3423 65.2887 12.398 65.3298 12.4391C65.371 12.4803 65.4267 12.5033 65.4849 12.5033Z" fill="#E6E6E6"/>
<path d="M15.5581 12.5033C15.6164 12.5034 15.6723 12.4803 15.7137 12.4392C15.7551 12.3982 15.7785 12.3424 15.7789 12.2841V11.8143C15.7789 11.7557 15.7556 11.6996 15.7142 11.6582C15.6728 11.6168 15.6167 11.5935 15.5581 11.5935C15.4998 11.5939 15.4441 11.6174 15.403 11.6587C15.3619 11.7001 15.3389 11.756 15.3389 11.8143V12.2841C15.3389 12.3423 15.362 12.398 15.4031 12.4391C15.4442 12.4803 15.5 12.5033 15.5581 12.5033Z" fill="#E6E6E6"/>
<path opacity="0.6" d="M13.1492 17.1403L64.6768 17.1403V11.5904L13.1492 11.5904V17.1403Z" fill="#E0E0E0"/>
<path d="M31.3291 52.2842C31.885 52.0963 32.2875 51.5607 31.9351 51.011C31.351 50.1027 32.8121 49.9148 32.4049 48.3911C31.8271 46.2457 30.0309 48.1045 29.5861 46.0421C29.262 44.5435 26.7454 43.5616 26.6467 45.5347C26.5387 47.6942 25.4566 46.2833 25.2154 48.6855C25.0494 50.3455 27.4078 50.5866 26.7078 51.1065C26.1926 51.4855 25.8872 52.1464 26.606 52.5989C27.5863 53.2144 26.6608 53.6951 27.328 54.1242C27.9951 54.5533 28.1016 53.869 29.1351 54.2025C30.0591 54.5001 30.842 53.5871 30.6588 53.0155C30.4819 52.4878 30.7716 52.4737 31.3291 52.2842Z" fill="#E6E6E6"/>
<path d="M25.9873 53.2709C25.9873 53.2709 26.0625 60.2239 28.9768 60.2239C31.8911 60.2239 31.9663 53.2709 31.9663 53.2709H25.9873Z" fill="#F0F0F0"/>
<path d="M23.2144 52.2842C23.7688 52.0963 24.1728 51.5607 23.8189 51.011C23.2348 50.1027 24.6974 49.9148 24.2887 48.3911C23.7093 46.2457 21.9131 48.1045 21.4699 46.0421C21.1457 44.5435 18.6292 43.5616 18.5305 45.5347C18.4225 47.6942 17.3404 46.2833 17.0992 48.6855C16.9332 50.3455 19.2916 50.5866 18.5916 51.1065C18.0764 51.4855 17.771 52.1464 18.4914 52.5989C19.4701 53.2144 18.5462 53.6951 19.2117 54.1242C19.8773 54.5533 19.9853 53.869 21.0189 54.2025C21.9444 54.5001 22.7274 53.5871 22.5426 53.0155C22.3657 52.4878 22.6554 52.4737 23.2144 52.2842Z" fill="#E6E6E6"/>
<path d="M17.8711 53.2709C17.8711 53.2709 17.9478 60.2239 20.8606 60.2239C23.7733 60.2239 23.8501 53.2709 23.8501 53.2709H17.8711Z" fill="#F0F0F0"/>
<path d="M48.6942 45.5786C49.1139 40.9323 49.4068 33.3904 49.1797 30.8676C49.1761 30.825 49.1639 30.7835 49.1437 30.7458C49.1235 30.7081 49.0958 30.6749 49.0622 30.6484C49.0172 30.6129 48.9627 30.5915 48.9056 30.5869C48.8484 30.5823 48.7912 30.5946 48.741 30.6224C48.6909 30.6501 48.65 30.692 48.6236 30.7429C48.5972 30.7938 48.5863 30.8513 48.5924 30.9083C48.6332 32.1611 48.6786 35.2821 48.4358 40.6723C48.3121 43.3548 48.1336 45.1918 48.2558 45.5786H48.6942Z" fill="#F0F0F0"/>
<path d="M49.9877 35.9571C50.9931 34.7043 53.0446 33.8023 55.1352 33.807C55.9557 33.807 52.6374 35.2712 51.2578 36.8858C50.1866 38.1386 48.9777 40.2495 48.5674 41.4193C48.832 38.956 48.9839 37.2162 49.9877 35.9571Z" fill="#F0F0F0"/>
<path d="M47.8881 35.9446C46.8953 34.5603 44.5995 33.4954 42.1174 33.3748C41.1418 33.3279 44.8517 35.0645 46.2344 36.8451C47.3103 38.2279 48.4127 40.5205 48.715 41.7764C48.7886 39.1768 48.8825 37.329 47.8881 35.9446Z" fill="#F0F0F0"/>
<path d="M49.9877 37.9789C50.9931 36.7261 53.0446 35.8241 55.1352 35.8288C55.9557 35.8288 52.6374 37.293 51.2578 38.9075C50.1866 40.1603 48.9777 42.2713 48.5674 43.4489C48.832 40.9777 48.9839 39.2379 49.9877 37.9789Z" fill="#F0F0F0"/>
<path d="M47.8881 38.0806C46.8953 36.6963 44.5995 35.6314 42.1174 35.5108C41.1418 35.4638 44.8517 37.2005 46.2344 38.9811C47.3103 40.3654 48.4127 42.6565 48.715 43.9124C48.7886 41.3034 48.8825 39.4634 47.8881 38.0806Z" fill="#F0F0F0"/>
<path d="M49.8076 31.2012C50.4654 30.2616 51.8732 29.535 53.3436 29.4364C53.9215 29.3972 51.6445 30.5889 50.7363 31.7854C50.03 32.725 49.2611 34.2628 49.0137 35.1068C49.1092 33.367 49.1483 32.1299 49.8076 31.2012Z" fill="#F0F0F0"/>
<path d="M48.4988 31.596C47.7988 30.6204 46.1811 29.8734 44.4272 29.7857C43.7397 29.7528 46.3534 30.9774 47.329 32.2318C48.0869 33.2058 48.8637 34.8219 49.0766 35.7067C49.133 33.8698 49.2004 32.5716 48.4988 31.596Z" fill="#F0F0F0"/>
<path d="M50.0338 32.4149C50.8841 31.3484 52.6208 30.5905 54.3919 30.5936C55.0872 30.5936 52.2778 31.8339 51.1033 33.201C50.1951 34.2628 49.1725 36.0496 48.8232 37.0408C49.0628 34.9487 49.1834 33.4798 50.0338 32.4149Z" fill="#F0F0F0"/>
<path d="M48.3057 32.9818C47.4632 31.8167 45.5198 30.9084 43.4245 30.8066C42.5993 30.7659 45.7391 32.2379 46.9104 33.7444C47.8093 34.9158 48.7489 36.8561 49.0057 37.9241C49.0621 35.7129 49.1467 34.1547 48.3057 32.9818Z" fill="#F0F0F0"/>
<path d="M50.0904 33.8932C51.0081 32.7438 52.8826 31.9248 54.7884 31.9295C55.5385 31.9295 52.5083 33.2668 51.2477 34.7483C50.2689 35.8946 49.1649 37.8207 48.7891 38.8903C49.0349 36.6337 49.1727 35.0427 50.0904 33.8932Z" fill="#F0F0F0"/>
<path d="M48.1733 34.5227C47.2337 33.2214 45.082 32.2207 42.7471 32.108C41.831 32.0626 45.3169 33.6959 46.6183 35.37C47.6299 36.6713 48.6666 38.8261 48.9516 40.0069C49.019 37.5545 49.1082 35.8257 48.1733 34.5227Z" fill="#F0F0F0"/>
<path d="M45.87 44.7942L46.0266 46.0987C46.035 46.2397 46.0969 46.3721 46.1996 46.469C46.3023 46.5659 46.4382 46.62 46.5794 46.6201H50.4725C50.6137 46.62 50.7496 46.5659 50.8523 46.469C50.955 46.3721 51.0169 46.2397 51.0253 46.0987L51.1819 44.7942C51.1862 44.719 51.175 44.6437 51.1492 44.573C51.1233 44.5023 51.0832 44.4376 51.0315 44.3829C50.9797 44.3282 50.9173 44.2847 50.8481 44.2549C50.7789 44.2252 50.7044 44.21 50.6291 44.2101H46.4228C46.3475 44.21 46.273 44.2252 46.2038 44.2549C46.1346 44.2847 46.0722 44.3282 46.0204 44.3829C45.9687 44.4376 45.9286 44.5023 45.9028 44.573C45.8769 44.6437 45.8658 44.719 45.87 44.7942Z" fill="#E6E6E6"/>
<path d="M45.6377 45.0698H51.4115C51.4524 45.0697 51.4918 45.0547 51.5224 45.0276C51.5529 45.0005 51.5726 44.9631 51.5775 44.9226L51.7153 43.6792C51.7177 43.6559 51.7152 43.6324 51.708 43.6101C51.7008 43.5879 51.6889 43.5674 51.6733 43.55C51.6577 43.5326 51.6386 43.5186 51.6172 43.509C51.5959 43.4995 51.5727 43.4945 51.5493 43.4944H45.4999C45.4765 43.4945 45.4534 43.4995 45.432 43.509C45.4107 43.5186 45.3916 43.5326 45.3759 43.55C45.3603 43.5674 45.3485 43.5879 45.3412 43.6101C45.334 43.6324 45.3315 43.6559 45.3339 43.6792L45.4717 44.9226C45.4767 44.9631 45.4963 45.0005 45.5268 45.0276C45.5574 45.0547 45.5968 45.0697 45.6377 45.0698Z" fill="#F5F5F5"/>
<path d="M36.9952 60.2239H39.5039V46.6201H36.9952V60.2239Z" fill="#E6E6E6"/>
<path d="M37.7468 60.2239H36.9951V57.6196H38.5345L37.7468 60.2239Z" fill="#F0F0F0"/>
<path d="M68.2481 60.2239H70.7568V46.6201H68.2481V60.2239Z" fill="#E6E6E6"/>
<path d="M36.995 58.6265L68.9053 58.6265V46.62H36.995V58.6265Z" fill="#F0F0F0"/>
<path d="M68.152 60.2239H68.9036V57.6196H67.3643L68.152 60.2239Z" fill="#F0F0F0"/>
<path d="M37.5777 52.2701L68.3213 52.2701V47.4657H37.5777V52.2701Z" fill="#E6E6E6"/>
<path d="M42.0832 48.9581H63.3134C64.0463 48.9581 64.7479 48.3646 65.2537 47.3185H40.1445C40.6488 48.3646 41.3503 48.9581 42.0832 48.9581Z" fill="#F0F0F0"/>
<path d="M37.5777 57.8499L68.3213 57.8499V53.0454H37.5777V57.8499Z" fill="#E6E6E6"/>
<path d="M42.0832 54.5377H63.3134C64.0463 54.5377 64.7479 53.9457 65.2537 52.8997H40.1445C40.6488 53.9457 41.3503 54.5377 42.0832 54.5377Z" fill="#F0F0F0"/>
<path d="M68.5188 43.4316C68.5188 43.4316 68.381 46.62 63.1224 46.62C57.8638 46.62 57.7275 43.4316 57.7275 43.4316H68.5188Z" fill="#F5F5F5"/>
<path d="M68.5188 41.7764C68.5188 41.7764 68.381 44.971 63.1224 44.971C57.8638 44.971 57.7275 41.7826 57.7275 41.7826L68.5188 41.7764Z" fill="#F5F5F5"/>
<path d="M39.9803 67.2958C56.7493 67.2958 70.3434 66.5021 70.3434 65.5231C70.3434 64.544 56.7493 63.7504 39.9803 63.7504C23.2112 63.7504 9.61719 64.544 9.61719 65.5231C9.61719 66.5021 23.2112 67.2958 39.9803 67.2958Z" fill="#F5F5F5"/>
<path d="M58.4437 21.5393C57.5041 22.0529 57.1909 23.5751 57.6309 24.2375C56.0023 24.7261 56.8479 27.5261 59.5101 27.6827C62.1723 27.8393 64.1987 26.8668 62.8911 24.7903C64.1846 23.0473 63.5895 21.1008 62.4557 21.3154C61.239 18.8771 57.1642 18.9491 58.4437 21.5393Z" fill="#263238"/>
<path d="M61.2779 27.8706C60.8672 27.8693 60.4646 27.7567 60.1128 27.5448C60.1071 27.5428 60.102 27.5395 60.0978 27.5353C60.0936 27.5311 60.0904 27.5259 60.0883 27.5203C60.0863 27.5147 60.0856 27.5087 60.0861 27.5027C60.0867 27.4968 60.0886 27.491 60.0916 27.4859C60.0946 27.4807 60.0988 27.4763 60.1037 27.4729C60.1087 27.4695 60.1143 27.4673 60.1202 27.4664C60.1261 27.4654 60.1322 27.4658 60.1379 27.4674C60.1437 27.4691 60.149 27.472 60.1535 27.4759C60.6072 27.7475 61.1433 27.8472 61.6643 27.757C62.1853 27.6668 62.6567 27.3925 62.9926 26.9842C63.4201 26.4549 63.619 25.6061 62.872 24.8137C62.8684 24.8099 62.8656 24.8055 62.8638 24.8006C62.8619 24.7957 62.861 24.7905 62.8612 24.7852C62.8613 24.78 62.8625 24.7748 62.8646 24.7701C62.8668 24.7653 62.8698 24.761 62.8736 24.7574C62.8774 24.7538 62.8819 24.751 62.8868 24.7491C62.8917 24.7472 62.8969 24.7463 62.9021 24.7465C62.9074 24.7466 62.9125 24.7478 62.9173 24.7499C62.9221 24.7521 62.9264 24.7551 62.93 24.7589C63.7036 25.5889 63.5016 26.4815 63.0537 27.0343C62.8368 27.295 62.5654 27.505 62.2585 27.6494C61.9517 27.7939 61.617 27.8694 61.2779 27.8706Z" fill="#263238"/>
<path d="M57.3357 24.7575C57.3277 24.7572 57.3199 24.7546 57.3135 24.7498C57.307 24.7451 57.3022 24.7384 57.2997 24.7308C56.8831 23.5376 57.4406 21.9355 58.4256 21.4971C58.4352 21.4937 58.4458 21.4938 58.4553 21.4976C58.4648 21.5013 58.4726 21.5084 58.4773 21.5174C58.4794 21.5222 58.4805 21.5272 58.4806 21.5324C58.4807 21.5376 58.4797 21.5427 58.4779 21.5475C58.476 21.5523 58.4731 21.5567 58.4695 21.5604C58.466 21.5641 58.4617 21.5671 58.4569 21.5691C57.5048 21.9919 56.9677 23.5454 57.3733 24.7011C57.375 24.706 57.3757 24.7113 57.3753 24.7165C57.375 24.7217 57.3736 24.7268 57.3713 24.7314C57.3689 24.7361 57.3657 24.7403 57.3617 24.7436C57.3578 24.747 57.3532 24.7496 57.3482 24.7512L57.3357 24.7575Z" fill="#263238"/>
<path d="M57.0805 23.0332H57.0664C57.0569 23.0293 57.0492 23.022 57.0449 23.0127C57.0405 23.0034 57.0398 22.9929 57.0429 22.9831C57.3248 22.2361 57.8573 21.6676 58.4304 21.4985C58.4404 21.4956 58.4511 21.4968 58.4602 21.5018C58.4693 21.5068 58.4761 21.5152 58.479 21.5251C58.4819 21.5351 58.4807 21.5458 58.4757 21.5549C58.4707 21.564 58.4623 21.5708 58.4523 21.5737C57.9027 21.7303 57.3906 22.2862 57.1165 23.0113C57.1133 23.018 57.1081 23.0236 57.1017 23.0275C57.0954 23.0314 57.088 23.0334 57.0805 23.0332Z" fill="#263238"/>
<path d="M59.2729 64.6887L58.3677 64.6903L58.2158 61.2905L59.7395 61.3281L59.2729 64.6887Z" fill="#FFB573"/>
<path d="M57.6987 35.3514C57.6987 35.3514 57.6188 44.7865 57.4199 48.8941C57.4121 49.0162 57.4121 49.1386 57.4199 49.2606C57.7175 53.3776 58.2108 61.2906 58.2108 61.2906L59.7439 61.3297C59.7439 61.3297 61.0797 55.0109 60.2528 49.2872C61.5824 42.8134 62.298 37.0364 61.0938 35.3499L57.6987 35.3514Z" fill="#407BFF"/>
<path opacity="0.2" d="M60.2672 39.0988C59.7974 40.6741 60.2546 45.7386 60.4974 48.075C60.8278 46.3869 61.1097 44.763 61.3179 43.2659L60.2672 39.0988Z" fill="black"/>
<path d="M58.2662 64.2503H59.4423C59.467 64.2494 59.4912 64.258 59.5098 64.2743C59.5284 64.2906 59.5401 64.3134 59.5425 64.338L59.6615 65.3011C59.6621 65.3309 59.6568 65.3605 59.6458 65.3882C59.6349 65.416 59.6185 65.4412 59.5976 65.4625C59.5767 65.4838 59.5518 65.5007 59.5244 65.5122C59.4969 65.5238 59.4674 65.5297 59.4376 65.5297C58.9192 65.5297 58.6718 65.4921 58.0188 65.4937C57.6163 65.4937 57.3736 65.5344 56.8177 65.5344C56.2617 65.5344 56.2617 65.002 56.4951 64.9534C57.5427 64.7358 57.6774 64.6152 58.0423 64.327C58.1063 64.2773 58.1851 64.2503 58.2662 64.2503Z" fill="#263238"/>
<path d="M58.6528 28.4077C58.5948 28.7319 58.5291 29.0341 58.4586 29.3473C58.3881 29.6605 58.3161 29.9737 58.2331 30.2869C58.0687 30.9133 57.898 31.5272 57.6725 32.1473C57.5593 32.4679 57.4276 32.7816 57.2778 33.0869C57.1949 33.2563 57.0991 33.4191 56.9913 33.5739C56.9599 33.6162 56.9318 33.6569 56.891 33.7039C56.8521 33.7538 56.8086 33.7999 56.7611 33.8417C56.641 33.9552 56.4963 34.0393 56.3382 34.0876C56.1726 34.1377 55.9969 34.1447 55.8277 34.1079C55.6946 34.0771 55.5675 34.0242 55.4519 33.9513C55.2764 33.839 55.1208 33.6982 54.9915 33.5348C54.7694 33.2584 54.5923 32.9487 54.4669 32.6171C54.4393 32.5466 54.437 32.4688 54.4601 32.3967C54.4833 32.3247 54.5306 32.2628 54.5941 32.2216C54.6576 32.1804 54.7333 32.1623 54.8086 32.1705C54.8838 32.1786 54.954 32.2125 55.0071 32.2663L55.0259 32.2867C55.2203 32.492 55.4297 32.6825 55.6523 32.8567C55.7394 32.9232 55.836 32.976 55.9389 33.0133C55.9765 33.0227 56.0031 33.0227 56.0063 33.0133C56.0094 33.0039 55.9843 32.9976 55.9624 32.9992C55.9405 33.0008 55.9264 33.0086 55.9327 32.9992C55.94 32.9856 55.9484 32.9725 55.9577 32.9601C55.9733 32.9411 55.9869 32.9206 55.9984 32.899C56.064 32.7911 56.1216 32.6786 56.1707 32.5623C56.2847 32.294 56.3851 32.0201 56.4714 31.7417C56.6499 31.1686 56.8127 30.5719 56.9537 29.9721C57.0946 29.3724 57.234 28.7601 57.3593 28.1618C57.3979 27.9965 57.4991 27.8525 57.6416 27.7602C57.7842 27.6679 57.9569 27.6344 58.1236 27.6669C58.2903 27.6993 58.4379 27.7951 58.5355 27.9342C58.633 28.0732 58.6728 28.2446 58.6465 28.4124L58.6528 28.4077Z" fill="#FFB573"/>
<path d="M57.2295 34.0704C57.2295 34.4557 63.2335 34.5308 63.2335 34.0219L60.1657 33.2389L57.2295 34.0704Z" fill="#263238"/>
<path d="M58.3316 27.3976C59.9147 27.1328 61.5319 27.1487 63.1095 27.4446C63.202 27.4592 63.2906 27.4927 63.3697 27.5429C63.4488 27.5931 63.5168 27.6589 63.5694 27.7364C63.6221 27.8139 63.6584 27.9013 63.6759 27.9933C63.6935 28.0853 63.6921 28.18 63.6717 28.2714C62.8229 32.0721 62.8714 33.35 62.9529 35.3513H57.7005C57.4374 32.0126 57.2981 30.1068 57.2636 29.0247C57.2354 28.1994 57.5189 27.5182 58.3316 27.3976Z" fill="#FFB573"/>
<path opacity="0.2" d="M63.0939 28.5017C63.0608 29.0322 63.131 29.564 63.3006 30.0677C63.3679 29.706 63.4462 29.3176 63.5355 28.8932L63.0939 28.5017Z" fill="black"/>
<path d="M61.3858 24.6228C61.2292 25.3823 61.0867 26.7776 61.6191 27.285C61.6191 27.285 61.4108 28.057 59.9983 28.057C58.4433 28.057 59.2545 27.285 59.2545 27.285C60.1032 27.0814 60.0813 26.4519 59.9341 25.8615L61.3858 24.6228Z" fill="#FFB573"/>
<path opacity="0.2" d="M60.7933 25.1287L59.9336 25.8662C59.9701 26.0038 59.9947 26.1442 60.0072 26.2859C60.3314 26.239 60.7761 25.8835 60.8105 25.5437C60.8298 25.4054 60.824 25.2648 60.7933 25.1287Z" fill="black"/>
<path d="M62.2056 23.3042C61.9143 24.5429 61.8188 25.0737 61.0765 25.6077C59.9615 26.4127 58.502 25.7863 58.4143 24.4849C58.336 23.3151 58.823 21.4845 60.1369 21.1963C60.4255 21.1313 60.7259 21.141 61.0097 21.2246C61.2934 21.3082 61.5511 21.4629 61.7584 21.674C61.9656 21.8852 62.1154 22.1457 62.1937 22.431C62.2719 22.7163 62.276 23.0169 62.2056 23.3042Z" fill="#FFB573"/>
<path d="M61.7337 21.4406C60.4214 21.5862 60.8207 24.0323 61.8073 24.2687C62.963 23.7034 63.6755 21.5564 61.7337 21.4406Z" fill="#263238"/>
<path d="M68.1567 62.4494L67.25 62.725L65.9268 59.9532L67.3221 59.5726L68.1567 62.4494Z" fill="#FFB573"/>
<path d="M66.9887 62.4477L68.1538 61.9967C68.1742 61.9888 68.1967 61.9884 68.2173 61.9956C68.238 62.0028 68.2554 62.017 68.2665 62.0358L68.788 62.9159C68.8005 62.9378 68.8082 62.9622 68.8104 62.9874C68.8126 63.0125 68.8094 63.0379 68.8009 63.0617C68.7924 63.0855 68.7789 63.1071 68.7613 63.1252C68.7436 63.1433 68.7223 63.1574 68.6987 63.1665C68.29 63.3231 68.0927 63.4029 67.5806 63.6018C67.2674 63.724 66.7757 64.1311 66.3404 64.2987C65.905 64.4662 65.714 64.0685 65.8706 63.9307C66.2948 63.5604 66.629 63.0982 66.8477 62.5792C66.861 62.5488 66.8803 62.5215 66.9046 62.4989C66.9288 62.4762 66.9574 62.4588 66.9887 62.4477Z" fill="#263238"/>
<path d="M59.1416 35.3514C59.1416 35.3514 61.0725 45.2281 61.8038 49.1321C62.5602 53.2037 65.9302 59.9469 65.9302 59.9469L67.3286 59.5648C67.3286 59.5648 65.4134 52.3518 64.5208 48.7766C64.3454 42.3028 64.5521 37.0317 62.9548 35.3451L59.1416 35.3514Z" fill="#407BFF"/>
<path d="M60.1516 23.2963C60.1344 23.3981 60.067 23.4717 59.995 23.4529C59.923 23.4341 59.8885 23.3496 59.9057 23.2478C59.923 23.146 59.9919 23.0724 60.0623 23.0834C60.1328 23.0943 60.1704 23.1945 60.1516 23.2963Z" fill="#263238"/>
<path d="M59.0001 23.1006C58.9829 23.2024 58.914 23.276 58.8435 23.2572C58.7731 23.2384 58.737 23.1554 58.7543 23.052C58.7715 22.9487 58.8404 22.8766 58.9109 22.8954C58.9813 22.9142 59.0173 22.9988 59.0001 23.1006Z" fill="#263238"/>
<path d="M58.9394 22.9063L58.7061 22.7936C58.7061 22.7936 58.8 23.0066 58.9394 22.9063Z" fill="#263238"/>
<path d="M59.3233 23.3448C59.194 23.5614 59.036 23.7595 58.8535 23.9337C58.8992 23.9793 58.9541 24.0146 59.0147 24.037C59.0752 24.0595 59.1399 24.0685 59.2043 24.0636L59.3233 23.3448Z" fill="#ED893E"/>
<path d="M59.6899 24.557C59.6374 24.557 59.585 24.5523 59.5333 24.5429C59.5294 24.5423 59.5256 24.5409 59.5222 24.5389C59.5188 24.5368 59.5158 24.5341 59.5135 24.5309C59.5112 24.5277 59.5095 24.5241 59.5086 24.5202C59.5077 24.5163 59.5076 24.5123 59.5082 24.5084C59.5098 24.5007 59.5142 24.4938 59.5205 24.4891C59.5269 24.4845 59.5348 24.4824 59.5427 24.4834C59.6691 24.5074 59.7994 24.5016 59.9231 24.4662C60.0469 24.4309 60.1606 24.367 60.2552 24.2798C60.258 24.2767 60.2614 24.2743 60.2652 24.2727C60.2689 24.271 60.273 24.2701 60.2771 24.2701C60.2813 24.2701 60.2853 24.271 60.2891 24.2727C60.2929 24.2743 60.2963 24.2767 60.2991 24.2798C60.3043 24.2856 60.3073 24.2931 60.3073 24.3009C60.3073 24.3087 60.3043 24.3163 60.2991 24.3221C60.1351 24.4779 59.916 24.5623 59.6899 24.557Z" fill="#263238"/>
<path d="M62.3846 24.3723C62.2598 24.5843 62.0568 24.7389 61.8193 24.8029C61.5061 24.8828 61.3495 24.5993 61.4466 24.3049C61.5296 24.0403 61.7958 23.6785 62.1105 23.7271C62.1789 23.7396 62.2431 23.7688 62.2973 23.8123C62.3516 23.8557 62.3942 23.9119 62.4214 23.9758C62.4485 24.0398 62.4594 24.1095 62.453 24.1787C62.4466 24.2479 62.4231 24.3144 62.3846 24.3723Z" fill="#FFB573"/>
<path d="M60.651 23.1398C60.6383 23.1397 60.626 23.1355 60.6159 23.1279C60.6057 23.1203 60.5983 23.1096 60.5946 23.0975C60.5116 22.8297 60.1687 22.7138 60.1656 22.7138C60.1578 22.7115 60.1507 22.7077 60.1445 22.7025C60.1383 22.6974 60.1332 22.691 60.1295 22.6839C60.1259 22.6767 60.1237 22.6688 60.1232 22.6608C60.1226 22.6528 60.1237 22.6447 60.1264 22.6371C60.1287 22.6294 60.1325 22.6222 60.1377 22.616C60.1429 22.6098 60.1492 22.6048 60.1564 22.6011C60.1636 22.5974 60.1714 22.5953 60.1794 22.5947C60.1875 22.5942 60.1955 22.5953 60.2031 22.598C60.2188 22.598 60.6087 22.7342 60.7105 23.0678C60.7129 23.0755 60.7138 23.0836 60.713 23.0916C60.7123 23.0997 60.71 23.1075 60.7062 23.1146C60.7024 23.1218 60.6972 23.1281 60.691 23.1332C60.6847 23.1383 60.6775 23.1422 60.6698 23.1445L60.651 23.1398Z" fill="#263238"/>
<path d="M58.744 22.5086C58.7335 22.5085 58.7233 22.5057 58.7143 22.5005C58.7052 22.4952 58.6976 22.4878 58.6923 22.4788C58.6844 22.4647 58.6825 22.448 58.6869 22.4325C58.6913 22.4169 58.7017 22.4038 58.7158 22.3958C58.7983 22.346 58.8915 22.3165 58.9876 22.31C59.0838 22.3034 59.1801 22.32 59.2686 22.3583C59.2828 22.3656 59.2936 22.3783 59.2986 22.3935C59.3035 22.4088 59.3023 22.4253 59.2952 22.4397C59.2878 22.4539 59.2752 22.4647 59.2599 22.4697C59.2447 22.4747 59.2281 22.4734 59.2138 22.4663C59.1431 22.4374 59.0666 22.4254 58.9904 22.4314C58.9143 22.4374 58.8406 22.4611 58.7753 22.5008C58.7659 22.5065 58.755 22.5092 58.744 22.5086Z" fill="#263238"/>
<path d="M63.539 27.6624C63.9853 28.2465 64.3909 28.8369 64.7762 29.4602C64.9672 29.7734 65.1551 30.0866 65.3274 30.4201C65.5145 30.7658 65.6692 31.128 65.7894 31.5022C65.8066 31.5523 65.8191 31.6103 65.8332 31.6588L65.8442 31.7042L65.8583 31.77C65.8646 31.811 65.8688 31.8523 65.8708 31.8937C65.878 32.0296 65.868 32.1659 65.8411 32.2993C65.7965 32.5109 65.7298 32.7171 65.6422 32.9148C65.4877 33.2639 65.3055 33.6001 65.0972 33.9201C64.7007 34.5351 64.2551 35.117 63.7645 35.66C63.7108 35.7201 63.6366 35.7582 63.5564 35.7668C63.4762 35.7754 63.3957 35.754 63.3304 35.7066C63.2651 35.6592 63.2197 35.5893 63.203 35.5104C63.1863 35.4315 63.1994 35.3492 63.2399 35.2794V35.2716C63.586 34.6687 63.929 34.0485 64.2249 33.4347C64.3701 33.1387 64.4962 32.8338 64.6024 32.5217C64.6481 32.3892 64.6796 32.2522 64.6963 32.113C64.7021 32.0719 64.7021 32.0303 64.6963 31.9893V31.9799V31.9611C64.6853 31.9298 64.6775 31.9016 64.6634 31.8687C64.5415 31.5751 64.3981 31.2909 64.2343 31.0183C64.0621 30.7286 63.8789 30.4389 63.6909 30.1492C63.3088 29.5761 62.9079 28.9998 62.5008 28.4423C62.4032 28.3024 62.364 28.13 62.3913 27.9617C62.4187 27.7934 62.5105 27.6423 62.6473 27.5405C62.7841 27.4387 62.9552 27.3942 63.1243 27.4163C63.2934 27.4385 63.4472 27.5256 63.5531 27.6593L63.539 27.6624Z" fill="#FFB573"/>
<path d="M60.0917 23.1021L59.8584 22.9894C59.8584 22.9894 59.9508 23.2039 60.0917 23.1021Z" fill="#263238"/>
<path d="M57.4108 28.6505C57.5076 28.2554 57.6321 27.8676 57.7835 27.4901C58.0238 27.4183 58.2694 27.3659 58.518 27.3335C59.0245 27.7823 59.4411 28.3233 59.7457 28.9276C60.4175 28.248 61.7032 27.5605 62.4862 27.31C62.7511 27.2933 63.0168 27.3267 63.2692 27.4086C62.7352 29.0936 62.1903 30.788 63.1565 31.2234C63.1392 32.0236 63.1847 33.0165 63.2254 34.0203C62.3124 33.92 58.6918 33.7462 57.2214 34.0688C57.1462 33.0509 57.1196 32.1896 57.1243 31.4458C56.4399 30.5735 57.1258 29.3865 57.4108 28.6505Z" fill="#263238"/>
<mask id="mask0_92_3214" style="mask-type:luminance" maskUnits="userSpaceOnUse" x="56" y="27" width="8" height="8">
<path d="M57.4108 28.6505C57.5076 28.2554 57.6321 27.8676 57.7835 27.4901C58.0238 27.4183 58.2694 27.3659 58.518 27.3335C59.0245 27.7823 59.4411 28.3233 59.7457 28.9276C60.4175 28.248 61.7032 27.5605 62.4862 27.31C62.7511 27.2933 63.0168 27.3267 63.2692 27.4086C62.7352 29.0936 62.1903 30.788 63.1565 31.2234C63.1392 32.0236 63.1847 33.0165 63.2254 34.0203C62.3124 33.92 58.6918 33.7462 57.2214 34.0688C57.1462 33.0509 57.1196 32.1896 57.1243 31.4458C56.4399 30.5735 57.1258 29.3865 57.4108 28.6505Z" fill="white"/>
</mask>
<g mask="url(#mask0_92_3214)">
<g opacity="0.2">
<path d="M58.8507 31.784C58.8426 31.785 58.8348 31.7881 58.8282 31.7931C58.8216 31.798 58.8164 31.8046 58.8132 31.8122C58.7021 32.1237 58.7055 32.4645 58.8226 32.7737C58.7145 32.6829 58.608 32.5936 58.5094 32.5028C58.5975 32.3142 58.6316 32.1049 58.6079 31.898C58.5841 31.6912 58.5034 31.4951 58.3747 31.3314C58.3697 31.325 58.3633 31.32 58.3559 31.3167C58.3485 31.3134 58.3404 31.312 58.3324 31.3126C58.3241 31.3133 58.3162 31.3163 58.3095 31.3213C58.3029 31.3263 58.2978 31.3331 58.2948 31.3408C58.1802 31.661 58.1874 32.0122 58.3152 32.3274C58.1742 32.199 58.0396 32.0706 57.9158 31.9469C58.0083 31.7573 58.0455 31.5456 58.023 31.3359C58.0006 31.1262 57.9195 30.9271 57.789 30.7614C57.7841 30.755 57.7776 30.7499 57.7702 30.7467C57.7629 30.7434 57.7548 30.742 57.7467 30.7426C57.7384 30.7433 57.7305 30.7463 57.7238 30.7513C57.7172 30.7562 57.7121 30.763 57.7091 30.7708C57.5953 31.0917 57.6025 31.4431 57.7295 31.759C57.5149 31.535 57.3364 31.3314 57.2033 31.1623C57.1555 30.973 57.0604 30.7988 56.9271 30.6561C56.7937 30.5135 56.6264 30.4069 56.4407 30.3464C56.4331 30.3451 56.4253 30.3456 56.418 30.3479C56.4107 30.3501 56.404 30.3541 56.3985 30.3594C56.393 30.3648 56.3888 30.3714 56.3864 30.3786C56.3839 30.3859 56.3832 30.3936 56.3843 30.4012C56.5252 31.095 57.0357 31.2156 57.1391 31.2328C57.2127 31.3252 57.2957 31.427 57.3959 31.5366C57.1505 31.4266 56.8774 31.3938 56.6129 31.4426C56.6049 31.4445 56.5976 31.4485 56.5918 31.4543C56.586 31.4602 56.5819 31.4675 56.58 31.4755C56.5777 31.4833 56.5773 31.4915 56.579 31.4994C56.5806 31.5073 56.5842 31.5147 56.5894 31.5209C56.7241 31.6744 56.8989 31.7873 57.0943 31.8468C57.2896 31.9063 57.4977 31.91 57.695 31.8576C57.7827 31.9484 57.8767 32.0408 57.9753 32.1364C57.6437 32.0415 57.2897 32.0625 56.9715 32.1959C56.964 32.1999 56.9577 32.2058 56.9533 32.2132C56.9489 32.2205 56.9466 32.2288 56.9466 32.2374C56.9466 32.2459 56.9489 32.2543 56.9533 32.2616C56.9577 32.2689 56.964 32.2749 56.9715 32.2789C57.1503 32.3902 57.3552 32.4527 57.5657 32.4601C57.7762 32.4675 57.9849 32.4196 58.1711 32.3211C58.3026 32.4449 58.442 32.5686 58.5861 32.6923C58.2652 32.5475 57.9022 32.5263 57.5666 32.6328C57.5588 32.6359 57.552 32.6411 57.5468 32.6476C57.5416 32.6542 57.5381 32.6621 57.5369 32.6704C57.5361 32.6785 57.5372 32.6867 57.5402 32.6944C57.5432 32.702 57.548 32.7088 57.5541 32.7142C57.7189 32.8477 57.9175 32.9331 58.1279 32.9607C58.3382 32.9883 58.5521 32.9572 58.7458 32.8708L58.7583 32.863C58.7633 32.8578 58.7665 32.8512 58.7677 32.8442L58.9447 32.9883C58.9502 32.9956 58.9578 33.0011 58.9666 33.0039C59.0606 33.0791 59.1561 33.1527 59.2532 33.2247C59.2617 33.232 59.2725 33.236 59.2837 33.236C59.2949 33.236 59.3058 33.232 59.3143 33.2247C59.3179 33.2197 59.3205 33.214 59.3219 33.208C59.3233 33.2019 59.3235 33.1957 59.3225 33.1896C59.3215 33.1834 59.3192 33.1776 59.316 33.1723C59.3127 33.1671 59.3084 33.1625 59.3033 33.159C59.2141 33.0916 59.1248 33.0243 59.0387 32.9538C59.12 32.7673 59.1493 32.5622 59.1234 32.3603C59.0974 32.1585 59.0173 31.9674 58.8915 31.8075C58.8873 31.8004 58.8814 31.7944 58.8742 31.7903C58.8671 31.7862 58.859 31.784 58.8507 31.784Z" fill="white"/>
<path d="M57.3063 29.3584C57.3145 29.3574 57.3223 29.3543 57.3289 29.3493C57.3355 29.3444 57.3407 29.3378 57.3439 29.3302C57.4549 29.0187 57.4516 28.6779 57.3345 28.3687C57.4426 28.4595 57.5491 28.5487 57.6477 28.6396C57.5595 28.8282 57.5254 29.0375 57.5492 29.2443C57.573 29.4511 57.6537 29.6473 57.7824 29.8109C57.7873 29.8173 57.7938 29.8224 57.8011 29.8257C57.8085 29.829 57.8166 29.8304 57.8247 29.8297C57.833 29.8291 57.8409 29.8261 57.8476 29.8211C57.8542 29.8161 57.8593 29.8093 57.8623 29.8015C57.9769 29.4813 57.9696 29.1302 57.8419 28.815C57.9828 28.9434 58.1175 29.0718 58.2412 29.1955C58.1487 29.385 58.1116 29.5968 58.134 29.8065C58.1565 30.0162 58.2376 30.2153 58.3681 30.381C58.373 30.3874 58.3794 30.3924 58.3868 30.3957C58.3942 30.399 58.4023 30.4004 58.4104 30.3998C58.4186 30.3991 58.4266 30.3961 58.4332 30.3911C58.4399 30.3861 58.445 30.3793 58.4479 30.3716C58.5618 30.0507 58.5546 29.6993 58.4276 29.3834C58.6421 29.6074 58.8206 29.8109 58.9538 29.9801C59.0016 30.1694 59.0966 30.3436 59.23 30.4862C59.3633 30.6289 59.5307 30.7355 59.7164 30.7959C59.7239 30.7973 59.7317 30.7968 59.739 30.7945C59.7464 30.7922 59.7531 30.7883 59.7586 30.7829C59.7641 30.7776 59.7682 30.771 59.7707 30.7637C59.7732 30.7565 59.7739 30.7487 59.7728 30.7411C59.6318 30.0474 59.1213 29.9268 59.018 29.9096C58.9444 29.8172 58.8614 29.7154 58.7611 29.6058C59.0065 29.7162 59.2798 29.7485 59.5441 29.6982C59.5521 29.6968 59.5595 29.6931 59.5653 29.6875C59.5712 29.682 59.5753 29.6748 59.577 29.6669C59.5794 29.6591 59.5797 29.6509 59.5781 29.643C59.5765 29.635 59.5728 29.6276 59.5676 29.6215C59.433 29.4679 59.2581 29.3551 59.0628 29.2956C58.8675 29.2361 58.6594 29.2323 58.462 29.2848C58.3743 29.1939 58.2804 29.1015 58.1817 29.006C58.5134 29.1008 58.8674 29.0799 59.1855 28.9465C59.1931 28.9425 59.1994 28.9365 59.2038 28.9292C59.2082 28.9219 59.2105 28.9135 59.2105 28.905C59.2105 28.8965 59.2082 28.8881 59.2038 28.8808C59.1994 28.8735 59.1931 28.8675 59.1855 28.8635C59.0067 28.7522 58.8019 28.6897 58.5914 28.6823C58.3809 28.6748 58.1722 28.7228 57.986 28.8212C57.8544 28.6975 57.715 28.5738 57.571 28.4501C57.8918 28.5949 58.2549 28.6161 58.5904 28.5096C58.5981 28.5062 58.6048 28.501 58.6099 28.4945C58.6151 28.4879 58.6186 28.4802 58.6202 28.472C58.621 28.4639 58.6199 28.4556 58.6169 28.448C58.6139 28.4404 58.6091 28.4336 58.603 28.4282C58.4381 28.2946 58.2395 28.2093 58.0292 28.1817C57.8189 28.154 57.605 28.1852 57.4112 28.2716L57.3987 28.2794C57.3938 28.2846 57.3905 28.2911 57.3893 28.2982L57.2124 28.1541C57.2069 28.1467 57.1992 28.1412 57.1904 28.1385C57.0965 28.0633 57.001 27.9897 56.9039 27.9177C56.8954 27.9104 56.8845 27.9064 56.8733 27.9064C56.8621 27.9064 56.8513 27.9104 56.8428 27.9177C56.8357 27.9278 56.8327 27.9402 56.8345 27.9524C56.8362 27.9646 56.8426 27.9757 56.8522 27.9834C56.943 28.0508 57.0323 28.1181 57.1184 28.1886C57.0371 28.3751 57.0078 28.5802 57.0337 28.782C57.0596 28.9839 57.1398 29.1749 57.2656 29.3349C57.2697 29.342 57.2757 29.348 57.2828 29.3521C57.29 29.3562 57.2981 29.3584 57.3063 29.3584Z" fill="white"/>
<path d="M62.1341 32.9272C62.1262 32.9283 62.1186 32.9313 62.1121 32.9359C62.1056 32.9405 62.1002 32.9467 62.0965 32.9538C61.9869 33.2655 61.9902 33.6058 62.1059 33.9153C61.9979 33.8261 61.8914 33.7352 61.7927 33.6444C61.881 33.4561 61.9151 33.247 61.8913 33.0404C61.8675 32.8338 61.7868 32.6379 61.6581 32.4746C61.6532 32.4682 61.6468 32.4631 61.6394 32.4598C61.632 32.4566 61.624 32.4553 61.6159 32.4561C61.6079 32.4569 61.6002 32.4597 61.5936 32.4643C61.587 32.4689 61.5817 32.4752 61.5782 32.4824C61.4643 32.8033 61.4716 33.1547 61.5986 33.4706C61.4576 33.3406 61.3229 33.2137 61.1992 33.09C61.2921 32.9009 61.3295 32.6893 61.3071 32.4797C61.2846 32.2702 61.2032 32.0713 61.0724 31.9061C61.0678 31.8994 61.0614 31.894 61.0539 31.8907C61.0465 31.8874 61.0382 31.8862 61.0301 31.8874C61.0221 31.8883 61.0145 31.8913 61.008 31.8959C61.0014 31.9006 60.9961 31.9068 60.9925 31.914C60.8787 32.2348 60.8859 32.5862 61.0129 32.9021C60.7983 32.6797 60.6198 32.4746 60.4867 32.3055C60.4383 32.1164 60.3431 31.9425 60.2098 31.7999C60.0765 31.6573 59.9095 31.5506 59.7241 31.4896C59.7165 31.4881 59.7087 31.4884 59.7014 31.4906C59.694 31.4928 59.6873 31.4967 59.6818 31.5021C59.6761 31.5078 59.6718 31.5147 59.6694 31.5223C59.6669 31.53 59.6664 31.5381 59.6677 31.546C59.8086 32.2381 60.3207 32.3587 60.4225 32.3759C60.4961 32.4683 60.5791 32.5717 60.6793 32.6813C60.4339 32.5712 60.1608 32.5385 59.8963 32.5874C59.8885 32.5895 59.8813 32.5937 59.8755 32.5994C59.8698 32.6052 59.8656 32.6124 59.8634 32.6202C59.8611 32.6277 59.8607 32.6357 59.8623 32.6434C59.864 32.6511 59.8676 32.6582 59.8728 32.6641C60.0067 32.8187 60.1815 32.9323 60.3771 32.9918C60.5727 33.0514 60.7811 33.0545 60.9784 33.0008C61.0661 33.0916 61.1601 33.1856 61.2587 33.2811C60.9272 33.1854 60.5728 33.2064 60.2549 33.3406C60.2478 33.3449 60.2418 33.3508 60.2374 33.3579C60.2331 33.365 60.2305 33.373 60.2299 33.3813C60.2297 33.3896 60.2318 33.3978 60.2359 33.4049C60.2401 33.4121 60.2461 33.418 60.2534 33.422C60.4321 33.5334 60.6368 33.5961 60.8473 33.6038C61.0578 33.6115 61.2666 33.564 61.4529 33.4659C61.5845 33.588 61.7238 33.7117 61.8679 33.837C61.547 33.6922 61.184 33.671 60.8484 33.7775C60.8407 33.7807 60.8338 33.7858 60.8286 33.7924C60.8234 33.799 60.82 33.8068 60.8187 33.8151C60.8177 33.8232 60.819 33.8314 60.8223 33.8388C60.8256 33.8462 60.8308 33.8527 60.8375 33.8574C61.0023 33.9909 61.2009 34.0762 61.4112 34.1039C61.6216 34.1315 61.8355 34.1004 62.0292 34.014L62.0402 34.0046C62.0447 33.9995 62.0484 33.9936 62.0511 33.9874L62.2281 34.1314C62.233 34.1387 62.2401 34.1442 62.2484 34.1471C62.3424 34.2223 62.4379 34.2959 62.535 34.3695C62.5435 34.3767 62.5544 34.3807 62.5656 34.3807C62.5768 34.3807 62.5876 34.3767 62.5961 34.3695C62.6036 34.3595 62.6068 34.347 62.605 34.3346C62.6033 34.3223 62.5967 34.3112 62.5867 34.3037C62.4959 34.2363 62.4082 34.1674 62.3205 34.0985C62.4022 33.9122 62.4318 33.7071 62.4062 33.5052C62.3805 33.3034 62.3006 33.1122 62.1748 32.9522C62.1708 32.9449 62.1649 32.9387 62.1578 32.9343C62.1506 32.9299 62.1425 32.9275 62.1341 32.9272Z" fill="white"/>
<path d="M65.146 34.0094C65.1377 34.01 65.1298 34.013 65.1231 34.018C65.1165 34.023 65.1114 34.0298 65.1084 34.0376C64.9968 34.3488 64.9995 34.6897 65.1163 34.9991C65.0082 34.9083 64.9033 34.8174 64.8031 34.7282C64.8916 34.5398 64.9261 34.3305 64.9026 34.1236C64.8791 33.9168 64.7986 33.7205 64.67 33.5568C64.6649 33.5502 64.6582 33.545 64.6505 33.5417C64.6428 33.5384 64.6344 33.5371 64.6261 33.538C64.618 33.5392 64.6103 33.5423 64.6037 33.5473C64.5971 33.5522 64.5919 33.5587 64.5885 33.5662C64.4746 33.8865 64.4819 34.2375 64.6089 34.5528C64.4679 34.4244 64.3348 34.296 64.2111 34.1723C64.3036 33.9827 64.3407 33.771 64.3183 33.5613C64.2959 33.3516 64.2148 33.1525 64.0843 32.9868C64.0793 32.9804 64.0729 32.9753 64.0655 32.972C64.0581 32.9688 64.05 32.9674 64.042 32.968C64.0337 32.9687 64.0258 32.9717 64.0191 32.9766C64.0124 32.9816 64.0074 32.9884 64.0044 32.9962C63.8898 33.3169 63.8971 33.6686 64.0248 33.9843C63.8102 33.7604 63.6301 33.5568 63.4986 33.3877C63.4508 33.1983 63.3557 33.0242 63.2224 32.8815C63.089 32.7388 62.9217 32.6323 62.7359 32.5718C62.7283 32.5701 62.7204 32.5703 62.7129 32.5725C62.7054 32.5746 62.6985 32.5785 62.6929 32.584C62.6873 32.5894 62.6832 32.5962 62.6809 32.6036C62.6785 32.6111 62.6781 32.619 62.6796 32.6266C62.8205 33.3204 63.331 33.4409 63.4344 33.4582C63.5064 33.5506 63.591 33.6523 63.6912 33.762C63.4457 33.6523 63.1727 33.6195 62.9082 33.668C62.9005 33.6704 62.8934 33.6747 62.8877 33.6804C62.882 33.6861 62.8777 33.6932 62.8753 33.7009C62.8732 33.7088 62.8731 33.7171 62.875 33.725C62.8769 33.7329 62.8808 33.7403 62.8863 33.7463C63.0208 33.8996 63.1954 34.0122 63.3904 34.0717C63.5854 34.1312 63.7932 34.1351 63.9903 34.083C64.0796 34.1738 64.172 34.2662 64.2706 34.3617C63.9395 34.2669 63.5859 34.2879 63.2684 34.4213C63.2608 34.425 63.2545 34.4309 63.2501 34.438C63.2456 34.4452 63.2433 34.4535 63.2433 34.462C63.2432 34.4703 63.2451 34.4785 63.2489 34.4859C63.2528 34.4933 63.2584 34.4996 63.2653 34.5043C63.4445 34.6151 63.6496 34.6773 63.8602 34.6847C64.0708 34.6922 64.2798 34.6445 64.4664 34.5465C64.5979 34.6697 64.7357 34.7934 64.8798 34.9177C64.5589 34.7729 64.1959 34.7517 63.8603 34.8582C63.8526 34.8611 63.8458 34.8662 63.8408 34.8729C63.8358 34.8795 63.8328 34.8875 63.8321 34.8957C63.8313 34.9039 63.8325 34.9121 63.8355 34.9198C63.8385 34.9274 63.8432 34.9342 63.8494 34.9396C64.0143 35.073 64.2129 35.1582 64.4232 35.1858C64.6335 35.2134 64.8473 35.1824 65.0411 35.0962C65.0447 35.0969 65.0484 35.0969 65.0521 35.0962C65.058 35.0915 65.0619 35.0848 65.063 35.0774L65.24 35.2215C65.2452 35.2284 65.2523 35.2338 65.2603 35.2371C65.3543 35.3123 65.4498 35.3859 65.5469 35.4579C65.5554 35.4652 65.5662 35.4692 65.5774 35.4692C65.5886 35.4692 65.5995 35.4652 65.608 35.4579C65.6119 35.4531 65.6148 35.4475 65.6164 35.4415C65.6181 35.4355 65.6185 35.4292 65.6176 35.423C65.6167 35.4168 65.6146 35.4109 65.6113 35.4056C65.608 35.4003 65.6037 35.3957 65.5986 35.3922L65.3324 35.187C65.4141 35.0007 65.4437 34.7956 65.4181 34.5937C65.3924 34.3919 65.3125 34.2007 65.1867 34.0407C65.1836 34.0322 65.1781 34.0248 65.1709 34.0192C65.1637 34.0137 65.1551 34.0103 65.146 34.0094Z" fill="white"/>
<path d="M58.2599 34.1865C58.2519 34.1871 58.2441 34.19 58.2375 34.1946C58.2309 34.1993 58.2257 34.2057 58.2223 34.2131C58.1107 34.5243 58.1134 34.8652 58.2302 35.1746C58.1221 35.0853 58.0172 34.9945 57.917 34.9037C58.0056 34.7153 58.04 34.506 58.0165 34.2991C57.993 34.0923 57.9125 33.896 57.7839 33.7323C57.7787 33.726 57.7721 33.721 57.7645 33.7179C57.7569 33.7148 57.7487 33.7137 57.7406 33.7146C57.7324 33.7156 57.7247 33.7185 57.718 33.7233C57.7114 33.728 57.706 33.7343 57.7024 33.7417C57.5886 34.0626 57.5958 34.414 57.7228 34.7299C57.5818 34.5999 57.4487 34.473 57.325 34.3493C57.4175 34.1598 57.4547 33.948 57.4322 33.7383C57.4098 33.5286 57.3287 33.3295 57.1982 33.1639C57.1934 33.1574 57.1869 33.1523 57.1795 33.1493C57.172 33.1463 57.1638 33.1453 57.1559 33.1466C57.1477 33.147 57.1398 33.1496 57.1332 33.1544C57.1265 33.1591 57.1213 33.1657 57.1183 33.1733C57.0037 33.494 57.011 33.8456 57.1387 34.1614C56.9532 33.9717 56.7776 33.7725 56.6125 33.5648C56.5641 33.3756 56.4689 33.2018 56.3356 33.0592C56.2023 32.9166 56.0353 32.8099 55.8499 32.7489C55.8421 32.7473 55.834 32.7477 55.8264 32.7499C55.8188 32.752 55.8118 32.756 55.806 32.7614C55.801 32.7671 55.7973 32.7739 55.7952 32.7812C55.793 32.7885 55.7924 32.7961 55.7935 32.8037C55.9344 33.4974 56.4449 33.618 56.5483 33.6352C56.6203 33.7276 56.7049 33.8294 56.8051 33.9484C56.56 33.8372 56.2866 33.8043 56.0221 33.8545C56.0144 33.8565 56.0074 33.8604 56.0016 33.8659C55.9959 33.8714 55.9916 33.8782 55.9892 33.8858C55.9871 33.8937 55.987 33.902 55.9889 33.9099C55.9908 33.9178 55.9947 33.9252 56.0002 33.9312C56.1337 34.0858 56.3082 34.1994 56.5036 34.259C56.6989 34.3186 56.9072 34.3217 57.1042 34.2679C57.1935 34.3587 57.2859 34.4527 57.3845 34.5482C57.0536 34.4518 56.6995 34.4728 56.3823 34.6077C56.3749 34.6112 56.3686 34.6168 56.3642 34.6237C56.3597 34.6306 56.3573 34.6386 56.3572 34.6469C56.357 34.6552 56.3588 34.6635 56.3627 34.6709C56.3665 34.6783 56.3722 34.6846 56.3792 34.6891C56.5582 34.8005 56.7632 34.8632 56.9739 34.8709C57.1846 34.8786 57.3936 34.831 57.5803 34.733C57.7118 34.8551 57.8496 34.9788 57.9937 35.1026C57.6727 34.9581 57.3096 34.9375 56.9742 35.0446C56.9667 35.0474 56.9601 35.0523 56.9551 35.0587C56.9501 35.065 56.947 35.0726 56.9461 35.0806C56.945 35.0888 56.946 35.0971 56.949 35.1048C56.952 35.1125 56.9569 35.1192 56.9633 35.1245C57.1282 35.2579 57.3268 35.3431 57.5371 35.3707C57.7474 35.3983 57.9612 35.3673 58.155 35.2811C58.1586 35.2818 58.1623 35.2818 58.166 35.2811C58.1715 35.2768 58.1754 35.2707 58.1769 35.2639L58.3539 35.4079C58.3591 35.4149 58.3662 35.4203 58.3742 35.4236C58.4698 35.4988 58.5637 35.5724 58.6608 35.646C58.6693 35.6532 58.6802 35.6572 58.6914 35.6572C58.7026 35.6572 58.7134 35.6532 58.7219 35.646C58.7258 35.6411 58.7287 35.6355 58.7303 35.6295C58.732 35.6235 58.7324 35.6172 58.7315 35.611C58.7306 35.6049 58.7285 35.5989 58.7252 35.5936C58.7219 35.5883 58.7176 35.5837 58.7125 35.5802L58.4463 35.375C58.528 35.1884 58.5576 34.9831 58.5319 34.781C58.5063 34.5789 58.4264 34.3875 58.3006 34.2272C58.2999 34.2166 58.2954 34.2067 58.2879 34.1992C58.2804 34.1917 58.2705 34.1872 58.2599 34.1865Z" fill="white"/>
<path d="M62.0343 27.5888C62.0262 27.59 62.0185 27.5931 62.0119 27.5981C62.0053 27.603 62.0001 27.6095 61.9967 27.617C61.8871 27.9287 61.8904 28.269 62.0061 28.5785C61.8981 28.4877 61.7916 28.3984 61.6929 28.3076C61.7811 28.119 61.8152 27.9097 61.7915 27.7029C61.7677 27.496 61.687 27.2999 61.5583 27.1362C61.5533 27.1298 61.5469 27.1248 61.5395 27.1215C61.5321 27.1182 61.524 27.1168 61.516 27.1175C61.5077 27.1181 61.4998 27.1211 61.4931 27.1261C61.4864 27.1311 61.4813 27.1379 61.4784 27.1456C61.3645 27.466 61.3717 27.8169 61.4988 28.1322C61.3578 28.0038 61.2231 27.8754 61.0994 27.7517C61.1919 27.5622 61.2291 27.3504 61.2066 27.1407C61.1842 26.931 61.1031 26.7319 60.9726 26.5662C60.9678 26.5597 60.9613 26.5546 60.9539 26.5513C60.9465 26.548 60.9384 26.5466 60.9303 26.5474C60.922 26.5481 60.9141 26.5511 60.9074 26.5561C60.9008 26.5611 60.8957 26.5678 60.8927 26.5756C60.7789 26.8965 60.7861 27.2479 60.9131 27.5638C60.6985 27.3398 60.52 27.1362 60.3869 26.9671C60.3391 26.7778 60.244 26.6036 60.1107 26.4609C59.9773 26.3183 59.81 26.2117 59.6243 26.1512C59.6167 26.1499 59.6089 26.1504 59.6016 26.1527C59.5943 26.1549 59.5876 26.1589 59.5821 26.1642C59.5766 26.1696 59.5724 26.1762 59.57 26.1834C59.5675 26.1907 59.5668 26.1984 59.5679 26.206C59.7088 26.8998 60.2209 27.0204 60.3227 27.0376C60.3963 27.13 60.4793 27.2318 60.5795 27.3414C60.3341 27.2313 60.061 27.1985 59.7965 27.2474C59.7888 27.2498 59.7818 27.2541 59.776 27.2598C59.7703 27.2656 59.7661 27.2726 59.7636 27.2803C59.7613 27.2881 59.7609 27.2963 59.7626 27.3042C59.7642 27.3121 59.7678 27.3195 59.773 27.3257C59.9077 27.4793 60.0825 27.5921 60.2779 27.6516C60.4732 27.7111 60.6813 27.7148 60.8786 27.6624C60.9663 27.7532 61.0603 27.8456 61.1589 27.9412C60.8273 27.8463 60.4732 27.8673 60.1551 28.0007C60.148 28.0049 60.142 28.0109 60.1376 28.018C60.1333 28.025 60.1307 28.0331 60.1301 28.0414C60.13 28.0499 60.1321 28.0582 60.1362 28.0657C60.1403 28.0731 60.1463 28.0793 60.1536 28.0837C60.3324 28.195 60.5372 28.2575 60.7477 28.2649C60.9582 28.2723 61.1669 28.2244 61.3531 28.126C61.4847 28.2497 61.624 28.3734 61.7681 28.4971C61.4472 28.3523 61.0842 28.3311 60.7486 28.4376C60.7409 28.4407 60.734 28.4459 60.7288 28.4524C60.7236 28.459 60.7202 28.4669 60.7189 28.4752C60.718 28.4835 60.7192 28.4919 60.7225 28.4996C60.7258 28.5072 60.731 28.5139 60.7377 28.519C60.9023 28.6524 61.1006 28.7377 61.3107 28.7653C61.5207 28.7929 61.7343 28.7619 61.9278 28.6756L61.9404 28.6678C61.9453 28.6626 61.9486 28.6561 61.9498 28.649L62.1267 28.7931C62.1325 28.8001 62.1401 28.8055 62.1486 28.8087C62.2426 28.8839 62.3381 28.9575 62.4352 29.0295C62.4437 29.0368 62.4546 29.0408 62.4658 29.0408C62.477 29.0408 62.4878 29.0368 62.4963 29.0295C62.5038 29.0196 62.507 29.007 62.5052 28.9947C62.5035 28.9824 62.4969 28.9712 62.4869 28.9638C62.3961 28.8964 62.3084 28.8291 62.2207 28.7586C62.3024 28.5722 62.332 28.3672 62.3064 28.1653C62.2807 27.9634 62.2008 27.7723 62.075 27.6123C62.0706 27.6054 62.0646 27.5997 62.0575 27.5957C62.0504 27.5916 62.0425 27.5892 62.0343 27.5888Z" fill="white"/>
<path d="M60.5469 30.5642C60.555 30.5635 60.5628 30.5607 60.5694 30.556C60.576 30.5513 60.5812 30.5449 60.5845 30.5375C60.6962 30.2263 60.6934 29.8854 60.5767 29.576C60.6848 29.6653 60.7897 29.7561 60.8899 29.8469C60.8013 30.0353 60.7669 30.2447 60.7904 30.4515C60.8139 30.6584 60.8944 30.8546 61.023 31.0183C61.0282 31.0247 61.0348 31.0296 61.0424 31.0327C61.05 31.0358 61.0582 31.0369 61.0663 31.036C61.0744 31.0351 61.0822 31.0321 61.0889 31.0273C61.0955 31.0226 61.1009 31.0163 61.1044 31.0089C61.2183 30.6881 61.2111 30.3367 61.0841 30.0208C61.225 30.1502 61.3581 30.2771 61.4834 30.4013C61.3909 30.5908 61.3538 30.8026 61.3762 31.0123C61.3987 31.222 61.4798 31.4211 61.6103 31.5868C61.6154 31.5931 61.6221 31.5981 61.6296 31.6012C61.6372 31.6043 61.6454 31.6054 61.6536 31.6044C61.6617 31.6035 61.6694 31.6005 61.6761 31.5958C61.6828 31.5911 61.6881 31.5847 61.6917 31.5774C61.8058 31.2564 61.798 30.9048 61.6698 30.5892C61.8553 30.779 62.0309 30.9781 62.1959 31.1859C62.2443 31.3752 62.3397 31.5493 62.4733 31.6919C62.6069 31.8345 62.7744 31.9411 62.9601 32.0018C62.9677 32.0033 62.9755 32.0029 62.9829 32.0008C62.9902 31.9986 62.9969 31.9946 63.0024 31.9892C63.0078 31.9834 63.0118 31.9764 63.014 31.9688C63.0161 31.9612 63.0165 31.9532 63.015 31.9454C62.8756 31.2532 62.3635 31.1326 62.2601 31.1154C62.1881 31.023 62.1035 30.9212 62.0033 30.8022C62.2484 30.9135 62.5219 30.9463 62.7863 30.8962C62.794 30.8941 62.801 30.8902 62.8068 30.8847C62.8126 30.8793 62.8168 30.8724 62.8192 30.8648C62.8213 30.857 62.8215 30.8487 62.8196 30.8407C62.8176 30.8328 62.8137 30.8255 62.8082 30.8194C62.6748 30.6648 62.5002 30.5512 62.3049 30.4916C62.1095 30.432 61.9013 30.4289 61.7042 30.4827C61.6165 30.3919 61.5226 30.298 61.4239 30.2024C61.7548 30.2988 62.1089 30.2778 62.4261 30.1429C62.4337 30.1391 62.44 30.1333 62.4445 30.1261C62.4489 30.1189 62.4512 30.1106 62.4512 30.1022C62.4517 30.094 62.4499 30.0859 62.446 30.0787C62.4422 30.0715 62.4364 30.0656 62.4293 30.0615C62.2503 29.9501 62.0453 29.8874 61.8346 29.8797C61.6239 29.872 61.4148 29.9196 61.2282 30.0176C61.0966 29.8955 60.9588 29.7718 60.8147 29.6481C61.1359 29.7918 61.4988 29.8124 61.8342 29.706C61.8418 29.7032 61.8484 29.6983 61.8534 29.692C61.8583 29.6856 61.8615 29.678 61.8624 29.67C61.8638 29.6618 61.8629 29.6534 61.8599 29.6457C61.8569 29.6379 61.8518 29.6312 61.8452 29.6261C61.6805 29.4923 61.4819 29.4068 61.2715 29.3791C61.0611 29.3515 60.8471 29.3828 60.6534 29.4695C60.6498 29.4688 60.6461 29.4688 60.6425 29.4695C60.6379 29.4747 60.6342 29.4805 60.6315 29.4868L60.4546 29.3427C60.4496 29.3354 60.4425 29.3299 60.4342 29.327C60.3402 29.2519 60.2447 29.1704 60.1476 29.1047C60.1391 29.0974 60.1283 29.0934 60.1171 29.0934C60.1059 29.0934 60.0951 29.0974 60.0865 29.1047C60.0791 29.1146 60.0759 29.1272 60.0776 29.1395C60.0794 29.1518 60.086 29.163 60.0959 29.1704L60.3622 29.3756C60.2805 29.5622 60.2509 29.7675 60.2765 29.9696C60.3022 30.1717 60.3821 30.3631 60.5078 30.5235C60.5093 30.5335 60.5138 30.5428 60.5208 30.5501C60.5279 30.5574 60.537 30.5623 60.5469 30.5642Z" fill="white"/>
</g>
</g>
<path d="M61.2335 31.9109L50.7414 32.9695C50.4615 32.998 50.2044 33.1363 50.0265 33.3542C49.8486 33.572 49.7644 33.8516 49.7924 34.1315L50.1526 37.7192C50.4258 37.5255 50.7451 37.4069 51.0785 37.3752C51.4119 37.3434 51.7478 37.3997 52.0527 37.5383C52.3576 37.6769 52.6208 37.8931 52.816 38.1652C53.0113 38.4373 53.1318 38.7559 53.1655 39.0891C53.1991 39.4224 53.1449 39.7586 53.008 40.0643C52.8712 40.37 52.6566 40.6344 52.3856 40.8313C52.1146 41.0281 51.7968 41.1505 51.4637 41.1861C51.1307 41.2217 50.7942 41.1694 50.4877 41.0344L50.8494 44.6221C50.8783 44.9018 51.0167 45.1588 51.2344 45.3369C51.4521 45.515 51.7314 45.5998 52.0114 45.5726L62.5036 44.5156C62.7835 44.4863 63.0405 44.3476 63.2185 44.1296C63.3966 43.9117 63.4813 43.6322 63.4541 43.352L62.3971 32.8599C62.3674 32.5802 62.2285 32.3236 62.0106 32.1459C61.7927 31.9682 61.5134 31.8837 61.2335 31.9109Z" fill="#407BFF"/>
<path opacity="0.3" d="M61.2335 31.9109L50.7414 32.9695C50.4615 32.998 50.2044 33.1363 50.0265 33.3542C49.8486 33.572 49.7644 33.8516 49.7924 34.1315L50.1526 37.7192C50.4258 37.5255 50.7451 37.4069 51.0785 37.3752C51.4119 37.3434 51.7478 37.3997 52.0527 37.5383C52.3576 37.6769 52.6208 37.8931 52.816 38.1652C53.0113 38.4373 53.1318 38.7559 53.1655 39.0891C53.1991 39.4224 53.1449 39.7586 53.008 40.0643C52.8712 40.37 52.6566 40.6344 52.3856 40.8313C52.1146 41.0281 51.7968 41.1505 51.4637 41.1861C51.1307 41.2217 50.7942 41.1694 50.4877 41.0344L50.8494 44.6221C50.8783 44.9018 51.0167 45.1588 51.2344 45.3369C51.4521 45.515 51.7314 45.5998 52.0114 45.5726L62.5036 44.5156C62.7835 44.4863 63.0405 44.3476 63.2185 44.1296C63.3966 43.9117 63.4813 43.6322 63.4541 43.352L62.3971 32.8599C62.3674 32.5802 62.2285 32.3236 62.0106 32.1459C61.7927 31.9682 61.5134 31.8837 61.2335 31.9109Z" fill="black"/>
<path d="M64.0958 35.129L63.6103 34.9176L62.4703 35.2089C62.3396 35.2431 62.2239 35.3196 62.1414 35.4266L61.9002 35.7398C61.8489 35.8084 61.8228 35.8926 61.8265 35.9783C61.8302 36.0639 61.8635 36.1456 61.9206 36.2095L62.1931 36.5102C62.2584 36.5818 62.3491 36.6252 62.4459 36.631C62.5427 36.6369 62.6379 36.6048 62.7114 36.5415L63.33 36.0107C63.33 36.0107 64.0754 35.6614 64.0958 35.129Z" fill="#FFB573"/>
<path d="M54.2136 33.173L54.7178 33.1088C54.7858 33.1011 54.8494 33.0714 54.8988 33.0241C54.9483 32.9769 54.981 32.9148 54.9919 32.8472L55.0608 32.4464C55.07 32.3986 55.0679 32.3494 55.0548 32.3026C55.0417 32.2557 55.0179 32.2126 54.9852 32.1766C54.9525 32.1406 54.9119 32.1127 54.8666 32.0951C54.8213 32.0775 54.7725 32.0707 54.7241 32.0752L54.1353 32.1175C54.0524 32.1219 53.9748 32.1591 53.9193 32.2207C53.8638 32.2824 53.835 32.3635 53.8393 32.4464L53.8549 32.8692C53.8558 32.9136 53.8661 32.9574 53.8852 32.9975C53.9043 33.0377 53.9317 33.0733 53.9656 33.1021C53.9996 33.1308 54.0392 33.152 54.082 33.1642C54.1247 33.1764 54.1696 33.1794 54.2136 33.173Z" fill="#FFB573"/>
<path d="M62.0608 21.6647C60.8174 22.2911 58.6328 22.0029 58.6328 22.0029C58.6328 22.0029 59.8512 20.011 62.0608 21.6647Z" fill="#263238"/>
<path d="M40.1801 61.3968L39.5553 64.6493L37.9736 64.2672L38.5985 61.0146L40.1801 61.3968Z" fill="#7F3E3B"/>
<path d="M38.0229 63.6065L39.7815 63.9886C39.8087 63.9939 39.833 64.0092 39.8495 64.0315C39.866 64.0538 39.8736 64.0815 39.8707 64.1091L39.7486 65.4011C39.7446 65.4335 39.7338 65.4647 39.717 65.4928C39.7002 65.5208 39.6778 65.545 39.6511 65.5639C39.6245 65.5828 39.5941 65.5958 39.5621 65.6023C39.5301 65.6088 39.4971 65.6085 39.4652 65.6015C38.9124 65.4716 38.7479 65.3901 38.0479 65.2382C37.232 65.0581 36.9423 65.1067 35.9839 64.8968C35.4045 64.77 35.4311 64.1624 35.6911 64.1608C36.3777 64.1625 37.0524 63.9826 37.647 63.6393C37.7636 63.581 37.898 63.5692 38.0229 63.6065Z" fill="#263238"/>
<path opacity="0.2" d="M40.1812 61.3983L39.8586 63.0739L38.2754 62.6918L38.598 61.0146L40.1812 61.3983Z" fill="black"/>
<path d="M42.9332 48.8702C44.7889 43.4112 46.2578 36.9687 46.2578 36.9687L40.9647 36.6335C40.9647 36.6335 40.1817 44.9928 39.7777 48.8483C39.3549 52.8541 38.041 61.8978 38.041 61.8978L40.4292 62.3816C40.4292 62.3816 42.6685 53.8658 42.9332 48.8702Z" fill="#263238"/>
<path opacity="0.2" d="M43.8163 40.0068L45.1004 41.5948C44.7731 42.8209 44.391 44.199 43.9713 45.6068C43.7305 43.7502 43.6785 41.8739 43.8163 40.0068Z" fill="#263238"/>
<path d="M38.0747 62.2377L40.2671 62.7169C40.3108 62.7266 40.3565 62.7199 40.3955 62.6979C40.4346 62.6759 40.4641 62.6403 40.4785 62.5979L40.7196 61.8917C40.728 61.8677 40.7312 61.8423 40.729 61.8171C40.7269 61.7918 40.7194 61.7673 40.7072 61.7451C40.6949 61.723 40.6781 61.7036 40.6578 61.6884C40.6376 61.6732 40.6144 61.6624 40.5897 61.6568L38.2109 61.1008C38.1859 61.0949 38.1599 61.0944 38.1347 61.0992C38.1094 61.1041 38.0855 61.1143 38.0645 61.1291C38.0435 61.1439 38.0258 61.163 38.0127 61.1851C37.9996 61.2072 37.9914 61.2319 37.9885 61.2574L37.9337 62.0404C37.9288 62.0849 37.9404 62.1296 37.9665 62.166C37.9925 62.2025 38.031 62.228 38.0747 62.2377Z" fill="#263238"/>
<path opacity="0.1" d="M38.0747 62.2377L40.2671 62.7169C40.3108 62.7266 40.3565 62.7199 40.3955 62.6979C40.4346 62.6759 40.4641 62.6403 40.4785 62.5979L40.7196 61.8917C40.728 61.8677 40.7312 61.8423 40.729 61.8171C40.7269 61.7918 40.7194 61.7673 40.7072 61.7451C40.6949 61.723 40.6781 61.7036 40.6578 61.6884C40.6376 61.6732 40.6144 61.6624 40.5897 61.6568L38.2109 61.1008C38.1859 61.0949 38.1599 61.0944 38.1347 61.0992C38.1094 61.1041 38.0855 61.1143 38.0645 61.1291C38.0435 61.1439 38.0258 61.163 38.0127 61.1851C37.9996 61.2072 37.9914 61.2319 37.9885 61.2574L37.9337 62.0404C37.9288 62.0849 37.9404 62.1296 37.9665 62.166C37.9925 62.2025 38.031 62.228 38.0747 62.2377Z" fill="white"/>
<path d="M48.8864 61.284L48.9851 64.6399L47.3799 64.618L47.2812 61.2621L48.8864 61.284Z" fill="#7F3E3B"/>
<path d="M47.3392 63.9289L49.0461 63.9539C49.0738 63.9538 49.1006 63.964 49.1211 63.9825C49.1417 64.0011 49.1546 64.0266 49.1573 64.0542L49.2951 65.3445C49.2978 65.3772 49.2935 65.41 49.2827 65.441C49.2719 65.4719 49.2547 65.5002 49.2323 65.5241C49.2099 65.548 49.1827 65.5669 49.1525 65.5797C49.1224 65.5925 49.0899 65.5988 49.0571 65.5982C48.4902 65.581 48.3117 65.534 47.596 65.5231C46.7598 65.509 46.5797 65.6139 45.5994 65.5998C45.0059 65.5904 44.9103 64.9891 45.164 64.9358C45.8376 64.8012 46.4637 64.4911 46.979 64.0369C47.081 63.9564 47.2098 63.9178 47.3392 63.9289Z" fill="#263238"/>
<path opacity="0.2" d="M48.888 61.2856L48.9381 63.0144L47.3314 62.9925L47.2812 61.2621L48.888 61.2856Z" fill="black"/>
<path d="M48.4872 48.7591C48.0331 43.0166 48.4167 39.9191 47.7496 37.0674L42.9326 36.7683C42.9326 36.7683 44.4281 45.209 45.2534 49.0269C46.0787 52.8448 46.9666 62.1186 46.9666 62.1186L49.3344 62.1484C49.3344 62.1484 49.6241 53.2395 48.4872 48.7591Z" fill="#263238"/>
<path d="M46.973 62.5447L49.214 62.5791C49.2603 62.5796 49.3051 62.5624 49.3392 62.5309C49.3732 62.4995 49.394 62.4562 49.3972 62.41L49.4457 61.6708C49.4477 61.6464 49.4446 61.6219 49.4367 61.5987C49.4288 61.5755 49.4163 61.5542 49.3998 61.536C49.3834 61.5178 49.3635 61.5032 49.3412 61.493C49.3189 61.4828 49.2948 61.4772 49.2703 61.4766L46.8321 61.4015C46.805 61.4005 46.778 61.4057 46.7532 61.4166C46.7283 61.4275 46.7063 61.4439 46.6887 61.4645C46.671 61.4851 46.6583 61.5095 46.6514 61.5357C46.6445 61.5619 46.6437 61.5894 46.6489 61.616L46.8055 62.399C46.8138 62.4382 46.8347 62.4735 46.8649 62.4998C46.8951 62.5261 46.9331 62.5418 46.973 62.5447Z" fill="#263238"/>
<path opacity="0.1" d="M46.973 62.5447L49.214 62.5791C49.2603 62.5796 49.3051 62.5624 49.3392 62.5309C49.3732 62.4995 49.394 62.4562 49.3972 62.41L49.4457 61.6708C49.4477 61.6464 49.4446 61.6219 49.4367 61.5987C49.4288 61.5755 49.4163 61.5542 49.3998 61.536C49.3834 61.5178 49.3635 61.5032 49.3412 61.493C49.3189 61.4828 49.2948 61.4772 49.2703 61.4766L46.8321 61.4015C46.805 61.4005 46.778 61.4057 46.7532 61.4166C46.7283 61.4275 46.7063 61.4439 46.6887 61.4645C46.671 61.4851 46.6583 61.5095 46.6514 61.5357C46.6445 61.5619 46.6437 61.5894 46.6489 61.616L46.8055 62.399C46.8138 62.4382 46.8347 62.4735 46.8649 62.4998C46.8951 62.5261 46.9331 62.5418 46.973 62.5447Z" fill="white"/>
<path d="M42.7777 27.9346C42.5929 28.3339 42.4003 28.6878 42.1904 29.0527C41.9806 29.4176 41.7598 29.7715 41.5155 30.1191C41.2685 30.4781 40.9986 30.8207 40.7074 31.1449C40.3844 31.5181 40.0056 31.8392 39.5846 32.097L39.5298 32.1283C39.4362 32.1834 39.332 32.218 39.224 32.2299C39.116 32.2418 39.0068 32.2306 38.9034 32.1972C38.5981 32.0986 38.3021 31.9874 38.0124 31.8684C37.7227 31.7493 37.4408 31.6178 37.1636 31.48C36.8864 31.3422 36.6155 31.1965 36.3493 31.0399C36.0831 30.8833 35.8231 30.7267 35.5663 30.5373C35.4743 30.4721 35.408 30.3768 35.3788 30.2679C35.3496 30.1591 35.3593 30.0434 35.4063 29.9409C35.4533 29.8385 35.5345 29.7556 35.6361 29.7067C35.7376 29.6577 35.8531 29.6457 35.9625 29.6728H35.9797C36.26 29.7402 36.5497 29.8216 36.8316 29.8952L37.6788 30.1191C37.9591 30.1959 38.241 30.2601 38.5182 30.329C38.7954 30.3979 39.0725 30.4511 39.345 30.5075L38.6701 30.6093C38.9046 30.4148 39.1149 30.193 39.2965 29.9484C39.511 29.6728 39.7177 29.369 39.9229 29.0558C40.128 28.7426 40.3144 28.4153 40.4992 28.0833C40.684 27.7514 40.8719 27.4084 41.0379 27.0921L41.0473 27.0748C41.1721 26.867 41.3707 26.7137 41.6034 26.6456C41.8361 26.5775 42.086 26.5996 42.3032 26.7074C42.5204 26.8152 42.689 27.0009 42.7755 27.2274C42.862 27.4539 42.86 27.7047 42.7699 27.9299L42.7777 27.9346Z" fill="#7F3E3B"/>
<path d="M43.1626 25.1972C41.2928 25.4102 39.874 28.3057 39.874 28.3057L41.8033 30.3587C41.8033 30.3587 42.6631 29.3346 43.587 28.0395C44.5955 26.6285 44.6425 25.0296 43.1626 25.1972Z" fill="#407BFF"/>
<path d="M42.9329 25.6309C43.6517 25.3757 46.8714 25.7875 46.8714 25.7875C46.245 26.5956 45.722 33.2871 45.664 37.1332C44.9797 37.2271 42.3551 37.047 41.749 36.9061C41.8273 35.3965 42.4569 28.315 42.9329 25.6309Z" fill="white"/>
<path d="M40.8546 27.6605C40.939 26.9647 41.2761 26.3241 41.8019 25.8604C42.3276 25.3967 43.0053 25.1424 43.7063 25.1455C45.0515 25.1563 46.3922 25.3043 47.7074 25.5871C47.9122 25.6305 48.1063 25.7145 48.2781 25.8342C48.4499 25.9538 48.596 26.1067 48.7077 26.2838C48.8194 26.4609 48.8944 26.6586 48.9284 26.8652C48.9623 27.0719 48.9545 27.2832 48.9054 27.4867C47.9141 31.6444 48.1756 35.5892 47.911 37.4245C46.9674 37.7714 45.9653 37.931 44.9606 37.8943C44.9606 37.8943 44.9841 36.3111 45.2049 33.6379C45.3803 31.5129 45.6951 26.5158 46.3434 25.6858C46.3434 25.6858 44.0195 25.3726 43.3007 25.6247C42.7667 28.6393 42.3752 37.7706 42.3752 37.7722C41.2383 37.6907 40.7027 37.0581 40.7199 36.8701C40.4897 33.176 40.6056 29.8263 40.8546 27.6605Z" fill="#407BFF"/>
<path d="M46.4262 23.036C46.2085 23.6624 45.9564 24.7727 46.3588 25.396C46.3792 25.4249 46.393 25.458 46.399 25.493C46.4051 25.5279 46.4034 25.5637 46.3939 25.5978C46.3845 25.632 46.3676 25.6636 46.3445 25.6904C46.3214 25.7173 46.2926 25.7386 46.2602 25.753C45.6133 26.1262 44.8657 26.2872 44.1226 26.2134C43.1125 26.132 43.183 25.6763 43.4429 25.3803C43.5044 25.312 43.5894 25.2694 43.681 25.2613C44.6347 25.147 44.6441 24.5723 44.5063 24.0085L46.4262 23.036Z" fill="#7F3E3B"/>
<path opacity="0.2" d="M45.6432 23.4354L44.5078 24.0133C44.5437 24.1467 44.5642 24.2839 44.5689 24.422C44.9823 24.422 45.568 24.1448 45.6353 23.8269C45.6699 23.699 45.6726 23.5646 45.6432 23.4354Z" fill="black"/>
<path d="M44.9121 20.8589C44.9547 20.294 44.6475 19.8103 44.2257 19.7784C43.804 19.7466 43.4276 20.1787 43.3849 20.7435C43.3422 21.3084 43.6495 21.7922 44.0712 21.824C44.4929 21.8559 44.8694 21.4238 44.9121 20.8589Z" fill="#263238"/>
<path d="M47.0399 21.3245C46.8301 22.5601 46.769 23.2946 46.0831 23.8693C45.0511 24.7321 43.6026 24.0024 43.446 22.7292C43.3035 21.5845 43.6699 19.7538 44.9196 19.3843C46.1692 19.0147 47.2498 20.0874 47.0399 21.3245Z" fill="#7F3E3B"/>
<path d="M46.7703 22.369C46.7547 22.369 46.7359 22.3486 46.7187 22.358C46.158 22.6712 45.9764 21.9978 46.0108 21.5499C46.0223 21.4005 46.0653 21.2552 46.1368 21.1235C46.2083 20.9919 46.3068 20.8767 46.4258 20.7857C45.8182 20.8546 45.2294 20.4631 45.22 20.0983C44.5482 20.3942 43.7386 20.4115 43.3737 19.7851C43.0088 19.1587 43.5303 18.3396 44.2256 18.5573C43.9437 18.0531 45.1354 17.0446 46.3835 18.5323C46.4227 17.4533 48.1672 18.5323 47.8806 19.5924C48.6887 19.8712 49.3809 21.4059 48.0106 21.7332C47.9198 23.1551 46.7703 22.369 46.7703 22.369Z" fill="#263238"/>
<path d="M47.432 22.7575C47.2423 22.9902 46.9715 23.1424 46.6741 23.1834C46.2982 23.2257 46.2152 22.8436 46.4079 22.496C46.5817 22.1828 46.9857 21.785 47.3208 21.9071C47.656 22.0293 47.6763 22.4599 47.432 22.7575Z" fill="#7F3E3B"/>
<path d="M45.2488 21.4169C45.2394 21.5203 45.1783 21.597 45.111 21.5908C45.0437 21.5845 44.9967 21.4968 45.0061 21.3935C45.0155 21.2901 45.0765 21.2149 45.1439 21.2212C45.2112 21.2275 45.2566 21.3151 45.2488 21.4169Z" fill="#263238"/>
<path d="M44.0356 21.2821C44.0262 21.3839 43.9651 21.4607 43.8978 21.4544C43.8304 21.4481 43.785 21.3604 43.7929 21.2586C43.8007 21.1569 43.8633 21.0786 43.9307 21.0848C43.998 21.0911 44.0513 21.1788 44.0356 21.2821Z" fill="#263238"/>
<path d="M44.5097 21.3401C44.36 21.6403 44.1698 21.9185 43.9443 22.1669C44.0093 22.2236 44.0858 22.2654 44.1686 22.2894C44.2513 22.3135 44.3383 22.3193 44.4235 22.3063L44.5097 21.3401Z" fill="#630F0F"/>
<path d="M44.7399 22.8043C44.8536 22.8123 44.9678 22.7971 45.0754 22.7597C45.1831 22.7223 45.2821 22.6634 45.3663 22.5866C45.3691 22.5838 45.3713 22.5804 45.3727 22.5766C45.3742 22.5729 45.3749 22.5689 45.3749 22.5649C45.3748 22.5609 45.3739 22.557 45.3723 22.5533C45.3707 22.5497 45.3684 22.5463 45.3655 22.5436C45.3627 22.5408 45.3593 22.5386 45.3555 22.5371C45.3518 22.5357 45.3478 22.535 45.3438 22.535C45.3398 22.5351 45.3359 22.536 45.3322 22.5376C45.3286 22.5392 45.3252 22.5415 45.3225 22.5443C45.2271 22.6287 45.1131 22.6893 44.9898 22.7212C44.8665 22.753 44.7374 22.7552 44.6131 22.7276C44.6093 22.7267 44.6053 22.7266 44.6014 22.7273C44.5976 22.728 44.5939 22.7295 44.5907 22.7317C44.5874 22.7339 44.5847 22.7368 44.5826 22.7401C44.5805 22.7434 44.5792 22.7472 44.5786 22.7511C44.5772 22.7589 44.5788 22.767 44.5832 22.7737C44.5876 22.7804 44.5943 22.7852 44.6021 22.7871C44.6522 22.7949 44.6961 22.8012 44.7399 22.8043Z" fill="#263238"/>
<path d="M45.6494 21.1679C45.6592 21.1701 45.6694 21.1701 45.6792 21.1679C45.6865 21.1647 45.693 21.16 45.6985 21.1542C45.7039 21.1485 45.7081 21.1416 45.7109 21.1342C45.7137 21.1268 45.7149 21.1188 45.7146 21.1109C45.7143 21.103 45.7123 21.0952 45.7089 21.088C45.6722 20.9994 45.615 20.9207 45.5421 20.8584C45.4691 20.7961 45.3825 20.7519 45.2893 20.7294C45.2735 20.7271 45.2575 20.7311 45.2446 20.7404C45.2318 20.7498 45.223 20.7638 45.2204 20.7795C45.2181 20.7952 45.2221 20.8113 45.2314 20.8241C45.2408 20.837 45.2548 20.8457 45.2705 20.8484C45.344 20.8674 45.4121 20.9033 45.4692 20.9534C45.5263 21.0034 45.5709 21.0661 45.5993 21.1365C45.6046 21.1454 45.6118 21.1529 45.6206 21.1583C45.6293 21.1638 45.6392 21.167 45.6494 21.1679Z" fill="#263238"/>
<path d="M43.5265 20.7827C43.5362 20.7853 43.5464 20.7855 43.5562 20.7833C43.566 20.7811 43.5752 20.7766 43.5829 20.7702C43.6387 20.7196 43.7056 20.6829 43.7782 20.663C43.8509 20.6432 43.9272 20.6407 44.001 20.6558C44.0161 20.6602 44.0324 20.6584 44.0462 20.6507C44.06 20.6431 44.0702 20.6303 44.0746 20.6151C44.079 20.5998 44.0772 20.5833 44.0696 20.5692C44.0619 20.5552 44.0491 20.5447 44.0339 20.54C43.9407 20.5187 43.8438 20.5203 43.7513 20.5446C43.6589 20.5689 43.5737 20.6151 43.503 20.6793C43.4974 20.6849 43.493 20.6915 43.4899 20.6987C43.4869 20.706 43.4854 20.7138 43.4854 20.7216C43.4854 20.7295 43.4869 20.7373 43.4899 20.7445C43.493 20.7518 43.4974 20.7584 43.503 20.7639C43.509 20.7722 43.5171 20.7787 43.5265 20.7827Z" fill="#263238"/>
<path d="M49.2784 27.402C49.3802 27.6009 49.4632 27.7732 49.5446 27.9595C49.626 28.1459 49.7012 28.326 49.7826 28.5107C49.9392 28.8803 50.0755 29.2562 50.2039 29.6367C50.465 30.4064 50.6651 31.1955 50.8021 31.9966L50.8444 32.3098L50.8663 32.4664V32.504V32.5729C50.8663 32.623 50.8741 32.6732 50.8741 32.7295C50.8681 33.015 50.8113 33.2971 50.7066 33.5626C50.5506 33.9682 50.3522 34.3561 50.1146 34.7199C49.8989 35.0605 49.6653 35.3893 49.4146 35.7049C49.169 36.0191 48.9077 36.3207 48.6316 36.6085C48.5523 36.6925 48.4454 36.7452 48.3305 36.7571C48.2156 36.7689 48.1003 36.7392 48.0055 36.6732C47.9106 36.6072 47.8427 36.5093 47.8139 36.3975C47.7851 36.2856 47.7974 36.1671 47.8486 36.0635V36.051C48.1728 35.3761 48.5157 34.6933 48.7882 34.0277C48.8587 33.8617 48.9213 33.6958 48.9761 33.5345C49.0307 33.3838 49.0762 33.2301 49.1124 33.0741C49.1378 32.9771 49.1468 32.8765 49.139 32.7765L49.1312 32.7452L49.1014 32.6152L49.0435 32.3568C48.8628 31.6556 48.6416 30.9654 48.3811 30.2897C48.2558 29.9452 48.1133 29.6054 47.9755 29.264C47.9066 29.0949 47.833 28.9257 47.7594 28.7582L47.5401 28.2696L47.5276 28.2414C47.4175 28.0109 47.4035 27.7461 47.4887 27.5053C47.5739 27.2645 47.7512 27.0673 47.9817 26.9573C48.2122 26.8472 48.477 26.8332 48.7178 26.9184C48.9587 27.0036 49.1558 27.1809 49.2658 27.4114L49.2784 27.402Z" fill="#7F3E3B"/>
<path d="M47.8688 25.631C49.9547 26.1572 50.531 28.8241 50.531 28.8241L47.9409 30.6813C47.9409 30.6813 47.2988 30.0095 47.1046 28.431C47.0154 27.6778 47.446 25.6107 47.8688 25.631Z" fill="#407BFF"/>
<path d="M48.1902 35.7317L46.9844 36.1827L47.9083 37.4198C47.9083 37.4198 48.9497 36.8796 48.7524 36.2798L48.1902 35.7317Z" fill="#7F3E3B"/>
<path d="M46.0867 36.3579C45.762 36.3033 45.4286 36.3335 45.119 36.4456L45.7172 32.8908C45.7634 32.6132 45.6978 32.3286 45.5345 32.0994C45.3713 31.8701 45.1239 31.7149 44.8465 31.6677L34.4483 29.917C34.1712 29.8711 33.8872 29.9368 33.6583 30.0997C33.4295 30.2625 33.2743 30.5093 33.2268 30.7861L32.6192 34.3487C32.9285 34.2352 33.2623 34.2049 33.587 34.261C33.8757 34.3095 34.1495 34.4235 34.3872 34.5944C34.625 34.7653 34.8203 34.9884 34.9583 35.2466C35.0962 35.5049 35.1731 35.7913 35.1829 36.0839C35.1928 36.3765 35.1353 36.6675 35.0151 36.9344C34.8948 37.2014 34.7149 37.4371 34.4892 37.6236C34.2635 37.8101 33.998 37.9423 33.7131 38.01C33.4283 38.0778 33.1317 38.0793 32.8462 38.0144C32.5608 37.9495 32.294 37.82 32.0664 37.6358L31.4666 41.1906C31.4204 41.4681 31.486 41.7528 31.6492 41.982C31.8124 42.2113 32.0599 42.3665 32.3373 42.4136L42.7355 44.1644C43.0128 44.2103 43.297 44.1446 43.5261 43.9818C43.7552 43.819 43.9107 43.5722 43.9586 43.2953L44.5568 39.7389C44.7846 39.9202 45.0508 40.047 45.3351 40.1099C45.6194 40.1727 45.9143 40.1699 46.1973 40.1016C46.4803 40.0332 46.744 39.9012 46.9683 39.7156C47.1926 39.5299 47.3716 39.2956 47.4916 39.0303C47.6117 38.7651 47.6696 38.4759 47.661 38.1849C47.6524 37.8939 47.5775 37.6086 47.442 37.3509C47.3066 37.0932 47.1141 36.8698 46.8792 36.6977C46.6443 36.5256 46.3733 36.4094 46.0867 36.3579Z" fill="#407BFF"/>
<path opacity="0.6" d="M46.0867 36.3579C45.762 36.3033 45.4286 36.3335 45.119 36.4456L45.7172 32.8908C45.7634 32.6132 45.6978 32.3286 45.5345 32.0994C45.3713 31.8701 45.1239 31.7149 44.8465 31.6677L34.4483 29.917C34.1712 29.8711 33.8872 29.9368 33.6583 30.0997C33.4295 30.2625 33.2743 30.5093 33.2268 30.7861L32.6192 34.3487C32.9285 34.2352 33.2623 34.2049 33.587 34.261C33.8757 34.3095 34.1495 34.4235 34.3872 34.5944C34.625 34.7653 34.8203 34.9884 34.9583 35.2466C35.0962 35.5049 35.1731 35.7913 35.1829 36.0839C35.1928 36.3765 35.1353 36.6675 35.0151 36.9344C34.8948 37.2014 34.7149 37.4371 34.4892 37.6236C34.2635 37.8101 33.998 37.9423 33.7131 38.01C33.4283 38.0778 33.1317 38.0793 32.8462 38.0144C32.5608 37.9495 32.294 37.82 32.0664 37.6358L31.4666 41.1906C31.4204 41.4681 31.486 41.7528 31.6492 41.982C31.8124 42.2113 32.0599 42.3665 32.3373 42.4136L42.7355 44.1644C43.0128 44.2103 43.297 44.1446 43.5261 43.9818C43.7552 43.819 43.9107 43.5722 43.9586 43.2953L44.5568 39.7389C44.7846 39.9202 45.0508 40.047 45.3351 40.1099C45.6194 40.1727 45.9143 40.1699 46.1973 40.1016C46.4803 40.0332 46.744 39.9012 46.9683 39.7156C47.1926 39.5299 47.3716 39.2956 47.4916 39.0303C47.6117 38.7651 47.6696 38.4759 47.661 38.1849C47.6524 37.8939 47.5775 37.6086 47.442 37.3509C47.3066 37.0932 47.1141 36.8698 46.8792 36.6977C46.6443 36.5256 46.3733 36.4094 46.0867 36.3579Z" fill="white"/>
<path d="M46.4197 37.3979L46.8159 37.7769C46.8922 37.8502 46.9921 37.894 47.0977 37.9003C47.2033 37.9066 47.3078 37.8751 47.3922 37.8113L47.9074 37.4245L46.9835 36.1874L46.4119 36.7605C46.3698 36.8025 46.3366 36.8525 46.3142 36.9075C46.2917 36.9625 46.2806 37.0215 46.2813 37.0809C46.282 37.1403 46.2946 37.1989 46.3184 37.2534C46.3422 37.3078 46.3766 37.357 46.4197 37.3979Z" fill="#7F3E3B"/>
<path d="M34.8112 30.2506L34.9552 29.7166C34.9793 29.6537 35.0225 29.6001 35.0787 29.563C35.1348 29.5259 35.2012 29.5073 35.2684 29.5099C35.4724 29.5015 35.6761 29.5329 35.8682 29.6022L36.6825 29.9029L36.6434 30.2349C36.6105 30.5199 36.2926 30.758 35.9324 30.7689C35.6906 30.7721 35.4493 30.7464 35.2136 30.6922L35.1259 30.6734C35.076 30.6699 35.0274 30.6556 34.9835 30.6316C34.9396 30.6076 34.9014 30.5743 34.8715 30.5342C34.8416 30.4941 34.8208 30.4479 34.8104 30.399C34.7999 30.35 34.8002 30.2994 34.8112 30.2506Z" fill="#7F3E3B"/>
<path d="M21.9849 22.8798C22.5064 22.2737 23.291 20.6999 21.8158 20.0986C20.7274 19.6538 18.4176 19.8809 17.0912 21.9464C16.1845 22.2596 15.9167 24.2766 18.0104 24.701C20.1042 25.1254 21.9849 22.8798 21.9849 22.8798Z" fill="#263238"/>
<path d="M26.7161 61.7399L24.3232 61.9388L24.7288 64.7513L26.7286 64.5884L26.7161 61.7399Z" fill="#FFC3BD"/>
<path opacity="0.2" d="M26.7157 61.7415L24.3213 61.9403L24.5499 63.5157L26.7235 63.3356L26.7157 61.7415Z" fill="black"/>
<path d="M22.1411 53.4605C21.2015 49.8587 18.7679 45.571 20.3104 42.1054L27.0145 42.0851C27.0145 42.0851 27.1805 49.2182 27.2274 52.5773C27.2744 56.0898 26.9816 62.6983 26.9816 62.6983L24.2395 62.9066C24.2395 62.9066 22.3603 57.4992 22.1411 53.4605Z" fill="#407BFF"/>
<path d="M24.1041 63.0146L27.0669 62.797C27.0922 62.7948 27.1159 62.7837 27.1337 62.7656C27.1515 62.7475 27.1623 62.7236 27.164 62.6983L27.2267 61.6021C27.2277 61.5869 27.2254 61.5716 27.2198 61.5574C27.2143 61.5432 27.2057 61.5304 27.1946 61.52C27.1835 61.5095 27.1703 61.5016 27.1558 61.4968C27.1413 61.4921 27.1259 61.4906 27.1108 61.4925L23.8222 61.9294C23.8073 61.931 23.7929 61.9359 23.78 61.9438C23.7672 61.9517 23.7563 61.9623 23.7481 61.9748C23.7398 61.9874 23.7345 62.0017 23.7324 62.0165C23.7303 62.0314 23.7316 62.0466 23.7361 62.0609L23.996 62.941C24.0033 62.9636 24.0179 62.983 24.0374 62.9964C24.057 63.0097 24.0805 63.0161 24.1041 63.0146Z" fill="#263238"/>
<path opacity="0.2" d="M20.2867 45.5146C20.2607 46.3653 20.2953 47.2167 20.39 48.0625C20.7173 49.1947 21.1355 50.3285 21.5113 51.4278C22.003 48.3146 22.0046 44.6862 20.2867 45.5146Z" fill="black"/>
<path d="M17.8585 61.9154L15.4563 61.9389L15.4531 64.7733L17.4607 64.7577L17.8585 61.9154Z" fill="#FFC3BD"/>
<path d="M15.2638 64.338C15.2662 64.3222 15.2718 64.3071 15.2804 64.2936C15.2889 64.2802 15.3002 64.2686 15.3135 64.2598C15.3268 64.2509 15.3417 64.245 15.3575 64.2423C15.3732 64.2395 15.3893 64.2402 15.4048 64.244C16.0077 64.4836 17.1509 64.3004 17.5831 64.2174C17.6308 64.2076 17.68 64.2076 17.7277 64.2176C17.7754 64.2276 17.8205 64.2472 17.8603 64.2754C18.2138 64.5022 18.5969 64.6792 18.9987 64.8015C19.085 65.032 19.1066 65.2816 19.0614 65.5235H15.0117C15.126 65.1353 15.2103 64.739 15.2638 64.338Z" fill="#263238"/>
<path d="M24.464 64.338C24.4664 64.3222 24.472 64.3071 24.4806 64.2936C24.4891 64.2802 24.5004 64.2686 24.5137 64.2598C24.527 64.2509 24.5419 64.245 24.5577 64.2423C24.5734 64.2395 24.5895 64.2402 24.605 64.244C25.2079 64.4836 26.3511 64.3004 26.7833 64.2174C26.831 64.2076 26.8802 64.2076 26.9279 64.2176C26.9756 64.2276 27.0207 64.2472 27.0605 64.2754C27.5209 64.6011 28.7486 64.8015 28.7486 64.8015C28.8348 65.032 28.856 65.2818 28.8097 65.5235H24.2119C24.3262 65.1353 24.4105 64.739 24.464 64.338Z" fill="#263238"/>
<path opacity="0.2" d="M17.8585 61.9169L15.4547 61.9388L15.4531 63.5267L17.6361 63.5079L17.8585 61.9169Z" fill="black"/>
<path d="M15.1176 52.2954C14.7919 48.6576 13.7709 43.7576 14.9297 42.0851H22.7754C22.7754 42.0851 21.1765 49.3388 20.5203 52.6963C19.8391 56.1869 17.8801 62.8893 17.8801 62.8893L15.2821 62.8972C15.2821 62.8972 14.2971 56.4484 15.1176 52.2954Z" fill="#407BFF"/>
<path opacity="0.2" d="M15.5889 62.1534C15.572 62.1532 15.5556 62.1476 15.5421 62.1375C15.5286 62.1273 15.5187 62.1132 15.5137 62.097C15.3274 61.4706 15.3571 54.2749 15.8269 52.3049C15.8269 52.0449 15.7721 51.5344 15.7095 50.8876C15.4949 48.6953 15.0972 44.6237 15.6907 42.3138C15.6959 42.2931 15.7091 42.2752 15.7274 42.2642C15.7458 42.2532 15.7678 42.2499 15.7885 42.2551C15.8093 42.2603 15.8272 42.2735 15.8382 42.2919C15.8492 42.3102 15.8525 42.3322 15.8473 42.353C15.26 44.6378 15.6562 48.6937 15.8692 50.8736C15.9334 51.5313 15.9851 52.0496 15.9882 52.3127C15.989 52.3195 15.989 52.3263 15.9882 52.3331C15.5372 54.1966 15.4934 61.4472 15.675 62.0532C15.6809 62.0729 15.6788 62.0942 15.6691 62.1123C15.6594 62.1305 15.643 62.1441 15.6233 62.1503C15.6124 62.1546 15.6004 62.1557 15.5889 62.1534Z" fill="white"/>
<path d="M15.102 62.9943H18.0445C18.068 62.995 18.091 62.9871 18.1092 62.9721C18.1273 62.9572 18.1394 62.9361 18.1432 62.9129L18.3374 61.8683C18.3402 61.8525 18.3394 61.8363 18.3351 61.8208C18.3309 61.8053 18.3232 61.791 18.3127 61.7789C18.3022 61.7667 18.2891 61.7571 18.2744 61.7506C18.2597 61.7441 18.2438 61.741 18.2277 61.7415L15.0237 61.884C15.0102 61.8844 14.9969 61.8875 14.9846 61.8932C14.9724 61.899 14.9614 61.9072 14.9525 61.9173C14.9435 61.9274 14.9367 61.9393 14.9326 61.9521C14.9284 61.965 14.9269 61.9786 14.9282 61.9921L14.994 62.8941C14.9963 62.9212 15.0087 62.9465 15.0286 62.9651C15.0486 62.9836 15.0748 62.994 15.102 62.9943Z" fill="#263238"/>
<path d="M25.4404 29.4147C25.597 30.0411 25.7411 30.6675 25.8804 31.2939C26.0198 31.9203 26.1513 32.5467 26.2735 33.1731L26.4614 34.1127L26.6368 35.0523C26.7574 35.6787 26.8639 36.3144 26.9735 36.9471L26.7182 36.3755C26.7524 36.4927 26.8259 36.5945 26.9265 36.6637C27.127 36.7991 27.3529 36.8923 27.5905 36.9377C27.9072 37.0108 28.2303 37.0533 28.5552 37.0646C28.729 37.074 28.9075 37.0802 29.0876 37.0771C29.1769 37.0771 29.2677 37.0771 29.3585 37.0771C29.4493 37.0771 29.548 37.0771 29.6106 37.0771L29.833 37.0927C30.0201 37.1048 30.1982 37.1773 30.3405 37.2994C30.4828 37.4214 30.5816 37.5865 30.6219 37.7696C30.6622 37.9527 30.6419 38.144 30.564 38.3145C30.4861 38.4851 30.3548 38.6257 30.1901 38.7151C30.0648 38.784 29.9755 38.8357 29.869 38.8905C29.7625 38.9453 29.6639 38.9923 29.5558 39.0471C29.346 39.1379 29.1314 39.2241 28.9091 39.2961C28.6834 39.37 28.4539 39.4317 28.2216 39.4809C27.9769 39.5297 27.7296 39.5642 27.4809 39.5842C27.2122 39.6034 26.9424 39.5992 26.6744 39.5717C26.3766 39.5467 26.083 39.4846 25.8006 39.3869C25.4837 39.2813 25.1828 39.1328 24.9064 38.9453C24.6149 38.7434 24.3552 38.499 24.1359 38.2203C24.0413 38.1027 23.9711 37.9675 23.9292 37.8225L23.8807 37.6487C23.7084 37.0317 23.5314 36.4162 23.3686 35.7961L23.1196 34.869L22.8831 33.9388C22.7265 33.3124 22.5699 32.6954 22.4274 32.0722C22.2849 31.4489 22.1424 30.8194 22.0187 30.193C21.93 29.7447 22.0198 29.2796 22.2689 28.8966C22.518 28.5135 22.9067 28.2428 23.3523 28.142C23.798 28.0412 24.2654 28.1183 24.6551 28.3568C25.0447 28.5954 25.3259 28.9766 25.4388 29.4194L25.4404 29.4147Z" fill="#FFC3BD"/>
<path d="M29.502 37.2322L29.5348 38.2438C29.9436 39.2257 31.1149 38.4803 31.1149 38.4803L31.8228 38.3503C31.946 38.3189 32.0542 38.2449 32.1281 38.1415C32.202 38.038 32.237 37.9117 32.2268 37.785L32.208 37.0771C32.2127 36.931 32.1602 36.7888 32.0616 36.6809C31.963 36.5729 31.8262 36.5078 31.6803 36.4993L31.0539 36.5118C30.8711 36.5149 30.6919 36.5634 30.5324 36.6527L29.502 37.2322Z" fill="#FFC3BD"/>
<path d="M24.2413 27.6702C25.682 28.4281 26.6231 31.1028 26.6231 31.1028C26.3193 32.3556 25.0947 34.6404 23.961 34.6263C23.961 34.6263 22.2963 32.4793 22.1162 30.9259C21.897 29.0482 21.3285 26.1386 24.2413 27.6702Z" fill="#263238"/>
<path d="M22.91 27.2254C20.6866 27.014 18.4466 27.0497 16.231 27.3319C14.9501 27.512 14.0386 28.3091 14.1952 30.9337C14.5084 36.2581 14.023 40.408 14.6995 42.3216C14.6995 42.3216 24.5527 45.1404 27.3621 42.439C28.0449 36.0326 25.746 30.7144 24.6999 28.5017C24.5361 28.1533 24.2854 27.8529 23.972 27.6294C23.6585 27.4058 23.2928 27.2667 22.91 27.2254Z" fill="#263238"/>
<path d="M22.1698 27.8078C21.9146 27.5573 21.6468 27.7029 21.5231 27.3255C21.4685 27.0292 21.5183 26.7232 21.664 26.4595L18.6244 24.8184C18.6839 25.9365 18.7293 26.8197 18.2329 27.2644C18.0888 28.0976 19.6423 28.9291 21.711 28.9416C23.028 28.9495 22.5378 28.168 22.1698 27.8078Z" fill="#FFC3BD"/>
<path opacity="0.2" d="M21.6188 26.5536L19.2197 25.9539C19.8258 26.9075 20.9173 27.429 21.5045 27.1988C21.4877 26.9776 21.527 26.7557 21.6188 26.5536Z" fill="black"/>
<path d="M20.6258 21.0821C19.0378 20.7298 17.666 22.0483 17.973 23.4859C18.2799 24.9235 18.5226 25.8944 19.517 26.383C21.4933 27.3571 22.458 26.4175 22.6193 24.9157C22.7649 23.5626 22.2372 21.4376 20.6258 21.0821Z" fill="#FFC3BD"/>
<path opacity="0.2" d="M20.3133 23.6346C20.1267 23.5879 19.9293 23.6165 19.7637 23.7144C19.9504 23.7243 20.1372 23.6971 20.3133 23.6346Z" fill="black"/>
<path opacity="0.2" d="M20.3253 23.7676C20.2375 23.7635 20.1499 23.7788 20.0687 23.8123C19.9875 23.8459 19.9147 23.8969 19.8555 23.9618C20.0243 23.932 20.1846 23.8657 20.3253 23.7676Z" fill="black"/>
<path d="M18.173 24.7009C19.0609 24.8998 19.4258 24.4551 19.4258 23.9571C19.4258 23.4278 18.9263 22.5336 18.3782 22.3692C18.5739 21.1947 21.8108 22.839 21.5023 21.2119C21.5023 21.2119 21.4146 20.9332 20.5784 20.7766C19.7422 20.62 17.5075 21.1242 17.6641 22.7951C17.8207 24.466 18.173 24.7009 18.173 24.7009Z" fill="#263238"/>
<path d="M17.042 22.0295C17.2593 21.5934 17.3207 21.096 17.2158 20.6201C17.2158 20.6201 18.1899 21.2637 17.042 22.0295Z" fill="#263238"/>
<path d="M21.127 25.1474C21.1934 25.1424 21.2594 25.1325 21.3243 25.1177C21.3294 25.1166 21.3342 25.1145 21.3384 25.1115C21.3426 25.1085 21.3462 25.1048 21.349 25.1004C21.3518 25.096 21.3536 25.0912 21.3545 25.0861C21.3554 25.081 21.3552 25.0757 21.3541 25.0707C21.3532 25.0656 21.3512 25.0606 21.3483 25.0563C21.3454 25.0519 21.3416 25.0482 21.3372 25.0454C21.3328 25.0426 21.3278 25.0408 21.3226 25.04C21.3174 25.0392 21.3122 25.0396 21.3071 25.041C21.1445 25.0806 20.9748 25.0817 20.8117 25.0442C20.6486 25.0067 20.4965 24.9316 20.3675 24.8248C20.3639 24.8211 20.3595 24.818 20.3546 24.816C20.3498 24.8139 20.3446 24.8129 20.3393 24.8129C20.3341 24.8129 20.3289 24.8139 20.324 24.816C20.3192 24.818 20.3148 24.8211 20.3111 24.8248C20.3039 24.8324 20.2998 24.8425 20.2998 24.853C20.2998 24.8635 20.3039 24.8736 20.3111 24.8812C20.4227 24.9774 20.5523 25.0505 20.6924 25.0962C20.8324 25.1419 20.9802 25.1593 21.127 25.1474Z" fill="#263238"/>
<path d="M17.6114 24.77C17.7131 24.9077 17.8409 25.024 17.9877 25.1122C18.1344 25.2003 18.2971 25.2586 18.4665 25.2836C18.9222 25.3462 19.0929 24.925 18.9175 24.5272C18.7609 24.1686 18.3349 23.7051 17.9027 23.8241C17.4705 23.9431 17.364 24.427 17.6114 24.77Z" fill="#FFC3BD"/>
<path d="M20.5729 23.6501C20.5917 23.777 20.6731 23.8709 20.7561 23.8584C20.8391 23.8459 20.8923 23.7315 20.8735 23.6047C20.8547 23.4779 20.7749 23.3855 20.6919 23.398C20.6089 23.4105 20.5619 23.517 20.5729 23.6501Z" fill="#263238"/>
<path d="M22.0648 23.4498C22.0836 23.5782 22.165 23.6706 22.248 23.6581C22.331 23.6455 22.3842 23.5328 22.3654 23.4059C22.3466 23.2791 22.2668 23.1851 22.1838 23.1977C22.1008 23.2102 22.0475 23.3229 22.0648 23.4498Z" fill="#263238"/>
<path d="M21.501 23.6173L21.573 24.6916C21.573 24.6916 21.9254 24.7527 22.1164 24.5491C21.9951 24.1906 21.7831 23.8696 21.501 23.6173Z" fill="#ED847E"/>
<path d="M20.0802 23.3606C20.0674 23.3641 20.0539 23.3641 20.0411 23.3605C20.0283 23.3569 20.0167 23.3499 20.0075 23.3403C19.9984 23.3307 19.992 23.3187 19.9891 23.3058C19.9862 23.2928 19.9868 23.2793 19.991 23.2667C20.0208 23.1502 20.0777 23.0426 20.1572 22.9524C20.2367 22.8623 20.3365 22.7924 20.4482 22.7483C20.4671 22.7424 20.4876 22.7442 20.5052 22.7533C20.5228 22.7623 20.5361 22.778 20.5422 22.7969C20.5482 22.816 20.5464 22.8366 20.5374 22.8545C20.5283 22.8723 20.5126 22.8859 20.4937 22.8924C20.4054 22.9284 20.3269 22.9847 20.2646 23.0569C20.2022 23.129 20.1579 23.2148 20.135 23.3074C20.1315 23.3203 20.1245 23.3321 20.1149 23.3415C20.1053 23.3508 20.0933 23.3574 20.0802 23.3606Z" fill="#263238"/>
<path d="M22.5543 22.8799C22.5419 22.881 22.5295 22.8789 22.5182 22.8736C22.5069 22.8684 22.4972 22.8603 22.4901 22.8501C22.4365 22.7723 22.365 22.7085 22.2816 22.6641C22.1982 22.6197 22.1054 22.596 22.0109 22.5949C21.9902 22.5949 21.9702 22.5866 21.9556 22.5719C21.9409 22.5572 21.9326 22.5373 21.9326 22.5166C21.9326 22.4958 21.9409 22.4759 21.9556 22.4612C21.9702 22.4465 21.9902 22.4383 22.0109 22.4383C22.1302 22.4373 22.248 22.4653 22.3541 22.5199C22.4602 22.5744 22.5514 22.6539 22.6201 22.7515C22.6258 22.7595 22.63 22.7686 22.6322 22.7782C22.6345 22.7878 22.6348 22.7977 22.6332 22.8075C22.6316 22.8172 22.6281 22.8266 22.6229 22.8349C22.6177 22.8433 22.6109 22.8506 22.6029 22.8564C22.5968 22.8634 22.5894 22.8692 22.581 22.8732C22.5727 22.8772 22.5636 22.8795 22.5543 22.8799Z" fill="#263238"/>
<path d="M31.6799 33.1214C31.352 33.1445 31.0358 33.2524 30.7622 33.4346L30.4788 29.8328C30.4556 29.5526 30.3226 29.293 30.1087 29.1105C29.8948 28.928 29.6175 28.8375 29.3372 28.8588L18.8246 29.6872C18.5446 29.7107 18.2852 29.8439 18.1028 30.0576C17.9204 30.2714 17.8298 30.5485 17.8506 30.8288L18.6806 41.3413C18.7029 41.6218 18.8357 41.8819 19.0498 42.0646C19.2639 42.2472 19.5417 42.3374 19.8222 42.3154L30.3331 41.4854C30.6136 41.4626 30.8736 41.3297 31.0564 41.1158C31.2392 40.9019 31.3299 40.6243 31.3087 40.3438L31.0237 36.7498C31.3222 36.8897 31.6521 36.9491 31.9806 36.9221C32.4524 36.8426 32.8774 36.5893 33.1717 36.2121C33.466 35.8349 33.6083 35.361 33.5706 34.884C33.5329 34.4071 33.3178 33.9615 32.9678 33.6352C32.6179 33.309 32.1583 33.1256 31.6799 33.1214Z" fill="#407BFF"/>
<path d="M16.4365 31.6839L16.2799 31.972L16.0998 32.2946C15.9839 32.5139 15.8649 32.7331 15.7569 32.9555C15.5397 33.3888 15.3453 33.8331 15.1743 34.2866C15.0913 34.5058 15.0177 34.7235 14.9629 34.938C14.9004 35.1434 14.8512 35.3527 14.8157 35.5644C14.75 35.905 14.7389 36.2539 14.7828 36.598L14.4226 35.9716C14.5726 36.1773 14.7514 36.3603 14.9535 36.515C15.2192 36.727 15.498 36.9221 15.7882 37.0991C16.0904 37.2933 16.4146 37.4796 16.7403 37.666L17.2383 37.9432C17.3949 38.0371 17.5828 38.1311 17.7316 38.2219L17.8067 38.2673C17.973 38.3681 18.1015 38.5207 18.1725 38.7017C18.2435 38.8826 18.253 39.0819 18.1996 39.2688C18.1462 39.4557 18.0328 39.6199 17.8769 39.7361C17.7211 39.8522 17.5313 39.9139 17.3369 39.9116C17.0989 39.9116 16.8953 39.896 16.6761 39.8787C16.4569 39.8615 16.2486 39.8349 16.0356 39.8004C15.6028 39.7354 15.1744 39.6434 14.7531 39.5248C14.3071 39.3998 13.8724 39.238 13.4533 39.0409C12.9579 38.8128 12.5026 38.506 12.105 38.1327C11.9619 37.9962 11.8544 37.8269 11.7918 37.6394L11.7479 37.5047C11.5027 36.7609 11.4111 35.9751 11.4786 35.1948C11.5318 34.5152 11.662 33.8437 11.8669 33.1935C12.0577 32.5825 12.2943 31.9868 12.5748 31.4114C12.711 31.1295 12.8504 30.8508 13.007 30.5799C13.0837 30.4436 13.1636 30.3074 13.245 30.1727L13.3734 29.9691L13.4407 29.8658L13.5222 29.7452C13.7738 29.3645 14.1639 29.097 14.6097 28.9995C15.0554 28.902 15.5217 28.9822 15.9092 29.2231C16.2967 29.464 16.575 29.8465 16.6849 30.2894C16.7948 30.7323 16.7276 31.2005 16.4976 31.5946L16.4365 31.6839Z" fill="#FFC3BD"/>
<path d="M15.2136 27.6702C12.6172 29.0577 11.6494 32.1568 11.6494 32.1568C12.1631 33.1355 15.2606 34.1926 16.4257 33.9044C16.4257 33.9044 17.5423 31.8686 17.7725 30.0489C17.9854 28.3624 16.7342 26.8574 15.2136 27.6702Z" fill="#263238"/>
<path d="M17.0303 38.3941L17.0835 39.4057C17.5126 40.3798 18.6683 39.6109 18.6683 39.6109L19.3746 39.4668C19.4971 39.433 19.6036 39.3569 19.6753 39.2519C19.747 39.147 19.7792 39.02 19.7661 38.8936L19.7347 38.1874C19.7386 38.0403 19.6847 37.8977 19.5846 37.7899C19.4844 37.6822 19.3461 37.618 19.1992 37.6111L18.5728 37.6361C18.3897 37.6445 18.2115 37.6983 18.0544 37.7927L17.0303 38.3941Z" fill="#FFC3BD"/>
</g>
<defs>
<clipPath id="clip0_92_3214">
<rect width="78.2998" height="78.2998" fill="white" transform="translate(0.830078 0.340088)"/>
</clipPath>
</defs>
</svg>
