<svg width="24" height="24" viewBox="0 0 24 24" fill="none" xmlns="http://www.w3.org/2000/svg">
<g clip-path="url(#clip0_804_2101)">
<path d="M11.9996 13.7143C14.3665 13.7143 16.2853 11.7955 16.2853 9.42854C16.2853 7.0616 14.3665 5.14282 11.9996 5.14282C9.63265 5.14282 7.71387 7.0616 7.71387 9.42854C7.71387 11.7955 9.63265 13.7143 11.9996 13.7143Z" stroke="#6F6F6F" stroke-width="1.71429" stroke-linecap="round" stroke-linejoin="round"/>
<path d="M4.67871 20.3997C5.44369 19.144 6.51884 18.1062 7.80079 17.3862C9.08273 16.666 10.5284 16.2877 11.9987 16.2877C13.4691 16.2877 14.9147 16.666 16.1966 17.3862C17.4786 18.1062 18.5537 19.144 19.3187 20.3997" stroke="#6F6F6F" stroke-width="1.71429" stroke-linecap="round" stroke-linejoin="round"/>
<path d="M11.9998 23.1428C18.1539 23.1428 23.1426 18.154 23.1426 11.9999C23.1426 5.84588 18.1539 0.857056 11.9998 0.857056C5.84576 0.857056 0.856934 5.84588 0.856934 11.9999C0.856934 18.154 5.84576 23.1428 11.9998 23.1428Z" stroke="#6F6F6F" stroke-width="1.71429" stroke-linecap="round" stroke-linejoin="round"/>
</g>
<defs>
<clipPath id="clip0_804_2101">
<rect width="24" height="24" fill="white"/>
</clipPath>
</defs>
</svg>
