<svg width="24" height="24" viewBox="0 0 24 24" fill="none" xmlns="http://www.w3.org/2000/svg">
<g clip-path="url(#clip0_183_1623)">
<path d="M11.9996 13.714C14.3665 13.714 16.2853 11.7952 16.2853 9.42829C16.2853 7.06136 14.3665 5.14258 11.9996 5.14258C9.63265 5.14258 7.71387 7.06136 7.71387 9.42829C7.71387 11.7952 9.63265 13.714 11.9996 13.714Z" stroke="#6F6F6F" stroke-width="1.71429" stroke-linecap="round" stroke-linejoin="round"/>
<path d="M4.67871 20.3996C5.44369 19.1439 6.51884 18.106 7.80079 17.386C9.08273 16.6658 10.5284 16.2876 11.9987 16.2876C13.4691 16.2876 14.9147 16.6658 16.1966 17.386C17.4786 18.106 18.5537 19.1439 19.3187 20.3996" stroke="#6F6F6F" stroke-width="1.71429" stroke-linecap="round" stroke-linejoin="round"/>
<path d="M11.9993 23.1426C18.1534 23.1426 23.1422 18.1539 23.1422 11.9998C23.1422 5.84576 18.1534 0.856934 11.9993 0.856934C5.84527 0.856934 0.856445 5.84576 0.856445 11.9998C0.856445 18.1539 5.84527 23.1426 11.9993 23.1426Z" stroke="#6F6F6F" stroke-width="1.71429" stroke-linecap="round" stroke-linejoin="round"/>
</g>
<defs>
<clipPath id="clip0_183_1623">
<rect width="24" height="24" fill="white"/>
</clipPath>
</defs>
</svg>
